<svg width="21" height="19" viewBox="0 0 21 19" fill="none" xmlns="http://www.w3.org/2000/svg">
<g id="Frame">
<path id="Vector" d="M11.3744 0.713523C11.4264 0.655523 11.4074 0.483523 11.4154 0.436523C11.3234 0.606523 11.3774 0.762523 11.3744 0.713523Z" fill="#FBED81"/>
<path id="Vector_2" d="M10.5855 2.32837L10.5225 2.71137L10.5925 2.43037L10.5855 2.32837Z" fill="#FBED81"/>
<path id="Vector_3" d="M10.2698 3.04798L10.3198 3.08398L10.2828 2.72998C10.1218 3.04198 9.99684 3.55298 9.83984 3.66198C10.0738 3.84198 10.0808 3.16098 10.2698 3.04798Z" fill="#FBED81"/>
<path id="Vector_4" d="M9.12047 3.62988C9.10739 3.63318 9.09396 3.63486 9.08047 3.63488C9.05074 3.68308 9.01731 3.72888 8.98047 3.77188C9.09747 3.82888 8.95847 4.02188 9.12047 3.62988Z" fill="#FBED81"/>
<path id="Vector_5" d="M9.07864 3.63504C8.94864 3.64504 9.16664 3.47904 9.07864 3.63504V3.63504Z" fill="#FBED81"/>
<path id="Vector_6" d="M8.71042 4.37954L8.74542 4.09654C8.66742 4.08054 8.54542 4.24854 8.54542 4.14154C8.46642 4.39754 8.55242 4.40454 8.71042 4.37954Z" fill="#FBED81"/>
<path id="Vector_7" d="M8.80376 4.60081C8.77076 4.59581 8.74576 4.61481 8.78376 4.73381L8.80376 4.60081Z" fill="#FBED81"/>
<path id="Vector_8" d="M8.83171 4.47745C8.89371 4.56545 8.84771 4.45645 8.85171 4.31445L8.80371 4.60145C8.85571 4.61045 8.93871 4.68645 8.83171 4.47745Z" fill="#FBED81"/>
<path id="Vector_9" d="M9.14901 4.35255C9.32501 3.96355 9.14901 3.82455 8.95801 4.22955C9.07301 4.17855 9.18001 4.08055 9.14901 4.35255Z" fill="#FBED81"/>
<path id="Vector_10" d="M9.98557 4.02483L10.1036 3.98583V3.77783C10.1056 3.88483 9.92657 3.94183 9.98557 4.02483Z" fill="#FBED81"/>
<path id="Vector_11" d="M8.16504 5.58887V5.86787C8.27104 5.68287 8.24104 5.61987 8.16504 5.58887Z" fill="#FBED81"/>
<path id="Vector_12" d="M9.0427 5.02186C9.03736 4.85386 9.03736 4.68186 9.0427 4.50586C9.0267 4.70586 9.0167 4.89786 9.0127 5.08686L9.0427 5.02186Z" fill="#FBED81"/>
<path id="Vector_13" d="M8.64149 5.20923L8.47949 5.48823L8.55449 5.38823L8.64149 5.20923Z" fill="#FBED81"/>
<path id="Vector_14" d="M8.04588 5.4862C8.02397 5.50477 7.99764 5.51739 7.96944 5.52282C7.94124 5.52825 7.91211 5.52631 7.88487 5.5172C7.93987 5.5682 8.08487 5.5532 8.16787 5.5892L8.17487 5.3982C8.14187 5.4172 8.10287 5.4472 8.06287 5.4742C8.10087 5.3382 7.91887 5.2742 7.98987 5.1792C7.85678 5.2459 7.7462 5.35021 7.67188 5.4792C7.7276 5.44238 7.79318 5.42334 7.85996 5.42459C7.92674 5.42584 7.99157 5.44732 8.04588 5.4862Z" fill="#FBED81"/>
<path id="Vector_15" d="M7.51953 5.658C7.57671 5.60419 7.6277 5.54415 7.67153 5.479C7.60819 5.52663 7.55626 5.58778 7.51953 5.658Z" fill="#FBED81"/>
<path id="Vector_16" d="M7.68359 6.28418L7.90659 6.29218L7.95059 6.21018C7.90342 6.20014 7.85452 6.20163 7.80804 6.21451C7.76156 6.22739 7.71887 6.25129 7.68359 6.28418Z" fill="#FBED81"/>
<path id="Vector_17" d="M7.90452 6.29199L7.85352 6.38199H7.85952L7.91152 6.29599L7.90452 6.29199Z" fill="#FBED81"/>
<path id="Vector_18" d="M7.9612 6.18921L7.9502 6.21021C7.9722 6.21121 7.9802 6.20921 7.9612 6.18921Z" fill="#FBED81"/>
<path id="Vector_19" d="M8.6194 5.43604C8.62407 5.54121 8.64051 5.64552 8.6684 5.74704C8.67324 5.7578 8.67892 5.76817 8.6854 5.77804L8.3674 6.00904C8.3184 5.99104 8.2474 5.98204 8.2314 5.90204V6.10204L7.8584 6.37303V6.37903L8.2354 6.10503V6.20504L8.3844 6.01203L8.3704 6.00704L8.6874 5.77704C8.7224 5.83004 8.7814 5.85003 8.8874 5.79603C8.8154 5.63603 8.6634 5.71704 8.6194 5.43604Z" fill="#FBED81"/>
<path id="Vector_20" d="M8.23957 6.34523V6.20923L8.18457 6.28123L8.23957 6.34523Z" fill="#FBED81"/>
<path id="Vector_21" d="M7.98812 5.95949C7.99612 5.89449 8.03112 5.77249 7.90412 5.79949C7.83075 5.88259 7.72995 5.93654 7.62012 5.95149C7.74153 5.97415 7.86583 5.97685 7.98812 5.95949Z" fill="#FBED81"/>
<path id="Vector_22" d="M8.35491 5.78662L8.33691 5.80062C8.35191 5.81562 8.36191 5.81962 8.35491 5.78662Z" fill="#FBED81"/>
<path id="Vector_23" d="M6.52441 6.10452L6.54741 6.13852V6.10352L6.52441 6.10452Z" fill="#FBED81"/>
<path id="Vector_24" d="M8.01299 5.9894C8.11299 6.0154 8.15499 5.9584 8.19699 5.8894C8.13039 5.92106 8.05971 5.94327 7.98699 5.9554C7.98499 5.9854 7.98599 6.0044 8.01299 5.9894Z" fill="#FBED81"/>
<path id="Vector_25" d="M7.22754 5.7967C7.28127 5.832 7.33859 5.8615 7.39854 5.8847C7.34454 5.8277 7.23654 5.7417 7.22754 5.7967Z" fill="#FBED81"/>
<path id="Vector_26" d="M8.29775 5.74962L8.30974 5.73862C8.27474 5.69962 8.28075 5.72062 8.29775 5.74962Z" fill="#FBED81"/>
<path id="Vector_27" d="M8.29824 5.74951C8.25795 5.79079 8.22422 5.83801 8.19824 5.88951C8.24892 5.86726 8.29582 5.83723 8.33724 5.80051C8.32219 5.78519 8.30909 5.76806 8.29824 5.74951Z" fill="#FBED81"/>
<path id="Vector_28" d="M6.9429 6.10147L7.0239 6.06547C6.89728 6.02585 6.78342 5.95339 6.6939 5.85547C6.5659 5.96747 6.5469 6.04047 6.5459 6.10447L6.9669 6.06947L6.9429 6.10147Z" fill="#FBED81"/>
<path id="Vector_29" d="M7.40539 6.0096C7.36839 6.2226 7.17739 6.3386 7.33439 6.5396C7.58139 6.4896 7.48439 6.3446 7.62039 6.2396C7.22539 6.3486 7.72039 6.1096 7.41239 6.0396C7.47743 6.00077 7.54786 5.97179 7.62139 5.9536C7.54588 5.94017 7.47187 5.91941 7.40039 5.8916L7.41139 5.9026C7.43239 5.9256 7.44039 5.9406 7.41939 5.9286C7.41939 5.9286 7.41339 5.9286 7.41139 5.9336C7.41234 5.96012 7.40999 5.98666 7.40439 6.0126C7.28239 5.9876 7.37839 5.9636 7.41139 5.9336V5.9026L7.02539 6.0716C7.15502 6.07812 7.28455 6.05699 7.40539 6.0096Z" fill="#FBED81"/>
<path id="Vector_30" d="M9.14756 6.25033C9.1311 6.25091 9.11491 6.24599 9.10156 6.23633C9.11056 6.27433 9.12056 6.29233 9.14756 6.25033Z" fill="#FBED81"/>
<path id="Vector_31" d="M8.49038 6.28905L8.44238 6.27905C8.44438 6.28805 8.46338 6.29005 8.49038 6.28905Z" fill="#FBED81"/>
<path id="Vector_32" d="M8.49023 6.28825C8.64616 6.32684 8.80672 6.34334 8.96723 6.33725C8.95623 6.29525 8.89823 6.22925 8.96123 6.15025C9.05123 6.10525 9.04323 6.20425 9.10223 6.23625C9.08223 6.15525 9.07423 5.96525 8.90223 6.08225L8.91223 6.12425C8.78705 6.21252 8.64217 6.26882 8.49023 6.28825Z" fill="#FBED81"/>
<path id="Vector_33" d="M8.39229 6.375L8.07129 6.523L8.27129 6.674L8.24729 6.574C8.44029 6.583 8.38029 6.459 8.39229 6.375Z" fill="#FBED81"/>
<path id="Vector_34" d="M6.48301 5.78857L6.33301 6.11957L6.46901 6.00957L6.48301 5.78857Z" fill="#FBED81"/>
<path id="Vector_35" d="M6.02969 5.91064L5.92969 6.03964L6.03969 6.09864L6.02969 5.91064Z" fill="#FBED81"/>
<path id="Vector_36" d="M5.53712 13.8568L5.74812 13.8478C5.73905 13.8057 5.7408 13.7619 5.75322 13.7207C5.76563 13.6794 5.78831 13.6419 5.81912 13.6118C5.62112 13.7208 5.32512 13.8388 5.53712 13.8568Z" fill="#FBED81"/>
<path id="Vector_37" d="M3.60742 9.60353C3.62833 9.7152 3.67527 9.82038 3.74442 9.91053C3.71842 9.72053 3.75542 9.50853 3.60742 9.60353Z" fill="#FBED81"/>
<path id="Vector_38" d="M14.9463 17.6818C14.973 17.6836 14.9997 17.6779 15.0234 17.6654C15.0471 17.6529 15.0668 17.634 15.0803 17.6108C15.0083 17.6128 14.9583 17.6308 14.9463 17.6818Z" fill="#FBED81"/>
<path id="Vector_39" d="M4.00314 10.1622C4.00314 10.1322 3.99314 10.1102 3.99014 10.0812C3.895 10.0459 3.81036 9.98704 3.74414 9.91016C3.76314 10.0512 3.81514 10.1792 4.00314 10.1622Z" fill="#FBED81"/>
<path id="Vector_40" d="M12.2506 2.15474C12.2269 2.09839 12.1894 2.04888 12.1416 2.01074C12.1818 2.05566 12.2183 2.10382 12.2506 2.15474Z" fill="#FBED81"/>
<path id="Vector_41" d="M4.27637 6.25925C4.28737 6.23425 4.36637 6.23225 4.27637 6.25925V6.25925Z" fill="#FBED81"/>
<path id="Vector_42" d="M4.42876 6.33597C4.38886 6.31526 4.34603 6.30076 4.30176 6.29297C4.34197 6.31294 4.38469 6.3274 4.42876 6.33597Z" fill="#FBED81"/>
<path id="Vector_43" d="M4.39551 6.24324L4.47951 6.25124C4.48551 6.21524 4.47251 6.19224 4.39551 6.24324Z" fill="#FBED81"/>
<path id="Vector_44" d="M4.14941 6.29414C4.19964 6.28464 4.25119 6.28464 4.30141 6.29414C4.28141 6.28314 4.27241 6.27214 4.27641 6.26514L4.14941 6.29414Z" fill="#FBED81"/>
<path id="Vector_45" d="M19.755 8.16687C19.8297 8.18859 19.909 8.18859 19.9837 8.16687L20.742 7.96709L19.6341 7.09005C19.2555 6.79038 18.3354 6.8673 18.2145 6.72046C18.0933 6.78689 17.9592 6.82653 17.8213 6.8367C17.6834 6.84687 17.545 6.82733 17.4153 6.7794C17.4803 6.84632 17.4793 7.15798 17.2315 7.07907C17.4163 6.46274 16.8069 6.73844 16.6681 6.25497C16.8069 6.58261 15.9358 6.22401 16.1616 6.69349C15.9618 6.61158 16.1836 6.45575 16.0447 6.28394C15.5062 6.45475 14.9588 5.96429 14.3244 5.9563C14.3114 6.00625 14.3334 6.07917 14.3244 6.15608C14.3184 6.15608 14.3124 6.15608 14.3054 6.14709C14.1181 5.44805 13.7976 4.79174 13.3614 4.21422C12.9162 3.54555 12.5731 2.81433 12.3434 2.04461C12.4103 2.36226 12.3314 2.26936 12.2505 2.15349C12.2925 2.27036 12.1986 2.35327 12.1806 2.47713C12.1086 2.21076 12.0274 1.94671 11.9368 1.685C11.8369 1.90776 11.5992 1.19354 11.5532 1.44427L11.6471 1.54416C11.5921 1.78377 11.5921 2.03274 11.6471 2.27236L11.4213 1.81386L8.90985 6.90226L7.21855 7.14799C7.23002 7.14676 7.24066 7.14144 7.24852 7.13301L7.22554 7.03312C7.11865 7.05509 7.05671 7.13301 7.12564 7.16597L6.82594 7.20992C6.98279 7.02513 6.771 6.45575 6.55222 6.14609C6.55821 6.228 6.5692 6.30292 6.37839 6.44576C6.46531 6.53666 6.8699 6.61757 6.72105 6.81136C6.46231 6.94721 6.48728 6.7784 6.34043 6.69848C6.4703 6.88927 6.14063 7.0471 6.14063 7.31281L4.4803 7.55454C4.48419 7.53969 4.48421 7.52409 4.48037 7.50923C4.47652 7.49436 4.46893 7.48073 4.45832 7.46964L4.31047 7.52757C4.13964 7.34477 4.55822 7.20393 4.35043 7.137C4.53624 6.96319 4.73404 6.70448 5.04074 6.7774L5.14064 7.05809C5.12744 7.03374 5.1088 7.01278 5.08617 6.99682C5.06354 6.98086 5.03753 6.97034 5.01016 6.96609C4.9828 6.96184 4.95482 6.96396 4.92842 6.97229C4.90201 6.98063 4.87788 6.99495 4.85792 7.01414C4.95782 6.8683 5.35742 7.33978 5.43734 6.94321L5.20457 6.7734C5.39038 6.5976 5.60417 6.25497 5.8729 6.30891C5.71406 6.04121 5.81796 6.34987 5.58719 6.04321C5.80597 6.43477 4.92685 6.12212 5.24453 6.51968C5.00078 6.16008 4.89588 6.40281 4.60317 6.10913C4.62415 6.20303 4.71606 6.27795 4.49328 6.26296C4.48551 6.29462 4.47376 6.32516 4.45832 6.35386H4.44234L4.45632 6.36385C4.44833 6.37984 4.44833 6.38183 4.45632 6.36385C4.51111 6.39376 4.55644 6.4384 4.58719 6.49271C4.51127 6.72645 4.16661 6.76941 4.06771 6.90026C3.93285 6.87329 4.10567 6.78339 4.02076 6.69149L3.87191 6.88628C3.82396 6.67851 3.4803 6.58661 3.76402 6.41679L3.49129 6.44676C3.37256 6.38047 3.23482 6.35652 3.10068 6.37884L0.313477 6.99416L2.34344 8.70827C2.38186 8.74205 2.42829 8.76544 2.47831 8.7762C2.53924 8.90006 2.8779 8.83513 2.6781 8.87609L3.0777 9.08186L3.04274 9.12282C3.32845 9.43847 3.91586 9.48042 3.99478 10.0947C4.16919 10.151 4.31812 10.2671 4.41536 10.4224L4.31546 10.5872C4.49129 10.6691 4.5812 11.1046 4.77201 11.0217C4.57221 11.5162 5.33444 11.721 5.50427 12.0096L5.68109 11.8458C5.79246 11.9579 5.92265 12.0495 6.06571 12.1165C5.91086 12.4801 6.35841 12.9646 6.01476 13.2493C6.04026 13.2876 6.04992 13.3342 6.04172 13.3795C6.03353 13.4248 6.00811 13.4651 5.9708 13.492C5.97132 13.4825 5.96888 13.4731 5.96381 13.465C5.95911 13.4783 5.95576 13.492 5.95382 13.506C5.91086 13.544 5.86091 13.5819 5.81796 13.6259C5.86768 13.6005 5.91263 13.5667 5.95082 13.526C5.94188 13.6348 5.95202 13.7443 5.98079 13.8496L5.74703 13.8596V13.8876C5.64713 13.9875 5.83794 13.9965 6.01875 13.9655C6.04485 14.0297 6.08205 14.0889 6.12864 14.1403C5.74902 14.1703 6.19957 14.4629 5.78998 14.5219C5.96581 14.6318 5.83294 15.1212 6.22155 15.2531C6.1686 15.2531 6.13764 15.278 6.14563 15.2151C6.0777 15.336 6.01076 15.4558 6.10367 15.5897H5.80397L6.14163 15.9353C5.94183 16.0752 5.82395 16.1281 5.63314 15.9213C5.90287 16.3868 5.70407 16.2739 5.98179 16.6775L5.79897 16.6286C5.78499 16.7534 5.99877 16.9942 5.83294 17.0421C5.7825 17.0709 5.73968 17.1113 5.70807 17.16L5.15662 17.9591L6.70806 17.8822C7.15661 17.8602 7.88888 17.2469 8.58518 17.2099C8.20356 16.7844 8.99677 17.2738 8.82294 16.8803C8.92284 16.9802 9.04472 16.9962 8.99377 17.151C9.2595 16.8663 9.57918 17.0781 9.63613 16.6395C9.73603 16.7394 9.65611 16.8453 9.72504 16.8973C9.73802 16.8583 9.77499 16.7414 9.84591 16.7974C9.91684 16.8533 9.84592 16.9202 9.82394 16.9972C10.1466 16.8024 9.99177 16.4278 9.83992 16.0792C10.0927 16.1491 10.1646 16.0792 10.1706 15.7985C10.2875 15.8774 10.4453 15.9403 10.2585 16.0892C10.3834 16.0442 11.0577 15.8764 10.9238 15.6017C10.9958 15.6506 11.0967 15.5358 11.1106 15.4888C11.2541 15.4329 11.3944 15.3696 11.5312 15.299C11.8139 15.6486 11.76 15.2581 12.0667 15.7395L12.1476 15.5238C12.4193 15.1132 12.4273 15.9973 12.785 15.9743L12.748 15.8075C12.9738 15.7375 12.8479 16.6156 12.9718 16.7474C12.9848 16.8024 12.8889 16.7814 12.8289 16.7854C13.0837 17.2459 13.0177 16.5476 13.3404 16.6395C13.3194 16.8104 13.0807 16.9662 13.2625 17.095C13.2995 17.2609 14.0727 16.9292 14.1956 17.3438C14.1956 17.2029 14.1956 17.0621 14.3724 17.0511C14.5991 17.121 14.713 17.7593 15.0817 17.5116C15.0916 17.5467 15.0887 17.5842 15.0737 17.6175C15.2785 17.6105 15.6651 17.7383 15.8589 17.6005C15.786 17.8562 15.8879 17.9621 16.0447 18.013L17.764 18.5674L17.2525 17.136C17.1406 16.8223 16.711 16.4667 17.1905 16.3868L17.0597 15.8524H17.1356C17.1379 15.7311 17.1 15.6125 17.0277 15.515C16.9554 15.4176 16.8528 15.3469 16.736 15.314C16.771 15.2251 16.8479 15.273 16.8869 15.273C16.9448 14.7436 16.9058 14.6977 16.4763 14.3351L16.701 14.2512C16.5462 14.1593 16.9398 13.458 16.5842 13.0095C16.6254 13.0075 16.6659 13.0207 16.698 13.0465C16.3624 12.581 16.9798 11.7659 16.4273 11.5801C16.5532 11.4862 16.6731 11.3803 16.772 11.4902C17.4373 10.811 18.2705 10.3415 18.9238 9.73414L18.6081 9.55734L18.8439 9.35756C18.9588 9.35756 19.1126 9.47543 18.9438 9.62027C19.1646 9.6802 19.0946 9.24268 19.0437 9.18375C19.4523 8.98397 19.2055 9.5923 19.3064 9.5054L19.4173 9.36056H19.3594C19.3654 9.16078 19.2695 9.03991 19.4713 8.8611C19.6411 8.79318 19.683 8.955 19.74 8.91804C19.757 8.93602 19.7809 8.92903 19.8199 8.85411L20.1196 8.60239L19.8199 8.51449C19.8579 8.29273 20.1016 8.26376 19.755 8.16687ZM6.51126 12.587L6.67809 12.5391L6.55322 12.2114C6.71206 12.3193 6.94183 12.5031 7.17559 12.7029L7.09168 13.1943C6.84689 13.048 6.64631 12.8382 6.51126 12.587ZM6.38239 10.8889C6.39324 10.8526 6.41087 10.8187 6.43434 10.789L6.6721 11.0217L6.42435 11.2854L6.70507 11.0547L6.93883 11.2814C6.80759 11.4241 6.66121 11.5521 6.50227 11.663L6.45931 11.5292L6.43034 11.5831C6.38159 11.3541 6.36545 11.1194 6.38239 10.8859V10.8889ZM14.3204 6.17306C14.3153 6.19706 14.3056 6.21982 14.2917 6.24005C14.2778 6.26027 14.2601 6.27756 14.2395 6.29093L14.0607 5.98427L14.3204 6.17306ZM6.79098 7.20892L6.44133 7.25987C6.46053 7.23325 6.48484 7.21071 6.51283 7.19356C6.54082 7.17642 6.57193 7.165 6.60437 7.15999C6.63681 7.15497 6.66992 7.15644 6.70179 7.16433C6.73365 7.17222 6.76363 7.18636 6.78998 7.20593L6.79098 7.20892ZM6.3694 7.25687V7.27085H6.34543L6.3694 7.25687ZM3.29249 6.5976L3.28649 6.60958C3.12266 6.54066 3.1806 6.56863 3.29149 6.5956L3.29249 6.5976ZM3.6801 8.92903C3.36841 8.76321 3.75602 8.64035 3.67411 8.64035C3.31147 8.19983 2.89888 8.64035 2.68809 8.33468L1.61817 6.7734L3.16562 6.8643C3.21941 6.86896 3.27224 6.88141 3.32246 6.90126C3.56721 7.12402 3.40438 7.40071 3.4773 7.57852C3.41627 7.61172 3.34661 7.62566 3.2775 7.61847L3.10667 7.60049L3.22256 7.78829C3.30747 7.92513 3.29748 8.09894 3.39838 8.18785L3.31746 7.94012C3.44034 7.94012 3.61716 8.02303 3.63714 8.14589C3.63901 8.10619 3.63076 8.06666 3.61317 8.03102L4.54323 8.93702C4.26269 9.03365 3.95733 9.03012 3.6791 8.92703L3.6801 8.92903ZM5.44033 10.1047C5.49316 10.0552 5.53179 9.99242 5.55222 9.92294L5.75202 10.1147C5.64767 10.1358 5.53978 10.1317 5.43734 10.1027L5.44033 10.1047ZM6.60517 16.0352L6.56621 16.265L6.18858 15.9653C6.32405 16.0038 6.46349 16.0266 6.60417 16.0332L6.60517 16.0352ZM9.83293 15.8794C9.76999 15.8564 9.75501 15.7465 9.75001 15.6057C9.73913 15.6384 9.73012 15.6718 9.72304 15.7056C9.69373 15.6986 9.66637 15.6851 9.64302 15.6661C9.61966 15.6471 9.60091 15.623 9.58817 15.5957L9.74701 15.5118V15.6117L9.78697 15.4928L9.8589 15.4548C9.93216 15.497 10.0079 15.5347 10.0857 15.5677L9.83293 15.8794ZM17.0377 16.1341C16.9938 16.1685 16.9571 16.2113 16.9298 16.26L16.9158 16.222L17.0377 16.1341ZM16.0387 12.2554L16.0217 12.2244L16.1416 11.8129C15.75 12.1025 15.9338 11.4962 15.6921 11.5332C15.792 11.3644 16.2245 11.3763 16.0917 11.5701L16.0347 11.5651C16.0516 11.6019 16.0793 11.6327 16.1141 11.6534C16.1489 11.6741 16.1891 11.6837 16.2295 11.681L16.0387 12.2554ZM19.6281 8.83014C19.681 8.6853 19.695 8.75622 19.714 8.83014H19.6281Z" fill="#FBED81"/>
<path id="Vector_46" d="M5.21639 6.02246L5.02539 6.11146C5.05882 6.10372 5.09363 6.10412 5.12687 6.11265C5.16011 6.12118 5.19082 6.13758 5.21639 6.16046C5.20439 6.10446 5.15439 6.03546 5.21639 6.02246Z" fill="#FBED81"/>
<path id="Vector_47" d="M5.78074 6.8027C5.78074 6.5297 5.64674 6.6387 5.51074 6.7487C5.55474 6.9377 5.67074 6.8547 5.80574 6.7987C5.7977 6.80146 5.78924 6.80281 5.78074 6.8027Z" fill="#FBED81"/>
<path id="Vector_48" d="M5.96591 6.76459C5.96591 6.65559 5.90991 6.74959 5.83691 6.78759C5.87785 6.77105 5.92178 6.76322 5.96591 6.76459Z" fill="#FBED81"/>
<path id="Vector_49" d="M3.99545 6.46423C4.06945 6.50323 4.00145 6.21423 4.05045 6.28623C4.08945 6.03223 3.65045 6.64523 3.99545 6.46423Z" fill="#FBED81"/>
<path id="Vector_50" d="M5.71608 7.3623L5.63108 7.1333L5.58008 7.3333L5.71608 7.3623Z" fill="#FBED81"/>
<path id="Vector_51" d="M4.5851 7.34897L4.8191 7.38197C4.8101 7.34297 4.8351 7.31597 4.8681 7.29297C4.7281 7.29997 4.5691 7.27997 4.5851 7.34897Z" fill="#FBED81"/>
<path id="Vector_52" d="M4.86621 7.29403C4.93098 7.29603 4.9939 7.2723 5.04121 7.22803C4.97935 7.23921 4.92005 7.26157 4.86621 7.29403Z" fill="#FBED81"/>
<path id="Vector_53" d="M4.11602 8.59754C4.03402 8.59754 3.94602 8.55554 3.91602 8.63854L4.14102 8.76254C4.21802 8.72154 4.20402 8.63854 4.11602 8.59754Z" fill="#FBED81"/>
<path id="Vector_54" d="M11.7449 1.11624L11.6299 0.844238L11.6979 1.11724L11.7449 1.11624Z" fill="#FBED81"/>
<path id="Vector_55" d="M11.506 1.14832L11.486 0.799316L11.416 0.977316C11.4647 1.02235 11.4964 1.0827 11.506 1.14832Z" fill="#FBED81"/>
</g>
</svg>
