<svg width="150" height="60" viewBox="0 0 150 60" fill="none" xmlns="http://www.w3.org/2000/svg">
<g id="Frame">
<path id="Vector" d="M101.843 92.3759C101.843 92.2105 102.008 91.9624 102.256 91.8797C102.256 91.797 102.174 91.6316 102.091 91.4662C101.264 91.6316 102.091 92.1278 101.677 92.3759C101.677 92.3759 101.76 92.3759 101.843 92.3759ZM97.9558 93.3684C98.1212 93.2857 98.2866 93.2857 98.3693 93.2857L98.2039 92.9549C97.9558 93.0376 97.8731 93.1203 97.9558 93.3684ZM8.9681 68.8885C8.8854 69.6328 9.71243 68.9712 8.9681 68.8885V68.8885ZM2.18651 55.0772C2.51732 54.9945 2.43462 55.2426 2.60002 55.3253C2.68273 55.2426 2.68273 55.1599 2.68273 55.0772C2.51732 54.9945 2.35192 54.8291 2.18651 54.6637C2.18651 54.8291 2.18651 54.9118 2.18651 55.0772ZM-3.51995 39.5291C-3.60265 39.5291 -3.68536 39.6118 -3.68536 39.6945C-3.60265 39.6118 -3.51995 39.6118 -3.51995 39.5291ZM6.40433 -6.70147C6.32163 -6.61877 6.23893 -6.53607 6.15622 -6.37066C6.23893 -6.45337 6.32163 -6.53606 6.48703 -6.53606C6.48703 -6.61877 6.40433 -6.61877 6.40433 -6.70147ZM104.737 -32.0084C104.737 -32.0084 104.655 -32.0911 104.572 -32.1738C104.572 -32.1738 104.572 -32.0911 104.572 -32.0084H104.737ZM114.414 -27.8733C114.331 -27.7906 114.248 -27.7079 114.165 -27.6252C114.248 -27.6252 114.248 -27.5425 114.248 -27.5425C114.414 -27.3771 114.579 -27.3771 114.744 -27.4598C114.662 -27.5425 114.662 -27.7079 114.579 -27.7906L114.414 -27.8733ZM147.329 49.8669C147.908 49.7015 148.073 49.2053 148.487 48.9572C148.404 47.8821 148.073 46.9724 149.066 46.3934C148.735 46.1453 148.735 45.3183 149.314 45.2356C148.983 45.1529 148.652 45.1529 148.239 45.2356C148.073 45.7318 147.825 46.228 147.495 46.6415C147.743 47.5513 147.495 49.2053 146.833 49.7842C147.081 50.1977 146.916 50.6113 147.081 50.9421C147.495 50.694 147.495 50.3632 147.329 49.8669ZM141.044 61.2799C140.796 60.8663 140.878 61.0318 140.713 60.7009C141.375 60.3701 141.871 59.7085 141.871 58.9642C141.292 59.6258 140.299 59.9566 139.969 60.9491H139.555C139.555 61.4453 139.307 61.8588 138.976 62.1896C139.059 62.1896 139.224 62.1896 139.307 62.1896C139.886 61.9415 140.465 61.6107 140.796 61.1145C140.796 61.2799 140.796 61.3626 141.044 61.2799ZM118.714 84.1884C118.549 83.8576 119.128 83.7749 119.045 83.4441C118.797 83.6095 118.631 83.6922 118.466 83.8576C118.549 84.1057 118.631 84.2711 118.714 84.1884ZM114.91 85.5944C115.489 85.3462 116.068 85.0154 116.481 84.6846C116.316 84.6846 116.15 84.6019 116.068 84.5192C115.985 84.9327 115.406 85.0154 114.91 85.1808C114.91 85.3462 114.91 85.4289 114.91 85.5944ZM111.106 88.1581C111.188 88.4062 111.023 88.4889 111.188 88.6543C111.519 88.5716 111.519 88.0754 111.106 88.1581ZM109.451 88.8197C109.369 89.1505 110.196 88.9852 109.865 88.737L109.451 88.8197ZM90.8434 94.5262C91.0088 94.4435 91.1742 94.4435 91.0088 94.1954C90.8434 94.2781 90.678 94.2781 90.678 94.4435C90.7607 94.4435 90.8434 94.4435 90.8434 94.5262ZM66.4462 96.0148C66.3635 96.4284 67.1079 96.1803 66.8597 95.9321L66.4462 96.0148ZM66.0327 95.8494C65.7846 95.7667 65.4538 95.684 65.2057 95.4359C64.0479 95.4359 63.0554 95.1051 62.063 94.5262C62.2284 95.3532 61.4841 95.5186 60.9879 96.1803C62.063 96.3457 62.9727 95.8494 63.7998 96.6765C64.0479 96.4284 63.5517 96.0975 64.0479 96.0148C64.5441 95.9321 65.123 96.0148 65.4538 96.4284C65.5365 96.4284 65.7019 96.3457 65.7846 96.3457C65.95 96.3457 66.1154 96.263 66.1981 96.1803C66.1154 96.0975 66.1154 95.9321 66.0327 95.8494ZM19.8021 71.1214C19.8021 70.956 19.7194 70.8733 19.8021 70.7906C19.4713 70.8733 19.0578 70.8733 18.5616 70.7906C18.3135 70.2117 17.8173 69.7982 17.1556 69.5501C17.321 68.9712 16.4113 68.6404 15.9978 68.2269C15.9151 68.0615 16.0805 67.9788 15.9151 67.7306C15.3362 67.896 15.5016 67.3998 15.2535 67.1517C15.0054 66.9036 14.5919 66.8209 14.4265 66.5728C14.2611 66.4074 14.2611 66.1593 14.1784 65.9939C13.9302 65.6631 13.5167 65.4977 13.434 65.2496C13.3513 65.1669 13.8475 65.2496 13.3513 65.1669C13.1859 65.0842 12.8551 64.6707 12.607 64.1744C12.607 64.3399 12.607 64.5053 12.6897 64.588C12.2762 64.588 12.2762 65.0015 11.6146 64.8361C11.6146 64.9188 11.6146 65.0842 11.5319 65.1669C12.1108 66.242 13.0205 67.069 13.9302 67.8133L14.3438 68.8058C15.0054 69.2193 15.3362 70.129 15.9151 70.956C16.0805 71.1214 16.494 70.7079 16.6594 70.956C16.7421 71.2868 16.8248 71.7004 16.7421 72.0312C16.9902 72.0312 17.0729 72.1966 17.1556 72.4447C17.9827 72.2793 18.3135 73.1063 18.727 73.7679C19.2232 72.9409 19.554 72.0312 19.8021 71.1214ZM9.71243 61.0318C9.96053 61.3626 10.1259 61.7761 10.2086 62.2723C10.7049 62.0242 10.2913 61.528 10.2913 61.0318C9.79513 60.5355 9.46432 59.8739 9.29891 59.1296C8.8027 59.3777 8.8854 58.6334 8.55459 58.6334C8.9681 59.7085 8.63729 61.1145 9.38162 61.6934C9.71243 61.3626 8.8854 61.1145 9.71243 61.0318ZM6.73514 56.7312L7.23135 56.6485C7.14865 56.5658 7.14865 56.4831 7.06595 56.4004L6.65244 56.4831L6.73514 56.7312ZM0.201655 7.93685H0.118953V7.68874H-0.129154V7.93685H0.201655ZM0.945976 29.0259L0.449762 29.1913L0.532465 29.4395L1.02868 29.274L0.945976 29.0259ZM-0.294559 33.5746C-0.294559 33.6573 -0.377261 33.74 -0.294559 33.8227C-0.211857 34.2362 -0.377262 34.6497 0.0362501 34.8151C-0.0464523 34.8978 -0.211857 34.9805 -0.294559 35.0632C-0.129154 35.8075 0.36706 36.4692 1.02868 36.8827C1.19408 36.7173 1.35949 36.6346 1.6903 36.8827C1.6903 36.8 1.6903 36.6346 1.6903 36.5519C1.44219 35.8902 1.02868 34.9805 1.60759 34.4016C0.945976 34.4016 1.19408 33.6573 1.19408 33.3265C0.863274 33.2438 0.118953 33.5746 -0.294559 33.5746ZM2.93083 43.9951C3.17894 43.9124 3.34434 43.9124 3.17894 43.6643L2.93083 43.747C2.93083 43.8297 2.93083 43.9124 2.93083 43.9951ZM15.5016 -10.4231C15.667 -9.34795 14.2611 -9.51335 14.0956 -8.60362C16.3286 -8.85173 16.5767 -10.9193 18.0654 -11.9944C18.2308 -11.9944 18.3135 -11.9944 18.4789 -11.9944C18.2308 -12.0771 18.1481 -12.2425 18.1481 -12.4906C17.8173 -12.3252 17.6518 -12.4079 17.5691 -12.4906C17.4037 -12.2425 17.1556 -12.0771 16.8248 -11.9944C16.7421 -11.4982 16.5767 -11.4155 16.5767 -11.002C15.9978 -11.002 15.8324 -10.6712 15.5016 -10.4231ZM56.6874 -30.8506C55.116 -30.7679 56.7701 -32.1738 56.6874 -30.8506V-30.8506ZM73.3105 -34.1587C73.3105 -34.0759 73.3105 -33.9932 73.3932 -33.9105C73.5586 -33.9105 73.6413 -34.0759 73.6413 -34.2414C73.5586 -34.2414 73.3932 -34.1587 73.3105 -34.1587ZM76.6186 -34.9857C76.2878 -34.903 76.0397 -34.7376 76.2051 -34.4895C76.4532 -34.5722 76.4532 -34.7376 76.6186 -34.9857ZM78.2727 -34.4895C78.3554 -34.4068 78.4381 -34.2414 78.7689 -34.2414C79.3478 -34.2414 80.0094 -34.3241 80.671 -34.3241C80.2575 -34.8203 80.5883 -35.2338 80.671 -35.73C80.4229 -35.4819 80.0921 -35.3165 79.6786 -35.3165C79.4305 -35.6473 80.3402 -35.3992 80.0921 -35.73L79.0997 -35.3992C79.7613 -34.7376 78.6035 -34.903 78.2727 -34.4895ZM92.911 -28.2041C92.911 -28.1214 92.911 -28.0387 92.9937 -27.956L93.2418 -28.0387L93.1591 -28.2868L92.911 -28.2041ZM107.219 -29.9408C107.136 -30.0235 106.97 -30.1062 106.888 -30.1889C106.888 -30.1062 106.805 -29.9408 106.805 -29.8581C106.97 -29.8581 107.136 -29.8581 107.219 -29.9408ZM146.419 10.3352C146.006 10.4179 146.171 9.839 145.675 9.839C145.592 10.0044 145.51 10.1698 145.427 10.3352C145.675 10.5006 146.585 10.5006 146.419 10.3352ZM146.006 12.6509C145.427 13.0644 146.006 14.0568 146.668 14.0568C146.502 13.1471 146.254 12.3201 145.84 11.493C145.675 11.7412 145.592 11.9893 145.427 12.2374C145.51 12.4855 145.84 12.4855 146.006 12.6509ZM145.84 10.7487C145.84 10.8314 145.51 11.2449 145.84 11.2449C145.84 11.2449 146.171 10.7487 145.84 10.7487ZM143.359 9.09468H143.608V8.84657H143.359V9.09468ZM82.5732 91.7143C82.2424 91.9624 81.8289 92.1278 81.3327 92.2105C81.5808 92.2932 81.25 92.4586 81.1673 92.7068C81.4154 92.6241 81.7462 92.6241 81.9943 92.6241C82.1597 92.3759 82.4078 92.1278 82.6559 92.0451L82.5732 91.7143ZM70.1678 92.7068C71.8219 92.6241 73.5586 92.2105 75.2954 92.3759C75.4608 92.2932 75.2954 91.8797 75.5435 91.8797C76.8667 92.0451 77.3629 91.4662 78.5208 91.3835C78.5208 91.3008 78.5208 91.3008 78.4381 91.2181C76.8667 91.4662 75.3781 91.6316 73.8067 91.9624C73.6413 92.0451 73.8067 92.2105 73.6413 92.2932C72.4835 91.6316 71.6565 92.7068 70.4159 92.3759C70.4159 92.5414 70.3332 92.6241 70.1678 92.7068ZM24.6816 69.7155C24.847 69.7155 24.847 69.6328 24.847 69.5501C24.9297 69.4674 24.847 69.4674 24.847 69.3847H24.7643C24.6815 69.5501 24.5988 69.6328 24.5161 69.7155C24.5988 69.7155 24.5988 69.7155 24.6816 69.7155ZM6.32163 54.4983C6.32163 54.3329 6.32163 54.2502 6.32163 54.0848C6.23893 54.0848 6.15622 54.0848 6.07352 54.2502C6.07352 54.4156 6.23893 54.4983 6.32163 54.4983ZM31.3804 -22.0014C31.2977 -22.0841 31.0496 -22.1668 31.0496 -21.9187C31.1323 -21.836 31.2977 -21.7533 31.4631 -21.7533C31.4631 -21.836 31.3804 -21.9187 31.3804 -22.0014ZM31.4631 -22.9111V-23.0765H31.0496C30.8842 -22.7457 30.8015 -22.4149 31.2977 -22.4149C31.2977 -22.5803 31.3804 -22.7457 31.4631 -22.9111ZM32.1248 -21.0917C31.1323 -21.009 30.2226 -21.0917 29.4783 -21.2571C29.3956 -20.6782 29.561 -20.0993 29.7264 -19.603C29.3129 -19.2722 28.9821 -18.8587 28.6513 -18.4452C28.6513 -18.3625 28.6513 -18.3625 28.6513 -18.3625C28.734 -18.2798 28.734 -18.2798 28.8167 -18.2798C29.561 -18.3625 30.5534 -18.6106 31.6285 -18.6933C31.9594 -19.1068 32.3729 -19.603 32.7864 -20.0993C33.0345 -20.4301 33.7788 -20.7609 33.9442 -21.1744C33.5307 -21.1744 32.9518 -21.0917 32.5383 -21.0917C32.4556 -21.0917 32.4556 -21.009 32.4556 -21.009C32.2902 -21.009 32.2075 -21.0917 32.1248 -21.0917ZM41.3047 -21.1744C41.3874 -21.1744 41.3874 -21.2571 41.4701 -21.2571C41.3874 -21.2571 41.3047 -21.2571 41.3047 -21.1744ZM144.104 38.454C144.352 38.3713 144.435 38.1232 144.352 37.8751C144.186 37.9578 144.104 38.2059 144.104 38.454ZM114.165 69.9636C114.165 69.8809 114.083 69.8809 114.083 69.7982C114 69.8809 113.835 69.9636 113.752 70.0463C113.917 70.129 114 70.0463 114.165 69.9636ZM110.609 76.7452C110.361 76.3317 111.188 76.4144 110.94 76.1663C110.361 76.249 110.527 76.4144 109.948 76.4144C110.113 76.7452 110.278 76.9106 110.609 76.7452ZM109.782 76.0836C110.03 75.9182 110.361 75.8355 110.196 75.5874C109.948 75.5874 109.617 75.6701 109.782 76.0836ZM98.5348 83.7749C97.8731 83.9403 97.1288 84.1884 96.6326 84.4365C97.0461 84.5192 97.1288 84.7673 97.2115 85.1808C97.3769 85.0154 97.625 84.85 97.4596 84.5192C98.0385 84.5192 98.1212 84.023 98.5348 83.7749ZM25.3432 66.9036C25.5086 66.7382 25.7567 66.7382 26.0048 66.8209C25.8394 66.4901 25.674 66.242 25.5086 65.9112C25.0124 65.9939 24.847 66.3247 24.6816 66.7382C24.9297 66.7382 25.1778 66.8209 25.3432 66.9036ZM21.9524 61.3626L21.8697 61.1145L21.3735 61.2799V61.3626L21.4562 61.528L21.9524 61.3626ZM3.75786 20.7557C3.75786 20.9211 3.84056 21.0038 4.00596 21.1692C4.25407 20.5903 4.58488 20.1768 4.99839 19.6806C4.91569 19.3498 4.91569 19.019 4.75028 18.6882C3.84056 19.1844 4.50218 20.5076 3.75786 20.7557ZM19.9675 -11.9117C19.8848 -11.9117 19.8021 -11.9117 19.7194 -11.9117V-11.5809H19.9675V-11.9117ZM44.9436 -16.2122C45.0263 -16.0468 45.2744 -15.8814 45.6052 -15.7987C45.8534 -15.9641 46.1015 -16.1295 46.3496 -16.2949C45.9361 -16.2949 45.4398 -16.2122 44.9436 -16.2122ZM82.8213 -23.1592C82.8213 -23.3246 82.9867 -23.3246 82.9867 -23.5728H82.7386C82.7386 -23.4073 82.5732 -23.4073 82.5732 -23.2419L82.6559 -23.1592H82.8213ZM102.753 -23.9863C102.587 -23.9036 102.339 -23.9036 102.091 -23.9036C102.256 -23.8209 102.422 -23.7382 102.67 -23.6555C102.753 -23.6555 102.835 -23.6555 102.918 -23.6555L102.753 -23.9863ZM104.324 -19.2722C104.159 -18.9414 104.407 -19.1068 104.324 -18.776C104.903 -18.6933 104.903 -19.3549 104.324 -19.2722ZM109.948 -15.9641C109.782 -15.716 109.782 -15.6333 110.03 -15.5506C110.03 -15.716 110.113 -15.8814 110.196 -15.9641H109.948ZM127.729 11.6585C127.811 11.7412 127.811 11.7412 127.729 11.6585C128.059 11.4103 128.473 11.1622 128.804 10.8314C128.556 10.5006 128.721 10.3352 128.887 10.0871C128.638 10.2525 128.308 10.2525 128.059 10.3352C128.308 10.9141 127.894 11.2449 127.729 11.6585ZM136.991 39.3637C136.661 39.1983 136.826 39.3637 136.495 39.5291C136.495 40.0254 137.239 39.7773 136.991 39.3637ZM135.337 45.3183L135.255 45.2356C135.172 45.1529 135.089 45.1529 134.924 45.1529C134.924 45.1529 134.924 45.2356 134.924 45.3183C135.006 45.2356 135.172 45.2356 135.337 45.3183ZM111.602 69.0539C112.098 68.5577 112.594 67.9788 113.09 67.5652C112.925 67.5652 112.925 67.4825 112.925 67.3171C113.338 67.1517 113.752 66.9036 114.165 66.5728C113.917 66.5728 113.752 66.5728 113.504 66.5728C113.09 66.9863 112.511 67.2344 112.015 67.2344C112.015 67.2344 112.098 67.2344 112.098 67.3171C111.436 67.7306 111.354 68.3923 111.023 68.8885C111.271 68.8885 111.436 68.9712 111.602 69.0539ZM85.3851 83.5268C85.137 83.7749 85.8813 83.8576 85.7986 83.6922C85.7159 83.6095 85.7159 83.5268 85.3851 83.5268ZM81.1673 83.8576C81.0846 83.4441 81.4981 83.5268 81.7462 83.3614C81.25 83.2787 80.5883 83.4441 80.1748 83.6922C80.2575 83.7749 80.3402 83.8576 80.3402 83.9403C80.671 83.7749 80.9192 83.7749 81.1673 83.8576ZM77.1975 85.1808C77.3629 85.0981 77.6111 85.0154 77.6938 84.9327C77.4456 84.6846 77.1975 84.4365 77.0321 84.1057C76.7013 84.2711 76.5359 84.7673 75.957 84.5192C75.957 84.9327 76.2051 85.1808 76.5359 85.3462C76.784 85.2635 76.9494 85.2635 77.1975 85.1808ZM75.3781 88.4062L75.7089 88.2408V88.1581C75.4608 87.91 75.2127 88.2408 75.3781 88.4062ZM58.0933 88.737C57.2663 88.9025 58.176 89.316 58.0933 88.737V88.737ZM50.6501 81.9554C50.8155 81.79 50.402 81.2111 50.402 81.5419L50.6501 81.9554ZM6.23893 34.8151C6.23893 34.8978 6.23893 34.9805 6.23893 35.0632C6.32163 35.3113 6.48703 35.394 6.81784 35.3113C6.90055 34.8978 6.65244 34.7324 6.23893 34.8151ZM7.72757 12.3201L7.81027 12.5682L8.05838 12.4855L7.97568 12.2374L7.72757 12.3201ZM8.30649 29.0259C8.30649 29.4395 8.30649 29.7703 8.22378 30.1011C8.8854 30.1011 8.63729 29.3568 8.30649 29.0259ZM7.06595 44.0778C7.06595 44.1605 7.06595 44.1605 7.06595 44.2432C7.06595 44.3259 7.06595 44.4086 7.14865 44.4913C7.14865 44.3259 7.06595 44.2432 7.06595 44.0778ZM21.7043 -9.26525C21.9524 -9.26525 21.787 -9.18254 21.7043 -8.93443C21.787 -8.85173 21.9524 -8.85173 22.0351 -8.85173C22.0351 -9.18254 21.787 -9.59605 21.7043 -9.26525ZM55.4468 -15.3025C55.3641 -15.6333 55.116 -16.1295 55.1987 -16.2949C54.7852 -16.2949 54.8679 -15.9641 54.4544 -15.9641C54.0409 -16.2949 53.8755 -16.1295 53.2139 -15.8814C53.2139 -16.1295 53.0485 -16.0468 52.883 -16.1295C52.9658 -15.7987 52.9658 -15.3852 52.883 -15.0544L52.9657 -14.9717C53.8755 -15.6333 54.289 -14.889 55.4468 -15.3025ZM117.391 1.81687C117.887 1.89957 118.135 1.48606 117.639 1.40336C117.639 1.65147 117.474 1.65147 117.391 1.81687ZM132.029 20.4249C131.698 20.3422 131.45 20.1768 131.285 20.1768C131.45 19.846 131.864 19.6806 131.864 19.3498C131.285 19.4325 131.202 20.0114 130.623 20.1768C130.789 20.4249 130.789 20.7557 130.623 21.0865C130.871 21.5 131.202 21.9135 131.616 22.2444C131.781 22.0789 131.781 21.8308 132.112 21.8308C131.864 21.4173 131.864 20.9211 132.029 20.4249ZM90.8434 83.7749C90.7607 83.6095 90.678 83.3614 90.4299 83.5268C90.5126 83.6922 90.678 83.7749 90.8434 83.7749ZM66.777 87.3311C66.6116 87.0003 66.3635 86.7522 66.1154 86.5868C65.8673 86.6695 65.5365 86.6695 65.2884 86.6695C65.123 87.1657 65.7019 87.4965 65.95 87.8273C65.7846 87.083 66.1981 87.2484 66.777 87.3311ZM59.83 83.8576C59.7473 84.6019 60.5744 83.9403 59.83 83.8576V83.8576ZM12.8551 36.9654C13.1859 36.9654 13.2686 36.8 13.1032 36.4692C12.8551 36.5519 12.7724 36.7173 12.8551 36.9654ZM13.8475 26.793C14.0129 27.2892 13.9302 27.5373 13.434 27.7027C13.1859 28.1162 13.1859 28.6951 13.2686 29.1913C13.6821 29.0259 14.2611 28.7778 14.5092 28.3643C14.5092 28.2816 14.4265 28.1989 14.3438 28.1162C14.7573 27.7854 14.4265 27.7027 14.3438 27.2065C14.4265 27.1238 14.4265 27.0411 14.5092 26.9584C14.4265 26.8757 14.2611 26.793 14.1784 26.7103C14.0129 26.793 13.9302 26.793 13.8475 26.793ZM15.1708 35.9729C15.2535 35.8902 15.2535 35.8075 15.1708 35.7248H15.0881L15.1708 35.9729ZM20.8772 5.12497C20.9599 5.62118 20.9599 6.11739 20.8772 6.61361C21.2908 6.3655 21.6216 6.03469 21.9524 5.70388C21.4562 5.20767 22.2005 4.79416 22.0351 4.29794C21.8697 4.29794 21.7043 4.38064 21.5389 4.38064C21.3735 4.79416 21.0426 4.87686 20.8772 5.12497ZM26.5837 -9.43065C26.9145 -9.43065 27.1626 -9.43065 27.5761 -9.51335C27.6588 -9.51335 27.6588 -9.59605 27.7415 -9.59605C27.7415 -9.59605 27.7415 -9.67876 27.7415 -9.76146C27.4107 -9.76146 27.4107 -10.0096 27.0799 -10.2577C26.9972 -9.92686 26.6664 -9.92686 26.501 -9.84416C26.3356 -9.59605 26.2529 -9.34795 26.2529 -9.09984H26.3356C26.3356 -9.18254 26.501 -9.34795 26.5837 -9.43065ZM35.4329 -4.055C35.4329 -4.1377 35.5156 -4.2204 35.4329 -4.46851C35.3502 -4.3031 35.3502 -4.1377 35.2675 -4.055H35.4329ZM37.2523 -4.3031C37.1696 -4.2204 37.2523 -4.1377 37.335 -4.1377C37.4177 -4.2204 37.4177 -4.2204 37.5004 -4.3031C37.4177 -4.3031 37.335 -4.3031 37.2523 -4.3031ZM104.324 -12.7387C104.407 -12.4906 104.241 -12.0771 104.572 -12.2425C104.655 -12.4079 104.489 -12.656 104.324 -12.7387ZM111.767 -5.79175C111.436 -6.20526 110.94 -6.37066 110.361 -6.37066C110.196 -5.87445 110.03 -5.46094 109.865 -4.96472C110.278 -4.79932 110.361 -4.96472 111.023 -5.04742C111.106 -4.96472 111.106 -4.88202 111.188 -4.88202C111.354 -5.13013 111.519 -5.54364 111.767 -5.79175ZM115.075 0.741741C115.489 0.659039 115.406 0.907146 115.82 0.907146C115.82 0.576336 115.82 0.162823 115.654 -0.00258255C115.075 -0.25069 115.323 0.576336 115.075 0.741741ZM126.654 50.1977C126.736 50.115 126.819 50.0323 126.819 49.9496C126.571 49.8669 126.24 49.8669 126.075 50.115C126.24 50.115 126.488 50.115 126.654 50.1977C126.654 50.115 126.654 50.115 126.654 50.1977ZM121.526 63.4301C121.526 63.182 122.022 63.182 121.774 62.8512C121.278 62.7685 121.113 63.3474 121.526 63.4301ZM112.429 64.8361C112.594 64.8361 112.76 64.8361 112.842 64.9188C112.842 64.7534 112.842 64.6707 112.76 64.588C112.677 64.588 112.511 64.588 112.429 64.588C112.429 64.6707 112.429 64.7534 112.429 64.8361ZM110.775 65.2496C110.857 65.2496 110.94 65.2496 110.94 65.2496C111.106 65.0015 111.271 64.6707 111.436 64.4225C111.106 64.5052 110.609 64.6707 110.775 65.2496ZM90.8434 52.4307C90.9261 52.7615 91.0915 52.9269 91.4223 52.7615C91.505 52.348 91.1742 52.5134 90.8434 52.4307ZM90.4299 53.754C90.678 53.9194 91.1742 53.7539 91.0088 53.4231H90.9261C90.7607 53.3404 90.5126 53.5058 90.4299 53.754ZM54.7852 60.2874C55.1987 60.4528 55.1987 59.7085 54.7852 59.8739V60.2874ZM48.996 58.1372C49.0787 58.3853 48.8306 59.0469 49.2441 58.8815C49.4095 58.6334 49.6577 58.3026 49.7404 57.9718C49.4096 57.8064 49.0787 57.7237 48.5825 57.8064C48.7479 57.8891 48.9133 58.0545 48.996 58.1372ZM45.1917 56.6485C45.109 56.5658 45.109 56.4831 45.109 56.4004L44.8609 56.4831L44.9436 56.7312L45.1917 56.6485ZM33.5307 63.3474H33.2826V63.5955H33.5307V63.3474ZM26.9145 56.8966C26.9145 57.1447 26.6664 57.1447 26.5837 57.3102C26.7491 57.5583 27.1626 57.4756 27.6588 57.4756V57.062C27.0799 57.2274 27.4107 56.9793 26.9145 56.8966ZM26.1702 55.408C26.0048 55.2426 25.674 55.2426 25.5913 55.5734C25.674 55.7388 26.1702 55.7388 26.1702 55.408ZM19.3059 40.5216C18.9751 40.1081 19.9675 39.9427 19.3059 40.5216V40.5216ZM33.1172 -11.0847L33.1999 -10.8366L33.448 -10.9193L33.3653 -11.1674L33.1172 -11.0847ZM43.2896 -3.06257C43.2069 -3.06257 43.1242 -3.06257 43.0415 -2.97987C42.8761 -2.89716 42.7934 -2.73176 42.8761 -2.56635C42.9588 -2.56635 43.0415 -2.64906 43.1242 -2.64906C43.2069 -2.81446 43.2896 -2.81446 43.2896 -3.06257ZM57.1836 -5.37823C57.1009 -5.54364 57.2663 -5.95715 56.8528 -5.79175C56.8528 -5.62634 56.6874 -5.54364 56.6047 -5.37823C56.7701 -5.37823 56.9355 -5.37823 57.1836 -5.37823ZM73.3932 -7.85931C73.3105 -7.7766 73.2278 -7.6939 73.0624 -7.6112C73.4759 -7.44579 73.8067 -7.36309 74.303 -7.28039C73.8894 -7.44579 73.6413 -7.6112 73.3932 -7.85931ZM112.511 -0.0852814C112.429 -1.07771 113.338 -1.90474 112.511 -2.40095C112.429 -2.40095 112.429 -2.48365 112.346 -2.48365C112.925 -1.73933 111.354 -0.581497 112.511 -0.0852814ZM116.729 18.6054C116.895 19.2671 116.316 19.5152 116.316 20.0114C116.647 20.0114 116.977 19.846 117.308 19.7633C117.391 19.3498 117.474 18.9363 117.722 18.6054C117.308 18.5227 116.977 18.5227 116.729 18.6054ZM115.571 50.3632C115.571 50.3632 115.571 50.3632 115.489 50.4459C115.489 50.694 115.406 50.8594 115.323 51.1075C115.571 50.8594 115.489 50.6113 115.571 50.3632ZM108.211 38.5367C108.211 38.7021 108.376 38.8675 108.459 39.1156C108.707 38.7848 109.203 38.5367 108.624 38.2886C108.459 38.2886 108.294 38.454 108.211 38.5367ZM72.9797 74.6776C72.8143 74.5122 72.6489 74.2641 72.4835 74.016C72.07 74.016 71.6565 74.016 71.1603 74.016C71.4084 74.5122 71.8219 75.0912 71.9046 75.422C72.2354 75.2566 72.5662 75.0085 72.9797 74.6776ZM57.6798 70.2117C57.7625 70.129 57.6798 69.8809 57.5144 69.8809C57.1836 69.8809 57.4317 70.3771 57.6798 70.2117ZM18.3135 27.4546C18.3962 27.62 17.9 27.9508 18.3135 27.8681C18.3135 27.7854 18.3135 27.7027 18.3962 27.7027C18.5616 27.7854 18.6443 27.9508 18.8924 27.8681C18.8924 27.7854 18.8924 27.7027 18.8924 27.62C18.9751 27.62 18.9751 27.5373 18.9751 27.5373C18.8924 27.4546 18.6443 27.3719 18.3135 27.4546ZM20.1329 24.2292C20.1329 24.2292 20.0502 24.3119 20.0502 24.3946C20.1329 24.3946 20.1329 24.3946 20.2156 24.3946C20.2156 24.3119 20.1329 24.3119 20.1329 24.2292ZM29.2302 -9.92686C29.2302 -9.84416 29.2302 -9.67876 29.2302 -9.51335C29.3129 -9.59605 29.3956 -9.59605 29.4783 -9.67876C29.561 -9.84416 29.4783 -9.92686 29.2302 -9.92686ZM30.8015 -8.60362L30.8842 -8.35552L31.3804 -8.52092L31.2977 -8.76903L30.8015 -8.60362ZM54.2063 -3.31068C54.3717 -3.55878 54.1236 -3.55878 53.9582 -3.88959C53.3793 -3.88959 53.7101 -3.06257 54.2063 -3.31068ZM53.0485 -2.15284C53.1312 -2.15284 53.1312 -2.15284 53.1312 -2.31824C53.0485 -2.31824 53.0485 -2.31824 52.9657 -2.31824C52.883 -2.23555 53.0485 -2.23554 53.0485 -2.15284ZM60.3263 -2.56635C60.1609 -2.56635 59.9955 -2.48365 59.83 -2.40095C59.83 -2.31824 59.7473 -2.23555 59.6646 -2.23555C59.9128 -2.15284 60.2436 -1.98744 60.4917 -1.82203C60.6571 -2.07014 60.9052 -2.15284 61.1533 -2.07014C61.236 -2.23555 61.4841 -2.31825 61.4841 -2.48365C61.3187 -2.56635 61.1533 -2.64906 60.9879 -2.64906C60.8225 -2.48365 60.6571 -2.31824 60.3263 -2.31824C60.3263 -2.40095 60.3263 -2.48365 60.3263 -2.56635ZM71.4911 -5.54364C71.3257 -5.54364 71.1603 -5.46093 70.9949 -5.46093C71.3257 -5.04742 71.4911 -4.55121 71.4911 -4.055C71.9873 -4.2204 71.9873 -4.055 72.5662 -4.055C72.5662 -4.79932 73.724 -4.55121 74.2203 -4.79932L74.303 -4.96472C73.2278 -4.96472 72.1527 -4.88202 71.4911 -5.54364ZM93.738 -3.39338V-3.55878H93.4899V-3.39338C93.5726 -3.39338 93.6553 -3.39338 93.738 -3.39338ZM97.625 -8.52092C97.625 -8.60363 97.4596 -8.60363 97.2942 -8.68633C97.2115 -8.60363 97.1288 -8.43822 97.1288 -8.35552C97.1288 -8.27282 97.2115 -8.27282 97.2115 -8.19011C97.2115 -8.52092 97.3769 -8.52092 97.625 -8.52092ZM106.722 -5.54364C106.97 -5.79175 107.136 -6.12255 107.136 -6.45337C106.061 -6.61877 105.895 -6.12255 105.234 -5.95715C105.73 -5.70905 106.226 -5.54364 106.722 -5.54364ZM112.098 -0.00258255C112.098 -0.0852852 112.015 -0.0852852 111.933 -0.167988C112.015 -0.0852852 112.015 -0.0852852 112.098 -0.00258255ZM122.436 45.401C123.015 45.4837 123.511 45.9799 124.255 45.7318C124.09 44.7394 123.428 44.8221 123.015 44.1605C122.601 44.4913 122.601 44.9875 122.436 45.401ZM124.669 43.4989C124.586 43.5816 124.586 43.6643 124.586 43.8297C124.586 43.8297 124.669 43.8297 124.751 43.8297C124.669 43.747 124.669 43.747 124.669 43.747C124.669 43.6643 124.669 43.5816 124.669 43.4989ZM121.443 47.8821L121.361 47.634L121.113 47.7167L121.195 47.9648L121.443 47.8821ZM122.105 57.7237L121.857 57.8064L121.94 58.0545L122.188 57.9718L122.105 57.7237ZM104.159 54.9118C104.324 54.8291 104.489 54.7464 104.655 54.6637C104.572 54.6637 104.572 54.581 104.572 54.4983C104.489 54.581 104.489 54.7464 104.159 54.7464C104.159 54.8291 104.159 54.8291 104.159 54.9118ZM103.001 54.7464C103.001 54.7464 103.001 54.6637 102.918 54.581C102.835 54.581 102.753 54.6637 102.67 54.6637L102.753 54.8291L103.001 54.7464ZM71.9873 73.0236C71.1603 73.1063 72.1527 73.6025 71.9873 73.0236V73.0236ZM37.5831 34.3189C37.5004 34.4016 37.335 34.567 37.2523 34.6497C37.4177 34.6497 37.6658 34.4843 37.5831 34.3189ZM31.7113 52.5961C31.9594 52.7615 32.2075 52.9269 32.5383 53.0923C32.9518 52.5961 32.7864 51.8518 33.3653 51.2729C33.0345 51.2729 32.7864 51.2729 32.5383 51.3556C32.2902 51.7691 32.0421 52.1826 31.7113 52.5961ZM23.1102 12.4855C22.9448 12.899 23.3583 12.7336 23.6891 12.7336V12.3201C23.441 12.3201 23.3583 12.4855 23.1102 12.4855ZM27.4107 7.60603C27.4934 7.52333 27.5761 7.60603 27.8242 7.60603C27.7415 7.60603 27.5761 7.52333 27.4107 7.60603ZM29.0648 -6.12255C29.0648 -6.20526 29.0648 -6.20526 29.0648 -6.12255V-6.12255ZM27.8242 42.0929L27.9069 42.341L28.155 42.2583L28.0723 42.0102L27.8242 42.0929ZM35.0193 8.43306C35.102 8.43306 35.1847 8.43306 35.1847 8.43306C35.2675 8.26765 35.3502 8.18495 35.3502 8.01955C35.1847 8.10225 35.102 8.26765 35.0193 8.43306ZM30.2226 13.8914L30.3053 14.1395L30.5534 14.0568L30.4707 13.8087L30.2226 13.8914ZM31.8767 24.4773H32.1248V24.2292H31.8767V24.4773ZM30.5534 42.7545C30.8015 42.9199 31.1323 42.8372 31.3804 42.8372C31.4631 42.6718 31.5458 42.4237 31.5458 42.2583C31.215 42.1756 30.5534 42.1756 30.5534 42.7545ZM35.0193 14.3876L34.6885 14.4703V14.553H35.0193V14.3876ZM29.8918 23.9811C29.8091 24.0638 29.7264 24.1465 29.8091 24.2292C29.8918 24.2292 30.0572 24.3119 30.1399 24.3946C30.2226 24.2292 30.1399 23.9811 29.8918 23.9811ZM34.3577 25.8833C34.7712 25.6351 35.3502 25.4697 35.9291 25.2216C35.8464 25.0562 35.8464 24.9735 35.9291 24.8081L35.102 25.0562C35.0193 25.387 34.6885 25.7178 34.3577 25.8833ZM36.508 22.6579C36.508 23.0714 37.2523 22.8233 36.9215 22.5752L36.508 22.6579ZM36.0118 7.77144C36.0118 7.68874 36.0118 7.68874 36.0118 7.60603C35.8464 7.68874 35.681 7.85415 35.5156 7.93685C35.681 7.93685 35.8464 7.85414 36.0118 7.77144ZM34.275 34.4016C34.3577 34.4843 34.3577 34.567 34.3577 34.6497H34.4404L34.275 34.4016ZM44.6955 37.9578C44.7782 38.0405 44.7782 38.1232 44.9436 38.2059C44.9436 38.2059 44.8609 37.9578 44.6955 37.9578ZM42.7934 14.1395C43.0415 13.9741 43.2069 13.726 43.2896 13.3952C43.1242 13.3125 43.0415 13.1471 42.8761 13.0644C42.3799 13.2298 41.8836 13.4779 41.4701 13.8087C41.3047 14.1395 40.9739 14.4703 40.9739 15.0492C40.6431 15.2147 40.5604 15.4628 40.1469 15.5455C40.1469 16.0417 39.8161 16.5379 39.3199 16.7033C39.3199 17.0341 39.2372 17.3649 38.9891 17.613C39.568 17.613 40.1469 17.613 40.7258 17.613C40.8912 17.4476 40.9739 17.2822 41.1393 17.1168C41.5528 16.2071 42.5453 15.3801 42.7934 14.1395ZM29.6437 4.79416C29.8918 4.79416 30.0572 4.79416 30.2226 4.71145C30.4707 4.38064 30.8015 4.13253 31.2977 3.96713C31.2977 3.88443 31.2977 3.88443 31.2977 3.80173C30.4707 3.80173 29.561 4.04983 29.6437 4.79416ZM30.1399 -3.80689C30.388 -3.39338 29.6437 -3.47608 29.8918 -3.06257C30.1399 -3.14527 30.388 -3.14527 30.5534 -3.06257C30.6361 -3.39338 30.8015 -3.80689 31.0496 -4.055C30.8015 -3.88959 30.4707 -3.80689 30.1399 -3.80689ZM26.9145 40.8524C26.5837 41.2659 26.3356 41.6794 26.0875 42.1756C26.3356 42.2583 26.5837 42.341 26.8318 42.5064C27.0799 42.2583 27.2453 42.0102 27.4107 41.6794C27.9069 41.5967 28.4032 41.3486 28.734 40.9351C28.8167 40.7697 28.8167 40.6043 28.8994 40.4389C28.8994 40.2735 28.6513 40.1908 28.2378 40.1908C27.7415 40.2735 27.2453 40.5216 26.9145 40.8524ZM28.2378 46.807C28.155 47.0551 27.9896 47.3032 27.9069 47.634C28.0723 47.634 28.1551 47.634 28.3205 47.634C28.6513 47.7167 28.8167 48.2129 29.3956 47.9648C29.6437 47.2205 28.734 47.0551 28.2378 46.807ZM33.5307 45.401C33.448 45.3183 33.448 45.3183 33.448 45.3183C33.2826 45.2356 33.0345 45.2356 32.7864 45.2356C32.7037 45.3183 32.7037 45.4837 32.7037 45.6491C33.1172 45.7318 33.0345 45.2356 33.5307 45.401ZM86.791 -1.90474C86.791 -1.82203 86.7083 -1.65663 86.6256 -1.49122C87.0391 -1.57393 87.7007 -1.65663 87.4526 -1.98743L87.0391 -1.82203C86.9564 -1.82203 86.8737 -1.82203 86.791 -1.90474ZM105.647 4.13253C104.737 4.29794 105.73 4.71145 105.647 4.13253V4.13253ZM95.6402 20.0941C95.2267 19.019 96.2191 18.5227 97.1288 18.8536C97.2115 18.7709 97.2115 18.7709 97.2115 18.7709C96.798 18.5227 96.3845 18.2746 95.8056 18.1919C95.144 18.6054 94.3996 19.019 94.3996 19.7633C94.8958 19.846 95.0612 20.2595 95.6402 20.0941ZM60.6571 31.0108C60.7398 30.9281 60.7398 30.7627 60.7398 30.68C60.6571 30.5146 60.4917 30.3492 60.409 30.1838C60.2436 30.1838 60.0782 30.1838 59.9127 30.2665C60.2436 30.5146 60.409 30.7627 60.6571 31.0108ZM51.5598 28.3643C51.8906 27.62 52.883 27.4546 53.2139 26.9584C53.1312 26.7103 53.0485 26.4622 52.9657 26.2968C52.7176 26.3795 52.5522 26.6276 52.5522 26.8757C51.7252 27.2065 50.9809 27.5373 50.8982 28.1989C51.0636 28.1162 51.3117 28.447 51.5598 28.3643ZM89.6029 6.3655C89.6856 6.5309 89.1894 6.77901 89.6029 6.69631C89.6029 6.61361 89.6029 6.53091 89.6856 6.53091C89.851 6.69631 90.0164 6.86171 90.4299 6.61361C90.3472 6.2828 89.9337 6.3655 89.6029 6.3655ZM94.7304 11.8239C94.6477 11.9893 94.6477 12.072 94.7304 12.1547C94.8958 12.2374 95.144 12.2374 95.3094 12.3201C95.3094 11.9893 95.0612 11.9066 94.7304 11.8239ZM97.7077 45.1529C97.7077 45.2356 97.625 45.3183 97.5423 45.401C97.7904 45.401 98.0385 45.401 97.9558 45.1529H97.7077ZM99.3618 20.8384L99.1137 20.9211L99.1964 21.1692L99.4445 21.0865L99.3618 20.8384ZM99.031 15.6282C99.031 15.5455 99.031 15.4628 99.031 15.3801C98.9483 15.4628 98.9483 15.5455 98.9483 15.6282H99.031ZM98.7829 10.0044C98.6174 10.1698 98.6174 10.5006 98.7001 10.7487C98.7829 10.666 98.8656 10.5833 98.9483 10.4179C98.9483 10.2525 98.9483 10.0871 98.7829 10.0044ZM97.1288 9.09468C97.3769 9.01197 97.7077 9.09468 97.625 9.01197C97.4596 8.84657 97.0461 8.35036 96.9634 8.59846C97.2115 8.59846 97.1288 8.92927 97.1288 9.09468ZM95.7229 4.87686C95.7229 4.87686 95.8056 4.87686 95.8056 4.95956C95.8056 4.87686 95.8056 4.87686 95.7229 4.79416V4.87686ZM90.8434 14.1395C91.0088 14.3049 91.3396 14.3049 91.5878 14.3049L91.6704 14.2222C91.5051 13.9741 91.3396 13.8087 91.3396 13.6433C91.2569 13.6433 91.1742 13.6433 91.0915 13.6433C91.1742 13.8914 90.7607 13.8087 90.8434 14.1395ZM77.6111 31.3416C77.6111 31.2589 77.6111 31.0935 77.4456 30.8454C77.2802 30.7627 77.1975 30.4319 77.0321 30.4319C76.6186 30.3492 76.0397 30.4319 75.6262 30.5973V30.68C75.2954 31.2589 75.13 31.9205 75.2954 32.4994C75.7089 32.4167 76.1224 32.4994 76.6186 32.6648C76.8667 32.4167 76.9494 32.0859 76.784 31.8378C77.3629 31.9205 77.0321 31.2589 77.6111 31.3416ZM62.8073 -0.746902C62.89 -0.498795 63.0554 -0.416092 63.3035 -0.498795C63.3035 -0.6642 63.2208 -0.829605 63.1381 -0.912308C62.9727 -0.912308 62.9727 -0.995007 62.8073 -0.746902ZM70.7468 9.59089C70.2505 9.6736 69.7543 9.42549 69.5889 9.01197C69.3408 9.01197 69.0927 9.01197 68.8446 9.01197C69.0927 9.6736 69.3408 10.2525 70.0851 10.5006C70.2505 10.1698 70.7468 10.0871 70.7468 9.59089ZM73.1451 6.77901H72.897C72.897 7.02712 72.9797 7.02712 73.1451 7.02712V6.77901ZM71.9873 12.8163C72.1527 12.7336 72.3181 12.6509 72.1527 12.4855C71.9873 12.5682 71.8219 12.5682 71.8219 12.7336C71.9046 12.7336 71.9873 12.7336 71.9873 12.8163ZM69.1754 15.8763C69.01 15.959 68.9273 16.0417 68.8446 15.959C68.5138 16.6206 68.1003 17.2822 67.5214 17.8611C67.8522 17.9438 68.183 18.0265 68.5965 18.1092C68.5965 18.0265 68.6792 17.8611 68.6792 17.6957C69.7543 17.4476 69.7543 16.3725 70.4159 15.7936C70.4986 15.7109 70.4986 15.6282 70.4986 15.5455C70.5814 15.2146 70.2505 14.8838 69.9197 14.8838H69.6716L69.5889 15.0492C69.6716 15.3801 69.4235 15.6282 69.1754 15.8763ZM70.4159 20.9211C70.4986 20.9211 70.5814 20.9211 70.7468 20.7557C70.5814 20.8384 70.4986 20.7557 70.4159 20.7557C70.4159 20.8384 70.4159 20.8384 70.4159 20.9211ZM66.6943 28.6951C66.777 28.6951 66.777 28.6951 66.777 28.7778C66.777 28.6951 66.777 28.6951 66.777 28.6951H66.6943ZM62.7246 21.4173C62.5592 21.5 62.4765 21.5827 62.3111 21.7481C62.3938 21.7481 62.4765 21.8308 62.5592 21.8308C62.6419 21.6654 62.6419 21.5827 62.7246 21.4173ZM64.6268 22.1616C64.4614 22.3271 64.4614 22.4925 64.4614 22.6579C64.6268 22.6579 64.7095 22.5752 64.8749 22.5752C64.8749 22.4098 64.9576 22.3271 65.0403 22.1616C64.9576 22.0789 64.7922 22.0789 64.6268 22.1616ZM72.3181 13.2298C72.3181 13.2298 72.4008 13.1471 72.4008 12.9817L72.2354 13.1471C72.2354 13.2298 72.3181 13.2298 72.3181 13.2298ZM68.5138 9.01197C68.4311 9.01197 68.3484 9.01197 68.2657 9.01197V9.09468L68.5138 9.01197ZM62.6419 8.01955C62.5592 7.93684 62.3111 7.93684 62.2284 8.01955C62.3938 8.10225 62.4765 8.10225 62.6419 8.18495C62.6419 8.18495 62.6419 8.10225 62.6419 8.01955ZM62.9727 11.3276C62.8073 11.493 62.6419 11.6585 62.3938 11.7412C62.6419 12.1547 62.9727 12.4028 63.4689 12.4855C63.3862 13.0644 63.7171 13.3952 64.296 13.3952C64.6268 13.2298 64.5441 12.7336 65.3711 12.899C65.4538 11.7412 63.7171 11.9066 63.3035 11.0795C63.1381 11.1622 63.0554 11.2449 62.9727 11.3276ZM59.5819 13.5606C59.4165 13.726 59.3338 13.8087 59.1684 13.8914C59.1684 13.726 59.003 13.5606 59.003 13.8087C58.9203 13.8087 58.8376 13.8914 58.9203 13.9741C59.2511 14.0568 59.4165 14.553 59.9127 14.8838C59.9954 14.8838 59.9955 14.9665 60.0782 15.0492C60.2436 15.132 60.3263 15.2146 60.4917 15.2146C60.4917 14.8011 60.6571 14.3049 60.2436 14.3049C60.2436 14.553 60.0782 14.6357 59.83 14.553C59.5819 14.2222 59.5819 13.8914 59.5819 13.5606ZM69.5889 59.1296C69.837 59.295 70.0851 59.3777 70.1678 59.4604C70.4159 59.1296 71.3257 59.295 71.243 58.7161C71.0776 58.6334 70.9122 58.468 70.8295 58.3026C70.3332 58.3853 69.7543 58.3026 69.4235 57.9718C69.3408 58.1372 69.2581 58.3026 69.1754 58.5507C69.2581 58.6334 69.3408 58.7161 69.4235 58.7988C69.5062 58.8815 69.5062 59.0469 69.5889 59.1296ZM87.2045 10.2525C87.7007 10.2525 88.0315 9.9217 88.197 9.42549C87.9488 9.7563 87.618 10.0044 87.2045 10.2525ZM81.9943 8.35036C82.077 8.35036 82.1597 8.35036 82.3251 8.35036C82.4078 8.26765 82.4905 8.18495 82.5732 8.10225C82.3251 8.18495 82.1597 8.26765 81.9943 8.35036ZM84.8062 41.2659L84.5581 41.3486V41.4313L84.8062 41.2659ZM84.5581 4.62875C84.4753 5.04226 85.3851 5.12496 85.3851 4.79416C84.9716 4.87686 84.9716 4.54605 84.5581 4.62875ZM79.017 14.553L78.9343 14.6357C78.9343 14.7184 78.9343 14.8011 78.9343 14.8838C78.9343 14.7184 79.017 14.6357 79.017 14.553ZM65.2057 1.98228C65.2884 1.89957 65.3711 1.89957 65.4538 1.73417C65.123 1.48606 64.6268 1.48606 64.2133 1.73417C64.5441 1.81687 64.8749 1.89957 65.2057 1.98228ZM63.1381 -0.0852814L62.8073 -0.00258255C62.9727 -0.00258255 63.0554 -0.00257874 63.1381 -0.0852814ZM50.402 25.5524V25.6351C50.4847 25.6351 50.4847 25.5524 50.5674 25.5524H50.402ZM51.3117 26.2141C51.3117 26.2968 51.3117 26.3795 51.3117 26.5449L51.5598 26.4622L51.4771 26.2141H51.3117ZM55.0333 40.5216C54.6198 40.5216 54.6198 40.7697 54.289 40.8524C54.3717 41.1832 54.6198 41.4313 54.9506 41.514C55.116 41.2659 55.2814 41.1005 55.3641 40.8524C55.1987 40.8524 55.0333 40.687 55.0333 40.5216ZM56.9355 26.4622C57.5971 26.7103 57.6798 27.3719 58.0933 27.8681C58.5895 27.8681 58.4241 27.4546 58.5895 27.2892C58.3414 26.8757 57.7625 26.8757 57.5144 26.1314C57.349 26.2968 56.8528 26.2141 56.9355 26.4622ZM90.3472 16.1244C90.3472 16.2071 90.4299 16.3725 90.4299 16.4552C90.7607 16.4552 90.678 16.0417 90.4299 15.959C90.4299 16.0417 90.3472 16.0417 90.3472 16.1244ZM97.2942 49.8669C97.2942 50.0323 97.4596 50.115 97.5423 50.1977C97.9558 50.115 97.8731 49.0399 98.6174 48.7918C98.6174 48.7918 98.6174 48.7091 98.6174 48.6264C98.6174 48.7091 98.5348 48.7091 98.5348 48.7091C97.625 48.6264 97.5423 49.4534 97.2942 49.8669ZM101.512 31.3416C101.595 31.3416 101.595 31.3416 101.595 31.2589C101.512 31.2589 101.512 31.3416 101.512 31.3416ZM102.918 44.2432C103.001 44.2432 103.083 44.2432 103.166 44.2432C103.331 44.1605 103.58 44.0778 103.745 43.9951C103.828 43.9951 103.91 43.9951 103.993 43.9951V43.9124C103.91 43.8297 102.918 43.9951 102.918 44.2432ZM104.572 42.1756C104.655 42.341 104.655 42.6718 104.903 42.6718C104.903 42.5064 105.399 41.9275 105.068 41.9275C105.068 42.0929 104.737 42.0929 104.572 42.1756ZM93.9034 4.29794C93.738 4.46334 93.5726 4.54605 93.4072 4.62875C93.738 4.79416 94.1515 4.87686 94.565 4.79416C94.3996 4.46334 93.9861 4.62875 93.9034 4.29794ZM91.3396 7.02712C91.2569 6.94442 91.1742 6.86171 91.0915 6.86171C90.9261 6.94442 90.7607 7.10982 90.678 7.27522C90.8434 7.35793 91.1742 7.44063 91.3396 7.02712ZM81.4981 5.12497C81.4981 5.04226 81.4981 5.04226 81.4154 5.04226L81.4981 5.12497ZM57.5971 11.0795C57.4317 11.1622 57.2663 11.2449 57.1009 11.4103C57.0182 11.7411 56.9355 11.9893 56.8528 12.3201C57.0182 12.4855 57.1836 12.6509 57.349 12.899C57.6798 12.6509 57.9279 12.3201 58.0933 11.9893C58.176 11.9066 58.176 11.9066 58.2587 11.9066C58.0933 11.5757 57.8452 11.3276 57.5971 11.0795ZM50.402 16.9514C50.402 16.9514 50.402 16.8687 50.402 16.7033C50.3193 16.6206 49.9885 16.786 49.9885 16.8687C49.9885 16.9514 49.9885 16.9514 49.9885 16.9514C50.0712 16.9514 50.2366 16.9514 50.402 16.9514ZM52.056 36.9654C52.1387 37.2962 52.3041 37.5443 52.3868 37.7097C52.8003 37.7097 53.3793 37.7097 53.7928 37.8751C53.8755 37.627 54.289 37.5443 54.4544 37.2962C53.7928 36.3037 53.0485 36.6346 52.056 36.9654ZM53.0485 45.4837C52.8004 45.5664 51.8906 45.401 52.3041 45.9799C52.6349 45.6491 53.1312 45.9799 53.0485 45.4837ZM55.1987 49.2053C55.0333 49.6188 54.7852 49.9496 54.7025 50.4459C55.3641 50.5286 55.1987 49.7842 55.7776 49.7015C55.6949 49.6188 55.6122 49.5361 55.6122 49.4534C55.4468 49.3707 55.2814 49.288 55.1987 49.2053ZM67.1906 71.8658C67.1079 71.7831 67.0251 71.7831 66.9424 71.7831L66.8597 71.8658C66.9425 71.8658 67.1079 71.8658 67.1906 71.8658ZM73.0624 67.5652C73.3932 67.5652 73.724 67.5652 74.2203 67.4825C74.2203 67.2344 74.2203 66.9863 74.1376 66.7382C74.0549 66.7382 73.9721 66.6555 73.8894 66.6555C73.4759 66.9863 73.2278 67.2344 73.0624 67.5652ZM98.6174 61.4453C98.7001 61.528 98.7001 61.6107 98.7829 61.7761C98.7001 61.6934 98.7001 61.528 98.6174 61.4453ZM110.361 13.3952C110.444 13.3952 110.527 13.3952 110.527 13.4779C110.527 13.3125 110.527 13.2298 110.527 13.0644C110.444 13.0644 110.361 13.0644 110.278 13.0644C110.361 13.1471 110.444 13.3125 110.361 13.3952ZM113.752 30.2665H113.338C113.338 30.5973 113.09 30.5146 113.338 30.7627C113.669 30.7627 113.752 30.5973 113.752 30.2665ZM111.436 43.5816C111.85 43.747 111.85 43.0026 111.436 43.168V43.5816ZM113.917 44.8221C113.917 44.6567 114 44.4913 114.083 44.1605C114.083 43.9951 114 43.8297 113.917 43.747C113.752 43.4989 113.587 43.2507 113.338 42.9199C112.925 43.6643 112.76 44.6567 111.933 45.0702C112.015 45.1529 112.098 45.2356 112.181 45.3183C112.677 44.8221 112.925 44.9875 113.669 45.0702C113.752 44.9875 113.835 44.9048 113.917 44.8221ZM107.715 12.6509C107.632 12.3201 107.797 12.1547 107.88 12.072C107.549 11.9893 107.301 11.9066 107.053 11.7412C107.053 11.9893 106.97 12.2374 106.888 12.4855C107.053 12.5682 107.301 12.6509 107.715 12.6509ZM90.678 -3.80689V-4.055C90.4299 -4.3858 89.851 -4.3031 89.3548 -4.46851C89.6029 -3.97229 90.1818 -3.72419 90.678 -3.80689ZM69.0927 -4.71662C68.7619 -4.96472 68.3484 -5.13013 67.9349 -5.21283C67.9349 -4.96472 67.7695 -4.79932 67.6041 -4.63391C67.9349 -4.1377 68.4311 -3.72419 69.01 -3.39338C69.0927 -3.39338 69.1754 -3.47608 69.2581 -3.55878C69.1754 -3.97229 68.9273 -4.2204 69.0927 -4.71662ZM57.349 -0.498795C57.2663 -0.416092 57.1009 -0.333389 56.9355 -0.250687C56.7701 -0.00258255 56.6047 0.328228 56.4393 0.659035C57.1009 0.907143 57.8452 1.07255 58.5895 1.07255C58.4241 0.576336 58.2587 0.0801201 58.0933 -0.416092C57.7625 -0.25069 57.5144 -0.00257874 57.349 -0.498795ZM52.1387 13.8914C51.5598 14.1395 50.9809 14.4703 50.2366 14.8011C50.3193 14.8838 50.3193 15.0492 50.2366 15.1319C50.2366 15.4628 50.2366 15.7936 50.402 15.959C51.5598 15.4628 51.5598 14.8011 52.1387 13.8914ZM28.8994 -6.03985C28.734 -6.12255 28.5686 -6.03985 28.4032 -5.95715C28.4032 -5.79175 28.5686 -5.79175 28.734 -5.79175C28.734 -5.87445 28.6513 -5.87445 28.6513 -5.95715C28.734 -5.95715 28.8167 -6.03985 28.8994 -6.03985ZM23.2756 13.1471C23.1102 13.1471 22.9448 13.1471 22.9448 13.3952C23.1102 13.3125 23.1929 13.2298 23.2756 13.1471ZM26.9145 49.7015C27.2453 50.115 27.7415 50.115 28.155 50.3632C28.2378 50.1977 28.2378 50.115 28.3205 49.9496H28.2378C28.155 49.9496 28.0723 49.6188 28.0723 49.6188C27.8242 49.5361 27.8242 49.8669 27.5761 49.8669C27.328 49.8669 27.0799 49.3707 26.9972 49.5361C26.9145 49.6188 26.9145 49.6188 26.9145 49.7015ZM28.8167 49.7015C28.6513 49.7842 28.5686 49.8669 28.4032 49.9496C28.4859 49.9496 28.6513 49.9496 28.6513 49.9496C28.734 49.8669 28.734 49.7842 28.8167 49.7015ZM33.0345 59.0469C33.1172 58.9642 33.1172 58.7988 33.1172 58.7161C33.1172 58.8815 33.0345 58.9642 33.0345 59.0469ZM41.8836 59.6258C42.2144 59.8739 42.5453 60.122 42.4626 60.4528C42.7107 60.6182 43.0415 60.6182 43.455 60.7836C43.2069 60.0393 42.7107 59.5431 41.8836 59.6258ZM48.0036 55.2426C48.0036 55.3253 48.0036 55.408 48.0863 55.4907H48.169C48.169 55.408 48.0863 55.3253 48.0036 55.2426ZM60.2436 55.1599V55.6561H60.4917V55.1599H60.2436ZM66.6116 77.1587C66.5289 77.2414 66.4462 77.4068 66.3635 77.4895L66.8597 77.3241L66.777 77.076L66.6116 77.1587ZM68.8446 79.3917C68.5965 79.4744 68.3484 79.5571 68.183 79.6398C68.9273 79.8052 69.6716 79.9706 70.4159 80.2187C70.4159 80.136 70.3332 79.9706 70.3332 79.8879C70.1678 79.5571 69.5889 79.309 69.2581 79.7225C69.0927 79.6398 69.01 79.4744 68.8446 79.3917ZM101.512 61.1972C102.091 60.7836 102.587 60.2874 102.753 59.7912C102.256 59.6258 101.76 59.4604 101.264 59.2123C100.933 57.8891 100.437 57.5583 100.189 56.8139C99.6926 56.8139 100.189 57.3101 99.6926 57.3928C100.106 57.9718 99.6099 58.2199 99.6099 58.6334C99.6926 58.7161 99.7753 58.7988 99.858 58.8815C100.602 59.9566 100.52 61.1972 101.512 61.1972ZM104.324 56.8966C104.407 57.062 104.241 57.4755 104.572 57.3928C104.655 57.1447 104.572 56.8966 104.324 56.8966ZM104.324 48.0475C104.407 48.0475 104.489 48.1302 104.489 48.0475C104.572 48.0475 104.655 48.0475 104.655 47.9648C104.572 47.7167 104.407 47.634 104.241 47.634C104.159 47.7994 104.324 47.7994 104.324 48.0475ZM121.526 49.3707C121.857 49.0399 122.27 48.7091 122.767 48.5437C122.022 48.6264 121.195 48.7091 120.451 48.7918C120.699 49.2053 121.113 49.3707 121.526 49.3707ZM123.759 15.7109L123.594 15.7936V15.8763C123.594 15.7936 123.759 15.7936 123.759 15.7109ZM116.15 17.1995C116.068 16.7033 115.323 16.8687 115.654 17.3649L116.15 17.1995ZM113.421 18.3573C113.587 18.6054 113.752 18.7709 114 18.9363C114.744 18.3573 114.579 17.4476 115.158 16.786C114.993 16.786 114.827 16.7033 114.744 16.6206C114.579 16.7033 114.414 16.8687 114.248 17.0341C112.677 16.9514 112.181 17.2822 111.271 17.1995C111.271 17.2822 111.271 17.2822 111.271 17.3649C111.354 17.4476 111.354 17.4476 111.436 17.5303C111.602 17.613 111.767 17.613 111.684 17.8611C112.594 17.6957 112.511 18.44 113.421 18.3573ZM109.534 -2.31824C109.7 -2.48365 109.865 -2.56635 110.03 -2.73176C109.782 -2.73176 109.617 -2.64906 109.451 -2.64906C109.451 -2.56636 109.451 -2.40095 109.534 -2.31824ZM105.068 -7.36309C105.151 -7.44579 105.151 -7.5285 105.234 -7.6939C105.068 -7.6939 104.986 -7.7766 104.82 -7.7766C104.82 -7.61119 104.903 -7.44579 105.068 -7.36309ZM103.993 -8.02471C103.828 -8.02471 103.662 -8.02471 103.497 -8.10741V-8.02471C103.58 -8.02471 103.828 -8.02471 103.993 -8.02471ZM103.166 2.31308C103.001 1.98227 102.67 1.73417 102.339 1.65147C102.091 1.89957 101.926 2.23038 101.926 2.56119C102.256 2.7266 102.587 2.9747 102.918 3.14011C102.835 2.892 103.001 2.64389 103.166 2.31308ZM100.023 -0.250687C99.7753 -0.581497 99.6926 -0.912308 99.3618 -1.07771C99.2791 -0.581497 99.031 -0.0852814 98.7001 0.328228C99.1137 0.0801201 99.5272 -0.0852852 100.023 -0.250687ZM96.6326 -9.92686C96.5499 -9.92686 96.4672 -9.92686 96.3845 -9.92686C96.3845 -9.76146 96.3018 -9.59605 96.2191 -9.43065C96.9634 -9.51335 96.798 -8.85173 97.2942 -8.68633C97.2942 -9.09984 97.3769 -9.43065 97.3769 -9.67876C97.2115 -9.59605 97.0461 -9.51335 96.9634 -9.67876C96.798 -10.0923 97.2942 -10.0923 96.9634 -10.5058C96.1364 -10.6712 96.9634 -10.0096 96.6326 -9.92686ZM95.144 -11.7463L94.8958 -11.6636V-11.5809H95.144V-11.7463ZM83.0694 -3.06257C82.9867 -3.14527 82.904 -3.22797 82.7386 -3.22797V-3.14527C82.8213 -3.14527 82.9867 -3.06257 83.0694 -3.06257ZM77.2802 -2.56635C77.4456 -2.56635 77.611 -2.64906 77.7765 -2.64906C78.0246 -2.89716 78.2727 -2.97987 78.6035 -2.97987C78.5208 -3.55878 78.19 -4.055 77.5284 -4.2204C77.5284 -4.2204 77.4456 -4.2204 77.3629 -4.2204C76.9494 -3.72419 76.5359 -3.22797 75.957 -2.81446C76.2878 -2.73176 76.5359 -2.48365 76.9494 -2.89716C77.0321 -2.73176 77.1975 -2.64906 77.2802 -2.56635ZM57.349 -5.29553C57.349 -5.29553 57.349 -5.29553 57.4317 -5.21283V-5.29553H57.349ZM51.0636 -9.76146L50.8982 -9.67876C50.8982 -9.59605 50.8982 -9.51335 50.8982 -9.43065L51.1463 -9.51335L51.0636 -9.76146ZM28.155 -5.62634C28.0723 -5.46094 27.9896 -5.37823 27.9069 -5.21283V-5.13013C28.0723 -5.21283 28.1551 -5.21283 28.3205 -5.21283C28.3205 -5.29553 28.4032 -5.29553 28.4859 -5.37823C28.4859 -5.46094 28.4859 -5.54364 28.4859 -5.62634C28.4032 -5.62634 28.2378 -5.62634 28.155 -5.62634ZM21.6216 22.3271C21.2081 22.5752 20.9599 22.906 20.7945 23.4849C21.0426 23.2368 21.3735 23.0714 21.6216 22.8233C21.6216 22.7406 21.6216 22.7406 21.6216 22.6579C22.1178 22.1616 22.614 21.5 22.8621 20.8384L22.614 20.5903C22.614 20.673 22.5313 20.7557 22.5313 20.8384C22.0351 20.9211 22.1178 21.4173 21.7043 21.5V22.3271H21.6216ZM18.5616 41.3486V41.5967H18.8097V41.3486H18.5616ZM29.2302 56.8966C29.2302 57.062 29.0648 57.4755 29.4783 57.3928C29.6437 57.1447 29.561 56.8966 29.2302 56.8966ZM45.4398 56.3177H45.2744L45.3571 56.5658H45.5225C45.5225 56.4831 45.4398 56.4004 45.4398 56.3177ZM45.5225 49.4534C45.6052 49.6188 45.6879 49.7015 45.8534 49.8669C46.2669 49.4534 46.6804 49.1226 47.2593 48.7091C47.1766 48.461 47.0939 48.2129 46.9285 47.9648C46.4323 48.2956 45.9361 48.7918 45.5225 49.4534ZM57.2663 77.903C57.5971 78.0684 57.8452 78.2338 58.0106 78.4819C58.176 78.3165 58.2587 78.1511 58.2587 77.903C58.0933 77.7376 58.0106 77.5722 58.0106 77.4068C57.5144 77.6549 57.0182 77.076 57.1836 76.7452C57.1009 76.6625 57.0182 76.7452 56.8528 76.7452C56.8528 77.1587 57.0182 77.5722 57.2663 77.903ZM60.8225 69.5501C60.9052 69.5501 60.9879 69.5501 61.0706 69.4674H60.8225V69.5501ZM77.6938 70.5425C77.6938 70.6252 77.6111 70.7079 77.6111 70.8733C77.7765 70.8733 77.8592 70.956 77.9419 71.0387C77.7765 70.8733 77.9419 70.7906 77.8592 70.5425C77.7765 70.5425 77.7765 70.5425 77.6938 70.5425ZM84.1445 73.9333L83.8964 74.016L83.9791 74.2641L84.2272 74.1814L84.1445 73.9333ZM98.7829 71.3696C99.1137 71.4523 99.3618 71.7004 99.5272 71.9485C99.6926 71.9485 99.9407 71.8658 100.106 71.7831C100.271 71.7831 100.271 71.7004 100.189 71.535C99.9407 71.3696 99.5272 71.3696 99.1964 71.535C99.1137 71.4523 98.9483 71.2868 98.7829 71.2041C98.8656 71.2868 98.7829 71.2868 98.7829 71.3696ZM104.076 51.0248C104.489 50.8594 104.903 50.6113 105.316 50.3632C105.234 50.0323 105.068 49.7842 104.737 49.7015C104.737 49.7842 104.82 50.0323 104.737 50.115C104.572 50.3632 104.324 50.4459 104.159 50.6113C104.076 50.7767 104.076 50.8594 104.076 51.0248ZM128.225 32.913C128.225 32.8303 128.225 32.8303 128.225 32.913V32.913ZM123.842 12.7336V12.4855H123.511V12.7336H123.842ZM113.587 -1.16041C113.338 -0.746902 114.165 -0.746902 114.165 -0.99501C113.917 -1.07771 113.917 -1.24311 113.587 -1.16041ZM100.933 -12.4079C101.016 -12.7387 100.933 -12.9868 100.685 -12.9041C100.685 -12.656 100.354 -12.7387 100.437 -12.4079C100.52 -12.4079 100.602 -12.4079 100.685 -12.3252C100.768 -12.3252 100.85 -12.4079 100.933 -12.4079ZM91.3396 -12.2425C91.505 -12.2425 91.5877 -12.3252 91.7532 -12.4906C91.505 -12.4906 91.2569 -12.5733 91.3396 -12.2425ZM79.5959 -11.4982C79.5132 -11.5809 79.5132 -11.5809 79.5959 -11.4982V-11.4982ZM61.1533 -6.37066C60.9879 -6.37066 60.7398 -6.45336 60.5744 -6.53606C60.409 -6.20526 60.2436 -5.95715 60.0782 -5.70904C60.4917 -5.87445 60.8225 -6.12255 61.1533 -6.37066ZM58.5895 -14.4755C58.7549 -14.5582 58.8376 -14.7236 58.9203 -14.8063C58.5895 -15.0544 58.176 -15.1371 57.6798 -15.0544C57.8452 -14.7236 58.176 -14.5582 58.5895 -14.4755ZM49.8231 -13.6485C49.4923 -13.4831 49.4096 -13.5658 49.4096 -13.7312C49.3269 -13.6485 49.2441 -13.5658 49.1614 -13.4831L49.2441 -13.4004C49.4922 -13.1523 49.7404 -13.1523 49.9885 -13.3177L49.8231 -13.6485ZM28.2378 -0.167988C27.4934 -0.0852852 26.6664 -0.167984 26.0048 -0.333389C26.501 0.162827 26.0048 1.15525 26.0875 1.81687C26.3356 1.81687 26.501 1.81687 26.7491 1.81687C27.2453 1.15525 28.0723 0.659035 28.2378 -0.167988ZM18.3962 22.0789C18.5616 22.2444 18.6443 22.4098 18.6443 22.4925C18.727 22.2444 18.727 21.9962 18.6443 21.8308C19.0578 21.4173 19.8021 21.3346 19.7194 20.4249C20.1329 20.3422 20.2156 20.0114 20.381 19.6806C20.0502 19.6806 19.6367 19.6806 19.2232 19.7633C19.2232 20.5903 19.2232 21.4173 18.3962 22.0789ZM22.9448 50.6113C22.9448 50.9421 23.0275 51.2729 23.1929 51.6037C23.2756 51.6864 23.441 51.7691 23.5237 51.7691C23.3583 51.2729 23.6064 51.1902 23.7718 51.0248C23.441 51.0248 23.3583 50.5286 22.9448 50.6113ZM25.5086 52.6788C25.5086 52.7615 25.4259 52.9269 25.3432 53.0096C25.4259 53.0923 25.5913 53.0923 25.674 53.175C25.674 53.0923 25.7567 53.0096 25.8394 53.0096C25.9221 53.0096 25.9221 52.9269 25.9221 52.8442C25.8394 52.7615 25.8394 52.6788 25.5086 52.6788ZM25.0124 56.3177C25.1778 56.6485 25.2605 56.8966 25.4259 57.2274C25.674 56.9793 26.1702 56.8966 26.4183 56.4831C26.0048 56.8139 25.3432 56.7312 25.0124 56.3177ZM28.8167 58.3853C28.8167 58.468 28.8994 58.468 28.9821 58.468C28.8994 58.3853 28.8994 58.3853 28.8167 58.3853ZM29.8091 61.6934C29.8091 61.6107 29.8091 61.528 29.8091 61.4453C29.7264 61.3626 29.561 61.3626 29.4783 61.2799C29.6437 61.4453 29.7264 61.528 29.8091 61.6934ZM40.9739 64.009C41.6355 64.4225 42.1317 65.0015 42.2145 65.7458C42.628 65.4977 43.2069 65.2496 43.2896 64.7534C42.628 64.6707 41.9663 64.2571 41.8009 63.6782C41.5528 63.6782 41.3874 63.5955 41.222 63.5955C41.1393 63.7609 41.0566 63.9263 40.9739 64.009ZM46.1015 59.9566C46.1842 60.122 46.3496 60.2874 46.515 60.2047C46.4323 60.0393 46.3496 59.7912 46.1015 59.9566ZM45.9361 59.0469C46.3496 58.9642 46.7631 59.2123 47.0112 59.7085C47.0112 59.6258 47.0112 59.6258 47.0112 59.5431C46.515 59.0469 46.2669 58.3026 46.4323 57.641C46.3496 57.4756 46.1015 57.5583 45.9361 57.4756C45.8534 57.4756 45.688 57.4756 45.5225 57.4756C45.5225 57.062 44.9436 56.9793 44.6955 57.2274C44.8609 57.4756 44.9436 57.641 45.109 57.8891C45.3571 58.2199 46.0188 58.468 45.9361 59.0469ZM53.462 60.4528C52.4695 59.8739 52.3041 61.4453 52.3868 61.8588C53.0485 61.6107 53.3793 61.0318 53.462 60.4528ZM57.0182 62.355C57.1009 62.4377 57.2663 62.5204 57.4317 62.7685C57.5971 62.6858 57.7625 62.6858 57.9279 62.6031C58.0106 62.7685 58.176 62.8512 58.3414 63.0166C58.4241 62.8512 58.7549 62.7685 58.9203 62.6858C58.9203 62.5204 58.9203 62.4377 58.9203 62.355C58.4241 62.355 58.2587 61.7761 57.7625 61.4453C57.5971 61.7761 57.4317 61.9415 56.9355 61.6107V62.355H57.0182ZM54.7852 76.5798C54.6198 76.5798 54.3717 76.6625 54.289 76.8279C54.4544 76.9106 54.5371 76.9933 54.6198 77.076C54.7852 76.9933 54.8679 76.7452 54.7852 76.5798ZM95.8883 76.1663C96.0537 76.1663 96.1364 76.0836 95.8056 76.0009C95.8056 76.0836 95.8883 76.0836 95.8883 76.1663ZM103.166 74.016V74.2641H103.414V74.1814C103.331 74.0987 103.331 74.0987 103.249 74.016H103.166C103.166 73.9333 103.166 73.9333 103.166 74.016ZM118.466 60.7009L118.549 60.9491L118.797 60.8663L118.714 60.6182L118.466 60.7009ZM127.563 54.6637H127.729C127.729 54.581 127.811 54.4983 127.811 54.4156H127.563V54.6637ZM128.721 32.4167C129.052 32.2513 129.548 32.0859 129.465 31.7551C129.3 32.0032 128.969 32.1686 128.721 32.4167ZM109.534 -11.0847C109.286 -11.3328 108.873 -11.4982 108.294 -11.6636C107.88 -11.6636 107.301 -11.4982 106.97 -11.2501C107.136 -11.2501 107.136 -11.1674 107.136 -11.002C106.97 -11.002 106.722 -10.9193 106.557 -10.8366C106.64 -10.7539 106.64 -10.7539 106.64 -10.6712C107.384 -10.5058 108.128 -10.2577 108.79 -9.92686C108.79 -10.4231 109.369 -10.6712 109.534 -11.0847ZM106.64 -12.4906C106.557 -12.4906 106.391 -12.4906 106.226 -12.4906C106.226 -12.3252 106.391 -12.2425 106.64 -12.2425V-12.4906ZM100.685 -13.235C100.933 -13.235 101.099 -13.4004 101.099 -13.6485C101.016 -13.5658 100.85 -13.5658 100.685 -13.5658C100.685 -13.4831 100.685 -13.3177 100.685 -13.235ZM94.3169 -14.5582C94.3169 -14.7236 94.3169 -14.889 94.2342 -15.0544C94.0688 -14.889 94.0688 -14.7236 94.2342 -14.5582H94.3169ZM79.1824 -22.2495L79.4305 -22.3322C79.4305 -22.4149 79.3478 -22.4976 79.3478 -22.5803L79.0997 -22.4976C79.0997 -22.4149 79.1824 -22.3322 79.1824 -22.2495ZM63.0554 -20.2647C63.0554 -20.2647 63.0554 -20.2647 62.9727 -20.182C63.0554 -20.182 63.0554 -20.182 63.1381 -20.182C63.1381 -20.182 63.1381 -20.2647 63.0554 -20.2647ZM63.5517 -17.949H63.2208V-17.7009H63.5517V-17.949ZM56.3566 -18.1144C56.6874 -17.8663 56.7701 -18.5279 56.522 -18.5279C56.522 -18.4452 56.4393 -18.3625 56.3566 -18.3625V-18.1144ZM44.7782 -7.11498C44.6955 -7.28039 44.5301 -7.36309 44.282 -7.44579C43.9512 -7.03228 43.7031 -6.61877 43.2896 -6.20526C43.2896 -6.12255 43.3723 -5.95715 43.3723 -5.95715C43.7858 -5.87445 44.3647 -6.20526 44.8609 -6.20526C44.9436 -6.20526 44.9436 -6.20526 44.9436 -6.20526C45.6052 -6.45337 46.2669 -6.86687 46.6804 -7.36309C46.2669 -7.36309 45.9361 -7.44579 45.5225 -7.6112C45.1917 -7.44579 45.0263 -7.28039 44.7782 -7.11498ZM37.335 -6.94958C37.5004 -7.03228 37.7485 -7.11498 37.7485 -7.28039C37.5831 -7.19769 37.4177 -7.11498 37.335 -6.94958ZM22.614 -3.14527C22.6967 -3.14527 22.7794 -3.14527 22.8621 -3.22797L22.614 -3.14527C22.6967 -3.14527 22.6967 -3.14527 22.614 -3.14527ZM30.8842 66.0766C30.7188 66.5728 30.6361 66.9863 30.5534 67.4825C31.215 67.5652 31.7113 67.9788 32.2902 68.1441C32.2075 67.1517 31.5458 66.6555 30.8842 66.0766ZM31.7113 65.3323C31.8767 65.415 32.8691 65.3323 32.8691 65.0015C32.621 64.8361 31.7113 65.0015 31.7113 65.3323ZM31.6285 63.4301C32.0421 63.6782 32.4556 63.8436 32.8691 64.009C32.621 63.5128 32.2075 63.182 31.7113 62.8512C31.7113 63.0166 31.6285 63.2647 31.6285 63.4301ZM34.275 67.7306C34.0269 67.9788 33.6961 68.2269 33.7788 68.7231C34.4404 68.9712 34.4404 68.2269 34.275 67.7306ZM35.102 67.7306C35.1847 67.8133 35.1847 67.8133 35.2675 67.8133C35.2675 67.8133 35.1847 67.7306 35.102 67.7306ZM37.5004 64.6707C37.5004 64.8361 37.6658 65.0842 37.7485 65.1669C37.8312 64.9188 37.8312 64.6707 37.6658 64.5053C37.5831 64.588 37.5831 64.588 37.5004 64.6707ZM39.0718 66.0766C39.2372 65.8285 39.4026 65.8285 39.4853 65.9112C39.4026 65.5804 39.4026 65.2496 39.4853 64.9188C39.0718 65.0015 39.2372 64.588 38.8237 64.6707C38.5755 64.9188 38.4928 65.2496 38.4101 65.5804C38.6582 65.6631 38.9064 65.8285 39.0718 66.0766ZM46.1015 69.7155V69.9636H46.3496V69.7982L46.2669 69.7155H46.1015ZM50.8982 62.6858C51.0636 62.7685 51.229 62.7685 51.3117 62.8512C51.3117 62.6858 51.229 62.6031 50.8982 62.6858ZM53.6274 81.79C53.6274 81.8727 53.7101 81.8727 53.7101 81.8727L53.6274 81.79ZM57.2663 87.7446C57.2663 87.7446 57.1836 87.6619 57.1009 87.5792C57.1836 87.6619 57.2663 87.6619 57.2663 87.7446ZM57.5144 88.2408L57.7625 88.1581L57.6798 87.91L57.4317 87.9927C57.4317 88.0754 57.5144 88.1581 57.5144 88.2408ZM60.409 85.2635C60.409 85.3462 60.409 85.429 60.4917 85.429C60.5744 85.429 60.5744 85.3462 60.6571 85.3462C60.5744 85.2635 60.4917 85.2635 60.409 85.2635ZM90.5126 78.1511C90.5953 78.0684 90.7607 77.903 90.8434 77.7376C90.7607 77.4068 90.678 77.076 90.8434 76.9106C90.1818 76.4971 89.3548 76.1663 88.6932 75.7528C88.2797 76.0836 87.8661 76.249 87.3699 76.3317C87.1218 76.9106 86.8737 77.4895 86.5429 77.9857C86.7083 78.1511 86.791 78.3992 86.791 78.6473C87.9488 79.0609 89.3548 78.2338 90.5126 78.1511ZM102.422 75.3393C102.587 75.3393 102.753 75.2566 102.835 75.1739C102.918 74.843 102.918 74.5949 102.835 74.2641C102.67 74.3468 102.422 74.2641 102.422 74.4295C102.918 74.7603 101.926 74.843 101.843 75.0912C101.843 75.2566 102.422 75.0911 102.422 75.3393ZM105.647 66.6555C105.73 66.6555 105.73 66.6555 105.647 66.6555V66.6555ZM107.467 67.9788C107.384 68.0615 107.384 68.1441 107.301 68.3096C107.549 68.3096 107.88 67.8133 107.549 67.896C107.549 67.896 107.549 67.896 107.467 67.9788ZM131.45 48.7091C131.533 48.7918 131.616 48.7918 131.616 48.7918C131.616 48.7091 131.533 48.7091 131.45 48.7091ZM117.225 -2.15284C117.556 -2.56635 117.804 -2.97987 117.887 -3.47608C117.308 -3.14527 116.647 -2.89716 115.985 -2.81446C116.316 -2.48365 116.812 -2.23554 117.225 -2.15284ZM108.294 -14.9717C108.294 -14.9717 108.376 -15.0544 108.459 -14.9717C108.211 -15.1371 108.128 -15.4679 107.632 -15.3852C107.88 -15.2198 108.046 -15.1371 108.294 -14.9717ZM96.8807 -19.1895C96.798 -19.1895 96.798 -19.1895 96.798 -19.1068C96.798 -19.0241 96.8807 -18.9414 96.9634 -18.9414C96.8807 -19.0241 96.8807 -19.1068 96.8807 -19.1895ZM79.5132 -22.1668C79.5959 -22.1668 79.6786 -22.2495 79.844 -22.3322C79.7613 -22.3322 79.5959 -22.3322 79.5132 -22.2495V-22.1668ZM75.3781 -23.0765C75.13 -23.4073 74.7992 -23.6555 74.2203 -23.6555C74.5511 -22.9938 74.9646 -22.4149 75.6262 -22.0014C75.5435 -22.3322 75.4608 -22.7457 75.3781 -23.0765ZM71.7392 -22.663C72.2354 -22.7457 72.07 -23.3246 71.6565 -23.1592C71.7392 -22.9111 71.4084 -22.8284 71.7392 -22.663ZM70.8295 -22.663L71.0776 -22.7457L70.9949 -22.9938L70.7468 -22.9111L70.8295 -22.663ZM37.6658 -14.4755C37.7485 -14.1447 37.9966 -14.1447 38.3274 -14.3101C38.162 -14.5582 37.8312 -14.8063 37.6658 -14.4755ZM23.1929 -5.46093C23.1102 -5.46093 23.0275 -5.46094 22.9448 -5.54364V-5.46093H23.1929ZM4.50218 23.5676C4.50218 23.8984 4.41947 24.1465 4.33677 24.4773C4.41947 24.7254 4.50218 25.0562 4.58488 25.387C4.91569 25.3043 4.75028 25.0562 5.1638 25.0562L4.83299 24.0638L5.4119 23.8984C5.3292 23.6503 5.2465 23.4849 5.1638 23.2368C4.91569 23.4022 4.75028 23.4849 4.50218 23.5676ZM10.4567 55.8215C10.7049 56.4004 11.1184 56.9793 11.6973 57.3102C11.8627 56.9793 12.0281 56.6485 12.1108 56.235C11.6973 55.9869 11.2838 55.6561 10.8703 55.3253C10.7049 55.4907 10.5394 55.6561 10.4567 55.8215ZM14.5919 61.1972C15.0881 61.2799 15.2535 61.6934 15.667 62.1896C15.8324 62.1896 15.9151 62.1896 16.0805 62.1896C15.9978 61.7761 15.667 61.9415 15.667 61.528C15.9151 61.528 15.9151 61.3626 15.8324 61.1972C15.7497 61.1145 15.667 61.0318 15.667 60.9491C15.2535 60.9491 14.84 60.8663 14.4265 60.7009C14.5092 60.8663 14.5919 61.0318 14.5919 61.1972ZM15.8324 62.6031C15.8324 62.6858 15.9151 62.7685 15.9978 62.7685H16.0805L15.9978 62.5204L15.8324 62.6031ZM17.4864 55.9042C17.5691 56.4004 17.6518 56.8966 17.9 57.3102C18.1481 56.9793 18.2308 56.5658 18.1481 56.235C17.9827 56.0696 17.7346 55.9042 17.4864 55.9042ZM44.7782 70.2944C44.9436 70.3771 45.0263 70.3771 45.109 70.4598C45.109 70.2944 45.0263 70.2117 44.9436 70.129C44.8609 70.2117 44.8609 70.2117 44.7782 70.2944ZM48.9133 70.956C48.6652 71.1214 48.4998 71.2868 48.3344 71.3696C48.6652 71.535 48.996 71.6177 49.4923 71.7004C49.2441 71.4522 49.0787 71.2041 48.9133 70.956ZM51.5598 74.5949C51.3117 74.5949 51.0636 74.5949 51.1463 74.843C51.3117 74.843 51.4771 74.7603 51.5598 74.5949ZM50.402 82.369H50.4847C50.4847 82.2863 50.4847 82.1209 50.402 82.1209C50.402 82.1209 50.402 82.2036 50.3193 82.2036C50.402 82.2863 50.402 82.2863 50.402 82.369ZM58.6722 88.8197C59.0857 88.8197 59.9955 89.0679 59.7473 88.2408C59.1684 88.737 59.0857 88.1581 58.3414 88.2408C58.2587 88.5716 58.6722 88.4062 58.6722 88.8197ZM63.1381 90.6392C63.2208 90.6392 63.3036 90.7219 63.3863 90.8046C63.3863 90.5565 63.4689 90.3084 63.1381 90.3911V90.6392ZM81.5808 86.5041C81.7462 86.5041 81.8289 86.4214 82.077 86.3387C81.9116 86.1733 81.8289 86.0079 81.9116 85.7598C81.6635 85.7598 81.4154 85.7598 81.1673 85.8425C81.4154 85.9252 81.6635 86.0906 81.5808 86.5041ZM90.3472 90.3911C90.3472 90.3084 90.3472 90.2257 90.4299 89.9776C90.0164 89.8949 90.0164 90.2257 89.6029 90.143C89.6856 89.7295 89.2721 89.8949 89.024 89.8949C88.8586 90.3911 88.6105 90.7219 88.2797 91.0527C88.7759 91.3008 89.1067 90.8873 89.2721 90.4738C89.5202 90.4738 89.9337 90.4738 90.3472 90.3911ZM100.933 84.9327V85.3462H101.181C101.181 85.2635 101.347 85.1808 101.347 85.0981C101.181 85.0154 101.181 84.9327 100.933 84.9327ZM108.459 72.2793C108.955 71.9485 109.451 71.535 109.865 71.1214C109.617 71.1214 109.451 71.0387 109.203 70.956C108.873 71.3696 108.624 71.7831 108.459 72.2793ZM118.714 66.0766C118.218 66.1593 118.301 66.4901 118.301 66.7382C118.466 66.7382 118.714 66.5728 118.88 66.4074L118.714 66.0766ZM124.834 76.9933C124.917 77.5722 124.09 77.3241 124.172 77.903H125.33C125.248 77.6549 125.413 77.076 124.834 76.9933ZM126.323 68.3096C126.405 68.2269 126.323 68.1442 126.323 68.0615V68.3096ZM136.909 49.0399C136.743 49.0399 136.661 48.8745 136.495 49.0399L136.578 49.288C136.826 49.3707 136.909 49.288 136.909 49.0399ZM138.563 9.6736C138.48 9.7563 138.232 9.75629 138.232 9.9217C138.315 9.9217 138.397 9.9217 138.397 10.0044C138.563 9.9217 138.728 9.839 138.563 9.6736ZM139.555 19.3498C139.555 19.4325 139.555 19.5979 139.555 19.6806C139.638 19.6806 139.721 19.6806 139.721 19.6806C139.638 19.5152 139.638 19.4325 139.555 19.3498ZM141.871 20.0114L141.953 20.1768C141.953 20.0941 142.036 20.0114 142.119 19.9287L141.871 20.0114ZM141.705 19.4325L141.457 19.5152C141.457 19.5979 141.54 19.6806 141.54 19.7633L141.788 19.6806L141.705 19.4325ZM141.292 40.1081H141.457C141.54 39.9427 141.623 39.6118 141.209 39.6945C141.292 39.7773 141.209 40.0254 141.292 40.1081ZM142.202 30.68C142.202 30.68 142.202 30.68 142.202 30.5973H142.036C142.119 30.5973 142.119 30.68 142.202 30.68ZM142.036 28.5297V28.2816H141.705V28.5297H142.036ZM141.044 46.807C140.961 47.3859 140.878 47.8821 140.796 48.3783C140.796 48.461 140.796 48.5437 140.796 48.6264C141.044 48.5437 141.375 48.461 141.457 48.7918C142.532 48.3783 141.292 47.634 141.871 47.0551C141.54 47.0551 141.375 46.807 141.044 46.807ZM141.54 27.8681C142.367 27.7854 143.194 27.2065 143.525 26.2968C143.194 25.966 142.946 25.6351 142.698 25.2216C141.209 26.1314 141.044 27.62 140.134 28.8605C140.382 28.8605 140.63 28.8605 140.878 28.9432C141.209 28.3643 141.044 28.1989 141.54 27.8681ZM141.292 19.019C141.292 18.6882 141.126 18.2746 140.878 18.0265C140.548 17.7784 140.548 17.2822 140.051 17.1995L139.969 17.2822C140.051 18.0265 140.548 18.7709 141.292 19.019ZM139.472 24.8081C139.307 24.8081 139.224 24.8081 139.142 24.8081C139.224 24.9735 139.224 25.0562 139.307 25.2216C139.39 25.0562 139.39 24.9735 139.472 24.8081ZM131.45 11.3276C130.458 11.0795 129.962 13.726 129.3 14.3876C129.465 14.6357 129.714 14.8838 129.962 15.0492C130.375 14.6357 130.954 14.3049 131.45 13.9741C131.45 13.8087 131.45 13.6433 131.368 13.4779C131.781 13.3125 132.112 12.8163 132.029 12.3201C132.029 12.1547 131.368 11.3276 131.45 11.3276ZM129.548 10.3352C129.714 10.1698 129.962 10.0871 129.879 9.6736C129.383 9.6736 129.383 10.0044 129.3 10.3352C129.465 10.3352 129.631 10.8314 129.714 10.5006C129.631 10.4179 129.548 10.4179 129.548 10.3352ZM127.646 5.29037C127.729 5.20767 127.729 5.12497 127.646 5.12497C127.646 5.12497 127.646 5.20767 127.646 5.29037ZM108.294 -22.2495C108.294 -22.1668 108.294 -22.0841 108.294 -21.9187L108.376 -21.836C108.376 -21.9187 108.376 -21.9187 108.459 -21.9187C108.542 -22.0841 108.624 -22.2495 108.294 -22.2495ZM106.557 -22.663V-22.8284H106.474L106.557 -22.663ZM106.143 -22.0014C106.143 -22.0014 106.143 -21.9187 106.226 -21.836C106.309 -21.9187 106.309 -21.9187 106.309 -22.0014C106.226 -22.0014 106.226 -22.0014 106.143 -22.0014ZM106.64 -25.2268C106.557 -25.3095 106.391 -25.3922 106.309 -25.4749C106.309 -25.4749 106.226 -25.3922 106.143 -25.3922C106.143 -25.3095 106.226 -25.1441 106.226 -25.0614C106.391 -25.0614 106.557 -25.1441 106.64 -25.2268ZM69.7543 -28.9484L69.4235 -28.8657V-28.783C69.4235 -28.7003 69.5062 -28.7003 69.5062 -28.7003C69.6716 -28.7003 69.7543 -28.783 69.9197 -28.783V-28.8657C69.837 -28.8657 69.7543 -28.8657 69.7543 -28.9484ZM54.4544 -22.1668C54.3717 -22.1668 54.3717 -22.1668 54.3717 -22.1668C54.3717 -22.0841 54.3717 -22.0841 54.3717 -22.0014C54.3717 -22.0841 54.4544 -22.0841 54.4544 -22.1668ZM49.9885 -20.5955C49.3268 -20.5128 48.5825 -20.3474 48.0036 -20.182C47.7555 -20.0993 47.5074 -19.8511 47.5074 -19.5203C48.4998 -19.1895 49.575 -19.0241 50.6501 -18.9414C50.9809 -19.2722 51.3117 -19.5203 51.8079 -19.603C51.7252 -19.7684 51.5598 -19.9338 51.6425 -20.182L51.7252 -20.2647C50.9809 -20.2647 50.4847 -20.182 49.9885 -20.5955ZM44.7782 -16.3776C44.6955 -16.2949 44.6955 -16.3776 44.6128 -16.3776C44.6128 -16.3776 44.5301 -16.2949 44.5301 -16.2122C44.6128 -16.2122 44.7782 -16.2949 44.7782 -16.3776ZM40.8085 -17.3701C40.9739 -17.3701 41.0566 -17.4528 41.1393 -17.5355C41.0566 -17.5355 40.8912 -17.4528 40.8085 -17.3701ZM35.2675 -18.6933C36.2599 -19.4376 37.0042 -20.4301 37.5004 -21.5879C37.335 -21.3398 37.1696 -21.1744 36.9215 -21.0917C36.1772 -20.6782 36.3426 -20.6782 35.9291 -20.2647C35.5156 -19.7684 34.6058 -19.3549 34.7712 -18.8587C35.0193 -18.6933 35.102 -18.6933 35.2675 -18.6933ZM25.0951 -18.4452C25.2605 -18.6106 25.4259 -18.6933 25.5086 -18.8587C25.1778 -18.8587 25.0951 -18.6106 25.0124 -18.3625L25.0951 -18.4452ZM18.5616 -11.829C18.3962 -11.0847 19.2232 -11.7463 18.5616 -11.829V-11.829ZM6.48703 5.37307C6.48703 5.20767 6.65244 4.95956 6.40433 5.04226V5.53848L6.48703 5.37307ZM21.7043 65.4977C23.0275 65.1669 22.9448 64.2571 23.0275 63.3474C22.9448 63.3474 22.8621 63.2647 22.8621 63.2647L22.2005 63.4301C21.8697 62.8512 21.0426 63.0993 20.7118 62.6858C20.5464 62.9339 20.4637 63.182 20.4637 63.4301C21.0426 63.9263 21.4562 64.6707 21.7043 65.4977ZM26.0048 69.8809C26.0875 70.5425 26.6664 70.956 27.4107 71.3696C27.4107 71.0387 27.4934 70.6252 27.4934 70.2944C26.9145 70.2944 26.4183 70.129 26.0048 69.8809ZM34.6058 73.4371C34.3577 73.8506 34.6885 74.0987 34.5231 74.6776C36.2599 74.7603 37.7485 75.7528 39.3199 75.9182C38.3274 75.422 37.1696 75.1739 36.6734 74.3468C36.508 74.4295 36.2599 74.4295 36.0118 74.3468C35.8464 73.7679 35.1847 73.6852 34.6058 73.4371ZM46.515 72.9409C46.4323 73.189 46.3496 73.5198 46.2669 73.7679C46.5977 73.9333 46.8458 74.016 47.2593 74.1814C47.2593 74.0987 47.342 74.016 47.5074 74.016C48.5825 74.7603 49.7404 75.2566 50.9809 75.5047C50.9809 75.0912 50.8982 74.6776 50.7328 74.2641C49.9058 73.9333 48.996 73.6852 48.169 73.5198C48.4998 73.4371 48.3344 73.189 48.7479 73.189C49.2441 73.3544 49.8231 73.2717 50.2366 73.0236C50.1539 72.9409 50.1539 72.7755 50.0712 72.6928C49.3268 72.8582 48.0863 72.5274 47.8382 73.4371C47.4247 73.2717 47.9209 73.1063 47.7555 72.7755C47.342 72.7755 47.5074 73.1063 47.342 73.189C46.9285 73.1063 46.7631 73.0236 46.515 72.9409ZM46.8458 76.9933C46.7631 77.3241 46.8458 77.5722 47.0112 77.903C47.0939 77.8203 47.0939 77.8203 47.1766 77.8203C47.342 78.6473 48.3344 78.1511 48.8306 78.4819C48.996 78.3165 48.996 78.0684 48.996 77.903C48.0863 77.8203 47.8382 77.076 46.8458 76.9933ZM60.0782 88.8197C60.409 89.3987 61.0706 89.5641 61.5668 89.8949C61.6495 89.8122 61.7322 89.8122 61.8149 89.8122C61.8149 89.7295 61.8976 89.6468 61.8976 89.5641C61.6495 89.4814 61.4841 89.3987 61.236 89.316C61.0706 88.737 60.6571 88.8197 60.0782 88.8197ZM90.8434 90.3084C90.8434 90.3084 90.9261 90.3084 91.0088 90.3084H90.8434ZM92.084 86.4214C92.0013 86.5868 92.0013 86.8349 92.0013 87.083C93.4072 87.0003 94.2342 86.6695 95.3921 87.2484C95.3094 87.083 95.5575 87.083 95.7229 87.0003L95.5575 86.5041C94.4823 86.8349 94.2342 85.6771 93.5726 85.3462C93.4899 85.3462 93.4072 85.429 93.3245 85.429C92.911 85.6771 92.911 86.256 92.1667 86.3387L92.084 86.4214ZM101.843 84.1057C102.256 84.1884 102.67 84.1884 103.166 83.9403C103.001 83.6922 102.835 83.5268 102.67 83.2787C102.504 83.6095 102.256 83.9403 101.843 84.1057ZM106.391 81.4592C106.226 81.7073 105.895 81.9555 106.143 82.2863C106.309 82.2863 106.391 82.2863 106.557 82.2863C106.143 81.5419 107.218 81.9555 107.136 81.2111C106.888 81.3765 106.64 81.3765 106.391 81.4592ZM108.128 79.1436C108.211 79.0609 108.294 78.8955 108.211 78.8128C108.046 78.8128 107.963 78.8955 107.88 78.9782C107.963 78.9782 108.046 79.0609 108.128 79.1436ZM135.337 4.38064C135.42 4.04983 135.337 3.96713 135.006 3.96713V4.38064H135.337ZM133.601 2.64389C133.766 2.39579 133.931 2.23038 134.014 2.06498C133.683 1.48606 133.27 0.907143 132.525 0.82444C132.856 1.32066 132.691 1.48606 132.774 1.98228C133.187 1.73417 133.104 2.31308 133.352 2.31308C133.518 2.39579 133.518 2.56119 133.601 2.64389ZM132.525 -7.03228C132.443 -7.03228 132.36 -7.03228 132.195 -7.19769C132.277 -7.03228 132.277 -6.94958 132.36 -6.86687C132.443 -6.86687 132.443 -6.94958 132.525 -7.03228ZM128.556 -12.1598C128.473 -12.0771 128.39 -12.1598 128.308 -12.1598C128.39 -12.1598 128.473 -12.1598 128.556 -12.1598C128.556 -12.0771 128.556 -12.0771 128.556 -12.1598ZM117.556 -23.8209C117.556 -23.6555 117.722 -23.5728 117.722 -23.4073L117.97 -23.49L117.804 -23.8209C117.722 -23.8209 117.639 -23.8209 117.556 -23.8209ZM118.466 -22.9938L118.714 -23.0765L118.631 -23.3246L118.383 -23.2419L118.466 -22.9938ZM117.722 -24.9787C118.053 -25.2268 118.135 -24.896 118.466 -25.0614C118.466 -25.4749 117.639 -25.3922 117.722 -24.9787ZM117.722 -25.9711C117.639 -26.0538 117.639 -26.0538 117.722 -25.9711C117.06 -26.3019 116.233 -26.4673 115.654 -26.4673C115.82 -26.0538 115.654 -25.8057 115.737 -25.3922C116.233 -25.2268 116.977 -25.723 117.225 -25.9711C117.556 -25.9711 117.722 -25.3922 118.218 -25.4749C117.97 -25.6403 117.887 -25.8057 117.722 -25.9711ZM115.902 -20.0166C115.737 -21.009 114.579 -20.2647 114.165 -20.9263C114 -20.5955 113.587 -20.5128 113.587 -20.0166C114.248 -19.9338 114.744 -19.603 115.489 -19.5203C115.571 -19.7684 115.571 -20.0166 115.902 -20.0166ZM108.542 -28.3695C108.542 -28.2868 108.294 -28.1214 108.542 -27.956C108.542 -28.1214 108.79 -28.2868 108.542 -28.3695ZM106.64 -29.2792V-29.6927H106.226C106.226 -29.3619 106.309 -29.2792 106.64 -29.2792ZM105.151 -29.6927C105.564 -29.5273 105.564 -30.2716 105.151 -30.1062V-29.6927ZM101.843 -32.5873C101.843 -32.7527 101.926 -32.8354 101.843 -32.9181L101.429 -32.8354L101.512 -32.5873C101.677 -32.67 101.76 -32.5873 101.843 -32.5873ZM97.625 -33.0008C98.452 -32.9181 99.3618 -32.8354 100.023 -32.7527C99.7753 -32.8354 99.6099 -32.9181 99.4445 -33.0835C98.2866 -32.5873 98.1212 -33.6624 97.2115 -33.5797C97.2115 -33.497 97.2115 -33.497 97.2115 -33.497C97.2942 -33.497 97.2942 -33.4143 97.3769 -33.3316C97.4596 -33.2489 97.625 -33.2489 97.625 -33.0008ZM92.3321 -27.8733L92.5802 -27.956L92.4975 -28.2041L92.2494 -28.1214L92.3321 -27.8733ZM84.9716 -33.9105C84.9716 -34.0759 85.3024 -33.9932 85.2197 -34.3241H84.8062C84.8889 -34.1587 84.8062 -33.9105 84.9716 -33.9105ZM70.1678 -34.4068C70.3332 -34.2414 70.6641 -34.2414 70.7468 -34.5722C70.5814 -34.7376 70.1678 -34.7376 70.1678 -34.4068ZM70.4159 -33.9932C70.1678 -34.0759 69.9197 -33.9105 69.837 -33.6624C70.0024 -33.7451 70.2505 -33.8278 70.4159 -33.9105V-33.9932ZM59.5819 -31.4295C59.6646 -31.3468 59.83 -31.3468 59.9127 -31.3468C59.83 -31.3468 59.7473 -31.3468 59.7473 -31.4295C59.6646 -31.4295 59.6646 -31.4295 59.5819 -31.4295ZM39.0718 -19.2722C39.1545 -19.3549 39.1545 -19.4376 39.2372 -19.4376H39.0718V-19.2722ZM32.0421 -23.5728C31.9594 -23.49 31.8767 -23.49 31.794 -23.49V-23.3246C31.8767 -23.4073 31.9594 -23.49 32.0421 -23.5728ZM20.4637 -15.716C20.2156 -15.1371 19.8848 -14.7236 19.3886 -14.3928C19.6367 -14.3928 19.9675 -14.3928 20.2156 -14.5582C20.7945 -13.7312 21.2081 -14.889 22.1178 -14.7236C22.6967 -15.5506 23.6064 -16.1295 24.0199 -16.9566C24.1026 -17.122 23.8545 -17.4528 24.268 -17.5355C24.3507 -17.4528 24.4334 -17.3701 24.4334 -17.5355C24.1853 -17.4528 24.3507 -17.7836 24.5989 -18.0317C23.7718 -18.1144 23.8545 -17.4528 22.8621 -17.5355C22.3659 -16.7085 21.4562 -16.1295 20.4637 -15.716ZM14.2611 -8.43822C14.0956 -8.60363 13.6821 -8.52092 13.6821 -8.19011C14.0129 -8.10741 14.2611 -8.19012 14.2611 -8.43822ZM13.434 -7.85931C13.3513 -7.6939 13.2686 -7.61119 13.2686 -7.36309H13.6821C13.6821 -7.61119 13.8475 -8.02471 13.434 -7.85931ZM15.5016 -5.95715C14.3438 -6.12255 13.9302 -4.55121 12.8551 -4.3031C12.8551 -3.97229 12.6897 -3.72419 12.4416 -3.47608C12.607 -3.47608 12.6897 -3.47608 12.8551 -3.47608C12.8551 -3.47608 12.8551 -3.55878 12.8551 -3.64148C14.0129 -3.64148 13.5167 -4.88202 15.0054 -4.55121C15.1708 -4.79932 15.2535 -4.96472 15.3362 -5.13013C15.3362 -5.37823 15.3362 -5.70905 15.5016 -5.95715ZM10.7049 -0.99501C10.4567 -1.24312 10.1259 -1.32582 9.71243 -1.32582V-0.829605C9.29891 -0.416092 8.14108 -0.250687 7.64487 0.328228C7.56216 0.493633 7.64487 0.907143 7.39676 1.23795C7.14865 1.65147 6.65244 1.98228 6.40433 2.39579C6.48703 2.47849 6.56974 2.47849 6.65244 2.56119C6.56974 2.56119 6.48703 2.56119 6.40433 2.56119C6.40433 2.7266 6.40433 2.892 6.48703 3.05741C5.3292 3.55362 6.56974 4.46334 6.65244 5.20766C7.39676 4.46334 8.22378 3.63632 8.8027 2.7266C9.29891 2.64389 9.13351 2.14768 9.79513 2.06498C9.96053 1.89957 9.62972 1.56876 9.87783 1.48606C10.953 1.23795 10.6222 -0.167984 11.6973 0.162823C11.6146 -0.333389 11.5319 -0.581497 12.1935 -0.829605C12.1935 -0.912308 12.1935 -0.912308 12.1935 -0.99501L12.1108 -1.24312C11.6146 -1.24312 11.1184 -1.40852 10.7049 -0.99501ZM4.17137 48.1302C3.50975 48.2956 4.08867 48.8745 4.33677 49.0399C4.33677 48.9572 4.33677 48.7918 4.33677 48.7091C4.33677 48.5437 4.25407 48.2956 4.17137 48.1302ZM4.17137 49.7842C4.25407 49.8669 4.33677 49.8669 4.33677 49.8669C4.25407 49.7842 4.25407 49.6188 4.17137 49.5361C4.17137 49.6188 4.17137 49.7015 4.17137 49.7842ZM5.1638 51.4383C5.2465 51.7691 4.91569 51.9345 5.08109 52.2653C5.1638 52.2653 5.3292 52.348 5.4119 52.4307C6.23893 52.1826 5.57731 51.6037 5.1638 51.4383ZM6.32163 54.7464H6.07352C6.32163 55.1599 6.48703 55.4907 6.73514 55.8215C6.73514 55.6561 6.73514 55.4907 6.81784 55.408C6.40433 55.408 6.32163 55.1599 6.15622 54.9118C6.23893 54.9118 6.23893 54.8291 6.32163 54.7464ZM8.14108 57.7237C8.14108 57.9718 7.81027 57.641 7.56216 57.1447C7.64487 57.5583 7.64487 57.8891 7.64487 58.3026C8.05838 58.5507 8.05838 58.3026 8.72 58.3026V58.2199C8.55459 58.1372 8.30649 58.1372 8.22378 58.0545C8.22378 58.0545 8.14108 58.0545 8.05838 57.9718C8.05838 57.8891 8.14108 57.8064 8.14108 57.7237ZM31.4631 84.3538C31.4631 84.6846 31.5458 84.85 31.7113 84.85C31.794 84.6846 31.9594 84.6019 31.8767 84.3538H31.4631ZM31.8767 84.1057C31.8767 84.023 31.794 84.023 31.7113 83.9403C31.794 84.023 31.794 84.1057 31.8767 84.1057ZM34.5231 87.2484C34.3577 86.9176 34.0269 86.6695 33.6961 86.5868C33.7788 86.8349 33.6134 87.083 33.8615 87.4138C34.0269 87.2484 34.275 87.1657 34.5231 87.2484ZM54.9506 94.5262C54.9506 94.6916 54.8679 94.857 54.8679 94.9397C55.4468 94.857 55.943 95.2705 56.3566 94.9397C56.3566 95.1051 56.4393 95.2705 56.522 95.3532C56.9355 95.3532 57.349 95.3532 57.8452 95.2705C56.9355 94.7743 55.7776 94.857 54.9506 94.5262ZM59.003 94.6089C58.6722 94.857 58.3414 95.0224 57.9279 95.1878C58.2587 95.1051 58.7549 94.857 59.003 94.6089ZM117.639 84.023C117.556 84.023 117.556 84.023 117.639 84.023V84.023ZM129.879 67.7306C129.962 67.7306 130.127 67.7307 130.292 67.6479C130.292 67.6479 130.292 67.6479 130.292 67.5652C130.21 67.5652 130.044 67.6479 129.879 67.7306ZM133.352 60.5355C133.187 60.6182 133.022 60.7836 132.939 61.0318C133.104 60.8663 133.27 60.7009 133.352 60.5355ZM136.743 57.1447C136.412 57.7237 135.999 58.2199 135.42 58.7161L136.247 58.7988V58.7161C136.495 58.3026 137.488 57.4756 136.743 57.1447ZM143.194 51.9345C142.45 52.0172 143.359 52.4307 143.194 51.9345V51.9345ZM143.525 43.9951C143.442 44.2432 143.69 44.2432 143.856 44.1605C143.938 44.1605 143.938 44.0778 143.938 44.0778C143.856 43.9951 143.856 43.9951 143.773 43.9124L143.525 43.9951ZM148.57 36.9654C148.57 36.8827 148.487 36.8827 148.404 36.8827C148.404 36.9654 148.487 36.9654 148.57 36.9654ZM149.231 42.8372C149.231 42.5891 149.397 42.341 149.645 42.0929C149.562 42.0102 149.562 42.0102 149.562 41.9275C149.479 41.8448 149.314 41.8448 149.231 41.8448C149.149 42.0102 149.066 42.2583 148.983 42.5064C148.9 42.6718 148.983 42.8372 149.231 42.8372ZM149.479 29.3568C149.562 29.5222 149.562 29.6876 149.645 29.853C149.728 29.853 149.893 29.853 149.976 29.853C149.976 29.6049 149.81 29.6049 149.81 29.3568H149.479ZM107.136 -29.6927C106.97 -29.2792 107.632 -29.1965 107.88 -29.5273C107.715 -29.61 107.632 -29.6927 107.467 -29.7754C107.467 -29.6927 107.218 -29.6927 107.136 -29.6927ZM83.2348 -36.4743C83.1521 -36.4743 82.9867 -36.4743 82.9867 -36.4743H83.2348ZM75.6262 -36.1435C75.3781 -36.3089 75.13 -36.3916 74.8819 -36.3089C74.5511 -35.9781 74.1376 -35.8127 73.6413 -35.8127C73.724 -35.73 73.8894 -35.6473 73.8894 -35.4819C74.2203 -35.9781 75.5435 -35.4819 75.6262 -36.1435ZM64.0479 -33.2489C63.5517 -33.0008 62.9727 -32.8354 62.4765 -32.67C63.1381 -32.5873 63.9652 -32.4219 64.6268 -32.0911C64.7922 -32.1738 64.8749 -32.3392 65.0403 -32.4219C64.9576 -33.0008 64.4614 -33.0835 64.0479 -33.2489ZM53.7101 -29.9408C53.7101 -30.0235 53.6274 -30.1889 53.462 -30.2716C53.1312 -30.1889 52.8831 -30.0235 52.6349 -29.7754C52.8831 -29.8581 53.3793 -29.9408 53.7101 -29.9408ZM16.1632 -12.4906V-12.0771H16.4113C16.4113 -12.1598 16.5767 -12.2425 16.5767 -12.3252C16.4113 -12.4079 16.4113 -12.4906 16.1632 -12.4906ZM5.57731 -3.97229C5.49461 -4.2204 5.49461 -4.46851 5.1638 -4.55121C4.91569 -4.3031 4.75028 -3.97229 4.66758 -3.64148C4.91569 -3.55878 5.3292 -3.80689 5.57731 -3.97229ZM3.17894 46.0626C3.17894 45.5664 3.01354 45.0702 2.84813 44.574C2.84813 44.7394 2.76543 44.9048 2.68273 44.9875C2.93083 45.3183 3.09624 45.6491 3.17894 46.0626ZM-0.211857 6.11739C-0.211857 6.03469 -0.211857 5.86929 -0.294559 5.78658C-0.294559 5.95199 -0.294559 6.03469 -0.377262 6.11739C-0.294559 6.11739 -0.294559 6.11739 -0.211857 6.11739ZM3.34434 46.8896C3.34434 47.1378 3.34434 47.3032 3.42705 47.5513C3.50975 47.5513 3.50975 47.634 3.59245 47.634C3.75786 47.3859 3.50975 47.1378 3.34434 46.8896ZM17.7346 74.0987C17.8173 74.1814 17.9 74.2641 17.9827 74.3468C18.2308 74.2641 18.3962 74.0987 18.3962 74.016C18.2308 73.9333 17.9827 74.016 17.7346 74.0987ZM22.7794 78.5647C23.7718 78.4819 24.268 79.309 24.7643 80.2187C25.0951 80.4668 25.5086 80.7149 25.9221 81.0457C26.1702 81.0457 26.2529 81.2111 26.4183 81.4592C26.5837 81.6246 26.7491 81.79 26.9145 82.0381C27.328 82.2036 27.6588 82.0381 27.7415 82.4517C27.8242 82.6171 27.9069 82.8652 27.9896 83.1133C28.155 82.7825 28.4859 83.3614 28.8167 83.2787C27.4107 81.0457 26.501 78.9782 24.847 77.2414C24.847 76.7452 24.3507 76.7452 24.4334 76.249C24.3507 76.0836 23.8545 76.249 23.8545 76.0009C23.8545 75.0084 22.3659 74.843 22.8621 74.0987L22.7794 74.016C22.3659 73.9333 22.1178 73.9333 22.0351 73.2717H21.6216C21.5389 73.7679 21.2081 74.0987 21.4562 74.5949C20.8772 74.843 20.7945 75.5047 20.6291 76.1663C20.7945 76.0836 20.7945 75.8355 21.1254 75.8355C21.4562 77.1587 22.5313 77.2414 22.7794 78.5647ZM43.7031 87.4965L43.7858 87.5792C43.7858 87.4965 43.7858 87.4965 43.7858 87.4965H43.7031ZM99.4445 92.6241C98.9483 92.6241 98.9483 92.8722 99.1137 93.203C99.2791 93.203 99.4445 93.203 99.6099 93.1203L99.4445 92.6241ZM100.354 92.4586H100.52C100.85 92.4586 101.264 92.2932 101.181 91.9624C100.768 91.9624 100.437 92.2105 100.354 92.4586ZM107.549 90.0603C107.715 90.0603 107.88 89.9776 107.963 89.8949V89.8122C107.797 89.8122 107.797 89.6468 107.715 89.4814C107.301 89.5641 107.549 89.8122 107.549 90.0603ZM129.879 -20.5128C129.962 -20.7609 129.796 -21.009 129.548 -21.0917C129.631 -20.8436 129.714 -20.6782 129.879 -20.5128ZM104.407 -36.1435C104.241 -36.1435 104.076 -36.0608 103.993 -35.8954C104.076 -35.8954 104.076 -35.8127 104.159 -35.8127C104.241 -35.8954 104.407 -35.9781 104.407 -36.1435ZM75.2954 -40.3613L75.0473 -40.2786L75.13 -40.0305L75.3781 -40.1132L75.2954 -40.3613ZM40.395 -33.0835C40.3123 -33.497 39.568 -33.3316 39.6507 -33.0008C39.8161 -32.9181 40.0642 -33.0008 40.395 -33.0835ZM19.4713 -22.8284L19.2232 -22.7457L19.3059 -22.4976L19.554 -22.5803L19.4713 -22.8284ZM18.5616 -21.5879C18.3135 -21.5052 17.8173 -21.5052 18.1481 -21.1744C18.3135 -21.1744 18.6443 -21.2571 18.5616 -21.5879ZM7.89297 -8.76903C7.39676 -8.68633 7.47946 -8.35552 7.14865 -8.52092C7.14865 -8.19011 7.06595 -7.8593 6.98325 -7.5285C7.23135 -7.6939 7.47946 -7.94201 7.23135 -8.27282C8.30649 -8.35552 8.05838 -9.43065 8.9681 -9.67876C8.72 -9.84416 8.63729 -10.0096 8.63729 -10.175C8.05838 -9.92686 7.81027 -9.34795 7.89297 -8.76903ZM5.99082 -6.37066C5.90812 -6.37066 5.90812 -6.28796 5.90812 -6.28796C5.90812 -6.20526 5.90812 -6.03985 5.90812 -5.95715C5.99082 -6.12255 5.99082 -6.20526 5.99082 -6.37066ZM-0.956178 6.61361C-1.03888 6.69631 -1.20429 6.69631 -1.36969 6.77901C-1.28699 7.27523 -1.36969 7.44063 -1.03888 7.77144C-0.956178 7.68874 -0.873476 7.68874 -0.790773 7.60603C-0.542666 7.35793 -0.459964 6.86171 -0.708071 6.61361C-1.03888 6.61361 -0.625369 7.19252 -1.12158 7.02712C-1.03888 6.86171 -1.03888 6.77901 -0.956178 6.61361ZM-1.7005 9.09468C-1.7832 9.26008 -1.8659 9.42549 -1.7832 9.6736C-1.7832 9.50819 -1.7832 9.26008 -1.7005 9.09468ZM-3.51995 14.1395C-3.68536 14.2222 -3.93346 14.2222 -3.85076 14.3876C-3.76806 14.3876 -3.68536 14.3876 -3.68536 14.4703C-3.51995 14.3876 -3.35455 14.3049 -3.51995 14.1395ZM-3.76806 39.86C-3.76806 39.9427 -3.68536 40.1081 -3.51995 40.1908C-3.60265 40.0254 -3.68536 39.86 -3.76806 39.86ZM0.0362501 48.5437C0.0362501 48.6264 0.0362501 48.7091 0.0362501 48.7091H0.118953C0.0362504 48.6264 0.0362501 48.6264 0.0362501 48.5437ZM0.36706 51.8518C0.284357 51.4383 0.532465 51.3556 0.945976 51.3556C0.863274 51.1902 0.863274 51.1075 0.780571 50.9421C0.615167 50.9421 0.532465 50.9421 0.36706 50.9421C0.201655 51.1902 -0.211857 51.7691 0.36706 51.8518ZM1.27679 60.7009H1.19408V60.4528H0.945976V60.7009H1.27679ZM1.02868 51.6037C0.945976 52.0999 1.35949 52.5134 1.52489 53.0923C1.60759 53.0923 1.60759 53.0923 1.6903 53.0923C1.6903 52.8442 1.6903 52.5134 1.60759 52.2653C1.35949 52.0999 1.19408 51.8518 1.02868 51.6037ZM1.35949 53.3404V53.754H1.773C1.773 53.6712 1.773 53.5885 1.773 53.5058C1.6903 53.3404 1.52489 53.3404 1.35949 53.3404ZM2.26921 62.1069C2.35192 61.7761 2.26921 61.6107 2.02111 61.6107C1.9384 61.8588 1.773 62.2723 2.26921 62.1069ZM2.26921 55.9869C2.84813 56.4004 3.09624 57.1447 3.59245 57.641C3.59245 57.4756 3.67515 57.3102 3.75786 57.1447C3.75786 57.062 3.75786 56.8966 3.67515 56.7312C3.59245 56.7312 3.59245 56.5658 3.59245 56.4831C3.34434 56.4831 3.34434 56.6485 3.09624 56.7312C2.76543 56.4004 2.68273 55.9869 2.60002 55.5734C2.43462 55.7388 2.35192 55.8215 2.26921 55.9869ZM5.49461 61.6934C5.49461 61.6107 5.49461 61.4453 5.66001 61.3626C5.57731 61.3626 5.49461 61.2799 5.49461 61.2799C5.3292 60.7009 5.1638 60.6182 5.3292 60.122C5.2465 60.0393 5.1638 60.0393 5.08109 59.9566C4.91569 59.9566 4.83299 59.9566 4.66758 60.0393C4.66758 59.295 4.08867 58.7161 3.84056 58.1372C3.42705 58.7161 4.25407 59.295 4.00596 59.6258C3.34434 59.6258 4.08867 60.5355 4.25407 60.9491C4.99839 60.5355 4.83299 61.6107 5.49461 61.6934ZM16.8248 78.8955C17.5691 77.8203 15.5016 77.2414 15.2535 76.0836C15.0881 75.9182 14.6746 75.8355 14.5919 75.5874C14.6746 75.0911 14.0129 75.2566 14.1784 74.6776C13.5167 74.5122 12.9378 74.2641 12.9378 73.5198C12.8551 73.3544 12.3589 73.5198 12.3589 73.2717C12.1935 72.4447 11.1184 72.362 11.1184 71.3696C10.0432 71.0387 9.79513 70.0463 8.9681 69.5501C9.05081 70.2944 9.29891 70.956 9.62972 71.6177C11.3665 72.1139 10.2086 74.4295 12.1935 74.6776C12.1108 75.0912 12.5243 75.1739 12.1935 75.422C13.2686 75.6701 14.1784 76.4144 14.2611 77.076C15.5843 77.2414 15.8324 78.3992 16.8248 78.8955ZM18.727 80.2187C18.6443 80.7149 18.8097 80.963 19.3059 80.963C19.2232 80.6322 18.9751 80.3841 18.727 80.2187ZM26.9972 87.3311C27.6588 87.6619 28.5686 89.0678 29.3129 88.4062C29.0648 88.4062 28.8994 88.3235 28.734 88.1581C28.734 88.0754 28.8167 87.91 28.8167 87.8273C28.3205 87.6619 27.6588 87.6619 27.5761 86.8349C27.0799 87.1657 26.9972 87.1657 26.5837 86.7522C26.7491 86.5041 26.5837 86.5041 27.0799 86.5041C26.7491 85.9252 25.8394 86.3387 25.3432 86.0906C25.2605 85.7598 25.0951 85.4289 24.7643 85.2635C24.5161 85.3462 24.268 85.5944 24.268 85.9252C25.2605 86.0079 25.7567 86.4214 25.7567 87.3311C26.4183 87.4138 26.5837 87.4965 26.9972 87.3311ZM33.2826 91.797C33.2826 91.7143 33.2826 91.6316 33.3653 91.6316C33.3653 91.4662 33.3653 91.3008 33.1172 91.3835C33.1999 91.5489 33.1172 91.797 33.2826 91.797ZM70.0024 100.233H70.1678C70.1678 100.15 70.0851 100.067 70.0851 99.9846H70.0024H69.9197L70.0024 100.233ZM79.0997 99.8192L79.3478 99.7365C79.3478 99.6537 79.2651 99.5711 79.2651 99.4884L79.017 99.571L79.0997 99.8192ZM131.202 79.3917C131.616 79.6398 131.616 78.8128 131.202 78.9782V79.3917ZM133.27 76.7452C133.27 76.8279 133.352 76.9106 133.518 76.9106C133.683 76.9106 133.849 76.8279 133.849 76.6625C133.766 76.6625 133.683 76.6625 133.601 76.5798C133.518 76.6625 133.352 76.6625 133.27 76.7452ZM146.585 60.4528C146.75 60.3701 146.833 60.2874 146.833 60.122C146.75 60.2047 146.668 60.2874 146.585 60.4528Z" fill="white"/>
</g>
</svg>
