<svg width="53" height="46" viewBox="0 0 53 46" fill="none" xmlns="http://www.w3.org/2000/svg">
<g id="Frame">
<g id="Mask group">
<mask id="mask0_5_499" style="mask-type:luminance" maskUnits="userSpaceOnUse" x="5" y="21" width="48" height="5">
<g id="Group">
<g id="Group_2">
<path id="Vector" d="M7.10515 23.5225C7.07214 23.5037 7.03729 23.4883 7.00115 23.4766C7.11215 23.4561 7.16445 23.4546 7.10515 23.5225Z" fill="white"/>
<path id="Vector_2" d="M5.63095 23.341C6.09228 23.2812 6.56115 23.3274 7.00195 23.476C6.63795 23.5503 5.62315 23.906 5.63095 23.341Z" fill="white"/>
<path id="Vector_3" d="M6.96777 24.4451L6.51527 24.2937C6.83767 24.1283 6.72387 24.3991 6.96777 24.4451Z" fill="white"/>
<path id="Vector_4" d="M6.91114 23.9192L6.98184 23.707L7.19824 23.9008L6.91114 23.9192Z" fill="white"/>
<path id="Vector_5" d="M26.0583 22.0771C26.024 21.9734 26.0311 21.8604 26.0781 21.7618L26.0583 22.0771Z" fill="white"/>
<path id="Vector_6" d="M26.732 22.7634C26.803 22.7892 26.8764 22.8076 26.9512 22.8185C26.9128 22.8246 26.8736 22.8228 26.8359 22.8134C26.7983 22.8039 26.7629 22.7869 26.732 22.7634Z" fill="white"/>
<path id="Vector_7" d="M25.2367 22.1089L25.4453 22.0771C25.3807 22.1088 25.3079 22.1199 25.2367 22.1089Z" fill="white"/>
<path id="Vector_8" d="M15.5869 22.8227C15.4349 22.6764 15.2885 22.5441 15.1761 22.4529C15.5799 22.2811 15.5304 22.6248 15.5869 22.8227Z" fill="white"/>
<path id="Vector_9" d="M30.1572 25.1449L30.2477 24.9766C30.2809 25.0523 30.2894 25.1258 30.1572 25.1449Z" fill="white"/>
<path id="Vector_10" d="M26.4617 24.9271C26.4745 24.8487 26.5019 24.7734 26.5423 24.7051C26.5595 24.7173 26.5761 24.7306 26.5918 24.7447L26.4617 24.9271Z" fill="white"/>
<path id="Vector_11" d="M24.6084 22.3754L24.5914 22.3924L24.4549 22.2912C24.5504 22.258 24.5999 22.2877 24.6084 22.3754Z" fill="white"/>
<path id="Vector_12" d="M31.3228 25.27C31.3781 25.3861 31.4132 25.5107 31.4268 25.6385C31.3666 25.6011 31.3226 25.5426 31.3034 25.4745C31.2841 25.4063 31.291 25.3333 31.3228 25.27Z" fill="white"/>
<path id="Vector_13" d="M26.9473 22.8105V22.8176L26.919 22.8119C26.9296 22.8099 26.936 22.8134 26.9473 22.8105Z" fill="white"/>
<path id="Vector_14" d="M25.2342 24.7446C25.3133 24.7714 25.389 24.7906 25.4717 24.8266C25.4507 24.8369 25.4279 24.843 25.4046 24.8444C25.3813 24.8459 25.3579 24.8427 25.3359 24.8351C25.3138 24.8275 25.2934 24.8155 25.276 24.8C25.2585 24.7845 25.2443 24.7657 25.2342 24.7446Z" fill="white"/>
<path id="Vector_15" d="M15.52 22.7366L15.6465 22.8632C15.6137 22.8607 15.5829 22.8466 15.5597 22.8234C15.5365 22.8001 15.5224 22.7693 15.52 22.7366Z" fill="white"/>
<path id="Vector_16" d="M8.51155 23.0899C8.67145 23.08 8.68415 23.2002 8.68555 23.3176C8.60438 23.2626 8.54331 23.1827 8.51155 23.0899Z" fill="white"/>
<path id="Vector_17" d="M51.1121 23.3359L51.1729 23.3416C51.163 23.3458 51.1523 23.3475 51.1417 23.3465C51.1311 23.3455 51.1209 23.3419 51.1121 23.3359Z" fill="white"/>
<path id="Vector_18" d="M45.2438 22.7366C45.2214 22.6944 45.2063 22.6488 45.1992 22.6016C45.2622 22.5598 45.2699 22.6369 45.2438 22.7366Z" fill="white"/>
<path id="Vector_19" d="M42.1829 25.9719L41.5023 25.557C41.4444 25.714 41.0904 25.7541 41.2848 25.9373L41.0466 25.6637L41.0254 25.8446C39.7294 26.1415 38.9994 24.8077 37.596 25.5612L37.6016 25.6291L36.9904 25.1957C36.8491 25.2395 36.7353 25.5556 36.4943 25.6666C36.678 25.3287 36.093 25.6199 36.03 25.3265C35.8286 25.4614 35.9799 25.552 35.9925 25.6864C35.2287 25.9995 34.8188 25.434 34.0139 25.6552C34.4475 25.4132 34.9163 25.2405 35.4032 25.1434C34.8464 24.9384 34.662 25.2756 34.0401 25.1611L34.3058 25.3195C33.8507 25.8128 33.3801 25.0268 33.1448 25.5888C32.7752 25.5018 32.5781 24.937 32.0819 25.0275L32.1668 25.5223L31.7351 25.523L31.8092 25.1844C31.7584 25.1723 31.7049 25.1781 31.658 25.2011C31.611 25.2241 31.5735 25.2627 31.552 25.3103C31.3491 24.9207 30.8842 25.13 30.5513 24.8296L30.4659 24.9957C30.443 24.9574 30.4245 24.9166 30.4107 24.8741C30.2602 25.166 29.962 25.0572 29.8814 25.3272C29.9966 25.393 30.2623 25.5499 30.28 25.3697C30.5308 25.7054 29.832 25.552 29.615 25.5527C29.8835 25.3972 29.5952 25.3506 29.4793 25.2841C29.4483 25.3293 29.4864 25.352 29.4885 25.4163C29.0405 25.5987 29.0984 24.7434 28.6886 25.3301L28.6914 25.0148L28.3204 25.2445C28.4384 24.6147 27.8823 25.1823 27.9671 24.597C27.6039 24.5786 27.9325 24.9568 27.8158 24.8896C27.4456 25.0126 26.9778 24.4373 26.7933 24.7335C26.5475 24.5158 26.1941 24.6528 25.9743 24.5264L25.8944 24.7957C25.7792 24.7299 25.6563 24.597 25.5178 24.6437C25.5098 24.6819 25.5164 24.7217 25.5362 24.7554C25.1311 24.6242 24.7069 24.562 24.2812 24.5715C24.2642 24.7511 24.2394 24.8634 24.4621 24.9278C24.0197 25.1809 23.5229 24.5821 22.9181 24.6811L22.928 24.8127L22.653 24.5927C22.7018 24.6854 22.6346 24.7723 22.6114 24.8846C22.0375 24.9412 21.3492 24.9313 21.1818 24.3963C21.3061 24.5293 20.8588 24.7193 21.1323 24.9349C20.6454 24.5737 19.9041 24.6578 19.2993 24.5674L19.3169 24.5497L19.0851 24.4196L19.0547 24.4656L19.2179 24.5582C18.9864 24.5289 18.7692 24.4304 18.5947 24.2754C18.5129 24.4444 18.3938 24.5926 18.2463 24.7087C18.3163 24.3715 17.447 25.0176 17.2217 24.6422C17.1601 24.7335 17.3396 24.708 17.2075 24.8232C16.4394 24.7759 15.3767 24.3814 14.3893 24.655C14.4579 24.0039 13.6396 24.1878 13.2064 23.8873C12.998 24.274 13.4474 24.0817 13.5187 24.3694C13.2552 24.2881 13.3569 24.8438 12.9202 24.5441C12.9272 24.6118 12.8982 24.6564 13.0044 24.6536C12.7203 24.6846 13.1669 24.1786 12.7083 24.3051L12.6333 24.5765L12.4439 24.2245C11.5225 24.4083 10.8038 24.2139 9.96571 24.5108C9.93253 24.4508 9.97979 24.3185 10.0936 24.2415C9.74025 24.2599 9.42225 23.8173 8.96294 24.1001L9.04779 24.209C8.35383 24.4578 8.46336 23.8973 7.72203 23.8159C7.90092 23.7869 8.25419 23.9736 8.35803 23.6562C8.33404 23.4568 7.93759 23.4957 7.77439 23.6591L7.91571 23.2972C7.97867 23.5169 8.26758 23.4837 8.46336 23.5876C8.41109 23.5594 8.41319 23.4836 8.4061 23.4144C8.57429 23.5289 8.83362 23.5184 9.08866 23.6081L8.68952 23.6456C8.77286 23.999 9.3445 23.6223 9.46962 23.7515C9.53748 23.4136 9.28873 23.4674 9.58195 23.1897C10.2582 23.0533 9.88235 23.5353 10.4293 23.828L10.2985 23.9446C10.4851 23.9827 10.5649 24.3369 10.8978 24.0789C10.9416 23.8541 10.7246 23.8619 10.6392 23.7537C10.7289 23.6173 10.9077 24.1468 11.1698 23.9128C11.0546 23.6039 10.6045 23.4886 10.2774 23.4993C10.3399 23.3988 10.3632 23.2788 10.3431 23.1621C11.2514 23.5217 12.2311 23.6643 13.2042 23.5784C12.7916 23.1656 13.4227 23.5707 13.4043 23.1253C13.4071 23.4377 13.7697 23.1359 14.0049 23.2625C14.1816 22.9217 13.5357 23.0094 13.8001 22.7747C14.2848 22.8482 14.831 23.4568 15.508 23.3282C15.4918 23.1946 15.3434 23.1762 15.3356 23.1104C15.7483 23.2094 16.1321 23.982 16.5425 23.4583C16.3828 23.2674 16.1871 23.0618 16.0041 22.8786C16.1055 22.8633 16.2 22.818 16.2755 22.7486L16.1737 22.5055C16.7114 22.4227 16.455 23.0342 16.6747 23.3402L17.0697 22.9946C17.3175 22.8821 17.5985 22.8667 17.8571 22.9516C18.1157 23.0364 18.333 23.2152 18.4661 23.4526C18.5756 23.449 19.0088 23.4399 18.9028 23.1288C18.7077 22.7076 18.6385 22.4191 18.0548 22.4093C17.9043 22.7012 18.4195 22.7372 18.2406 22.7635C18.0174 22.7041 17.5326 22.9359 17.3948 22.6722L18.016 22.7012C18.1099 22.2509 17.7594 22.685 17.6972 22.463C17.9467 22.099 18.2096 22.4963 18.512 22.2884L18.4739 22.2672C18.9572 22.3492 18.9084 22.2566 19.3628 22.4496C19.3007 22.8539 19.1381 22.7012 18.8661 22.8644C19.6688 22.8673 20.5902 23.6294 21.5605 22.9189L21.1585 22.5676C21.4772 22.4949 21.9174 22.8673 22.0057 22.3492C21.6234 22.5138 21.8438 22.1958 21.6891 22.1089L21.6581 22.1541C21.6199 22.1329 21.504 22.0679 21.6022 21.9979C21.8488 22.2307 22.1386 22.4129 22.4552 22.5343C22.3534 22.4214 22.6608 22.258 22.7124 22.1795C22.9774 22.2636 22.6643 22.4044 22.6114 22.5633C22.7598 22.5831 22.9378 22.8715 23.1257 22.5987C23.3901 22.3697 22.9181 22.357 22.8947 22.1555L23.6593 22.5216L23.6515 22.4545C23.662 22.4786 23.6775 22.5002 23.6969 22.5178C23.7163 22.5355 23.7393 22.5489 23.7643 22.557C23.7893 22.5652 23.8157 22.5679 23.8418 22.5651C23.8679 22.5623 23.8932 22.554 23.9158 22.5407C24.0408 22.3591 23.8558 22.3181 23.7152 22.364C24.2232 22.0905 24.3596 22.9648 24.8655 22.4065L25.0762 22.569C25.1087 22.5237 25.1715 22.4326 25.1334 22.4114L25.3326 22.5881C25.7504 22.7613 25.544 22.2043 25.7185 22.1117L25.6952 22.1152C25.8499 22.0523 25.992 21.8891 25.9058 21.841L26.3305 22.082L26.3298 22.0728C26.44 22.405 27.1248 22.4877 26.9778 23.0858C27.1156 23.0398 27.2449 22.9288 27.206 22.8433C27.553 22.8821 27.23 22.3782 27.782 22.4722C27.8088 22.3577 27.7374 22.3838 27.659 22.3392C27.8116 22.328 27.8639 22.369 27.8738 22.4326C27.8944 22.3509 27.9276 22.273 27.972 22.2015C27.9233 22.4256 28.1719 22.3789 28.3112 22.3329L28.1975 21.9519C28.2879 22.1315 28.3656 22.1753 28.6143 22.1287L28.5169 21.8827C28.8865 21.9696 28.4243 22.3994 28.9451 22.1923L28.4645 22.4185C28.9444 22.5039 28.6681 22.9783 28.8363 23.2017C29.2701 23.5806 30.0701 22.9034 30.2899 23.6661C30.4093 23.4179 30.3648 23.3282 30.5612 23.1246C30.4254 23.1001 30.301 23.0326 30.2063 22.9321C30.1117 22.8316 30.0518 22.7033 30.0355 22.5662C29.4892 22.1867 29.6588 23.4901 29.0941 22.9083C29.2045 22.5944 29.4228 22.5924 29.5832 22.7486C29.6652 22.4786 29.4652 22.3011 29.3437 22.1654C29.7111 22.3167 30.3662 21.9809 30.6072 22.0226C30.6955 22.1676 30.9661 22.3704 31.1237 22.2905C31.058 22.4977 31.6466 22.6539 31.347 23.0794C31.7547 23.1903 31.759 22.492 32.06 22.9868C31.9851 22.6291 32.3957 22.7387 32.2925 22.4234C32.072 22.7373 31.7308 22.2219 31.564 21.9971L32.2325 21.8176C32.0579 21.9074 32.2268 22.1329 32.3031 22.1711L32.4544 21.8785C32.3794 22.598 33.6712 21.3822 33.7836 22.2183C33.5985 22.1746 33.3695 22.4206 33.3666 22.0389C32.9547 22.2403 33.3123 22.5782 33.084 22.8263C33.5815 23.1189 34.5489 22.6659 35.0323 23.2087C34.975 22.9833 34.6881 23.0058 34.7326 22.7125C35.223 22.557 35.6103 23.2342 36.0682 23.5056L36.0661 23.1232C36.4237 23.4625 36.2718 22.9883 36.7155 23.1252C36.6851 23.1712 36.5876 23.3056 36.6978 23.3056C37.0907 23.2858 36.8095 22.9932 37.0914 22.9019C37.4356 23.4894 37.4158 22.5195 37.9507 22.8397L37.9415 22.7076C38.3599 22.9592 39.1068 22.4467 39.6389 22.3838C39.5768 22.4743 39.21 22.3788 39.1682 22.7401L39.7923 22.8581C39.8552 22.7684 40.1407 22.7486 40.0156 22.5442C39.9386 22.4983 39.8354 22.5648 39.7675 22.5874L39.904 22.4015C40.4608 22.6093 39.7358 22.9401 39.6538 23.2822C40.0036 23.1727 40.034 23.5113 40.2502 23.5127C40.4361 23.1755 39.9279 23.1281 40.2891 22.767C40.5258 22.588 41.0926 22.8638 41.2247 23.2066C41.7321 22.4234 42.5087 23.0872 42.6712 22.4807C42.6394 22.5252 42.6945 22.7528 42.867 22.6638L42.8182 22.5062C43.3348 22.2424 43.1192 23.073 43.4308 22.9437C43.4578 22.8291 43.3806 22.7847 43.3694 22.6489C44.0054 22.5245 44.1178 23.43 44.8046 23.0808C44.7989 23.013 44.7968 22.9472 44.7255 22.9663C44.7184 22.8984 44.8258 22.9013 44.9833 23.0618L44.7135 23.2823C44.8463 24.0075 45.625 23.0052 46.0709 23.2165C46.0624 23.0836 45.6986 23.0519 45.9374 22.8751C46.2596 22.8807 46.0335 23.6456 46.5084 23.2936C46.3572 23.2002 46.5006 22.8461 46.3551 22.767C46.6144 22.7267 46.8419 22.5245 46.8631 22.8044C46.9025 22.7827 46.9368 22.7527 46.9635 22.7164C46.9902 22.6802 47.0087 22.6386 47.0178 22.5945C47.1246 22.8128 47.4171 22.6729 47.603 22.6143L47.596 22.48C47.7259 23.2067 48.1026 22.5386 48.5004 22.5902L48.4849 22.3867C48.6347 22.48 48.8333 22.7352 49.2049 22.4496L49.1145 22.198C49.3089 22.3839 49.853 22.0148 49.9555 22.4015C50.0586 22.3365 49.8473 21.9441 50.2423 21.9336C50.2911 22.094 50.5533 22.2587 50.7158 22.0367C50.7448 21.9243 50.7328 21.7879 50.5992 21.899C50.5285 21.9187 50.5646 21.9419 50.5702 22.0113L50.484 21.829C50.8296 21.6557 50.679 22.0141 51.0267 21.9096C51.1256 21.7766 50.9744 21.6791 50.9652 21.5469L52.04 22.0254C52.0168 22.2057 51.8451 22.2926 51.8951 22.5195L51.4726 22.5761C51.2055 22.8645 51.6048 22.919 51.7546 23.0137L51.4684 23.0299C51.4472 23.0596 51.4436 23.0984 51.4648 23.1154L51.2585 23.0915C51.7178 23.5113 50.5448 23.6159 51.0699 23.9475C50.9905 23.911 50.9208 23.8564 50.8663 23.7882C50.8118 23.7199 50.7741 23.6399 50.7561 23.5544C50.4988 23.4568 50.5109 23.6584 50.378 23.7713L50.7222 24.0534C50.1046 23.9235 50.7073 24.3694 50.1879 24.5596C49.7038 24.3199 49.164 25.212 48.8778 25.2283C48.3379 25.1464 49.1767 24.8967 48.8764 24.7065C48.5845 24.6535 48.6764 24.9066 48.4658 24.9674L48.434 24.5596C48.1061 24.4846 48.3209 24.9427 48.1655 24.7801C47.8263 25.0219 48.2128 24.9391 48.2008 25.2551C48.1584 25.1631 47.8934 24.9972 47.7281 25.1541C47.7012 25.2685 48.0623 25.2975 47.8164 25.3371C47.0093 25.0954 46.6857 25.5378 45.931 25.4544L45.9473 25.6574C45.871 25.6107 45.8279 25.5194 45.7304 25.5817L45.7388 25.7147C45.3068 25.5607 44.8532 25.4762 44.3947 25.4643L44.594 25.716L44.211 25.4163L44.1707 25.7775C44.1072 25.417 43.5129 25.6298 43.1107 25.5103L43.0557 25.738L42.8295 25.598L42.8775 25.7577C42.6238 25.7288 42.414 25.3435 42.0734 25.5188C42.2846 25.4544 42.2409 25.8149 42.1829 25.9719ZM31.6657 25.1131L31.5548 25.0982C31.569 25.1136 31.588 25.1236 31.6088 25.1266C31.6295 25.1296 31.6507 25.1253 31.6686 25.1145L31.8474 25.1421C31.8749 24.9292 31.771 25.0699 31.6657 25.1131ZM14.7943 24.3758L15.0882 24.4125C15.0204 24.4365 14.8261 24.3298 14.8798 24.4868C14.8423 24.4634 14.7321 24.4663 14.7943 24.3758ZM32.6 22.9133L32.5081 22.7309L32.3512 22.9557L32.6 22.9133ZM35.0175 22.9352L34.7898 22.7995L34.7573 22.8447L34.9877 22.9804L35.0175 22.9352ZM37.8744 25.0254C37.8065 24.6281 37.6271 25.0311 37.4674 24.867C37.4568 24.8494 37.4419 24.8346 37.4242 24.824C37.4366 24.8403 37.4511 24.8548 37.4674 24.867C37.5437 25.0028 37.5882 25.3541 37.8716 25.0226L37.8744 25.0254ZM32.3752 24.6917C32.3258 24.9165 32.6161 24.961 32.6685 25.1194C32.8091 25.0734 32.6798 24.872 32.6664 24.737C32.7356 24.7144 32.7745 24.7363 32.8522 24.7815C32.913 24.3051 32.5794 24.937 32.3752 24.6917ZM26.5699 24.3673L26.7707 24.5455L26.6994 24.5687L26.5699 24.3673ZM25.3256 24.5363C25.2635 24.5414 25.2011 24.5298 25.145 24.5027C25.0888 24.4756 25.0409 24.434 25.0063 24.3821C24.9716 24.3303 24.9514 24.2701 24.9478 24.2079C24.9441 24.1456 24.9572 24.0835 24.9856 24.028C25.2069 24.0895 25.5652 24.0421 25.6322 24.3326C25.5383 24.1524 25.6027 24.7568 25.3291 24.5398L25.3256 24.5363ZM35.4753 24.356C35.3227 24.2656 35.2032 23.7459 34.7955 24.0152L35.0231 24.151L34.9538 24.1736L34.9722 24.3758C35.0302 23.8357 35.329 24.3326 35.4753 24.356ZM23.0771 24.1418C23.0173 24.1308 22.9606 24.1069 22.911 24.0717C22.8615 24.0364 22.8203 23.9908 22.7903 23.9379C22.7603 23.885 22.7423 23.8261 22.7375 23.7655C22.7327 23.7049 22.7413 23.6439 22.7626 23.587C22.6763 23.7905 23.0615 24.006 23.2607 24.1842C23.1851 24.1397 23.1448 24.1192 23.0771 24.1418ZM23.2883 23.7579C23.4275 23.7119 23.4395 23.4653 23.6374 23.6407C23.5505 23.8436 23.5321 24.3369 23.9137 24.1743C23.7299 23.8166 23.7448 23.6365 23.438 23.4625L23.2883 23.7579ZM23.7074 24.4867L24.1809 24.3284C24.0472 23.8966 23.9108 24.3283 23.7074 24.4867L23.5533 24.5391C23.5812 24.5418 23.6095 24.5387 23.6362 24.5298C23.6628 24.5209 23.6873 24.5065 23.7081 24.4875L23.7074 24.4867ZM20.5324 24.4111L20.6263 24.5221C20.598 24.5828 20.6023 24.6394 20.7393 24.6536L20.6263 24.5221C20.6877 24.4069 20.8773 24.274 20.5359 24.4132L20.5324 24.4111ZM23.2926 24.4564L22.8898 24.4168C23.0297 24.3673 23.3075 24.2732 23.2926 24.4564ZM21.3753 24.1319C21.1825 24.1355 20.9902 24.1539 20.8002 24.1871C20.8836 24.2944 21.2871 24.332 21.3732 24.1298L21.3753 24.1319ZM11.8808 24.0456L12.0652 23.7721L11.8086 23.7572L11.8808 24.0456ZM14.6635 23.6159L14.8105 23.6343L14.9045 23.4978L14.6635 23.6159ZM17.8365 23.3544C17.8116 23.3596 17.7884 23.3711 17.7692 23.3878C17.7501 23.4045 17.7355 23.4259 17.7269 23.4498C17.3814 23.6327 16.9906 23.712 16.6012 23.6781C16.4387 23.8407 16.7567 24.0768 16.8414 24.1857C16.8796 23.2681 17.2464 24.2189 17.5736 23.8987C17.5241 23.8067 17.3503 23.8393 17.3319 23.7035C17.3818 23.6607 17.4426 23.6327 17.5076 23.6227C17.5725 23.6127 17.639 23.6211 17.6994 23.647C17.7079 23.7119 17.7334 23.7629 17.7721 23.7608C17.7703 23.7373 17.7628 23.7146 17.7501 23.6948C17.7374 23.6749 17.72 23.6585 17.6994 23.647C17.6898 23.5806 17.6989 23.5128 17.7255 23.4512C17.7686 23.4267 17.8064 23.3938 17.8365 23.3544ZM21.7174 23.3091C21.7534 23.3905 21.5874 23.4957 21.7838 23.606C21.8082 23.5563 21.8149 23.4998 21.8028 23.4458C21.7908 23.3919 21.7606 23.3436 21.7174 23.3091C21.7032 23.2781 21.6616 23.2533 21.5619 23.2285C21.6204 23.2398 21.6744 23.2678 21.7174 23.3091ZM21.627 22.8242L22.0665 23.1974L21.9365 22.9981L22.2481 23.1684C22.2478 23.0961 22.2282 23.0251 22.1914 22.9628C22.1545 22.9005 22.1017 22.8492 22.0385 22.8141C21.9752 22.779 21.9037 22.7615 21.8313 22.7633C21.759 22.7651 21.6885 22.7861 21.627 22.8242ZM22.959 23.0682L22.4014 22.9444L22.4071 22.9939L22.3703 22.9896L22.429 23.2137L22.4071 22.9939L22.959 23.0682ZM27.6421 23.524L27.9269 23.4978C27.7807 23.3754 27.5936 23.313 27.4032 23.3233C27.8448 22.6906 27.4873 23.4356 28.0398 23.1826C27.4682 23.1889 27.7798 22.7953 27.8639 22.5414C27.8929 22.9083 28.6801 22.692 28.285 23.4491C28.1261 23.2972 27.6915 23.9947 27.6421 23.524ZM31.3407 23.3205L31.6721 23.3862L31.3103 23.365L31.3407 23.3205ZM40.9781 23.1805C40.9491 22.8404 40.4 23.1507 40.3817 23.3304C40.4756 23.1967 40.7293 23.223 40.9781 23.1805ZM44.4343 23.2985C44.2266 23.365 44.0435 22.9302 43.8633 23.3339L44.2343 23.4985C44.3332 23.3643 44.4534 23.5055 44.4343 23.2985ZM46.9741 23.2575L47.0086 23.6654L46.8956 23.5947L46.9741 23.2575ZM46.6533 22.7953C46.7252 22.7741 46.9833 22.8708 46.8546 23.049L46.6533 22.7953ZM49.2276 23.1705L49.1668 22.8072L49.3442 22.7896L49.2276 23.1705ZM48.9958 23.4137C48.9541 23.3721 48.9541 23.2886 48.964 23.1968C48.8975 23.0978 48.7562 23.0596 48.5824 23.1543C48.5605 23.3346 48.6934 23.2243 48.7703 23.2717C48.7004 23.2922 48.5647 23.4024 48.4524 23.3325C48.6793 23.0207 48.5718 23.0193 48.6573 22.7486C49.0961 22.5923 48.9881 22.938 48.9626 23.1953C48.9828 23.2279 48.9958 23.2644 49.0009 23.3024C49.006 23.3404 49.0031 23.3791 48.9923 23.4158L48.9958 23.4137ZM47.5691 23.4993C47.6191 23.4563 47.6585 23.4024 47.6842 23.3417C47.9612 23.2469 48.2419 23.1585 48.0538 22.8305L47.8093 22.8687C47.9168 22.8701 47.8835 22.9147 47.8892 22.9826C47.6849 23.1133 47.6305 22.8864 47.5196 22.8164C47.5578 22.9464 47.7881 23.1133 47.6863 23.3381C47.6128 23.3632 47.5408 23.3927 47.4708 23.4264C47.4412 23.3813 47.4002 23.3558 47.3189 23.4667L47.3252 23.5353C47.3648 23.4883 47.4146 23.4511 47.4708 23.4264C47.4955 23.471 47.5188 23.5282 47.5691 23.4993ZM49.1237 23.6929C49.1294 23.7608 49.0643 23.8499 49.1067 23.9418L49.2176 24.0131C49.4226 23.8802 49.2664 23.7169 49.1216 23.6908L49.1237 23.6929ZM41.8281 23.4427C41.7908 23.4193 41.3985 23.437 41.453 23.2088L41.2671 23.5445C41.4749 23.478 41.6077 23.7523 41.5045 23.8188C41.6988 23.6188 41.8161 23.7558 41.8253 23.4399L41.8281 23.4427ZM31.9229 23.3431C32.0049 23.4561 32.5582 23.2081 32.5265 23.6357C32.8049 23.1606 32.1993 23.2504 31.9215 23.3403L31.9229 23.3431ZM31.7533 23.8152C31.714 23.8036 31.6735 23.7968 31.6325 23.7947C31.5025 23.7028 31.5993 23.3615 31.2933 23.5473C31.3378 23.6371 31.4721 23.524 31.5124 23.611C31.4459 23.8272 31.4954 23.7849 31.6297 23.7919C31.647 23.8045 31.667 23.813 31.688 23.8166C31.7091 23.8203 31.7307 23.8191 31.7512 23.8131L31.7533 23.8152ZM37.2603 24.2061L36.9748 24.2274L36.8696 23.9085L37.2603 24.2061ZM39.8439 24.6119L39.6234 24.5426L39.7259 24.4755C39.7464 24.3927 39.8212 24.2725 39.7703 24.2161C39.7331 24.211 39.6972 24.199 39.6644 24.1807C39.6836 24.1789 39.7029 24.1811 39.7211 24.1872C39.7394 24.1933 39.7561 24.2031 39.7703 24.2161C39.9378 24.2422 40.1569 24.2211 40.1194 24.4578C40.0722 24.3638 39.7542 24.3638 39.7323 24.5441L39.8439 24.6119ZM45.2809 24.9186C45.1685 24.8487 45.1629 24.7808 44.9262 24.9582C44.9814 24.9923 45.0464 25.0068 45.1109 24.9995C45.1753 24.9922 45.2347 24.9642 45.2809 24.9186ZM38.4263 24.848C38.4461 24.667 38.1288 24.7328 38.2871 24.508L38.427 24.4642C38.215 24.5349 38.422 24.0138 38.0872 24.2585L38.2617 24.238C38.0222 24.3489 38.4398 24.5998 38.0892 24.7101C37.9514 24.7561 38.2581 24.9356 38.432 24.8466L38.4263 24.848ZM45.5721 25.4206C45.3905 25.3718 45.5664 24.9002 45.1897 25.1201C45.4116 25.1908 45.2667 25.6185 45.5721 25.4206ZM40.1788 25.5845L40.147 25.6291L39.9216 25.4898L39.9526 25.446L40.1788 25.5845Z" fill="white"/>
<path id="Vector_20" d="M44.1303 22.9832C44.1668 22.9674 44.2062 22.959 44.246 22.9585C44.2858 22.958 44.3254 22.9654 44.3623 22.9803C44.2859 22.9961 44.2071 22.9971 44.1303 22.9832Z" fill="white"/>
<path id="Vector_21" d="M31.0176 22.1338C31.0067 22.1665 30.9894 22.1967 30.9665 22.2225C30.9436 22.2483 30.9158 22.2691 30.8846 22.2838C30.9119 22.221 30.9585 22.1685 31.0176 22.1338Z" fill="white"/>
<path id="Vector_22" d="M30.4102 21.9964L30.3791 21.995L30.36 21.9675L30.4102 21.9964Z" fill="white"/>
<path id="Vector_23" d="M8.85395 22.6864C8.76065 22.3088 9.04065 22.6171 9.18555 22.6093C9.04055 22.6171 8.92395 22.8894 8.85395 22.6864Z" fill="white"/>
<path id="Vector_24" d="M9.8418 23.2821C9.81059 23.2259 9.76689 23.1776 9.71406 23.1409C9.66123 23.1042 9.60068 23.0802 9.53709 23.0706C9.63319 23.0551 9.7259 23.0911 9.8418 23.2821Z" fill="white"/>
<path id="Vector_25" d="M8.95441 23.1529C9.13751 23.0729 9.33903 23.0445 9.53711 23.0709C9.38791 23.0928 9.23161 23.2462 8.95441 23.1529Z" fill="white"/>
<path id="Vector_26" d="M12.9149 23.0628C12.7912 22.8329 12.4199 22.9708 12.4199 22.9708C13.2169 22.7212 12.3719 22.5296 12.3514 22.3535C12.7962 22.4193 12.731 22.7177 12.9149 23.0628Z" fill="white"/>
<path id="Vector_27" d="M13.874 23.1492C13.7986 23.1502 13.7244 23.1683 13.657 23.2022C13.6864 23.1768 13.7214 23.1588 13.7592 23.1496C13.7969 23.1404 13.8362 23.1402 13.874 23.1492Z" fill="white"/>
<path id="Vector_28" d="M14.2025 22.9102C14.4479 22.9576 14.4769 23.2228 14.5469 23.4257C14.1905 23.6279 14.0901 23.2079 13.8723 23.1499C14.0561 23.1386 14.2287 23.1613 14.2025 22.9102Z" fill="white"/>
<path id="Vector_29" d="M18.4452 22.1197C18.3922 22.0921 18.2493 22.0977 18.2812 21.9486L18.7139 21.9316C18.8666 22.015 18.5392 22.0865 18.4452 22.1197Z" fill="white"/>
<path id="Vector_30" d="M19.4803 22.6382C19.8183 22.6552 19.7313 22.2726 19.8848 22.3568L19.744 22.8652L19.4803 22.6382Z" fill="white"/>
<path id="Vector_31" d="M18.9561 24.597L18.8649 24.5468L18.9766 24.5623L18.9561 24.597Z" fill="white"/>
<path id="Vector_32" d="M20.9046 22.3112L20.8021 21.7505C21.0566 21.8891 20.9527 22.3395 20.9046 22.3112Z" fill="white"/>
<path id="Vector_33" d="M21.9292 21.9789L21.7694 21.8077L22.3613 21.9654L21.9292 21.9789Z" fill="white"/>
<path id="Vector_34" d="M23.0603 22.1596L23.1458 22.0386L23.5439 22.1751L23.0603 22.1596Z" fill="white"/>
<path id="Vector_35" d="M36.1924 22.6123C36.1344 23.0903 35.4994 22.8895 35.2682 23.0118C35.5588 22.4115 35.7646 23.2141 36.1924 22.6123Z" fill="white"/>
<path id="Vector_36" d="M43.4766 23.1902L42.8522 23.0693C43.4087 22.8904 42.9937 23.0692 43.4766 23.1902Z" fill="white"/>
</g>
</g>
</mask>
<g mask="url(#mask0_5_499)">
<g id="Group_3">
<g id="Group_4">
<path id="Vector_37" d="M51.6162 21.6851C50.8167 23.4845 47.0191 24.3842 45.5201 24.4842C44.8205 24.5841 43.9211 24.0843 43.2216 24.1843C42.8218 24.2842 42.6219 24.984 42.1223 24.884C41.7225 24.884 41.4227 24.7841 41.0229 24.6841C39.424 24.2842 37.6251 24.0843 35.9262 24.2842C35.0268 24.3842 34.2273 23.8844 33.4278 23.6844C32.8282 23.5845 32.0287 23.8844 31.3291 23.7844C30.2298 23.5845 29.1305 23.8844 28.1312 23.7844C26.4322 23.6844 24.8332 23.6844 23.1343 23.5845C21.8352 23.4845 20.536 23.7844 19.3367 23.8844C18.1375 23.9843 16.9383 23.9843 15.739 23.9843C13.3406 23.9843 10.9421 23.8844 8.54361 23.8844" stroke="#202020" stroke-width="3.99865" stroke-miterlimit="10" stroke-linejoin="round" stroke-dasharray="41.99 41.99"/>
</g>
</g>
</g>
</g>
<g id="Mask group_2">
<mask id="mask1_5_499" style="mask-type:luminance" maskUnits="userSpaceOnUse" x="1" y="13" width="31" height="18">
<g id="Group_5">
<g id="Group_6">
<path id="Vector_38" d="M28.8209 29.522C28.846 29.5489 28.874 29.5731 28.9043 29.5941C28.8011 29.5913 28.7552 29.5764 28.8209 29.522Z" fill="white"/>
<path id="Vector_39" d="M30.0843 30.0549C29.6578 30.0058 29.2512 29.8472 28.9041 29.5945C29.2378 29.603 30.1996 29.4687 30.0843 30.0549Z" fill="white"/>
<path id="Vector_40" d="M29.1202 28.5967L29.4893 28.8583C29.174 28.9559 29.3287 28.6978 29.1202 28.5967Z" fill="white"/>
<path id="Vector_41" d="M29.0713 29.1577L28.9667 29.36L28.8139 29.1082L29.0713 29.1577Z" fill="white"/>
<path id="Vector_42" d="M6.19781 25.7104C6.20628 25.8248 6.17641 25.9387 6.11291 26.0342L6.19781 25.7104Z" fill="white"/>
<path id="Vector_43" d="M5.62109 24.5002C5.56566 24.456 5.50569 24.4179 5.4422 24.3864C5.5094 24.3884 5.54539 24.4246 5.62109 24.5002Z" fill="white"/>
<path id="Vector_44" d="M7.12988 25.8784L6.94178 25.8586C7.00479 25.8424 7.07162 25.8495 7.12988 25.8784Z" fill="white"/>
<path id="Vector_45" d="M18.4884 28.0027C18.5916 28.1922 18.6914 28.3655 18.7734 28.4885C18.3859 28.5677 18.4983 28.2219 18.4884 28.0027Z" fill="white"/>
<path id="Vector_46" d="M3.55609 24.8834L3.62409 24.7094C3.66789 24.7744 3.68479 24.8424 3.55609 24.8834Z" fill="white"/>
<path id="Vector_47" d="M6.5918 21.6967C6.56458 21.7728 6.52438 21.8436 6.473 21.906C6.463 21.8876 6.44959 21.8728 6.43829 21.8502L6.5918 21.6967Z" fill="white"/>
<path id="Vector_48" d="M7.97189 25.7394L7.98819 25.7231L8.08789 25.8667C7.99889 25.8751 7.95919 25.8355 7.97189 25.7394Z" fill="white"/>
<path id="Vector_49" d="M5.09762 24.8268C5.16758 24.926 5.21889 25.0372 5.24902 25.1548C5.21743 25.1433 5.18842 25.1258 5.16367 25.103C5.13892 25.0803 5.11892 25.0529 5.10484 25.0224C5.09076 24.9919 5.08287 24.9589 5.08163 24.9253C5.0804 24.8917 5.08583 24.8582 5.09762 24.8268Z" fill="white"/>
<path id="Vector_50" d="M5.41409 24.3773L5.41838 24.373L5.44238 24.3872C5.43108 24.3872 5.42759 24.3809 5.41409 24.3773Z" fill="white"/>
<path id="Vector_51" d="M7.92773 22.2808C7.86553 22.2313 7.80473 22.1917 7.74033 22.1316C7.76255 22.1284 7.78521 22.1297 7.80689 22.1355C7.82858 22.1414 7.84883 22.1516 7.8664 22.1656C7.88397 22.1796 7.89848 22.197 7.90903 22.2168C7.91958 22.2367 7.92595 22.2584 7.92773 22.2808Z" fill="white"/>
<path id="Vector_52" d="M18.4873 28.0028C18.459 27.9489 18.43 27.8954 18.4003 27.8423C18.4647 27.8628 18.4845 27.9236 18.4873 28.0028Z" fill="white"/>
<path id="Vector_53" d="M27.5029 29.6414C27.3621 29.6124 27.3769 29.4858 27.3954 29.3628C27.4575 29.4433 27.4948 29.5401 27.5029 29.6414Z" fill="white"/>
<path id="Vector_54" d="M30.7315 15.0506L30.793 15.0273C30.7848 15.0352 30.7752 15.0413 30.7646 15.0453C30.754 15.0494 30.7428 15.0512 30.7315 15.0506Z" fill="white"/>
<path id="Vector_55" d="M24.8603 16.8392C24.8289 16.8093 24.8036 16.7735 24.786 16.7338C24.8405 16.6794 24.8617 16.7444 24.8603 16.8392Z" fill="white"/>
<path id="Vector_56" d="M19.2707 22.7302L18.2694 22.4355C18.2234 22.6468 17.7549 22.8087 18.0525 22.9719L17.6787 22.7069L17.685 22.9366C15.9932 23.7001 14.8047 22.2326 13.0825 23.5523L13.1002 23.635L12.226 23.2596C12.0479 23.3516 11.9483 23.7764 11.6494 23.9779C11.8367 23.5077 11.1152 24.0258 10.9851 23.6767C10.7428 23.898 10.9554 23.9708 10.9943 24.1355C10.0403 24.7278 9.41142 24.1312 8.38897 24.621C8.92011 24.205 9.50751 23.8663 10.1337 23.6152C9.36974 23.5056 9.18026 23.9764 8.34159 23.9941L8.71676 24.122C8.19529 24.8586 7.45686 23.9927 7.2328 24.7582C6.73612 24.7419 6.38764 24.0894 5.75094 24.3305L5.93822 24.9264L5.37079 25.0388L5.41676 24.597C5.34645 24.5953 5.27749 24.6163 5.21999 24.6568C5.16248 24.6973 5.11947 24.7551 5.09726 24.8219C4.77077 24.3878 4.19563 24.7681 3.71084 24.474L3.6225 24.7038C3.58832 24.6631 3.5587 24.6187 3.53415 24.5716C3.38155 24.9759 2.97311 24.9137 2.90735 25.2721C3.06845 25.3272 3.44021 25.4559 3.43732 25.2254C3.81688 25.5823 2.87557 25.5668 2.59216 25.6227C2.92494 25.3548 2.53499 25.3746 2.37379 25.3195C2.33921 25.3838 2.39288 25.4022 2.40987 25.4855C2.3526 25.5231 2.28713 25.5464 2.21899 25.5534L3.76171 20.1028C4.0861 20.2477 3.90801 21.0507 4.47615 20.4654L4.37862 20.8994L4.8775 20.71C4.54751 21.5349 5.36089 20.9419 5.08457 21.7158C5.49581 21.8587 5.23447 21.2338 5.3474 21.3624C5.81111 21.3144 6.17358 22.2551 6.47598 21.9089C6.69155 22.287 7.14156 22.2114 7.35722 22.4553L7.53171 22.111C7.64474 22.2382 7.74368 22.4644 7.91826 22.4411C7.93924 22.3918 7.94441 22.3372 7.93306 22.2848C8.34935 22.5922 8.82182 22.8151 9.32377 22.9408C9.39802 22.6999 9.46018 22.5527 9.22284 22.3944C9.80786 22.1881 10.2 23.1684 10.9286 23.2215L10.9547 23.0328L11.2042 23.4236C11.1781 23.2872 11.2791 23.1833 11.3392 23.037C12.0141 23.1465 12.807 23.3742 12.8436 24.1588C12.7391 23.9383 13.3185 23.8251 13.0613 23.4349C13.515 24.0824 14.399 24.1948 15.0703 24.5101L15.0463 24.5341L15.2767 24.7844L15.3277 24.7334L15.1651 24.5568C15.4339 24.677 15.6574 24.8798 15.8031 25.1357C15.9409 24.9357 16.1221 24.7694 16.3331 24.6493C16.1536 25.0904 17.3479 24.4726 17.4999 25.053C17.5966 24.9462 17.3825 24.9285 17.5683 24.8105C18.4398 25.1166 19.5611 25.9783 20.7858 25.8984C20.5229 26.7664 21.5165 26.7706 21.9404 27.3079C22.2938 26.8399 21.7136 26.9692 21.7143 26.5544C21.9977 26.7445 22.0345 25.9514 22.4584 26.4928C22.4697 26.3981 22.5164 26.3445 22.3914 26.3169C22.7311 26.3586 22.0698 26.9213 22.6372 26.8824L22.8011 26.5332L22.9185 27.0746C24.0428 27.0951 24.8215 27.5744 25.8815 27.4146C25.881 27.4856 25.8593 27.5549 25.8192 27.6135C25.7792 27.6722 25.7226 27.7176 25.6567 27.744C26.0737 27.8218 26.3211 28.5201 26.9337 28.2692L26.8644 28.0953C27.7436 27.9553 27.4608 28.692 28.3025 29.0207C28.0869 29.0087 27.7259 28.6502 27.5174 29.0538C27.4898 29.3344 27.9633 29.3967 28.1987 29.2207L27.9378 29.6794C27.923 29.3563 27.5789 29.3203 27.3796 29.121C27.4326 29.174 27.4129 29.2758 27.398 29.3754C27.1677 29.1946 26.9182 29.0398 26.6538 28.9139L27.1273 28.9634C27.1273 28.4544 26.357 28.8064 26.2469 28.593C26.0737 29.0361 26.3783 29.034 25.9585 29.3295C25.1317 29.3195 25.7035 28.7675 25.1487 28.2084L25.3331 28.0875C25.1253 27.9801 25.1324 27.4697 24.6731 27.7256C24.5594 28.0205 24.8144 28.0749 24.883 28.248C24.7396 28.4085 24.6809 27.6302 24.3091 27.8719C24.3624 28.0869 24.4788 28.2809 24.6432 28.4291C24.8077 28.5772 25.0128 28.6727 25.2321 28.7033C25.1285 28.8284 25.0687 28.9841 25.0618 29.1464C24.0675 28.5576 23.0619 27.7369 21.8472 27.7278C22.2126 28.4142 21.5907 27.6733 21.4868 28.289C21.5723 27.8613 21.0649 28.1653 20.8268 27.92C20.5243 28.3329 21.3003 28.4092 20.9307 28.6474C20.3886 28.3979 19.9258 27.4018 19.1033 27.375C19.0835 27.563 19.2502 27.6323 19.2411 27.7263C18.7923 27.4684 18.5662 26.2908 17.9387 26.8845C18.0694 27.1948 18.2369 27.5363 18.3959 27.8408C18.3329 27.8219 18.2284 27.843 18.0425 27.9356L18.0906 28.3003C17.4419 28.2508 17.9125 27.4889 17.7493 27.0032L17.1911 27.3552C17.0237 27.3858 16.852 27.3824 16.686 27.3453C16.52 27.3082 16.3631 27.2381 16.2247 27.1392C16.0863 27.0404 15.9692 26.9147 15.8802 26.7696C15.7913 26.6246 15.7324 26.4632 15.707 26.295C15.5791 26.266 15.0739 26.145 15.1064 26.6046C15.2088 27.2414 15.2053 27.6606 15.8802 27.8521C16.1367 27.4924 15.5516 27.2902 15.7636 27.3113C16.0074 27.4663 16.6349 27.288 16.7197 27.6952L16.0066 27.4655C15.7678 28.0551 16.3006 27.5658 16.3084 27.8889C15.9127 28.3116 15.7212 27.6889 15.3099 27.8797L15.3494 27.9193C14.8131 27.6655 14.8421 27.7992 14.3687 27.3962C14.5587 26.8612 14.7035 27.1206 15.0668 26.9806C14.1361 26.7282 13.2945 25.3944 11.9611 26.0667L12.3229 26.6731C11.9321 26.6738 11.5329 26.0242 11.277 26.7056C11.7674 26.5997 11.419 26.9665 11.5731 27.1347L11.624 27.0837C11.6643 27.1241 11.7766 27.2507 11.643 27.3149C11.4341 26.9285 11.1513 26.5869 10.8105 26.3098C10.8955 26.4964 10.4933 26.6272 10.4064 26.7141C10.1259 26.5141 10.5287 26.4207 10.6396 26.2221C10.4742 26.1471 10.3548 25.6955 10.0566 26.0094C9.68484 26.2398 10.2234 26.408 10.1915 26.6914L9.41851 25.9521L9.40792 26.0461C9.38033 25.9097 9.26591 25.7838 9.1281 25.8453C8.92882 26.0546 9.13089 26.1719 9.30688 26.15C8.63551 26.3664 8.74154 25.1223 7.98822 25.7259L7.79465 25.4361C7.74298 25.4876 7.64054 25.5902 7.68082 25.6347L7.50343 25.3286C7.0731 24.9575 7.14306 25.7866 6.9141 25.8574L6.94238 25.8616C6.74521 25.8976 6.53185 26.0744 6.61589 26.1698L6.19826 25.6998L6.19546 25.7111C6.16858 25.2205 5.40187 24.8876 5.75444 24.1149C5.58135 24.1326 5.40326 24.2415 5.41666 24.3736C5.0294 24.2083 5.24776 25.0034 4.64015 24.6953C4.57719 24.8416 4.66483 24.8317 4.74109 24.9179C4.5638 24.882 4.51423 24.8112 4.52132 24.7207C4.47383 24.8237 4.41199 24.9193 4.33764 25.0049C4.46266 24.713 4.16096 24.6967 3.98647 24.7144L4.00056 25.2742C4.00264 25.2196 3.99257 25.1653 3.97109 25.1151C3.94961 25.0648 3.91725 25.02 3.87634 24.9838C3.83544 24.9477 3.78701 24.921 3.73456 24.9058C3.6821 24.8906 3.62693 24.8873 3.57303 24.896L3.6105 25.2657C3.20976 25.0261 3.87404 24.5879 3.21196 24.6989L3.83736 24.544C3.3116 24.2684 3.7758 23.7078 3.65148 23.3474C3.41053 22.9309 2.87697 23.0405 2.50741 22.9027L2.56317 22.7154C2.69507 22.688 2.83243 22.7103 2.9489 22.778C3.06537 22.8457 3.15275 22.9541 3.19427 23.0823C3.31369 22.7422 3.24224 22.6411 3.4699 22.3358C3.29546 22.3452 3.12311 22.2942 2.9819 22.1913C2.84069 22.0884 2.73926 21.94 2.69469 21.771L2.677 21.7533L2.08548 23.8478C2.58936 24.4931 2.79572 22.6949 3.26213 23.6675C3.03807 24.0626 2.78643 23.9934 2.64952 23.7275C2.5942 23.8708 2.57412 24.0253 2.59095 24.178C2.60779 24.3307 2.66105 24.4771 2.74625 24.6048C2.46886 24.4415 2.14349 24.3793 1.82544 24.4288L2.74985 21.1701C2.94292 21.0623 3.15143 20.9848 3.36806 20.9404C3.50517 21.1001 3.88673 21.284 4.0839 21.1461C4.02594 21.4203 4.82383 21.4691 4.49874 22.0728C5.04919 22.1088 4.94885 21.2351 5.41886 21.7759C5.26975 21.3441 5.8181 21.3765 5.64141 21.009C5.39977 21.4599 4.8754 20.9001 4.62386 20.6612L5.47252 20.2646C5.25836 20.4223 5.5121 20.6605 5.62023 20.6952L5.77853 20.288C5.79052 21.2062 7.29496 19.3535 7.57478 20.3657C7.32684 20.3566 7.06461 20.7249 7.00245 20.2484C6.49367 20.6075 7.01794 20.9397 6.75301 21.3051C7.44976 21.5427 8.6461 20.7305 9.36474 21.2797C9.25451 21.014 8.88355 21.1164 8.89484 20.739C9.51315 20.416 10.1266 21.1595 10.7704 21.3779L10.6976 20.9121C11.2183 21.2394 10.9463 20.6902 11.5491 20.7432C11.5166 20.8081 11.4105 21.0019 11.5541 20.973C12.0663 20.8436 11.655 20.5495 12.0049 20.365C12.5497 21.0062 12.3702 19.8031 13.1214 20.0597L13.084 19.8935C13.6733 20.0943 14.5679 19.2574 15.2541 19.0332C15.1869 19.1627 14.6909 19.1442 14.6959 19.6058L15.5303 19.5838C15.5975 19.4546 15.9685 19.3521 15.77 19.1322C15.6639 19.0969 15.5388 19.2065 15.4527 19.2532L15.5926 18.9945C16.3536 19.1011 15.4619 19.7119 15.4152 20.1531C15.8554 19.9204 15.9516 20.3346 16.2364 20.276C16.4223 19.8073 15.7467 19.8851 16.1635 19.3407C16.4413 19.053 17.2249 19.2404 17.4645 19.6186C17.9875 18.5045 19.1244 19.0891 19.2177 18.289C19.1859 18.3533 19.3004 18.6177 19.5067 18.4536L19.4114 18.2762C20.0276 17.7885 19.9166 18.8764 20.2975 18.6155C20.3039 18.4678 20.1958 18.4345 20.1555 18.2756C20.9526 17.9122 21.301 18.9774 22.1199 18.301C22.0959 18.2218 22.0748 18.1412 21.9892 18.1928C21.9645 18.113 22.1044 18.0776 22.349 18.2133L22.0493 18.5781C22.402 19.4058 23.1757 17.9009 23.8089 17.9744C23.7559 17.8224 23.2796 17.9256 23.5424 17.6231C23.9608 17.503 23.8788 18.4953 24.4011 17.8797C24.177 17.8337 24.2632 17.3545 24.0527 17.3234C24.3777 17.1665 24.6123 16.8342 24.7205 17.1545C24.7639 17.1145 24.7986 17.066 24.8225 17.012C24.8463 16.958 24.8587 16.8996 24.859 16.8406C25.0597 17.0484 25.396 16.7543 25.6144 16.6067L25.5606 16.4525C25.9536 17.2427 26.227 16.2794 26.7507 16.1556L26.6637 15.9273C26.8273 16.0043 27.0138 16.0172 27.1864 15.9636C27.359 15.91 27.5054 15.7936 27.5965 15.6375L27.3923 15.3993C27.7033 15.5124 28.2467 14.8105 28.5223 15.1808C28.624 15.0536 28.2156 14.7327 28.6968 14.5072C28.7425 14.5529 28.7992 14.586 28.8614 14.6034C28.9236 14.6207 28.9892 14.6217 29.0519 14.6062C29.1147 14.5907 29.1723 14.5593 29.2193 14.5149C29.2662 14.4706 29.301 14.4148 29.32 14.3531C29.3081 14.2153 29.2395 14.0732 29.1202 14.2705C29.0409 14.3326 29.0954 14.3375 29.1272 14.4047L28.9484 14.2542C29.301 13.8675 29.2614 14.3439 29.6437 14.0308C29.7052 13.8279 29.4875 13.8138 29.4176 13.6717C29.4176 13.6717 29.7942 13.6583 30.1701 13.6159L30.9355 13.5459C30.9949 13.7466 30.8196 13.9446 30.9899 14.1545L30.491 14.4783C30.2889 14.9504 30.8133 14.7568 31.0479 14.761L30.6946 14.9589C30.6818 15.0041 30.6953 15.0473 30.7306 15.0501L30.4592 15.1561C31.245 15.3003 29.7802 16.1733 30.6132 16.1782C30.5051 16.1971 30.3939 16.1874 30.2907 16.15C30.1874 16.1127 30.0957 16.0491 30.0246 15.9655C29.6501 16.015 29.7611 16.2292 29.6289 16.4278L30.2062 16.5176C29.3321 16.7615 30.3321 16.8654 29.725 17.3919C28.9774 17.4414 28.6219 18.7187 28.2318 18.9096C27.4623 19.1295 28.506 18.3724 28.0227 18.3356C27.6085 18.4359 27.829 18.6707 27.5669 18.8509L27.3697 18.4105C26.8984 18.5045 27.3584 18.9025 27.0885 18.8035C26.716 19.2595 27.2136 18.9612 27.3139 19.3188C27.2007 19.2621 27.0718 19.2447 26.9476 19.2696C26.8234 19.2944 26.711 19.36 26.6284 19.456C26.6284 19.5973 27.1386 19.449 26.8156 19.6192C25.6264 19.7515 25.3289 20.4209 24.2626 20.6662L24.3495 20.8945C24.23 20.8725 24.1431 20.7855 24.0244 20.9072L24.0824 21.0613C23.4363 21.0721 22.7937 21.1592 22.168 21.3207L22.5079 21.5462L21.908 21.3335L21.9447 21.783C21.7603 21.3751 21.0098 21.8558 20.436 21.8502L20.414 22.1421L20.0777 22.0544L20.1809 22.234C19.8311 22.2855 19.4636 21.8841 19.0396 22.2121C19.2975 22.0629 19.3145 22.5182 19.2707 22.7302ZM5.21528 24.5497L5.06478 24.5589C5.11355 24.5964 5.16582 24.5822 5.21528 24.5497L5.45483 24.5377C5.46193 24.2648 5.3482 24.4691 5.21528 24.5497ZM20.2324 26.1536L19.9017 26.0137C19.9866 26.0024 20.1816 26.2074 20.1626 25.9763C20.2014 26.0193 20.3299 26.0477 20.2324 26.1536ZM6.10572 21.5569L5.95731 21.3589L5.78562 21.6806L6.10572 21.5569ZM9.2765 20.9611L8.9599 20.8535L8.92313 20.9186L9.24682 21.0275L9.2765 20.9611ZM13.3532 22.8081C13.1998 22.3323 13.0295 22.883 12.7893 22.7176C12.7738 22.6972 12.7533 22.6812 12.7299 22.6709C12.7473 22.6893 12.7673 22.705 12.7893 22.7176C12.92 22.8723 13.0351 23.2986 13.3532 22.8081ZM6.08303 23.8372C6.05265 24.1321 6.44061 24.1115 6.53395 24.2954C6.71063 24.202 6.50776 23.9865 6.47318 23.8175C6.56153 23.7715 6.61449 23.7892 6.72263 23.8252C6.73252 23.2201 6.38834 24.0945 6.08383 23.838L6.08303 23.8372ZM6.61799 22.4865L6.4413 22.1783L6.53105 22.1691L6.61799 22.4865ZM8.10555 22.6525C8.18491 22.6776 8.25695 22.7217 8.31539 22.7809C8.37384 22.8402 8.41691 22.9129 8.44087 22.9926C8.46483 23.0723 8.46895 23.1567 8.45287 23.2384C8.43678 23.32 8.40099 23.3966 8.34859 23.4612C8.11044 23.3022 7.68581 23.2533 7.69641 22.8342C7.74438 23.1099 7.85041 22.2631 8.10555 22.6525ZM10.0997 22.6144C9.88781 22.5436 9.64597 21.9245 9.15068 22.3719L9.46868 22.4779L9.38243 22.5247L9.4383 22.7727C9.4348 22.0821 9.9054 22.6221 10.0997 22.6144ZM10.5789 23.908C10.6489 23.9511 10.7097 24.0078 10.7576 24.0747C10.8055 24.1416 10.8396 24.2173 10.858 24.2975C10.8763 24.3777 10.8785 24.4608 10.8644 24.5419C10.8503 24.6229 10.8203 24.7004 10.7759 24.7697C10.9356 24.518 10.5576 24.0988 10.3796 23.7934C10.4503 23.874 10.494 23.9179 10.5789 23.908ZM10.2191 24.3681C10.0452 24.3879 9.95907 24.7244 9.78098 24.419C9.94288 24.1681 10.1111 23.4993 9.62268 23.5991C9.72802 24.1483 9.65526 24.3878 9.95977 24.7251L10.2191 24.3681ZM9.95557 23.2378L9.36125 23.3036C9.38813 23.9426 9.67285 23.3906 9.95557 23.2378L10.1491 23.2152C10.1175 23.203 10.0833 23.1987 10.0496 23.2027C10.0159 23.2066 9.9836 23.2187 9.95557 23.2378ZM13.597 24.3356L13.5213 24.1539C13.5723 24.0789 13.585 23.9999 13.4288 23.9398L13.5213 24.1539C13.4182 24.2982 13.1545 24.4204 13.597 24.3356ZM10.4248 23.409L10.8778 23.5892C10.7011 23.616 10.352 23.657 10.4262 23.4146L10.4248 23.409ZM12.5426 24.4671C12.7662 24.5221 12.9942 24.5571 13.2239 24.5717C13.1567 24.3928 12.7016 24.2148 12.5426 24.4671ZM23.5233 27.4791L23.2315 27.7993L23.5262 27.8946L23.5233 27.4791ZM20.1618 27.2267L19.9958 27.1581L19.8481 27.3171L20.1618 27.2267ZM16.4052 26.6259C16.4374 26.6248 16.4688 26.6151 16.496 26.5978C16.5232 26.5805 16.5454 26.5563 16.5601 26.5276C17.0075 26.3823 17.4912 26.3943 17.9309 26.5616C18.1676 26.3911 17.8659 25.9664 17.7995 25.791C17.4907 27.0372 17.3437 25.6178 16.8681 25.9607C16.8978 26.0964 17.1133 26.114 17.0928 26.3014C17.0253 26.3454 16.9452 26.366 16.8647 26.3602C16.7843 26.3543 16.7081 26.3222 16.6476 26.2689C16.6568 26.1777 16.6412 26.0999 16.5966 26.0907C16.5915 26.1224 16.5933 26.1547 16.6022 26.1855C16.611 26.2163 16.6265 26.2448 16.6476 26.2689C16.6398 26.3611 16.6094 26.4494 16.5601 26.5276C16.5033 26.5497 16.4522 26.5839 16.4088 26.6266L16.4052 26.6259ZM11.8967 25.4808C11.879 25.357 12.1045 25.2644 11.9037 25.0495C11.8605 25.1128 11.8368 25.1874 11.8356 25.2641C11.8343 25.3407 11.8556 25.4161 11.8967 25.4808C11.9037 25.5259 11.9427 25.5761 12.0536 25.6377C11.989 25.6019 11.9363 25.548 11.9017 25.4827L11.8967 25.4808ZM11.8586 26.1735L11.46 25.5245L11.5512 25.8377L11.2459 25.504C11.2151 25.5924 11.2088 25.6874 11.2278 25.7791C11.2467 25.8707 11.2902 25.9554 11.3535 26.0243C11.4168 26.0932 11.4977 26.1435 11.5874 26.17C11.6771 26.1965 11.7723 26.1982 11.8629 26.1748L11.8586 26.1735ZM10.393 25.4143L11 25.7628L11.0092 25.6928L11.0502 25.7112L11.0523 25.3923L11.0134 25.6999L10.393 25.4143ZM5.12764 23.2873L4.78916 23.2315C4.84847 23.3334 4.92785 23.4223 5.02248 23.4926C5.11711 23.563 5.22503 23.6134 5.3397 23.6408C4.63795 24.3653 5.27675 23.4605 4.5638 23.6266C5.22938 23.809 4.74469 24.243 4.5708 24.564C4.64925 24.0514 3.67477 24.0917 4.36383 23.182C4.50374 23.4477 5.21738 22.6306 5.12984 23.2923L5.12764 23.2873ZM4.51143 22.3882L4.95665 22.3868L4.47895 22.4518L4.51143 22.3882ZM17.1295 19.6611C17.0328 19.2476 16.3678 19.7883 16.3741 20.0166C16.4752 19.8265 16.8107 19.7848 17.1295 19.6611ZM21.6826 18.7018C21.4183 18.8616 21.089 18.3909 20.9391 18.9478L21.4641 19.0192C21.5652 18.8178 21.7505 18.9408 21.6826 18.7018ZM24.9932 17.6394L25.1621 18.0983L24.9911 18.0685L24.9932 17.6394ZM24.4392 17.2407C24.5261 17.1864 24.8873 17.1913 24.7727 17.4543L24.4392 17.2407ZM27.8856 16.447L27.67 16.0701L27.8891 15.9585L27.8856 16.447ZM27.6757 16.8407C27.6057 16.8145 27.5747 16.7227 27.5542 16.6145C27.4327 16.5382 27.2362 16.5665 27.0468 16.7658C27.0821 16.9807 27.2128 16.7905 27.3322 16.8011C27.2496 16.8598 27.1118 17.0556 26.9408 17.0358C27.1273 16.5664 26.9853 16.618 27.0015 16.2681C27.5032 15.8666 27.492 16.312 27.5542 16.616C27.5915 16.6395 27.6226 16.6717 27.6447 16.7098C27.6669 16.748 27.6795 16.7909 27.6814 16.835L27.6757 16.8407ZM25.8462 17.6444C25.8961 17.573 25.9294 17.4914 25.9437 17.4055C26.2751 17.1616 26.6073 16.9256 26.2575 16.6393L25.9515 16.8039C26.0914 16.753 26.0631 16.8209 26.0921 16.8966C25.8694 17.1475 25.7274 16.9093 25.562 16.8768C25.6518 17.0131 26.0017 17.0973 25.9458 17.4019C25.8561 17.4705 25.7677 17.5376 25.6929 17.6055C25.6391 17.5659 25.5783 17.5503 25.5063 17.7215L25.5367 17.7985C25.5747 17.724 25.6279 17.6582 25.6929 17.6055C25.7437 17.6479 25.7918 17.7059 25.8462 17.6444ZM27.9527 17.0754C27.9859 17.1482 27.935 17.2839 28.0269 17.3616L28.2015 17.3765C28.4233 17.1121 28.1521 17.0245 27.9527 17.0754ZM18.2892 19.7311C18.2355 19.7141 17.7238 19.8513 17.7521 19.5615L17.5669 20.0293C17.8298 19.8879 18.0524 20.1855 17.9302 20.298C18.1528 19.9862 18.3344 20.1227 18.2892 19.7311ZM5.27964 22.2687C5.40187 22.391 6.09153 21.9359 6.11561 22.4787C6.41242 21.8142 5.63152 22.0835 5.28104 22.2673L5.27964 22.2687ZM5.12834 22.9035C5.07383 22.8996 5.01905 22.9022 4.96515 22.9112C4.78146 22.8293 4.85561 22.3776 4.48325 22.6865C4.55521 22.7869 4.7136 22.6115 4.78566 22.7133C4.73269 22.9982 4.78986 22.9352 4.96515 22.9112C4.99157 22.922 5.02004 22.9267 5.04852 22.9251C5.077 22.9235 5.10477 22.9156 5.12984 22.902L5.12834 22.9035ZM12.4204 21.9555L12.0493 22.0581L11.8643 21.6905L12.4204 21.9555ZM15.8858 21.7591L15.5834 21.7321L15.7056 21.6212C15.7183 21.5124 15.7961 21.3428 15.7205 21.2855C15.6721 21.2897 15.6233 21.2854 15.5763 21.2728C15.6483 21.2586 15.6943 21.265 15.7205 21.2855C15.9417 21.2777 16.2307 21.1837 16.2236 21.489C16.148 21.3893 15.7247 21.4763 15.7289 21.7011L15.8858 21.7591ZM23.2195 20.3171C23.0492 20.2796 23.0238 20.2004 22.7481 20.5058C22.8365 20.5233 22.9281 20.5147 23.0117 20.4812C23.0954 20.4477 23.1676 20.3907 23.2195 20.3171ZM14.0627 22.4377C14.0592 22.208 13.6528 22.374 13.821 22.0545L13.9983 21.9619C13.7334 22.1012 13.9192 21.4021 13.5186 21.7972L13.7447 21.7237C13.4471 21.9267 14.0379 22.1274 13.5948 22.3585C13.4196 22.4504 13.8478 22.596 14.0627 22.4377ZM23.7601 20.7884C23.498 20.8089 23.6032 20.1791 23.1538 20.5919C23.4726 20.5884 23.3947 21.1595 23.7601 20.7884ZM16.5077 22.8645L16.473 22.9288L16.1472 22.8221L16.1812 22.7585L16.5077 22.8645Z" fill="white"/>
<path id="Vector_57" d="M23.8284 17.3948C23.8924 17.3437 23.9728 17.3175 24.0547 17.3212C23.984 17.3585 23.9075 17.3834 23.8284 17.3948Z" fill="white"/>
<path id="Vector_58" d="M4.19531 20.9829C4.1885 21.0172 4.17485 21.0498 4.15516 21.0787C4.13546 21.1076 4.11014 21.1322 4.08071 21.1511C4.10066 21.0846 4.14069 21.0258 4.19531 20.9829Z" fill="white"/>
<path id="Vector_59" d="M3.39648 20.939L3.36609 20.9425L3.34348 20.9199L3.39648 20.939Z" fill="white"/>
<path id="Vector_60" d="M27.1248 29.9798C27.1318 30.3942 26.9466 30.0081 26.8178 29.9812C26.9466 30.0081 27.0986 29.7557 27.1248 29.9798Z" fill="white"/>
<path id="Vector_61" d="M26.3714 29.1279C26.385 29.1903 26.4124 29.2488 26.4516 29.2992C26.4907 29.3496 26.5406 29.3907 26.5977 29.4193C26.5128 29.4108 26.4329 29.3493 26.3714 29.1279Z" fill="white"/>
<path id="Vector_62" d="M27.125 29.4718C26.9478 29.5113 26.7626 29.4927 26.5968 29.4188C26.7297 29.4272 26.9001 29.3092 27.125 29.4718Z" fill="white"/>
<path id="Vector_63" d="M23.6311 28.622C23.6941 28.89 24.0469 28.837 24.0469 28.837C23.2988 28.9034 24.0017 29.3064 23.9854 29.4952C23.6078 29.3185 23.7244 29.025 23.6311 28.622Z" fill="white"/>
<path id="Vector_64" d="M22.809 28.301C22.8749 28.3185 22.9444 28.3175 23.0098 28.2982C22.9799 28.3174 22.9453 28.3278 22.9098 28.3283C22.8743 28.3288 22.8394 28.3194 22.809 28.301Z" fill="white"/>
<path id="Vector_65" d="M22.4719 28.4694C22.2661 28.3612 22.2951 28.0777 22.2725 27.8514C22.6253 27.7262 22.6303 28.188 22.8105 28.3032C22.6451 28.2679 22.4987 28.2022 22.4719 28.4694Z" fill="white"/>
<path id="Vector_66" d="M14.9512 28.0225C14.9915 28.0642 15.1174 28.0939 15.0608 28.2425L14.6768 28.1512C14.5616 28.0261 14.8621 28.0338 14.9512 28.0225Z" fill="white"/>
<path id="Vector_67" d="M13.8555 26.9539C13.5635 26.8514 13.5599 27.2707 13.4433 27.1441L13.6723 26.6505L13.8555 26.9539Z" fill="white"/>
<path id="Vector_68" d="M15.0914 24.4762L15.1621 24.5469L15.0645 24.503L15.0914 24.4762Z" fill="white"/>
<path id="Vector_69" d="M12.1914 27.0661L12.1638 27.6735C11.9708 27.4663 12.1525 27.0272 12.1914 27.0661Z" fill="white"/>
<path id="Vector_70" d="M10.8833 27.1305L10.9873 27.349L10.5043 27.0343L10.8833 27.1305Z" fill="white"/>
<path id="Vector_71" d="M9.61523 26.4863L9.51764 26.5923L9.19513 26.3491L9.61523 26.4863Z" fill="white"/>
<path id="Vector_72" d="M10.9013 20.2949C10.9091 20.7553 10.2508 20.6824 10.0358 20.8437C10.2458 20.2221 10.5562 20.9398 10.9013 20.2949Z" fill="white"/>
<path id="Vector_73" d="M23.2314 17.7659L22.5908 17.8324C23.1034 17.5163 22.7308 17.7928 23.2314 17.7659Z" fill="white"/>
</g>
</g>
</mask>
<g mask="url(#mask1_5_499)">
<g id="Group_7">
<g id="Group_8">
<path id="Vector_74" d="M30.3297 13.3879C30.4297 14.0877 30.2298 14.8874 29.7301 15.3873C28.2311 16.6868 26.6321 17.8864 24.9332 18.7861C24.4335 19.086 23.8339 19.2859 23.3342 19.2859C23.1343 19.2859 22.3348 19.6858 22.2349 19.6858C21.5353 19.8857 21.7352 19.7858 21.1356 19.8857C20.536 19.9857 19.8364 19.8857 19.2368 19.9857C19.0369 19.9857 18.8371 20.0857 18.6372 20.0857C18.1375 20.1856 17.7378 20.1856 17.2381 20.2856C17.1381 20.2856 17.0382 20.2856 16.9383 20.3856C16.8383 20.3856 16.7384 20.4855 16.6384 20.5855C16.5385 20.5855 16.3386 20.5855 16.2387 20.5855C16.1388 20.5855 15.9389 20.6855 15.839 20.7854C15.839 20.7854 15.9389 20.6855 15.9389 20.5855C12.641 21.3852 9.44303 21.5852 6.14512 22.085C5.44557 22.185 4.1464 21.6851 3.44684 21.7851C1.64799 25.084 4.34627 23.7844 5.14576 23.4845C5.34563 23.3845 5.54551 23.5845 5.74538 23.7844C5.84532 23.8844 5.04582 23.5845 6.54487 24.0843C6.74474 24.0843 7.4443 23.6844 7.64417 23.6844C8.44366 23.9843 8.04392 24.4842 8.84341 24.7841C9.34309 24.984 10.6423 25.5838 11.1419 25.5838C13.8402 25.8837 16.2387 25.9837 18.7371 26.8834C20.0363 27.3832 21.2355 27.4832 22.5347 27.883C22.8345 27.983 23.1343 28.083 23.5341 28.083C23.7339 28.083 23.9338 28.083 24.1337 28.083C26.6321 27.883 28.6308 29.8823 31.0293 30.4821" stroke="#202020" stroke-width="3.99865" stroke-miterlimit="10" stroke-linejoin="round" stroke-dasharray="61.98 61.98"/>
</g>
</g>
</g>
</g>
</g>
</svg>
