<svg width="53" height="46" viewBox="0 0 53 46" fill="none" xmlns="http://www.w3.org/2000/svg">
<g id="Frame">
<g id="Mask group">
<mask id="mask0_5_586" style="mask-type:luminance" maskUnits="userSpaceOnUse" x="0" y="21" width="48" height="5">
<g id="Group">
<g id="Group_2">
<path id="Vector" d="M45.6761 23.5225C45.7091 23.5037 45.744 23.4883 45.7801 23.4766C45.6691 23.4561 45.6168 23.4546 45.6761 23.5225Z" fill="white"/>
<path id="Vector_2" d="M47.1503 23.341C46.689 23.2812 46.2201 23.3274 45.7793 23.476C46.1433 23.5503 47.1581 23.906 47.1503 23.341Z" fill="white"/>
<path id="Vector_3" d="M45.8135 24.4451L46.266 24.2937C45.9436 24.1283 46.0574 24.3991 45.8135 24.4451Z" fill="white"/>
<path id="Vector_4" d="M45.8701 23.9192L45.7994 23.707L45.583 23.9008L45.8701 23.9192Z" fill="white"/>
<path id="Vector_5" d="M26.7229 22.0771C26.7573 21.9734 26.7502 21.8604 26.7031 21.7618L26.7229 22.0771Z" fill="white"/>
<path id="Vector_6" d="M26.0493 22.7634C25.9783 22.7892 25.9048 22.8076 25.8301 22.8185C25.8684 22.8246 25.9076 22.8228 25.9453 22.8134C25.983 22.8039 26.0183 22.7869 26.0493 22.7634Z" fill="white"/>
<path id="Vector_7" d="M27.5445 22.1089L27.3359 22.0771C27.4006 22.1088 27.4734 22.1199 27.5445 22.1089Z" fill="white"/>
<path id="Vector_8" d="M37.1943 22.8227C37.3463 22.6764 37.4927 22.5441 37.6051 22.4529C37.2013 22.2811 37.2508 22.6248 37.1943 22.8227Z" fill="white"/>
<path id="Vector_9" d="M22.624 25.1449L22.5335 24.9766C22.5003 25.0523 22.4918 25.1258 22.624 25.1449Z" fill="white"/>
<path id="Vector_10" d="M26.3196 24.9271C26.3067 24.8487 26.2794 24.7734 26.239 24.7051C26.2217 24.7173 26.2052 24.7306 26.1895 24.7447L26.3196 24.9271Z" fill="white"/>
<path id="Vector_11" d="M28.1729 22.3754L28.1899 22.3924L28.3264 22.2912C28.2309 22.258 28.1814 22.2877 28.1729 22.3754Z" fill="white"/>
<path id="Vector_12" d="M21.4585 25.27C21.4032 25.3861 21.368 25.5107 21.3545 25.6385C21.4146 25.6011 21.4586 25.5426 21.4779 25.4745C21.4971 25.4063 21.4902 25.3333 21.4585 25.27Z" fill="white"/>
<path id="Vector_13" d="M25.834 22.8105V22.8176L25.8623 22.8119C25.8517 22.8099 25.8453 22.8134 25.834 22.8105Z" fill="white"/>
<path id="Vector_14" d="M27.5471 24.7446C27.468 24.7714 27.3923 24.7906 27.3096 24.8266C27.3305 24.8369 27.3533 24.843 27.3766 24.8444C27.3999 24.8459 27.4233 24.8427 27.4454 24.8351C27.4675 24.8275 27.4878 24.8155 27.5053 24.8C27.5227 24.7845 27.5369 24.7657 27.5471 24.7446Z" fill="white"/>
<path id="Vector_15" d="M37.2613 22.7366L37.1348 22.8632C37.1675 22.8607 37.1983 22.8466 37.2215 22.8234C37.2448 22.8001 37.2589 22.7693 37.2613 22.7366Z" fill="white"/>
<path id="Vector_16" d="M44.2697 23.0899C44.1098 23.08 44.0971 23.2002 44.0957 23.3176C44.1769 23.2626 44.2379 23.1827 44.2697 23.0899Z" fill="white"/>
<path id="Vector_17" d="M1.6692 23.3359L1.6084 23.3416C1.61821 23.3458 1.6289 23.3475 1.63952 23.3465C1.65014 23.3455 1.66034 23.3419 1.6692 23.3359Z" fill="white"/>
<path id="Vector_18" d="M7.5375 22.7366C7.55988 22.6944 7.57496 22.6488 7.5821 22.6016C7.5191 22.5598 7.5114 22.6369 7.5375 22.7366Z" fill="white"/>
<path id="Vector_19" d="M10.5983 25.9719L11.2789 25.557C11.3369 25.714 11.6908 25.7541 11.4965 25.9373L11.7346 25.6637L11.7558 25.8446C13.0519 26.1415 13.7818 24.8077 15.1852 25.5612L15.1796 25.6291L15.7908 25.1957C15.9321 25.2395 16.046 25.5556 16.2869 25.6666C16.1032 25.3287 16.6883 25.6199 16.7512 25.3265C16.9526 25.4614 16.8014 25.552 16.7887 25.6864C17.5525 25.9995 17.9625 25.434 18.7673 25.6552C18.3337 25.4132 17.865 25.2405 17.378 25.1434C17.9349 24.9384 18.1193 25.2756 18.7412 25.1611L18.4754 25.3195C18.9305 25.8128 19.4011 25.0268 19.6365 25.5888C20.0061 25.5018 20.2031 24.937 20.6993 25.0275L20.6145 25.5223L21.0462 25.523L20.972 25.1844C21.0229 25.1723 21.0763 25.1781 21.1233 25.2011C21.1702 25.2241 21.2077 25.2627 21.2293 25.3103C21.4321 24.9207 21.8971 25.13 22.2299 24.8296L22.3154 24.9957C22.3382 24.9574 22.3567 24.9166 22.3706 24.8741C22.5211 25.166 22.8193 25.0572 22.8998 25.3272C22.7847 25.393 22.519 25.5499 22.5013 25.3697C22.2504 25.7054 22.9493 25.552 23.1662 25.5527C22.8977 25.3972 23.186 25.3506 23.302 25.2841C23.3329 25.3293 23.2949 25.352 23.2928 25.4163C23.7408 25.5987 23.6828 24.7434 24.0927 25.3301L24.0899 25.0148L24.4608 25.2445C24.3429 24.6147 24.8989 25.1823 24.8142 24.597C25.1774 24.5786 24.8488 24.9568 24.9654 24.8896C25.3357 25.0126 25.8035 24.4373 25.988 24.7335C26.2338 24.5158 26.5872 24.6528 26.8069 24.5264L26.8869 24.7957C27.002 24.7299 27.1249 24.597 27.2634 24.6437C27.2714 24.6819 27.2649 24.7217 27.2451 24.7554C27.6501 24.6242 28.0744 24.562 28.5001 24.5715C28.517 24.7511 28.5418 24.8634 28.3192 24.9278C28.7616 25.1809 29.2584 24.5821 29.8632 24.6811L29.8533 24.8127L30.1282 24.5927C30.0795 24.6854 30.1466 24.7723 30.1699 24.8846C30.7437 24.9412 31.4321 24.9313 31.5995 24.3963C31.4752 24.5293 31.9225 24.7193 31.649 24.9349C32.1358 24.5737 32.8772 24.6578 33.482 24.5674L33.4644 24.5497L33.6961 24.4196L33.7265 24.4656L33.5633 24.5582C33.7948 24.5289 34.012 24.4304 34.1865 24.2754C34.2683 24.4444 34.3874 24.5926 34.5349 24.7087C34.465 24.3715 35.3342 25.0176 35.5596 24.6422C35.6211 24.7335 35.4416 24.708 35.5738 24.8232C36.3419 24.7759 37.4046 24.3814 38.392 24.655C38.3233 24.0039 39.1417 24.1878 39.5748 23.8873C39.7833 24.274 39.3339 24.0817 39.2625 24.3694C39.526 24.2881 39.4243 24.8438 39.861 24.5441C39.854 24.6118 39.883 24.6564 39.7769 24.6536C40.061 24.6846 39.6144 24.1786 40.073 24.3051L40.1479 24.5765L40.3373 24.2245C41.2587 24.4083 41.9775 24.2139 42.8155 24.5108C42.8487 24.4508 42.8015 24.3185 42.6876 24.2415C43.041 24.2599 43.359 23.8173 43.8183 24.1001L43.7335 24.209C44.4274 24.4578 44.3179 23.8973 45.0592 23.8159C44.8803 23.7869 44.5271 23.9736 44.4232 23.6562C44.4472 23.4568 44.8437 23.4957 45.0069 23.6591L44.8655 23.2972C44.8026 23.5169 44.5137 23.4837 44.3179 23.5876C44.3702 23.5594 44.3681 23.4836 44.3752 23.4144C44.207 23.5289 43.9476 23.5184 43.6926 23.6081L44.0917 23.6456C44.0084 23.999 43.4368 23.6223 43.3116 23.7515C43.2438 23.4136 43.4925 23.4674 43.1993 23.1897C42.523 23.0533 42.8989 23.5353 42.3519 23.828L42.4828 23.9446C42.2962 23.9827 42.2163 24.3369 41.8834 24.0789C41.8397 23.8541 42.0566 23.8619 42.1421 23.7537C42.0523 23.6173 41.8735 24.1468 41.6114 23.9128C41.7266 23.6039 42.1768 23.4886 42.5038 23.4993C42.4414 23.3988 42.418 23.2788 42.4382 23.1621C41.5298 23.5217 40.5501 23.6643 39.577 23.5784C39.9896 23.1656 39.3585 23.5707 39.3769 23.1253C39.3741 23.4377 39.0116 23.1359 38.7763 23.2625C38.5996 22.9217 39.2455 23.0094 38.9812 22.7747C38.4965 22.8482 37.9502 23.4568 37.2733 23.3282C37.2895 23.1946 37.4379 23.1762 37.4457 23.1104C37.0329 23.2094 36.6492 23.982 36.2387 23.4583C36.3984 23.2674 36.5941 23.0618 36.7772 22.8786C36.6758 22.8633 36.5813 22.818 36.5058 22.7486L36.6076 22.5055C36.0698 22.4227 36.3263 23.0342 36.1065 23.3402L35.7116 22.9946C35.4638 22.8821 35.1828 22.8667 34.9242 22.9516C34.6656 23.0364 34.4483 23.2152 34.3152 23.4526C34.2056 23.449 33.7725 23.4399 33.8784 23.1288C34.0735 22.7076 34.1428 22.4191 34.7265 22.4093C34.877 22.7012 34.3617 22.7372 34.5406 22.7635C34.7639 22.7041 35.2487 22.9359 35.3865 22.6722L34.7653 22.7012C34.6713 22.2509 35.0218 22.685 35.0841 22.463C34.8345 22.099 34.5717 22.4963 34.2693 22.2884L34.3074 22.2672C33.8241 22.3492 33.8728 22.2566 33.4184 22.4496C33.4806 22.8539 33.6432 22.7012 33.9151 22.8644C33.1124 22.8673 32.191 23.6294 31.2207 22.9189L31.6228 22.5676C31.3041 22.4949 30.8638 22.8673 30.7755 22.3492C31.1579 22.5138 30.9374 22.1958 31.0921 22.1089L31.1232 22.1541C31.1614 22.1329 31.2773 22.0679 31.1791 21.9979C30.9324 22.2307 30.6427 22.4129 30.3261 22.5343C30.4278 22.4214 30.1204 22.258 30.0689 22.1795C29.8038 22.2636 30.1169 22.4044 30.1699 22.5633C30.0215 22.5831 29.8434 22.8715 29.6555 22.5987C29.3912 22.3697 29.8632 22.357 29.8866 22.1555L29.122 22.5216L29.1298 22.4545C29.1193 22.4786 29.1038 22.5002 29.0844 22.5178C29.0649 22.5355 29.042 22.5489 29.017 22.557C28.992 22.5652 28.9656 22.5679 28.9395 22.5651C28.9133 22.5623 28.8881 22.554 28.8654 22.5407C28.7404 22.3591 28.9255 22.3181 29.0661 22.364C28.558 22.0905 28.4216 22.9648 27.9157 22.4065L27.7051 22.569C27.6726 22.5237 27.6097 22.4326 27.6479 22.4114L27.4486 22.5881C27.0309 22.7613 27.2373 22.2043 27.0628 22.1117L27.0861 22.1152C26.9314 22.0523 26.7892 21.8891 26.8755 21.841L26.4508 22.082L26.4515 22.0728C26.3412 22.405 25.6565 22.4877 25.8035 23.0858C25.6657 23.0398 25.5363 22.9288 25.5752 22.8433C25.2282 22.8821 25.5512 22.3782 24.9993 22.4722C24.9725 22.3577 25.0439 22.3838 25.1222 22.3392C24.9696 22.328 24.9173 22.369 24.9074 22.4326C24.8868 22.3509 24.8537 22.273 24.8092 22.2015C24.858 22.4256 24.6093 22.3789 24.47 22.3329L24.5837 21.9519C24.4933 22.1315 24.4157 22.1753 24.1669 22.1287L24.2643 21.8827C23.8948 21.9696 24.357 22.3994 23.8361 22.1923L24.3167 22.4185C23.8368 22.5039 24.1131 22.9783 23.945 23.2017C23.5111 23.5806 22.7111 22.9034 22.4914 23.6661C22.372 23.4179 22.4164 23.3282 22.22 23.1246C22.3559 23.1001 22.4803 23.0326 22.5749 22.9321C22.6695 22.8316 22.7294 22.7033 22.7457 22.5662C23.2921 22.1867 23.1225 23.4901 23.6871 22.9083C23.5768 22.5944 23.3584 22.5924 23.198 22.7486C23.1161 22.4786 23.3161 22.3011 23.4376 22.1654C23.0701 22.3167 22.415 21.9809 22.1741 22.0226C22.0857 22.1676 21.8151 22.3704 21.6575 22.2905C21.7233 22.4977 21.1346 22.6539 21.4342 23.0794C21.0265 23.1903 21.0222 22.492 20.7212 22.9868C20.7962 22.6291 20.3855 22.7387 20.4888 22.4234C20.7092 22.7373 21.0505 22.2219 21.2173 21.9971L20.5487 21.8176C20.7233 21.9074 20.5544 22.1329 20.4782 22.1711L20.3269 21.8785C20.4018 22.598 19.11 21.3822 18.9977 22.2183C19.1828 22.1746 19.4117 22.4206 19.4146 22.0389C19.8266 22.2403 19.469 22.5782 19.6973 22.8263C19.1998 23.1189 18.2324 22.6659 17.749 23.2087C17.8063 22.9833 18.0932 23.0058 18.0486 22.7125C17.5582 22.557 17.171 23.2342 16.7131 23.5056L16.7151 23.1232C16.3576 23.4625 16.5095 22.9883 16.0658 23.1252C16.0961 23.1712 16.1937 23.3056 16.0835 23.3056C15.6905 23.2858 15.9717 22.9932 15.6898 22.9019C15.3456 23.4894 15.3654 22.5195 14.8305 22.8397L14.8397 22.7076C14.4213 22.9592 13.6745 22.4467 13.1423 22.3838C13.2045 22.4743 13.5712 22.3788 13.613 22.7401L12.9889 22.8581C12.9261 22.7684 12.6405 22.7486 12.7657 22.5442C12.8426 22.4983 12.9458 22.5648 13.0137 22.5874L12.8773 22.4015C12.3204 22.6093 13.0455 22.9401 13.1274 23.2822C12.7777 23.1727 12.7473 23.5113 12.531 23.5127C12.3451 23.1755 12.8533 23.1281 12.4921 22.767C12.2555 22.588 11.6886 22.8638 11.5565 23.2066C11.0492 22.4234 10.2725 23.0872 10.1101 22.4807C10.1418 22.5252 10.0868 22.7528 9.91428 22.6638L9.96305 22.5062C9.44647 22.2424 9.66204 23.073 9.35043 22.9437C9.32345 22.8291 9.4006 22.7847 9.4119 22.6489C8.7759 22.5245 8.66347 23.43 7.97661 23.0808C7.9823 23.013 7.9844 22.9472 8.05576 22.9663C8.06285 22.8984 7.95542 22.9013 7.79792 23.0618L8.06775 23.2823C7.93493 24.0075 7.15623 23.0052 6.71031 23.2165C6.71881 23.0836 7.08268 23.0519 6.84383 22.8751C6.52163 22.8807 6.74779 23.6456 6.27289 23.2936C6.4241 23.2002 6.28069 22.8461 6.42619 22.767C6.16686 22.7267 5.9393 22.5245 5.91812 22.8044C5.87871 22.7827 5.84448 22.7527 5.81778 22.7164C5.79107 22.6802 5.77253 22.6386 5.76342 22.5945C5.65668 22.8128 5.36417 22.6729 5.17829 22.6143L5.18528 22.48C5.05537 23.2067 4.67861 22.5386 4.28086 22.5902L4.29635 22.3867C4.14654 22.48 3.94797 22.7352 3.57631 22.4496L3.66675 22.198C3.47237 22.3839 2.92822 22.0148 2.82578 22.4015C2.72265 22.3365 2.93392 21.9441 2.53897 21.9336C2.4902 22.094 2.22797 22.2587 2.06547 22.0367C2.03649 21.9243 2.04848 21.7879 2.18209 21.899C2.25275 21.9187 2.21667 21.9419 2.21108 22.0113L2.29722 21.829C1.95164 21.6557 2.10225 22.0141 1.75457 21.9096C1.65563 21.7766 1.80683 21.6791 1.81603 21.5469L0.741211 22.0254C0.764496 22.2057 0.936187 22.2926 0.886119 22.5195L1.30865 22.5761C1.57578 22.8645 1.17643 22.919 1.02663 23.0137L1.31285 23.0299C1.33403 23.0596 1.33763 23.0984 1.31645 23.1154L1.52271 23.0915C1.06341 23.5113 2.23646 23.6159 1.71139 23.9475C1.79073 23.911 1.86043 23.8564 1.91492 23.7882C1.9694 23.7199 2.00717 23.6399 2.02519 23.5544C2.28243 23.4568 2.27034 23.6584 2.40325 23.7713L2.05907 24.0534C2.67668 23.9235 2.07396 24.3694 2.59333 24.5596C3.07743 24.3199 3.61728 25.212 3.9035 25.2283C4.44336 25.1464 3.60459 24.8967 3.9049 24.7065C4.19671 24.6535 4.10487 24.9066 4.31544 24.9674L4.34722 24.5596C4.67511 24.4846 4.46035 24.9427 4.61575 24.7801C4.95493 25.0219 4.56848 24.9391 4.58047 25.2551C4.62284 25.1631 4.88787 24.9972 5.05317 25.1541C5.08005 25.2685 4.71898 25.2975 4.96482 25.3371C5.77191 25.0954 6.0955 25.5378 6.85022 25.4544L6.83393 25.6574C6.91029 25.6107 6.95336 25.5194 7.0509 25.5817L7.0424 25.7147C7.47442 25.5607 7.92809 25.4762 8.38655 25.4643L8.18727 25.716L8.57023 25.4163L8.61051 25.7775C8.67407 25.417 9.26839 25.6298 9.67053 25.5103L9.7256 25.738L9.95175 25.598L9.90378 25.7577C10.1574 25.7288 10.3673 25.3435 10.7079 25.5188C10.4966 25.4544 10.5404 25.8149 10.5983 25.9719ZM21.1156 25.1131L21.2265 25.0982C21.2123 25.1136 21.1932 25.1236 21.1725 25.1266C21.1517 25.1296 21.1306 25.1253 21.1127 25.1145L20.9339 25.1421C20.9064 24.9292 21.0102 25.0699 21.1156 25.1131ZM37.9869 24.3758L37.693 24.4125C37.7609 24.4365 37.9551 24.3298 37.9015 24.4868C37.9389 24.4634 38.0492 24.4663 37.9869 24.3758ZM20.1812 22.9133L20.2732 22.7309L20.4301 22.9557L20.1812 22.9133ZM17.7638 22.9352L17.9914 22.7995L18.0239 22.8447L17.7936 22.9804L17.7638 22.9352ZM14.9068 25.0254C14.9748 24.6281 15.1541 25.0311 15.3138 24.867C15.3245 24.8494 15.3393 24.8346 15.357 24.824C15.3447 24.8403 15.3302 24.8548 15.3138 24.867C15.2376 25.0028 15.193 25.3541 14.9097 25.0226L14.9068 25.0254ZM20.406 24.6917C20.4555 24.9165 20.1652 24.961 20.1128 25.1194C19.9722 25.0734 20.1015 24.872 20.1149 24.737C20.0456 24.7144 20.0068 24.7363 19.929 24.7815C19.8682 24.3051 20.2018 24.937 20.406 24.6917ZM26.2113 24.3673L26.0105 24.5455L26.0819 24.5687L26.2113 24.3673ZM27.4556 24.5363C27.5178 24.5414 27.5801 24.5298 27.6363 24.5027C27.6924 24.4756 27.7403 24.434 27.775 24.3821C27.8097 24.3303 27.8299 24.2701 27.8335 24.2079C27.8371 24.1456 27.824 24.0835 27.7956 24.028C27.5743 24.0895 27.2161 24.0421 27.149 24.3326C27.243 24.1524 27.1786 24.7568 27.4521 24.5398L27.4556 24.5363ZM17.306 24.356C17.4586 24.2656 17.578 23.7459 17.9857 24.0152L17.7582 24.151L17.8274 24.1736L17.8091 24.3758C17.7511 23.8357 17.4523 24.3326 17.306 24.356ZM29.7042 24.1418C29.764 24.1308 29.8207 24.1069 29.8702 24.0717C29.9198 24.0364 29.961 23.9908 29.991 23.9379C30.021 23.885 30.039 23.8261 30.0438 23.7655C30.0486 23.7049 30.04 23.6439 30.0187 23.587C30.1049 23.7905 29.7198 24.006 29.5205 24.1842C29.5962 24.1397 29.6364 24.1192 29.7042 24.1418ZM29.4929 23.7579C29.3537 23.7119 29.3417 23.4653 29.1438 23.6407C29.2308 23.8436 29.2492 24.3369 28.8675 24.1743C29.0513 23.8166 29.0364 23.6365 29.3432 23.4625L29.4929 23.7579ZM29.0739 24.4867L28.6004 24.3284C28.734 23.8966 28.8704 24.3283 29.0739 24.4867L29.228 24.5391C29.2 24.5418 29.1718 24.5387 29.1451 24.5298C29.1184 24.5209 29.0939 24.5065 29.0732 24.4875L29.0739 24.4867ZM32.2489 24.4111L32.1549 24.5221C32.1832 24.5828 32.1789 24.6394 32.0419 24.6536L32.1549 24.5221C32.0936 24.4069 31.904 24.274 32.2454 24.4132L32.2489 24.4111ZM29.4886 24.4564L29.8915 24.4168C29.7516 24.3673 29.4737 24.2732 29.4886 24.4564ZM31.4059 24.1319C31.5988 24.1355 31.791 24.1539 31.981 24.1871C31.8977 24.2944 31.4942 24.332 31.408 24.1298L31.4059 24.1319ZM40.9005 24.0456L40.7161 23.7721L40.9726 23.7572L40.9005 24.0456ZM38.1177 23.6159L37.9707 23.6343L37.8768 23.4978L38.1177 23.6159ZM34.9448 23.3544C34.9697 23.3596 34.9928 23.3711 35.012 23.3878C35.0312 23.4045 35.0458 23.4259 35.0544 23.4498C35.3998 23.6327 35.7907 23.712 36.1801 23.6781C36.3426 23.8407 36.0246 24.0768 35.9398 24.1857C35.9016 23.2681 35.5349 24.2189 35.2077 23.8987C35.2572 23.8067 35.4309 23.8393 35.4493 23.7035C35.3995 23.6607 35.3386 23.6327 35.2737 23.6227C35.2087 23.6127 35.1423 23.6211 35.0819 23.647C35.0734 23.7119 35.0479 23.7629 35.0091 23.7608C35.0109 23.7373 35.0185 23.7146 35.0312 23.6948C35.0439 23.6749 35.0613 23.6585 35.0819 23.647C35.0914 23.5806 35.0824 23.5128 35.0558 23.4512C35.0127 23.4267 34.9749 23.3938 34.9448 23.3544ZM31.0638 23.3091C31.0278 23.3905 31.1938 23.4957 30.9975 23.606C30.9731 23.5563 30.9664 23.4998 30.9784 23.4458C30.9905 23.3919 31.0206 23.3436 31.0638 23.3091C31.078 23.2781 31.1197 23.2533 31.2193 23.2285C31.1608 23.2398 31.1068 23.2678 31.0638 23.3091ZM31.1543 22.8242L30.7147 23.1974L30.8448 22.9981L30.5332 23.1684C30.5334 23.0961 30.553 23.0251 30.5899 22.9628C30.6267 22.9005 30.6795 22.8492 30.7428 22.8141C30.8061 22.779 30.8776 22.7615 30.9499 22.7633C31.0222 22.7651 31.0928 22.7861 31.1543 22.8242ZM29.8222 23.0682L30.3799 22.9444L30.3742 22.9939L30.4109 22.9896L30.3523 23.2137L30.3742 22.9939L29.8222 23.0682ZM25.1392 23.524L24.8544 23.4978C25.0005 23.3754 25.1877 23.313 25.378 23.3233C24.9364 22.6906 25.294 23.4356 24.7414 23.1826C25.3131 23.1889 25.0015 22.7953 24.9173 22.5414C24.8884 22.9083 24.1012 22.692 24.4962 23.4491C24.6551 23.2972 25.0897 23.9947 25.1392 23.524ZM21.4405 23.3205L21.1092 23.3862L21.4709 23.365L21.4405 23.3205ZM11.8032 23.1805C11.8322 22.8404 12.3812 23.1507 12.3996 23.3304C12.3057 23.1967 12.0519 23.223 11.8032 23.1805ZM8.34697 23.2985C8.55464 23.365 8.73772 22.9302 8.91791 23.3339L8.54695 23.4985C8.44801 23.3643 8.32788 23.5055 8.34697 23.2985ZM5.80719 23.2575L5.77261 23.6654L5.88564 23.5947L5.80719 23.2575ZM6.12798 22.7953C6.05603 22.7741 5.79799 22.8708 5.92661 23.049L6.12798 22.7953ZM3.55362 23.1705L3.61448 22.8072L3.4371 22.7896L3.55362 23.1705ZM3.78547 23.4137C3.82715 23.3721 3.82715 23.2886 3.81725 23.1968C3.88371 23.0978 4.02502 23.0596 4.19881 23.1543C4.2208 23.3346 4.08788 23.2243 4.01093 23.2717C4.08089 23.2922 4.2165 23.4024 4.32883 23.3325C4.10197 23.0207 4.2094 23.0193 4.12396 22.7486C3.68514 22.5923 3.79317 22.938 3.81865 23.1953C3.7985 23.2279 3.78544 23.2644 3.78032 23.3024C3.77521 23.3404 3.77816 23.3791 3.78897 23.4158L3.78547 23.4137ZM5.21217 23.4993C5.16219 23.4563 5.12279 23.4024 5.09704 23.3417C4.82002 23.2469 4.53939 23.1585 4.72748 22.8305L4.97192 22.8687C4.86449 22.8701 4.89777 22.9147 4.89207 22.9826C5.09634 23.1133 5.15071 22.8864 5.26164 22.8164C5.22346 22.9464 4.99311 23.1133 5.09494 23.3381C5.16846 23.3632 5.24041 23.3927 5.3104 23.4264C5.34009 23.3813 5.38106 23.3558 5.46231 23.4667L5.45601 23.5353C5.41648 23.4883 5.36665 23.4511 5.3104 23.4264C5.28572 23.471 5.26243 23.5282 5.21217 23.4993ZM3.65756 23.6929C3.65186 23.7608 3.71692 23.8499 3.67455 23.9418L3.56362 24.0131C3.35865 23.8802 3.51485 23.7169 3.65965 23.6908L3.65756 23.6929ZM10.9531 23.4427C10.9905 23.4193 11.3827 23.437 11.3283 23.2088L11.5142 23.5445C11.3064 23.478 11.1736 23.7523 11.2767 23.8188C11.0824 23.6188 10.9651 23.7558 10.9559 23.4399L10.9531 23.4427ZM20.8583 23.3431C20.7764 23.4561 20.223 23.2081 20.2548 23.6357C19.9764 23.1606 20.582 23.2504 20.8597 23.3403L20.8583 23.3431ZM21.0279 23.8152C21.0672 23.8036 21.1078 23.7968 21.1487 23.7947C21.2787 23.7028 21.1819 23.3615 21.4879 23.5473C21.4434 23.6371 21.3091 23.524 21.2689 23.611C21.3353 23.8272 21.2858 23.7849 21.1515 23.7919C21.1342 23.8045 21.1143 23.813 21.0932 23.8166C21.0722 23.8203 21.0505 23.8191 21.03 23.8131L21.0279 23.8152ZM15.5209 24.2061L15.8064 24.2274L15.9117 23.9085L15.5209 24.2061ZM12.9374 24.6119L13.1578 24.5426L13.0554 24.4755C13.0349 24.3927 12.96 24.2725 13.0109 24.2161C13.0481 24.211 13.0841 24.199 13.1168 24.1807C13.0977 24.1789 13.0784 24.1811 13.0601 24.1872C13.0419 24.1933 13.0251 24.2031 13.0109 24.2161C12.8434 24.2422 12.6244 24.2211 12.6618 24.4578C12.7091 24.3638 13.0271 24.3638 13.049 24.5441L12.9374 24.6119ZM7.50031 24.9186C7.61274 24.8487 7.61834 24.7808 7.85509 24.9582C7.79987 24.9923 7.73484 25.0068 7.67039 24.9995C7.60595 24.9922 7.54651 24.9642 7.50031 24.9186ZM14.355 24.848C14.3352 24.667 14.6525 24.7328 14.4942 24.508L14.3543 24.4642C14.5662 24.5349 14.3592 24.0138 14.694 24.2585L14.5195 24.238C14.7591 24.3489 14.3415 24.5998 14.692 24.7101C14.8298 24.7561 14.5231 24.9356 14.3493 24.8466L14.355 24.848ZM7.2092 25.4206C7.39078 25.3718 7.21489 24.9002 7.59155 25.1201C7.36969 25.1908 7.5145 25.6185 7.2092 25.4206ZM12.6025 25.5845L12.6342 25.6291L12.8596 25.4898L12.8286 25.446L12.6025 25.5845Z" fill="white"/>
<path id="Vector_20" d="M8.65094 22.9832C8.6144 22.9674 8.57507 22.959 8.53524 22.9585C8.4954 22.958 8.45587 22.9654 8.41895 22.9803C8.49539 22.9961 8.57413 22.9971 8.65094 22.9832Z" fill="white"/>
<path id="Vector_21" d="M21.7637 22.1338C21.7745 22.1665 21.7919 22.1967 21.8147 22.2225C21.8376 22.2483 21.8655 22.2691 21.8967 22.2838C21.8693 22.221 21.8227 22.1685 21.7637 22.1338Z" fill="white"/>
<path id="Vector_22" d="M22.3711 21.9964L22.4022 21.995L22.4213 21.9675L22.3711 21.9964Z" fill="white"/>
<path id="Vector_23" d="M43.9273 22.6864C44.0206 22.3088 43.7406 22.6171 43.5957 22.6093C43.7407 22.6171 43.8573 22.8894 43.9273 22.6864Z" fill="white"/>
<path id="Vector_24" d="M42.9395 23.2821C42.9707 23.2259 43.0144 23.1776 43.0672 23.1409C43.12 23.1042 43.1806 23.0802 43.2442 23.0706C43.1481 23.0551 43.0554 23.0911 42.9395 23.2821Z" fill="white"/>
<path id="Vector_25" d="M43.8268 23.1529C43.6437 23.0729 43.4422 23.0445 43.2441 23.0709C43.3933 23.0928 43.5496 23.2462 43.8268 23.1529Z" fill="white"/>
<path id="Vector_26" d="M39.8663 23.0628C39.99 22.8329 40.3613 22.9708 40.3613 22.9708C39.5643 22.7212 40.4093 22.5296 40.4298 22.3535C39.985 22.4193 40.0502 22.7177 39.8663 23.0628Z" fill="white"/>
<path id="Vector_27" d="M38.9072 23.1492C38.9826 23.1502 39.0568 23.1683 39.1242 23.2022C39.0948 23.1768 39.0598 23.1588 39.0221 23.1496C38.9844 23.1404 38.945 23.1402 38.9072 23.1492Z" fill="white"/>
<path id="Vector_28" d="M38.5788 22.9102C38.3334 22.9576 38.3044 23.2228 38.2344 23.4257C38.5908 23.6279 38.6912 23.2079 38.909 23.1499C38.7252 23.1386 38.5526 23.1613 38.5788 22.9102Z" fill="white"/>
<path id="Vector_29" d="M34.336 22.1197C34.389 22.0921 34.5319 22.0977 34.5 21.9486L34.0673 21.9316C33.9146 22.015 34.242 22.0865 34.336 22.1197Z" fill="white"/>
<path id="Vector_30" d="M33.301 22.6382C32.963 22.6552 33.05 22.2726 32.8965 22.3568L33.0373 22.8652L33.301 22.6382Z" fill="white"/>
<path id="Vector_31" d="M33.8252 24.597L33.9164 24.5468L33.8047 24.5623L33.8252 24.597Z" fill="white"/>
<path id="Vector_32" d="M31.8767 22.3112L31.9792 21.7505C31.7247 21.8891 31.8286 22.3395 31.8767 22.3112Z" fill="white"/>
<path id="Vector_33" d="M30.852 21.9789L31.0118 21.8077L30.4199 21.9654L30.852 21.9789Z" fill="white"/>
<path id="Vector_34" d="M29.7209 22.1596L29.6354 22.0386L29.2373 22.1751L29.7209 22.1596Z" fill="white"/>
<path id="Vector_35" d="M16.5889 22.6123C16.6469 23.0903 17.2819 22.8895 17.5131 23.0118C17.2225 22.4115 17.0167 23.2141 16.5889 22.6123Z" fill="white"/>
<path id="Vector_36" d="M9.30469 23.1902L9.92909 23.0693C9.37259 22.8904 9.78759 23.0692 9.30469 23.1902Z" fill="white"/>
</g>
</g>
</mask>
<g mask="url(#mask0_5_586)">
<g id="Group_3">
<g id="Group_4">
<path id="Vector_37" d="M1.16504 21.6851C1.96453 23.4845 5.76211 24.3842 7.26116 24.4842C7.96072 24.5841 8.86014 24.0843 9.5597 24.1843C9.95945 24.2842 10.1593 24.984 10.659 24.884C11.0587 24.884 11.3586 24.7841 11.7583 24.6841C13.3573 24.2842 15.1561 24.0843 16.8551 24.2842C17.7545 24.3842 18.554 23.8844 19.3535 23.6844C19.9531 23.5845 20.7526 23.8844 21.4521 23.7844C22.5514 23.5845 23.6507 23.8844 24.6501 23.7844C26.349 23.6844 27.948 23.6844 29.6469 23.5845C30.9461 23.4845 32.2453 23.7844 33.4445 23.8844C34.6437 23.9843 35.843 23.9843 37.0422 23.9843C39.4407 23.9843 41.8392 23.8844 44.2376 23.8844" stroke="#202020" stroke-width="3.99865" stroke-miterlimit="10" stroke-linejoin="round" stroke-dasharray="41.99 41.99"/>
</g>
</g>
</g>
</g>
<g id="Mask group_2">
<mask id="mask1_5_586" style="mask-type:luminance" maskUnits="userSpaceOnUse" x="21" y="13" width="30" height="18">
<g id="Group_5">
<g id="Group_6">
<path id="Vector_38" d="M23.9604 29.522C23.9352 29.5489 23.9073 29.5731 23.877 29.5941C23.9802 29.5913 24.0261 29.5764 23.9604 29.522Z" fill="white"/>
<path id="Vector_39" d="M22.6969 30.0549C23.1234 30.0058 23.53 29.8472 23.8771 29.5945C23.5434 29.603 22.5816 29.4687 22.6969 30.0549Z" fill="white"/>
<path id="Vector_40" d="M23.6611 28.5967L23.292 28.8583C23.6073 28.9559 23.4526 28.6978 23.6611 28.5967Z" fill="white"/>
<path id="Vector_41" d="M23.71 29.1577L23.8146 29.36L23.9674 29.1082L23.71 29.1577Z" fill="white"/>
<path id="Vector_42" d="M46.5834 25.7104C46.575 25.8248 46.6048 25.9387 46.6683 26.0342L46.5834 25.7104Z" fill="white"/>
<path id="Vector_43" d="M47.1602 24.5002C47.2156 24.456 47.2756 24.4179 47.3391 24.3864C47.2719 24.3884 47.2359 24.4246 47.1602 24.5002Z" fill="white"/>
<path id="Vector_44" d="M45.6514 25.8784L45.8395 25.8586C45.7765 25.8424 45.7096 25.8495 45.6514 25.8784Z" fill="white"/>
<path id="Vector_45" d="M34.2928 28.0027C34.1896 28.1922 34.0898 28.3655 34.0078 28.4885C34.3953 28.5677 34.2829 28.2219 34.2928 28.0027Z" fill="white"/>
<path id="Vector_46" d="M49.2252 24.8834L49.1572 24.7094C49.1134 24.7744 49.0965 24.8424 49.2252 24.8834Z" fill="white"/>
<path id="Vector_47" d="M46.1895 21.6967C46.2167 21.7728 46.2569 21.8436 46.3083 21.906C46.3183 21.8876 46.3317 21.8728 46.343 21.8502L46.1895 21.6967Z" fill="white"/>
<path id="Vector_48" d="M44.8094 25.7394L44.7931 25.7231L44.6934 25.8667C44.7824 25.8751 44.8221 25.8355 44.8094 25.7394Z" fill="white"/>
<path id="Vector_49" d="M47.6836 24.8268C47.6137 24.926 47.5624 25.0372 47.5322 25.1548C47.5638 25.1433 47.5928 25.1258 47.6176 25.103C47.6423 25.0803 47.6623 25.0529 47.6764 25.0224C47.6905 24.9919 47.6984 24.9589 47.6996 24.9253C47.7009 24.8917 47.6954 24.8582 47.6836 24.8268Z" fill="white"/>
<path id="Vector_50" d="M47.3672 24.3773L47.3629 24.373L47.3389 24.3872C47.3502 24.3872 47.3537 24.3809 47.3672 24.3773Z" fill="white"/>
<path id="Vector_51" d="M44.8535 22.2808C44.9157 22.2313 44.9765 22.1917 45.0409 22.1316C45.0187 22.1284 44.996 22.1297 44.9744 22.1355C44.9527 22.1414 44.9324 22.1516 44.9148 22.1656C44.8973 22.1796 44.8828 22.197 44.8722 22.2168C44.8617 22.2367 44.8553 22.2584 44.8535 22.2808Z" fill="white"/>
<path id="Vector_52" d="M34.2939 28.0028C34.3223 27.9489 34.3513 27.8954 34.3809 27.8423C34.3165 27.8628 34.2967 27.9236 34.2939 28.0028Z" fill="white"/>
<path id="Vector_53" d="M25.2783 29.6414C25.4191 29.6124 25.4043 29.4858 25.3858 29.3628C25.3238 29.4433 25.2864 29.5401 25.2783 29.6414Z" fill="white"/>
<path id="Vector_54" d="M22.0498 15.0506L21.9883 15.0273C21.9964 15.0352 22.006 15.0413 22.0166 15.0453C22.0272 15.0494 22.0385 15.0512 22.0498 15.0506Z" fill="white"/>
<path id="Vector_55" d="M27.921 16.8392C27.9524 16.8093 27.9776 16.7735 27.9953 16.7338C27.9408 16.6794 27.9196 16.7444 27.921 16.8392Z" fill="white"/>
<path id="Vector_56" d="M33.5105 22.7302L34.5119 22.4355C34.5578 22.6468 35.0263 22.8087 34.7287 22.9719L35.1026 22.7069L35.0963 22.9366C36.788 23.7001 37.9766 22.2326 39.6988 23.5523L39.6811 23.635L40.5552 23.2596C40.7333 23.3516 40.8329 23.7764 41.1319 23.9779C40.9446 23.5077 41.666 24.0258 41.7961 23.6767C42.0385 23.898 41.8258 23.9708 41.7869 24.1355C42.7409 24.7278 43.3698 24.1312 44.3923 24.621C43.8611 24.205 43.2737 23.8663 42.6476 23.6152C43.4115 23.5056 43.601 23.9764 44.4397 23.9941L44.0645 24.122C44.586 24.8586 45.3244 23.9927 45.5484 24.7582C46.0451 24.7419 46.3936 24.0894 47.0303 24.3305L46.843 24.9264L47.4105 25.0388L47.3645 24.597C47.4348 24.5953 47.5038 24.6163 47.5613 24.6568C47.6188 24.6973 47.6618 24.7551 47.684 24.8219C48.0105 24.3878 48.5856 24.7681 49.0704 24.474L49.1588 24.7038C49.1929 24.6631 49.2226 24.6187 49.2471 24.5716C49.3997 24.9759 49.8081 24.9137 49.8739 25.2721C49.7128 25.3272 49.341 25.4559 49.3439 25.2254C48.9644 25.5823 49.9057 25.5668 50.1891 25.6227C49.8563 25.3548 50.2463 25.3746 50.4075 25.3195C50.442 25.3838 50.3884 25.4022 50.3714 25.4855C50.4287 25.5231 50.4941 25.5464 50.5623 25.5534L49.0195 20.1028C48.6951 20.2477 48.8732 21.0507 48.3051 20.4654L48.4026 20.8994L47.9037 20.71C48.2337 21.5349 47.4204 20.9419 47.6967 21.7158C47.2854 21.8587 47.5468 21.2338 47.4338 21.3624C46.9701 21.3144 46.6077 22.2551 46.3053 21.9089C46.0897 22.287 45.6397 22.2114 45.424 22.4553L45.2495 22.111C45.1365 22.2382 45.0376 22.4644 44.863 22.4411C44.842 22.3918 44.8368 22.3372 44.8482 22.2848C44.4319 22.5922 43.9594 22.8151 43.4575 22.9408C43.3832 22.6999 43.3211 22.5527 43.5584 22.3944C42.9734 22.1881 42.5812 23.1684 41.8526 23.2215L41.8265 23.0328L41.5771 23.4236C41.6032 23.2872 41.5021 23.1833 41.4421 23.037C40.7672 23.1465 39.9743 23.3742 39.9376 24.1588C40.0422 23.9383 39.4627 23.8251 39.72 23.4349C39.2662 24.0824 38.3822 24.1948 37.7109 24.5101L37.7349 24.5341L37.5046 24.7844L37.4536 24.7334L37.6162 24.5568C37.3474 24.677 37.1239 24.8798 36.9781 25.1357C36.8403 24.9357 36.6592 24.7694 36.4481 24.6493C36.6276 25.0904 35.4334 24.4726 35.2814 25.053C35.1846 24.9462 35.3987 24.9285 35.2129 24.8105C34.3415 25.1166 33.2202 25.9783 31.9955 25.8984C32.2583 26.7664 31.2647 26.7706 30.8408 27.3079C30.4874 26.8399 31.0677 26.9692 31.067 26.5544C30.7835 26.7445 30.7468 25.9514 30.3228 26.4928C30.3115 26.3981 30.2649 26.3445 30.3899 26.3169C30.0501 26.3586 30.7115 26.9213 30.144 26.8824L29.9802 26.5332L29.8627 27.0746C28.7384 27.0951 27.9597 27.5744 26.8997 27.4146C26.9003 27.4856 26.922 27.5549 26.962 27.6135C27.0021 27.6722 27.0586 27.7176 27.1246 27.744C26.7075 27.8218 26.4602 28.5201 25.8476 28.2692L25.9168 28.0953C25.0377 27.9553 25.3204 28.692 24.4788 29.0207C24.6943 29.0087 25.0554 28.6502 25.2639 29.0538C25.2914 29.3344 24.8179 29.3967 24.5826 29.2207L24.8434 29.6794C24.8582 29.3563 25.2024 29.3203 25.4017 29.121C25.3487 29.174 25.3684 29.2758 25.3833 29.3754C25.6135 29.1946 25.8631 29.0398 26.1274 28.9139L25.6539 28.9634C25.6539 28.4544 26.4242 28.8064 26.5343 28.593C26.7075 29.0361 26.4029 29.034 26.8228 29.3295C27.6495 29.3195 27.0778 28.7675 27.6325 28.2084L27.4482 28.0875C27.6559 27.9801 27.6488 27.4697 28.1081 27.7256C28.2219 28.0205 27.9668 28.0749 27.8983 28.248C28.0417 28.4085 28.1003 27.6302 28.4721 27.8719C28.4189 28.0869 28.3025 28.2809 28.138 28.4291C27.9735 28.5772 27.7684 28.6727 27.5492 28.7033C27.6528 28.8284 27.7126 28.9841 27.7195 29.1464C28.7138 28.5576 29.7193 27.7369 30.934 27.7278C30.5687 28.4142 31.1906 27.6733 31.2944 28.289C31.209 27.8613 31.7163 28.1653 31.9545 27.92C32.2569 28.3329 31.481 28.4092 31.8506 28.6474C32.3926 28.3979 32.8554 27.4018 33.678 27.375C33.6978 27.563 33.5311 27.6323 33.5402 27.7263C33.9889 27.4684 34.2151 26.2908 34.8426 26.8845C34.7118 27.1948 34.5444 27.5363 34.3854 27.8408C34.4483 27.8219 34.5528 27.843 34.7387 27.9356L34.6907 28.3003C35.3393 28.2508 34.8687 27.4889 35.0319 27.0032L35.5902 27.3552C35.7575 27.3858 35.9293 27.3824 36.0953 27.3453C36.2612 27.3082 36.4181 27.2381 36.5565 27.1392C36.6949 27.0404 36.8121 26.9147 36.901 26.7696C36.9899 26.6246 37.0488 26.4632 37.0742 26.295C37.2022 26.266 37.7073 26.145 37.6749 26.6046C37.5724 27.2414 37.5759 27.6606 36.9011 27.8521C36.6445 27.4924 37.2296 27.2902 37.0177 27.3113C36.7738 27.4663 36.1463 27.288 36.0616 27.6952L36.7746 27.4655C37.0135 28.0551 36.4806 27.5658 36.4728 27.8889C36.8686 28.3116 37.06 27.6889 37.4714 27.8797L37.4318 27.9193C37.9682 27.6655 37.9392 27.7992 38.4126 27.3962C38.2225 26.8612 38.0777 27.1206 37.7144 26.9806C38.6451 26.7282 39.4867 25.3944 40.8202 26.0667L40.4584 26.6731C40.8491 26.6738 41.2484 26.0242 41.5042 26.7056C41.0138 26.5997 41.3622 26.9665 41.2081 27.1347L41.1572 27.0837C41.117 27.1241 41.0046 27.2507 41.1383 27.3149C41.3471 26.9285 41.63 26.5869 41.9707 26.3098C41.8858 26.4964 42.2879 26.6272 42.3749 26.7141C42.6554 26.5141 42.2525 26.4207 42.1416 26.2221C42.307 26.1471 42.4264 25.6955 42.7246 26.0094C43.0964 26.2398 42.5579 26.408 42.5897 26.6914L43.3627 25.9521L43.3733 26.0461C43.4009 25.9097 43.5153 25.7838 43.6532 25.8453C43.8524 26.0546 43.6504 26.1719 43.4744 26.15C44.1457 26.3664 44.0397 25.1223 44.793 25.7259L44.9866 25.4361C45.0383 25.4876 45.1407 25.5902 45.1004 25.6347L45.2778 25.3286C45.7081 24.9575 45.6382 25.7866 45.8671 25.8574L45.8389 25.8616C46.036 25.8976 46.2494 26.0744 46.1654 26.1698L46.583 25.6998L46.5858 25.7111C46.6127 25.2205 47.3794 24.8876 47.0268 24.1149C47.1999 24.1326 47.378 24.2415 47.3646 24.3736C47.7518 24.2083 47.5335 25.0034 48.1411 24.6953C48.2041 24.8416 48.1164 24.8317 48.0402 24.9179C48.2175 24.882 48.267 24.8112 48.2599 24.7207C48.3074 24.8237 48.3693 24.9193 48.4436 25.0049C48.3186 24.713 48.6203 24.6967 48.7948 24.7144L48.7807 25.2742C48.7786 25.2196 48.7887 25.1653 48.8102 25.1151C48.8316 25.0648 48.864 25.02 48.9049 24.9838C48.9458 24.9477 48.9942 24.921 49.0467 24.9058C49.0991 24.8906 49.1543 24.8873 49.2082 24.896L49.1707 25.2657C49.5715 25.0261 48.9072 24.5879 49.5693 24.6989L48.9439 24.544C49.4697 24.2684 49.0055 23.7078 49.1298 23.3474C49.3707 22.9309 49.9043 23.0405 50.2738 22.9027L50.2181 22.7154C50.0862 22.688 49.9488 22.7103 49.8323 22.778C49.7159 22.8457 49.6285 22.9541 49.587 23.0823C49.4676 22.7422 49.539 22.6411 49.3114 22.3358C49.4858 22.3452 49.6581 22.2942 49.7993 22.1913C49.9406 22.0884 50.042 21.94 50.0866 21.771L50.1042 21.7533L50.6958 23.8478C50.1919 24.4931 49.9855 22.6949 49.5191 23.6675C49.7432 24.0626 49.9948 23.9934 50.1317 23.7275C50.187 23.8708 50.2071 24.0253 50.1903 24.178C50.1735 24.3307 50.1202 24.4771 50.035 24.6048C50.3124 24.4415 50.6378 24.3793 50.9558 24.4288L50.0314 21.1701C49.8383 21.0623 49.6298 20.9848 49.4132 20.9404C49.2761 21.1001 48.8945 21.284 48.6973 21.1461C48.7553 21.4203 47.9574 21.4691 48.2825 22.0728C47.7321 22.1088 47.8324 21.2351 47.3624 21.7759C47.5115 21.3441 46.9632 21.3765 47.1398 21.009C47.3815 21.4599 47.9059 20.9001 48.1574 20.6612L47.3087 20.2646C47.5229 20.4223 47.2692 20.6605 47.161 20.6952L47.0027 20.288C46.9907 21.2062 45.4863 19.3535 45.2065 20.3657C45.4544 20.3566 45.7166 20.7249 45.7788 20.2484C46.2876 20.6075 45.7633 20.9397 46.0282 21.3051C45.3315 21.5427 44.1351 20.7305 43.4165 21.2797C43.5267 21.014 43.8977 21.1164 43.8864 20.739C43.2681 20.416 42.6547 21.1595 42.0109 21.3779L42.0837 20.9121C41.563 21.2394 41.8349 20.6902 41.2322 20.7432C41.2647 20.8081 41.3707 21.0019 41.2272 20.973C40.7149 20.8436 41.1263 20.5495 40.7764 20.365C40.2315 21.0062 40.411 19.8031 39.6599 20.0597L39.6973 19.8935C39.1079 20.0943 38.2133 19.2574 37.5272 19.0332C37.5943 19.1627 38.0904 19.1442 38.0854 19.6058L37.2509 19.5838C37.1838 19.4546 36.8127 19.3521 37.0113 19.1322C37.1173 19.0969 37.2424 19.2065 37.3286 19.2532L37.1887 18.9945C36.4277 19.1011 37.3194 19.7119 37.3661 20.1531C36.9258 19.9204 36.8297 20.3346 36.5449 20.276C36.359 19.8073 37.0346 19.8851 36.6177 19.3407C36.3399 19.053 35.5563 19.2404 35.3168 19.6186C34.7938 18.5045 33.6568 19.0891 33.5636 18.289C33.5954 18.3533 33.4808 18.6177 33.2746 18.4536L33.3699 18.2762C32.7537 17.7885 32.8646 18.8764 32.4838 18.6155C32.4774 18.4678 32.5855 18.4345 32.6258 18.2756C31.8287 17.9122 31.4803 18.9774 30.6613 18.301C30.6853 18.2218 30.7065 18.1412 30.792 18.1928C30.8167 18.113 30.6768 18.0776 30.4323 18.2133L30.732 18.5781C30.3793 19.4058 29.6056 17.9009 28.9724 17.9744C29.0254 17.8224 29.5017 17.9256 29.2388 17.6231C28.8205 17.503 28.9024 18.4953 28.3802 17.8797C28.6042 17.8337 28.5181 17.3545 28.7285 17.3234C28.4036 17.1665 28.1689 16.8342 28.0608 17.1545C28.0173 17.1145 27.9826 17.066 27.9588 17.012C27.9349 16.958 27.9225 16.8996 27.9223 16.8406C27.7216 17.0484 27.3852 16.7543 27.1668 16.6067L27.2206 16.4525C26.8277 17.2427 26.5542 16.2794 26.0306 16.1556L26.1175 15.9273C25.9539 16.0043 25.7675 16.0172 25.5948 15.9636C25.4222 15.91 25.2759 15.7936 25.1847 15.6375L25.389 15.3993C25.078 15.5124 24.5345 14.8105 24.259 15.1808C24.1573 15.0536 24.5657 14.7327 24.0844 14.5072C24.0388 14.5529 23.9821 14.586 23.9199 14.6034C23.8577 14.6207 23.792 14.6217 23.7293 14.6062C23.6666 14.5907 23.609 14.5593 23.562 14.5149C23.515 14.4706 23.4803 14.4148 23.4612 14.3531C23.4732 14.2153 23.5417 14.0732 23.6611 14.2705C23.7403 14.3326 23.6859 14.3375 23.6541 14.4047L23.8329 14.2542C23.4803 13.8675 23.5199 14.3439 23.1375 14.0308C23.076 13.8279 23.2937 13.8138 23.3637 13.6717C23.3637 13.6717 22.987 13.6583 22.6111 13.6159L21.8457 13.5459C21.7864 13.7466 21.9617 13.9446 21.7914 14.1545L22.2902 14.4783C22.4923 14.9504 21.9679 14.7568 21.7334 14.761L22.0867 14.9589C22.0995 15.0041 22.086 15.0473 22.0507 15.0501L22.322 15.1561C21.5362 15.3003 23.0011 16.1733 22.168 16.1782C22.2762 16.1971 22.3873 16.1874 22.4906 16.15C22.5938 16.1127 22.6855 16.0491 22.7566 15.9655C23.1311 16.015 23.0202 16.2292 23.1524 16.4278L22.5751 16.5176C23.4491 16.7615 22.4491 16.8654 23.0563 17.3919C23.8039 17.4414 24.1594 18.7187 24.5494 18.9096C25.3189 19.1295 24.2753 18.3724 24.7586 18.3356C25.1727 18.4359 24.9523 18.6707 25.2144 18.8509L25.4116 18.4105C25.8829 18.5045 25.4229 18.9025 25.6928 18.8035C26.0652 19.2595 25.5677 18.9612 25.4673 19.3188C25.5805 19.2621 25.7095 19.2447 25.8337 19.2696C25.9579 19.2944 26.0702 19.36 26.1529 19.456C26.1529 19.5973 25.6426 19.449 25.9656 19.6192C27.1548 19.7515 27.4524 20.4209 28.5187 20.6662L28.4317 20.8945C28.5513 20.8725 28.6381 20.7855 28.7568 20.9072L28.6989 21.0613C29.345 21.0721 29.9875 21.1592 30.6132 21.3207L30.2734 21.5462L30.8733 21.3335L30.8365 21.783C31.021 21.3751 31.7714 21.8558 32.3452 21.8502L32.3672 22.1421L32.7035 22.0544L32.6004 22.234C32.9502 22.2855 33.3176 21.8841 33.7417 22.2121C33.4837 22.0629 33.4667 22.5182 33.5105 22.7302ZM47.566 24.5497L47.7165 24.5589C47.6677 24.5964 47.6154 24.5822 47.566 24.5497L47.3264 24.5377C47.3193 24.2648 47.4331 24.4691 47.566 24.5497ZM32.5488 26.1536L32.8795 26.0137C32.7947 26.0024 32.5997 26.2074 32.6187 25.9763C32.5799 26.0193 32.4514 26.0477 32.5488 26.1536ZM46.6755 21.5569L46.8239 21.3589L46.9956 21.6806L46.6755 21.5569ZM43.5047 20.9611L43.8213 20.8535L43.8581 20.9186L43.5344 21.0275L43.5047 20.9611ZM39.428 22.8081C39.5814 22.3323 39.7517 22.883 39.992 22.7176C40.0075 22.6972 40.0279 22.6812 40.0513 22.6709C40.034 22.6893 40.014 22.705 39.992 22.7176C39.8613 22.8723 39.7461 23.2986 39.428 22.8081ZM46.6982 23.8372C46.7286 24.1321 46.3406 24.1115 46.2473 24.2954C46.0706 24.202 46.2735 23.9865 46.3081 23.8175C46.2197 23.7715 46.1668 23.7892 46.0586 23.8252C46.0487 23.2201 46.3929 24.0945 46.6974 23.838L46.6982 23.8372ZM46.1633 22.4865L46.3399 22.1783L46.2502 22.1691L46.1633 22.4865ZM44.6757 22.6525C44.5963 22.6776 44.5243 22.7217 44.4659 22.7809C44.4074 22.8402 44.3643 22.9129 44.3404 22.9926C44.3164 23.0723 44.3123 23.1567 44.3284 23.2384C44.3445 23.32 44.3803 23.3966 44.4327 23.4612C44.6708 23.3022 45.0954 23.2533 45.0848 22.8342C45.0369 23.1099 44.9308 22.2631 44.6757 22.6525ZM42.6816 22.6144C42.8934 22.5436 43.1353 21.9245 43.6306 22.3719L43.3126 22.4779L43.3988 22.5247L43.343 22.7727C43.3465 22.0821 42.8758 22.6221 42.6816 22.6144ZM42.2024 23.908C42.1323 23.9511 42.0716 24.0078 42.0237 24.0747C41.9757 24.1416 41.9416 24.2173 41.9233 24.2975C41.9049 24.3777 41.9027 24.4608 41.9168 24.5419C41.9309 24.6229 41.961 24.7004 42.0053 24.7697C41.8456 24.518 42.2237 24.0988 42.4016 23.7934C42.331 23.874 42.2872 23.9179 42.2024 23.908ZM42.5621 24.3681C42.736 24.3879 42.8222 24.7244 43.0003 24.419C42.8384 24.1681 42.6702 23.4993 43.1586 23.5991C43.0532 24.1483 43.126 24.3878 42.8215 24.7251L42.5621 24.3681ZM42.8257 23.2378L43.42 23.3036C43.3931 23.9426 43.1084 23.3906 42.8257 23.2378L42.6321 23.2152C42.6638 23.203 42.698 23.1987 42.7317 23.2027C42.7654 23.2066 42.7976 23.2187 42.8257 23.2378ZM39.1843 24.3356L39.2599 24.1539C39.209 24.0789 39.1963 23.9999 39.3525 23.9398L39.2599 24.1539C39.3631 24.2982 39.6267 24.4204 39.1843 24.3356ZM42.3565 23.409L41.9035 23.5892C42.0802 23.616 42.4292 23.657 42.3551 23.4146L42.3565 23.409ZM40.2386 24.4671C40.0151 24.5221 39.7871 24.5571 39.5574 24.5717C39.6245 24.3928 40.0796 24.2148 40.2386 24.4671ZM29.2579 27.4791L29.5497 27.7993L29.255 27.8946L29.2579 27.4791ZM32.6195 27.2267L32.7855 27.1581L32.9332 27.3171L32.6195 27.2267ZM36.3761 26.6259C36.3438 26.6248 36.3125 26.6151 36.2853 26.5978C36.258 26.5805 36.2359 26.5563 36.2212 26.5276C35.7737 26.3823 35.2901 26.3943 34.8504 26.5616C34.6136 26.3911 34.9153 25.9664 34.9818 25.791C35.2906 27.0372 35.4376 25.6178 35.9132 25.9607C35.8835 26.0964 35.6679 26.114 35.6884 26.3014C35.756 26.3454 35.8361 26.366 35.9165 26.3602C35.9969 26.3543 36.0732 26.3222 36.1336 26.2689C36.1244 26.1777 36.14 26.0999 36.1846 26.0907C36.1898 26.1224 36.1879 26.1547 36.1791 26.1855C36.1703 26.2163 36.1548 26.2448 36.1336 26.2689C36.1414 26.3611 36.1718 26.4494 36.2212 26.5276C36.2779 26.5497 36.329 26.5839 36.3725 26.6266L36.3761 26.6259ZM40.8845 25.4808C40.9022 25.357 40.6767 25.2644 40.8775 25.0495C40.9207 25.1128 40.9444 25.1874 40.9457 25.2641C40.9469 25.3407 40.9257 25.4161 40.8845 25.4808C40.8775 25.5259 40.8385 25.5761 40.7276 25.6377C40.7922 25.6019 40.845 25.548 40.8795 25.4827L40.8845 25.4808ZM40.9227 26.1735L41.3212 25.5245L41.2301 25.8377L41.5353 25.504C41.5661 25.5924 41.5724 25.6874 41.5535 25.7791C41.5345 25.8707 41.4911 25.9554 41.4277 26.0243C41.3644 26.0932 41.2836 26.1435 41.1939 26.17C41.1042 26.1965 41.009 26.1982 40.9184 26.1748L40.9227 26.1735ZM42.3883 25.4143L41.7812 25.7628L41.7721 25.6928L41.7311 25.7112L41.729 25.3923L41.7679 25.6999L42.3883 25.4143ZM47.6536 23.2873L47.9921 23.2315C47.9328 23.3334 47.8534 23.4223 47.7588 23.4926C47.6641 23.563 47.5562 23.6134 47.4415 23.6408C48.1433 24.3653 47.5045 23.4605 48.2174 23.6266C47.5519 23.809 48.0366 24.243 48.2105 24.564C48.132 24.0514 49.1065 24.0917 48.4174 23.182C48.2775 23.4477 47.5639 22.6306 47.6514 23.2923L47.6536 23.2873ZM48.2698 22.3882L47.8246 22.3868L48.3023 22.4518L48.2698 22.3882ZM35.6517 19.6611C35.7485 19.2476 36.4135 19.7883 36.4072 20.0166C36.306 19.8265 35.9705 19.7848 35.6517 19.6611ZM31.0986 18.7018C31.363 18.8616 31.6923 18.3909 31.8422 18.9478L31.3171 19.0192C31.2161 18.8178 31.0308 18.9408 31.0986 18.7018ZM27.788 17.6394L27.6192 18.0983L27.7901 18.0685L27.788 17.6394ZM28.3421 17.2407C28.2551 17.1864 27.894 17.1913 28.0085 17.4543L28.3421 17.2407ZM24.8957 16.447L25.1113 16.0701L24.8922 15.9585L24.8957 16.447ZM25.1056 16.8407C25.1755 16.8145 25.2066 16.7227 25.2271 16.6145C25.3486 16.5382 25.5451 16.5665 25.7345 16.7658C25.6992 16.9807 25.5685 16.7905 25.449 16.8011C25.5317 16.8598 25.6695 17.0556 25.8405 17.0358C25.6539 16.5664 25.7959 16.618 25.7797 16.2681C25.278 15.8666 25.2892 16.312 25.2271 16.616C25.1898 16.6395 25.1587 16.6717 25.1365 16.7098C25.1144 16.748 25.1018 16.7909 25.0999 16.835L25.1056 16.8407ZM26.9351 17.6444C26.8852 17.573 26.8518 17.4914 26.8376 17.4055C26.5062 17.1616 26.174 16.9256 26.5238 16.6393L26.8298 16.8039C26.6898 16.753 26.7181 16.8209 26.6891 16.8966C26.9118 17.1475 27.0538 16.9093 27.2192 16.8768C27.1295 17.0131 26.7796 17.0973 26.8355 17.4019C26.9252 17.4705 27.0135 17.5376 27.0884 17.6055C27.1422 17.5659 27.2029 17.5503 27.275 17.7215L27.2446 17.7985C27.2065 17.724 27.1533 17.6582 27.0884 17.6055C27.0375 17.6479 26.9895 17.7059 26.9351 17.6444ZM24.8285 17.0754C24.7953 17.1482 24.8462 17.2839 24.7544 17.3616L24.5798 17.3765C24.3579 17.1121 24.6292 17.0245 24.8285 17.0754ZM34.4921 19.7311C34.5457 19.7141 35.0574 19.8513 35.0291 19.5615L35.2143 20.0293C34.9515 19.8879 34.7288 20.1855 34.8511 20.298C34.6285 19.9862 34.4468 20.1227 34.4921 19.7311ZM47.5016 22.2687C47.3794 22.391 46.6897 21.9359 46.6656 22.4787C46.3688 21.8142 47.1497 22.0835 47.5002 22.2673L47.5016 22.2687ZM47.6529 22.9035C47.7074 22.8996 47.7622 22.9022 47.8161 22.9112C47.9998 22.8293 47.9256 22.3776 48.298 22.6865C48.226 22.7869 48.0676 22.6115 47.9956 22.7133C48.0486 22.9982 47.9914 22.9352 47.8161 22.9112C47.7897 22.922 47.7612 22.9267 47.7327 22.9251C47.7042 22.9235 47.6765 22.9156 47.6514 22.902L47.6529 22.9035ZM40.3608 21.9555L40.7319 22.0581L40.917 21.6905L40.3608 21.9555ZM36.8955 21.7591L37.1979 21.7321L37.0756 21.6212C37.0629 21.5124 36.9852 21.3428 37.0607 21.2855C37.1092 21.2897 37.158 21.2854 37.205 21.2728C37.1329 21.2586 37.0869 21.265 37.0607 21.2855C36.8396 21.2777 36.5506 21.1837 36.5577 21.489C36.6332 21.3893 37.0566 21.4763 37.0524 21.7011L36.8955 21.7591ZM29.5617 20.3171C29.732 20.2796 29.7575 20.2004 30.0331 20.5058C29.9447 20.5233 29.8532 20.5147 29.7695 20.4812C29.6859 20.4477 29.6137 20.3907 29.5617 20.3171ZM38.7186 22.4377C38.7221 22.208 39.1284 22.374 38.9602 22.0545L38.783 21.9619C39.0479 22.1012 38.862 21.4021 39.2626 21.7972L39.0366 21.7237C39.3341 21.9267 38.7434 22.1274 39.1865 22.3585C39.3617 22.4504 38.9335 22.596 38.7186 22.4377ZM29.0212 20.7884C29.2833 20.8089 29.1781 20.1791 29.6275 20.5919C29.3087 20.5884 29.3865 21.1595 29.0212 20.7884ZM36.2735 22.8645L36.3082 22.9288L36.634 22.8221L36.6 22.7585L36.2735 22.8645Z" fill="white"/>
<path id="Vector_57" d="M28.9529 17.3948C28.8888 17.3437 28.8084 17.3175 28.7266 17.3212C28.7972 17.3585 28.8738 17.3834 28.9529 17.3948Z" fill="white"/>
<path id="Vector_58" d="M48.5859 20.9829C48.5927 21.0172 48.6064 21.0498 48.6261 21.0787C48.6458 21.1076 48.6711 21.1322 48.7005 21.1511C48.6806 21.0846 48.6406 21.0258 48.5859 20.9829Z" fill="white"/>
<path id="Vector_59" d="M49.3848 20.939L49.4152 20.9425L49.4378 20.9199L49.3848 20.939Z" fill="white"/>
<path id="Vector_60" d="M25.6564 29.9798C25.6494 30.3942 25.8346 30.0081 25.9634 29.9812C25.8346 30.0081 25.6826 29.7557 25.6564 29.9798Z" fill="white"/>
<path id="Vector_61" d="M26.4099 29.1279C26.3962 29.1903 26.3688 29.2488 26.3297 29.2992C26.2905 29.3496 26.2406 29.3907 26.1836 29.4193C26.2685 29.4108 26.3484 29.3493 26.4099 29.1279Z" fill="white"/>
<path id="Vector_62" d="M25.6562 29.4718C25.8334 29.5113 26.0186 29.4927 26.1845 29.4188C26.0516 29.4272 25.8812 29.3092 25.6562 29.4718Z" fill="white"/>
<path id="Vector_63" d="M29.1502 28.622C29.0872 28.89 28.7344 28.837 28.7344 28.837C29.4825 28.9034 28.7796 29.3064 28.7959 29.4952C29.1735 29.3185 29.0569 29.025 29.1502 28.622Z" fill="white"/>
<path id="Vector_64" d="M29.9723 28.301C29.9064 28.3185 29.8369 28.3175 29.7715 28.2982C29.8014 28.3174 29.836 28.3278 29.8715 28.3283C29.907 28.3288 29.9419 28.3194 29.9723 28.301Z" fill="white"/>
<path id="Vector_65" d="M30.3093 28.4694C30.5151 28.3612 30.4861 28.0777 30.5087 27.8514C30.1559 27.7262 30.1509 28.188 29.9707 28.3032C30.1361 28.2679 30.2825 28.2022 30.3093 28.4694Z" fill="white"/>
<path id="Vector_66" d="M37.83 28.0225C37.7897 28.0642 37.6638 28.0939 37.7204 28.2425L38.1044 28.1512C38.2196 28.0261 37.9191 28.0338 37.83 28.0225Z" fill="white"/>
<path id="Vector_67" d="M38.9258 26.9539C39.2178 26.8514 39.2214 27.2707 39.338 27.1441L39.109 26.6505L38.9258 26.9539Z" fill="white"/>
<path id="Vector_68" d="M37.6898 24.4762L37.6191 24.5469L37.7167 24.503L37.6898 24.4762Z" fill="white"/>
<path id="Vector_69" d="M40.5898 27.0661L40.6174 27.6735C40.8104 27.4663 40.6287 27.0272 40.5898 27.0661Z" fill="white"/>
<path id="Vector_70" d="M41.8979 27.1305L41.7939 27.349L42.2769 27.0343L41.8979 27.1305Z" fill="white"/>
<path id="Vector_71" d="M43.166 26.4863L43.2636 26.5923L43.5861 26.3491L43.166 26.4863Z" fill="white"/>
<path id="Vector_72" d="M41.88 20.2949C41.8722 20.7553 42.5305 20.6824 42.7455 20.8437C42.5355 20.2221 42.2251 20.9398 41.88 20.2949Z" fill="white"/>
<path id="Vector_73" d="M29.5498 17.7659L30.1904 17.8324C29.6778 17.5163 30.0504 17.7928 29.5498 17.7659Z" fill="white"/>
</g>
</g>
</mask>
<g mask="url(#mask1_5_586)">
<g id="Group_7">
<g id="Group_8">
<path id="Vector_74" d="M22.4515 13.3879C22.3516 14.0877 22.5514 14.8874 23.0511 15.3873C24.5502 16.6868 26.1492 17.8864 27.8481 18.7861C28.3478 19.086 28.9474 19.2859 29.4471 19.2859C29.6469 19.2859 30.4464 19.6858 30.5464 19.6858C31.2459 19.8857 31.046 19.7858 31.6457 19.8857C32.2453 19.9857 32.9448 19.8857 33.5445 19.9857C33.7443 19.9857 33.9442 20.0857 34.1441 20.0857C34.6438 20.1856 35.0435 20.1856 35.5432 20.2856C35.6431 20.2856 35.7431 20.2856 35.843 20.3856C35.9429 20.3856 36.0429 20.4855 36.1428 20.5855C36.2427 20.5855 36.4426 20.5855 36.5425 20.5855C36.6425 20.5855 36.8424 20.6855 36.9423 20.7854C36.9423 20.7854 36.8424 20.6855 36.8424 20.5855C40.1403 21.3852 43.3382 21.5852 46.6361 22.085C47.3357 22.185 48.6349 21.6851 49.3344 21.7851C51.1333 25.084 48.435 23.7844 47.6355 23.4845C47.4356 23.3845 47.2357 23.5845 47.0359 23.7844C46.9359 23.8844 47.7354 23.5845 46.2364 24.0843C46.0365 24.0843 45.337 23.6844 45.1371 23.6844C44.3376 23.9843 44.7373 24.4842 43.9378 24.7841C43.4382 24.984 42.139 25.5838 41.6393 25.5838C38.941 25.8837 36.5425 25.9837 34.0441 26.8834C32.745 27.3832 31.5457 27.4832 30.2465 27.883C29.9467 27.983 29.6469 28.083 29.2472 28.083C29.0473 28.083 28.8474 28.083 28.6476 28.083C26.1492 27.883 24.1504 29.8823 21.752 30.4821" stroke="#202020" stroke-width="3.99865" stroke-miterlimit="10" stroke-linejoin="round" stroke-dasharray="61.98 61.98"/>
</g>
</g>
</g>
</g>
</g>
</svg>
