<svg width="19" height="12" viewBox="0 0 19 12" fill="none" xmlns="http://www.w3.org/2000/svg">
<g id="Frame">
<g id="Group">
<path id="Vector" d="M13.6289 7.49499C13.6289 7.46899 13.6409 7.48199 13.6289 7.49499V7.49499Z" fill="#202020"/>
<path id="Vector_2" d="M5.39183 6.96986C5.38972 6.96588 5.38731 6.96208 5.3846 6.9585C5.35155 6.97089 5.3216 6.98122 5.29785 6.98741L5.39183 6.96986Z" fill="#202020"/>
<path id="Vector_3" d="M4.56498 6.00875V5.98975C4.54798 6.00275 4.52998 6.00875 4.56498 6.00875Z" fill="#202020"/>
<path id="Vector_4" d="M8.31445 6.61182C8.32891 6.64176 8.34337 6.65003 8.35679 6.65003C8.34032 6.64018 8.32593 6.6272 8.31445 6.61182Z" fill="#202020"/>
<path id="Vector_5" d="M15.0215 5.76221V5.77221C15.0299 5.76864 15.0386 5.76564 15.0475 5.76321L15.0215 5.76221Z" fill="#202020"/>
<path id="Vector_6" d="M15.0548 5.79487C15.0135 5.82482 15.0176 5.75563 15.0197 5.73291C14.9925 5.74149 14.9689 5.75877 14.9524 5.7821C14.936 5.80542 14.9277 5.8335 14.9288 5.862C14.9763 5.89091 15.0104 5.79487 15.0548 5.79487Z" fill="#202020"/>
<path id="Vector_7" d="M18.1475 2.78564L18.1547 2.81869C18.1539 2.80738 18.1515 2.79624 18.1475 2.78564Z" fill="#202020"/>
<path id="Vector_8" d="M9.99902 7.92643L10.01 7.91943C10.01 7.91943 10.01 7.92043 9.99902 7.92643Z" fill="#202020"/>
<path id="Vector_9" d="M17.5547 3.21631L17.6187 3.28137C17.601 3.25641 17.5794 3.23444 17.5547 3.21631Z" fill="#202020"/>
<path id="Vector_10" d="M5.29878 6.979L5.26367 6.9852C5.27558 6.98449 5.28736 6.98241 5.29878 6.979Z" fill="#202020"/>
<path id="Vector_11" d="M3.70508 5.15863C3.72377 5.14486 3.74076 5.12891 3.75568 5.11112V5.10596L3.70508 5.15863Z" fill="#202020"/>
<path id="Vector_12" d="M1.50562 1.71442C1.50987 1.70227 1.51332 1.68985 1.51595 1.67725L1.45605 1.72269C1.46444 1.72485 1.47318 1.72523 1.48171 1.72381C1.49025 1.72238 1.4984 1.71919 1.50562 1.71442Z" fill="#202020"/>
<path id="Vector_13" d="M2.82866 3.81592C2.81914 3.81734 2.80979 3.81976 2.80078 3.82315C2.81557 3.93769 2.85352 4.04802 2.91231 4.14742L3.00732 4.09888L2.82866 3.81592Z" fill="#202020"/>
<path id="Vector_14" d="M3.7295 1.98451L3.65928 2.16007C3.20282 1.78313 3.21728 1.54561 2.76082 1.23993L2.81865 1.24819C2.81865 1.18726 2.36736 1.26781 2.39834 0.577963H2.41693C2.39627 0.559375 2.3591 0.569702 2.37562 0.518066L2.34464 0.644057C2.25602 0.612177 2.16915 0.575637 2.0844 0.53459L0.172852 1.30706C0.206931 1.31738 0.242043 1.32978 0.276122 1.34423C0.280294 1.34895 0.283413 1.35451 0.285273 1.36053C0.287132 1.36655 0.28769 1.37289 0.286909 1.37914C0.286127 1.3854 0.284025 1.39141 0.280741 1.39679C0.277456 1.40216 0.273066 1.40678 0.267861 1.41033C0.267861 1.41033 0.384557 1.4506 0.508482 1.49398C0.632407 1.53735 0.758397 1.5704 0.758397 1.5704L0.79764 1.62306L0.843079 1.6778C1.04033 1.68606 1.07854 1.53528 1.43689 1.70568C1.34807 1.57453 1.68474 1.68606 1.66408 1.62306C1.68924 1.64708 1.71617 1.66917 1.74463 1.68916C2.03731 1.7306 2.33474 1.72467 2.62553 1.6716C2.46258 1.63 2.3028 1.57685 2.14739 1.51256C1.96329 1.44632 1.79438 1.34377 1.65066 1.21101C1.90574 1.2957 1.72914 1.21101 1.70229 1.16971L1.66615 1.19036C1.5257 1.12943 1.5825 1.06747 1.5257 1.03132C1.52111 1.03661 1.51728 1.04252 1.51434 1.04888L1.53086 1.04372C1.5288 1.04973 1.52509 1.05504 1.52016 1.05905C1.51524 1.06307 1.50928 1.06562 1.50298 1.06643C1.49265 1.07986 1.47613 1.08812 1.43895 1.07263H1.45341C1.38135 1.05948 1.31171 1.03545 1.24687 1.00137L1.30263 0.953869C1.20659 0.98072 1.08577 0.89707 1.00831 0.794832L0.93499 0.69879V0.824781C0.93499 0.955935 0.904009 1.10568 0.93499 1.14905C0.88542 1.25852 1.11778 1.31738 1.14153 1.43098C1.2448 1.59518 1.07544 1.54458 1.06408 1.64475C1.09403 1.75835 1.15496 1.59621 1.19627 1.63442L1.17251 1.78623C1.10022 1.72117 1.0775 1.77281 1.05272 1.79449C1.12811 1.89777 1.10126 2.10431 1.31399 2.08778C1.34807 2.24889 1.27682 2.26851 1.32122 2.32944C1.33671 2.30052 1.33155 2.25405 1.36873 2.24269C1.33775 2.31911 1.41313 2.26334 1.41004 2.23649C1.56701 2.29742 1.47303 2.76111 1.69197 2.7229L1.65479 2.73323C1.82312 2.71154 1.94085 2.63925 2.07717 2.67436L2.04722 2.73116L2.16701 2.77144C2.15462 2.8241 2.09679 2.81584 2.0782 2.82101C2.23724 2.89639 2.28474 3.0513 2.36839 3.17109L2.66168 2.9346C2.66168 3.0575 2.63173 3.28573 2.78354 3.26714L2.70299 3.36421C2.6307 3.63168 2.94774 3.46748 2.94361 3.56559L2.88991 3.705L2.798 3.60793C2.81386 3.69971 2.80928 3.79386 2.78457 3.88366C2.78516 3.88009 2.78673 3.87676 2.7891 3.87403C2.79147 3.87129 2.79455 3.86927 2.798 3.86817L2.82898 3.86921C2.87471 3.86511 2.92077 3.87144 2.9637 3.88772C3.00663 3.904 3.04531 3.9298 3.07683 3.96318C3.15222 4.06645 3.33604 4.10776 3.33397 4.30707L3.52296 4.29984L3.54878 4.44133L3.42898 4.47747C3.32571 4.36284 3.06444 4.16766 2.91263 4.02205L2.8548 4.03547C2.94154 4.12119 3.09232 4.20277 3.13776 4.2637C3.13496 4.28411 3.12773 4.30366 3.11659 4.32099C3.10544 4.33831 3.09065 4.353 3.07324 4.36401C3.05584 4.37503 3.03623 4.38211 3.0158 4.38476C2.99537 4.38741 2.97461 4.38557 2.95497 4.37936L3.1264 4.39692C3.33923 4.55757 3.50623 4.77122 3.61074 5.01654L3.64378 4.97214C3.73983 5.02068 3.83484 5.06818 3.75532 5.11465C3.83483 5.18407 3.89917 5.26916 3.94431 5.36458C3.98944 5.46 4.0144 5.56371 4.01763 5.66922L4.18389 5.65063C4.21591 5.6909 4.06616 5.8138 4.28097 5.76939L4.42864 5.83135C4.47408 5.88609 4.58768 5.89125 4.57116 5.9749V5.99142H4.58252C4.64654 6.12671 4.70541 5.95011 4.76944 6.10812C4.71677 6.18247 4.99663 6.09779 5.03484 6.17215L4.90679 6.30123C4.92228 6.45407 5.14328 6.4045 5.33226 6.57593C5.35188 6.6792 5.22899 6.77525 5.02245 6.77112C5.14308 6.75882 5.26474 6.78065 5.37357 6.83411C5.31574 6.87439 5.28889 6.86922 5.19801 6.87026C5.20834 6.98592 5.32503 6.90124 5.39526 6.96733C5.54018 6.93176 5.6882 6.91031 5.83726 6.9033L5.85275 6.86406C6.00559 6.90743 6.12642 6.96733 6.1481 7.0706L6.07478 7.09126L6.208 7.16355L6.12435 7.19969L6.29062 7.31122V7.28644C6.33399 7.31122 6.47444 7.38971 6.48993 7.462L6.43829 7.47749C6.45998 7.68403 6.80697 7.7336 7.03004 7.90193L6.90198 7.91432C6.8741 8.00933 7.07651 7.87611 7.10852 7.96389L6.98976 8.0114C7.22625 8.0114 7.05276 8.10331 7.04243 8.16837L7.17978 8.09092L7.24277 8.18386C7.29648 8.28713 7.10542 8.31192 7.00525 8.32844L7.20043 8.34393L7.07238 8.40693C7.29131 8.39144 7.09923 8.46063 7.27892 8.5102C7.23348 8.53602 7.17565 8.52775 7.18804 8.56183L7.54432 8.61657L7.36154 8.57216L7.58047 8.50607C7.83555 8.52775 7.69097 8.62173 7.82006 8.65788L7.70956 8.64135C7.73668 8.6502 7.76179 8.66434 7.78341 8.68295C7.80504 8.70157 7.82276 8.72428 7.83555 8.74979C7.84998 8.79697 7.86901 8.84263 7.89235 8.8861C7.89235 8.84066 7.89235 8.7756 7.99562 8.82827C8.06378 8.86958 7.96051 8.88507 7.99562 8.94084C8.07055 8.91906 8.15052 8.92218 8.22352 8.94975C8.29652 8.97731 8.3586 9.02781 8.40044 9.09368C8.38507 9.10412 8.36731 9.11051 8.3488 9.11227C8.39837 9.12569 8.44175 9.11846 8.47273 9.18146L8.33641 9.23929H8.54295C8.58839 9.32294 8.76602 9.33223 8.69166 9.39316L8.6297 9.38077L9.1822 9.84962L9.14193 9.95289C9.26172 9.84962 9.45174 10.2627 9.49201 10.0562C9.58289 10.2555 9.94021 10.3081 9.84313 10.5013C10.2562 10.8317 10.4369 10.7326 10.9017 11.1921L10.9182 11.1828C11.0896 11.3088 11.385 10.7698 11.5956 10.5137C11.9509 9.85892 12.1326 9.44583 12.4672 8.90573C12.5884 8.86054 12.6953 8.7839 12.7771 8.68369C12.8453 8.60526 12.901 8.51679 12.9423 8.42138C12.955 8.35522 12.9827 8.29285 13.0234 8.23913C13.064 8.1854 13.1165 8.14176 13.1767 8.11157L13.0941 8.03102C13.3895 7.95667 13.3099 7.71191 13.6425 7.58902C13.6293 7.5603 13.6253 7.52818 13.6311 7.49711C13.59 7.50916 13.5463 7.50916 13.5051 7.49711C13.6022 7.462 13.6197 7.34737 13.7674 7.39384V7.41036C13.9151 7.45787 13.8242 7.24513 14.0049 7.22551L13.8139 7.21208L13.9172 7.1274L13.9275 7.16045C13.9192 6.66475 14.6019 6.62757 14.6225 6.16698C14.7526 6.27025 14.5988 6.06371 14.796 6.11741C15.1285 6.09469 14.9117 5.93152 14.922 5.83651C14.911 5.83349 14.9008 5.82822 14.892 5.82102L15.049 5.68677C15.2132 5.83755 14.9457 5.53187 15.0769 5.66509C15.6015 5.37489 15.8762 4.873 16.3864 4.50948H16.3069C16.4267 4.41448 16.4855 4.2668 16.6673 4.22446C16.849 4.18212 16.7014 4.00965 16.723 3.97248C16.7117 3.85578 17.0019 3.85062 16.9513 3.88263C17.0194 3.78556 16.9038 3.63168 17.1351 3.54287C17.3788 3.57385 17.321 3.14631 17.5533 3.22583L17.5358 3.21757C17.8755 3.12152 17.7826 2.8809 18.1265 2.76937C18.1343 2.77531 18.1412 2.78226 18.1471 2.79003L17.9024 2.21687L17.0597 2.04131L16.1003 2.1136L15.6686 2.54424L15.2556 2.97591L14.7599 3.26507L14.2673 3.55939C14.2673 3.55939 13.8377 3.97248 13.4308 4.38556C13.0239 4.79864 12.6356 5.22722 12.6356 5.22722L12.6934 5.39658C12.0666 5.63824 12.0273 6.16182 11.4851 6.4613L11.6328 6.51294C11.5533 6.61621 11.4635 6.58523 11.4149 6.60382C11.2166 6.83927 11.0349 7.08093 10.8583 7.32671L10.598 7.69023L10.47 7.87095C10.44 7.91226 10.4462 7.9071 10.4431 7.91432L10.4359 7.93291C10.3987 8.02792 10.3037 8.16631 10.2294 8.12396L10.2232 8.11777C10.1881 7.98248 10.1643 8.02792 10.1622 7.91123C10.1271 8.08472 10.0249 8.00211 9.99598 7.95873L10.0104 7.9515H9.96499C9.97588 7.94447 9.98727 7.93826 9.99907 7.93291C9.97623 7.94019 9.95169 7.94019 9.92885 7.93291H9.91955L9.88548 7.89677C9.86172 7.87508 9.839 7.85133 9.81628 7.82758C9.7285 7.73257 9.66035 7.62104 9.58909 7.53429H9.61594C8.46121 6.70819 7.38319 5.77983 6.39492 4.76043C6.15533 4.23788 5.28476 3.81344 4.96668 3.22996C5.01729 3.09364 3.87924 2.063 3.7295 1.98451Z" fill="#202020"/>
<path id="Vector_15" d="M0.269361 2.44924L0.259034 2.43994C0.213595 2.50707 0.246641 2.49674 0.269361 2.44924Z" fill="#202020"/>
<path id="Vector_16" d="M2.38364 3.16643V3.1499L2.31445 3.2635L2.38364 3.16643Z" fill="#202020"/>
<path id="Vector_17" d="M0.988281 3.1665C1.02649 3.32038 1.04508 3.31831 1.06264 3.2832C1.05201 3.23691 1.02575 3.1957 0.988281 3.1665Z" fill="#202020"/>
<path id="Vector_18" d="M1.72162 3.16535C1.81559 3.20459 1.78564 3.14366 1.74743 3.07447C1.69049 3.06092 1.6343 3.04437 1.5791 3.0249C1.6297 3.06518 1.67101 3.12714 1.72162 3.16535Z" fill="#202020"/>
<path id="Vector_19" d="M1.70428 1.93923L1.74765 1.88553C1.70221 1.88243 1.69602 1.90618 1.70428 1.93923Z" fill="#202020"/>
</g>
</g>
</svg>
