<svg width="159" height="60" viewBox="0 0 159 60" fill="none" xmlns="http://www.w3.org/2000/svg">
<g id="Frame">
<path id="Vector" d="M107.552 95.5596C107.552 95.3855 107.727 95.1245 107.988 95.0374C107.988 94.9504 107.901 94.7764 107.814 94.6023C106.943 94.7764 107.814 95.2985 107.378 95.5596C107.378 95.5596 107.465 95.5596 107.552 95.5596ZM103.462 96.6038C103.636 96.5168 103.81 96.5168 103.897 96.5168L103.723 96.1687C103.462 96.2557 103.375 96.3428 103.462 96.6038ZM9.81666 70.8453C9.72963 71.6285 10.5999 70.9323 9.81666 70.8453V70.8453ZM2.68012 56.3126C3.02824 56.2256 2.94121 56.4867 3.11527 56.5737C3.2023 56.4867 3.2023 56.3996 3.2023 56.3126C3.02824 56.2256 2.85418 56.0516 2.68012 55.8775C2.68012 56.0516 2.68012 56.1386 2.68012 56.3126ZM-3.32502 39.9525C-3.41205 39.9525 -3.49908 40.0395 -3.49908 40.1265C-3.41205 40.0395 -3.32502 40.0395 -3.32502 39.9525ZM7.1187 -8.69286C7.03167 -8.60584 6.94464 -8.51882 6.8576 -8.34478C6.94464 -8.4318 7.03167 -8.51881 7.20573 -8.51881C7.20573 -8.60584 7.1187 -8.60584 7.1187 -8.69286ZM110.599 -35.3216C110.599 -35.3216 110.511 -35.4086 110.424 -35.4957C110.424 -35.4957 110.424 -35.4086 110.424 -35.3216H110.599ZM120.781 -30.9705C120.694 -30.8835 120.607 -30.7965 120.52 -30.7094C120.607 -30.7094 120.607 -30.6224 120.607 -30.6224C120.781 -30.4484 120.955 -30.4484 121.129 -30.5354C121.042 -30.6224 121.042 -30.7965 120.955 -30.8835L120.781 -30.9705ZM155.419 50.8302C156.029 50.6562 156.203 50.134 156.638 49.873C156.551 48.7417 156.203 47.7845 157.247 47.1753C156.899 46.9142 156.899 46.044 157.508 45.957C157.16 45.87 156.812 45.87 156.377 45.957C156.203 46.4791 155.942 47.0013 155.594 47.4364C155.855 48.3936 155.594 50.134 154.897 50.7432C155.158 51.1783 154.984 51.6134 155.158 51.9615C155.594 51.7004 155.594 51.3524 155.419 50.8302ZM148.805 62.8393C148.544 62.4042 148.631 62.5782 148.457 62.2301C149.153 61.882 149.675 61.1859 149.675 60.4027C149.066 61.0988 148.022 61.4469 147.674 62.4912H147.239C147.239 63.0133 146.977 63.4484 146.629 63.7965C146.716 63.7965 146.89 63.7965 146.977 63.7965C147.587 63.5354 148.196 63.1874 148.544 62.6652C148.544 62.8393 148.544 62.9263 148.805 62.8393ZM125.307 86.9444C125.133 86.5963 125.742 86.5093 125.655 86.1612C125.394 86.3352 125.22 86.4222 125.046 86.5963C125.133 86.8574 125.22 87.0314 125.307 86.9444ZM121.303 88.4238C121.913 88.1627 122.522 87.8146 122.957 87.4665C122.783 87.4665 122.609 87.3795 122.522 87.2925C122.435 87.7276 121.826 87.8146 121.303 87.9886C121.303 88.1627 121.303 88.2497 121.303 88.4238ZM117.3 91.1214C117.387 91.3825 117.213 91.4695 117.387 91.6436C117.735 91.5565 117.735 91.0344 117.3 91.1214ZM115.559 91.8176C115.472 92.1657 116.343 91.9917 115.994 91.7306L115.559 91.8176ZM95.9773 97.8221C96.1514 97.7351 96.3254 97.7351 96.1514 97.474C95.9773 97.5611 95.8033 97.5611 95.8033 97.7351C95.8903 97.7351 95.9773 97.7351 95.9773 97.8221ZM70.3032 99.3885C70.2161 99.8236 70.9994 99.5626 70.7383 99.3015L70.3032 99.3885ZM69.868 99.2145C69.6069 99.1275 69.2588 99.0405 68.9977 98.7794C67.7793 98.7794 66.7349 98.4313 65.6905 97.8221C65.8646 98.6924 65.0813 98.8664 64.5591 99.5626C65.6905 99.7366 66.6479 99.2145 67.5182 100.085C67.7793 99.8236 67.2571 99.4756 67.7793 99.3885C68.3015 99.3015 68.9107 99.3885 69.2588 99.8236C69.3458 99.8236 69.5199 99.7366 69.6069 99.7366C69.781 99.7366 69.9551 99.6496 70.0421 99.5626C69.9551 99.4756 69.9551 99.3015 69.868 99.2145ZM21.2177 73.1949C21.2177 73.0209 21.1307 72.9338 21.2177 72.8468C20.8696 72.9338 20.4344 72.9338 19.9123 72.8468C19.6512 72.2376 19.129 71.8025 18.4327 71.5415C18.6068 70.9323 17.6494 70.5842 17.2143 70.1491C17.1273 69.9751 17.3013 69.8881 17.1273 69.627C16.518 69.801 16.6921 69.2789 16.431 69.0178C16.1699 68.7568 15.7348 68.6698 15.5607 68.4087C15.3866 68.2346 15.3866 67.9736 15.2996 67.7995C15.0385 67.4514 14.6034 67.2774 14.5163 67.0163C14.4293 66.9293 14.9515 67.0163 14.4293 66.9293C14.2552 66.8423 13.9071 66.4072 13.646 65.885C13.646 66.0591 13.646 66.2331 13.7331 66.3202C13.2979 66.3202 13.2979 66.7553 12.6017 66.5812C12.6017 66.6682 12.6017 66.8423 12.5146 66.9293C13.1238 68.0606 14.0812 68.9308 15.0385 69.714L15.4737 70.7583C16.1699 71.1934 16.518 72.1506 17.1273 73.0209C17.3013 73.1949 17.7365 72.7598 17.9105 73.0209C17.9976 73.3689 18.0846 73.804 17.9976 74.1521C18.2587 74.1521 18.3457 74.3262 18.4327 74.5872C19.303 74.4132 19.6512 75.2834 20.0863 75.9796C20.6085 75.1094 20.9566 74.1521 21.2177 73.1949ZM10.5999 62.5782C10.861 62.9263 11.0351 63.3614 11.1221 63.8835C11.6443 63.6225 11.2092 63.1003 11.2092 62.5782C10.687 62.0561 10.3388 61.3599 10.1648 60.5767C9.6426 60.8378 9.72963 60.0546 9.3815 60.0546C9.81666 61.1859 9.46853 62.6652 10.2518 63.2744C10.5999 62.9263 9.72963 62.6652 10.5999 62.5782ZM7.46682 58.0531L7.98901 57.966C7.90198 57.879 7.90198 57.792 7.81495 57.705L7.37979 57.792L7.46682 58.0531ZM0.591375 6.71004H0.504344V6.44897H0.243251V6.71004H0.591375ZM1.37465 28.9007L0.852468 29.0747L0.939499 29.3358L1.46168 29.1617L1.37465 28.9007ZM0.0691893 33.6869C0.0691893 33.7739 -0.0178416 33.8609 0.0691893 33.9479C0.15622 34.3831 -0.0178421 34.8182 0.417313 34.9922C0.330282 35.0792 0.15622 35.1663 0.0691893 35.2533C0.243251 36.0365 0.765437 36.7327 1.46168 37.1678C1.63575 36.9937 1.80981 36.9067 2.15793 37.1678C2.15793 37.0807 2.15793 36.9067 2.15793 36.8197C1.89684 36.1235 1.46168 35.1663 2.0709 34.5571C1.37465 34.5571 1.63575 33.7739 1.63575 33.4258C1.28762 33.3388 0.504344 33.6869 0.0691893 33.6869ZM3.4634 44.6517C3.72449 44.5646 3.89855 44.5646 3.72449 44.3036L3.4634 44.3906C3.4634 44.4776 3.4634 44.5646 3.4634 44.6517ZM16.6921 -12.6089C16.8662 -11.4776 15.3866 -11.6516 15.2126 -10.6944C17.5624 -10.9554 17.8235 -13.131 19.3901 -14.2623C19.5641 -14.2623 19.6512 -14.2623 19.8252 -14.2623C19.5641 -14.3493 19.4771 -14.5233 19.4771 -14.7844C19.129 -14.6104 18.9549 -14.6974 18.8679 -14.7844C18.6938 -14.5233 18.4327 -14.3493 18.0846 -14.2623C17.9976 -13.7401 17.8235 -13.6531 17.8235 -13.218C17.2143 -13.218 17.0402 -12.8699 16.6921 -12.6089ZM60.0335 -34.1033C58.3799 -34.0163 60.1206 -35.4957 60.0335 -34.1033V-34.1033ZM77.5268 -37.5842C77.5268 -37.4972 77.5267 -37.4101 77.6138 -37.3231C77.7878 -37.3231 77.8749 -37.4972 77.8749 -37.6712C77.7878 -37.6712 77.6138 -37.5842 77.5268 -37.5842ZM81.008 -38.4544C80.6599 -38.3674 80.3988 -38.1933 80.5728 -37.9323C80.8339 -38.0193 80.8339 -38.1933 81.008 -38.4544ZM82.7486 -37.9323C82.8356 -37.8453 82.9227 -37.6712 83.2708 -37.6712C83.88 -37.6712 84.5763 -37.7582 85.2725 -37.7582C84.8373 -38.2804 85.1855 -38.7155 85.2725 -39.2376C85.0114 -38.9765 84.6633 -38.8025 84.2281 -38.8025C83.967 -39.1506 84.9244 -38.8895 84.6633 -39.2376L83.6189 -38.8895C84.3152 -38.1933 83.0967 -38.3674 82.7486 -37.9323ZM98.1531 -31.3186C98.1531 -31.2316 98.1531 -31.1446 98.2401 -31.0575L98.5012 -31.1446L98.4142 -31.4056L98.1531 -31.3186ZM113.209 -33.1461C113.122 -33.2331 112.948 -33.3201 112.861 -33.4071C112.861 -33.3201 112.774 -33.1461 112.774 -33.059C112.948 -33.059 113.122 -33.059 113.209 -33.1461ZM154.462 9.23368C154.027 9.32071 154.201 8.71155 153.679 8.71155C153.592 8.8856 153.505 9.05964 153.418 9.23368C153.679 9.40773 154.636 9.40773 154.462 9.23368ZM154.027 11.6703C153.418 12.1054 154.027 13.1497 154.723 13.1497C154.549 12.1924 154.288 11.3222 153.853 10.452C153.679 10.7131 153.592 10.9741 153.418 11.2352C153.505 11.4963 153.853 11.4963 154.027 11.6703ZM153.853 9.66879C153.853 9.75581 153.505 10.1909 153.853 10.1909C153.853 10.1909 154.201 9.66879 153.853 9.66879ZM151.242 7.92835H151.503V7.66729H151.242V7.92835ZM87.2742 94.8634C86.9261 95.1245 86.4909 95.2985 85.9688 95.3855C86.2299 95.4725 85.8817 95.6466 85.7947 95.9077C86.0558 95.8206 86.4039 95.8206 86.665 95.8206C86.8391 95.5596 87.1002 95.2985 87.3613 95.2115L87.2742 94.8634ZM74.2196 95.9077C75.9602 95.8206 77.7878 95.3855 79.6155 95.5596C79.7896 95.4725 79.6155 95.0374 79.8766 95.0374C81.2691 95.2115 81.7913 94.6023 83.0097 94.5153C83.0097 94.4283 83.0097 94.4283 82.9227 94.3413C81.2691 94.6023 79.7025 94.7764 78.0489 95.1245C77.8749 95.2115 78.0489 95.3855 77.8749 95.4725C76.6564 94.7764 75.7861 95.9077 74.4807 95.5596C74.4807 95.7336 74.3936 95.8206 74.2196 95.9077ZM26.3525 71.7155C26.5266 71.7155 26.5266 71.6285 26.5266 71.5415C26.6136 71.4545 26.5266 71.4545 26.5266 71.3674H26.4396C26.3525 71.5415 26.2655 71.6285 26.1785 71.7155C26.2655 71.7155 26.2655 71.7155 26.3525 71.7155ZM7.03167 55.7035C7.03167 55.5294 7.03167 55.4424 7.03167 55.2683C6.94464 55.2683 6.8576 55.2684 6.77057 55.4424C6.77057 55.6164 6.94464 55.7035 7.03167 55.7035ZM33.4021 -24.7919C33.315 -24.879 33.0539 -24.966 33.0539 -24.7049C33.141 -24.6179 33.315 -24.5309 33.4891 -24.5309C33.4891 -24.6179 33.4021 -24.7049 33.4021 -24.7919ZM33.4891 -25.7492V-25.9232H33.0539C32.8799 -25.5751 32.7928 -25.2271 33.315 -25.2271C33.315 -25.4011 33.4021 -25.5751 33.4891 -25.7492ZM34.1853 -23.8347C33.141 -23.7477 32.1836 -23.8347 31.4003 -24.0087C31.3133 -23.3996 31.4874 -22.7904 31.6614 -22.2683C31.2263 -21.9202 30.8782 -21.4851 30.53 -21.05C30.53 -20.963 30.53 -20.963 30.53 -20.963C30.6171 -20.8759 30.6171 -20.8759 30.7041 -20.8759C31.4874 -20.963 32.5317 -21.224 33.6631 -21.3111C34.0113 -21.7462 34.4464 -22.2683 34.8816 -22.7904C35.1427 -23.1385 35.9259 -23.4866 36.1 -23.9217C35.6649 -23.9217 35.0556 -23.8347 34.6205 -23.8347C34.5335 -23.8347 34.5335 -23.7477 34.5335 -23.7477C34.3594 -23.7477 34.2724 -23.8347 34.1853 -23.8347ZM43.8458 -23.9217C43.9328 -23.9217 43.9328 -24.0087 44.0198 -24.0087C43.9328 -24.0087 43.8458 -24.0087 43.8458 -23.9217ZM152.025 38.8212C152.286 38.7342 152.373 38.4731 152.286 38.212C152.112 38.299 152.025 38.5601 152.025 38.8212ZM120.52 71.9766C120.52 71.8896 120.433 71.8896 120.433 71.8025C120.346 71.8896 120.172 71.9766 120.085 72.0636C120.259 72.1506 120.346 72.0636 120.52 71.9766ZM116.778 79.1124C116.517 78.6773 117.387 78.7643 117.126 78.5032C116.517 78.5903 116.691 78.7643 116.081 78.7643C116.256 79.1124 116.43 79.2864 116.778 79.1124ZM115.907 78.4162C116.169 78.2422 116.517 78.1552 116.343 77.8941C116.081 77.8941 115.733 77.9811 115.907 78.4162ZM104.071 86.5093C103.375 86.6833 102.592 86.9444 102.069 87.2054C102.505 87.2925 102.592 87.5535 102.679 87.9886C102.853 87.8146 103.114 87.6406 102.94 87.2925C103.549 87.2925 103.636 86.7703 104.071 86.5093ZM27.0488 68.7568C27.2229 68.5827 27.4839 68.5827 27.745 68.6698C27.571 68.3217 27.3969 68.0606 27.2229 67.7125C26.7007 67.7995 26.5266 68.1476 26.3525 68.5827C26.6136 68.5827 26.8747 68.6697 27.0488 68.7568ZM23.4805 62.9263L23.3935 62.6652L22.8713 62.8393V62.9263L22.9583 63.1003L23.4805 62.9263ZM4.33371 20.1985C4.33371 20.3725 4.42074 20.4595 4.5948 20.6336C4.85589 20.0244 5.20402 19.5893 5.63917 19.0672C5.55214 18.7191 5.55214 18.371 5.37808 18.0229C4.42074 18.545 5.11699 19.9374 4.33371 20.1985ZM21.3918 -14.1752C21.3047 -14.1752 21.2177 -14.1752 21.1307 -14.1752V-13.8272H21.3918V-14.1752ZM47.6751 -18.7004C47.7622 -18.5264 48.0233 -18.3523 48.3714 -18.2653C48.6325 -18.4393 48.8936 -18.6134 49.1547 -18.7874C48.7195 -18.7874 48.1973 -18.7004 47.6751 -18.7004ZM87.5353 -26.0103C87.5353 -26.1843 87.7094 -26.1843 87.7094 -26.4454H87.4483C87.4483 -26.2713 87.2742 -26.2713 87.2742 -26.0973L87.3613 -26.0103H87.5353ZM108.51 -26.8805C108.336 -26.7935 108.075 -26.7934 107.814 -26.7934C107.988 -26.7064 108.162 -26.6194 108.423 -26.5324C108.51 -26.5324 108.597 -26.5324 108.684 -26.5324L108.51 -26.8805ZM110.163 -21.9202C109.989 -21.5721 110.25 -21.7462 110.163 -21.3981C110.773 -21.3111 110.773 -22.0072 110.163 -21.9202ZM116.081 -18.4393C115.907 -18.1783 115.907 -18.0912 116.169 -18.0042C116.169 -18.1783 116.256 -18.3523 116.343 -18.4393H116.081ZM134.793 10.626C134.88 10.7131 134.88 10.7131 134.793 10.626C135.141 10.365 135.576 10.1039 135.925 9.75582C135.663 9.40773 135.838 9.23368 136.012 8.97262C135.75 9.14666 135.402 9.14666 135.141 9.23368C135.402 9.84284 134.967 10.1909 134.793 10.626ZM144.541 39.7784C144.192 39.6044 144.367 39.7784 144.018 39.9525C144.018 40.4746 144.802 40.2135 144.541 39.7784ZM142.8 46.044L142.713 45.957C142.626 45.87 142.539 45.87 142.365 45.87C142.365 45.87 142.365 45.957 142.365 46.044C142.452 45.957 142.626 45.957 142.8 46.044ZM117.822 71.0193C118.344 70.4972 118.866 69.8881 119.389 69.4529C119.215 69.4529 119.215 69.3659 119.215 69.1919C119.65 69.0178 120.085 68.7568 120.52 68.4087C120.259 68.4087 120.085 68.4087 119.824 68.4087C119.389 68.8438 118.779 69.1049 118.257 69.1049C118.257 69.1049 118.344 69.1049 118.344 69.1919C117.648 69.627 117.561 70.3232 117.213 70.8453C117.474 70.8453 117.648 70.9323 117.822 71.0193ZM90.2333 86.2482C89.9722 86.5093 90.7555 86.5963 90.6684 86.4223C90.5814 86.3352 90.5814 86.2482 90.2333 86.2482ZM85.7947 86.5963C85.7077 86.1612 86.1428 86.2482 86.4039 86.0742C85.8817 85.9872 85.1855 86.1612 84.7503 86.4223C84.8373 86.5093 84.9244 86.5963 84.9244 86.6833C85.2725 86.5093 85.5336 86.5093 85.7947 86.5963ZM81.6172 87.9886C81.7913 87.9016 82.0524 87.8146 82.1394 87.7276C81.8783 87.4665 81.6172 87.2054 81.4431 86.8574C81.095 87.0314 80.921 87.5535 80.3117 87.2925C80.3117 87.7276 80.5728 87.9886 80.921 88.1627C81.182 88.0757 81.3561 88.0757 81.6172 87.9886ZM79.7025 91.3825L80.0506 91.2085V91.1214C79.7896 90.8604 79.5285 91.2085 79.7025 91.3825ZM61.5131 91.7306C60.6427 91.9046 61.6001 92.3398 61.5131 91.7306V91.7306ZM53.6803 84.5948C53.8543 84.4207 53.4192 83.8116 53.4192 84.1597L53.6803 84.5948ZM6.94464 34.9922C6.94464 35.0792 6.94464 35.1663 6.94464 35.2533C7.03167 35.5143 7.20573 35.6014 7.55385 35.5143C7.64088 35.0792 7.37979 34.9052 6.94464 34.9922ZM8.51119 11.3222L8.59822 11.5833L8.85932 11.4963L8.77229 11.2352L8.51119 11.3222ZM9.12041 28.9007C9.12041 29.3358 9.12041 29.6839 9.03338 30.032C9.72963 30.032 9.46853 29.2488 9.12041 28.9007ZM7.81495 44.7387C7.81495 44.8257 7.81495 44.8257 7.81495 44.9127C7.81495 44.9998 7.81495 45.0868 7.90198 45.1738C7.90198 44.9997 7.81495 44.9127 7.81495 44.7387ZM23.2194 -11.3905C23.4805 -11.3905 23.3065 -11.3035 23.2194 -11.0425C23.3065 -10.9554 23.4805 -10.9554 23.5676 -10.9554C23.5676 -11.3035 23.3065 -11.7386 23.2194 -11.3905ZM58.7281 -17.7432C58.641 -18.0912 58.3799 -18.6134 58.467 -18.7874C58.0318 -18.7874 58.1188 -18.4393 57.6837 -18.4393C57.2485 -18.7874 57.0745 -18.6134 56.3782 -18.3523C56.3782 -18.6134 56.2042 -18.5264 56.0301 -18.6134C56.1171 -18.2653 56.1171 -17.8302 56.0301 -17.4821L56.1171 -17.3951C57.0745 -18.0912 57.5096 -17.308 58.7281 -17.7432ZM123.914 0.270412C124.436 0.357433 124.698 -0.0776787 124.175 -0.1647C124.175 0.0963669 124.001 0.0963669 123.914 0.270412ZM139.319 19.8504C138.971 19.7634 138.71 19.5893 138.535 19.5893C138.71 19.2412 139.145 19.0672 139.145 18.7191C138.535 18.8061 138.448 19.4153 137.839 19.5893C138.013 19.8504 138.013 20.1985 137.839 20.5466C138.1 20.9817 138.448 21.4168 138.884 21.7649C139.058 21.5908 139.058 21.3298 139.406 21.3298C139.145 20.8946 139.145 20.3725 139.319 19.8504ZM95.9773 86.5093C95.8903 86.3352 95.8033 86.0742 95.5422 86.2482C95.6292 86.4223 95.8033 86.5093 95.9773 86.5093ZM70.6513 90.2512C70.4772 89.9031 70.2161 89.6421 69.9551 89.468C69.694 89.555 69.3458 89.5551 69.0847 89.5551C68.9107 90.0772 69.5199 90.4253 69.781 90.7733C69.6069 89.9902 70.0421 90.1642 70.6513 90.2512ZM63.3407 86.5963C63.2537 87.3795 64.124 86.6833 63.3407 86.5963V86.5963ZM13.9071 37.2548C14.2552 37.2548 14.3423 37.0807 14.1682 36.7327C13.9071 36.8197 13.8201 36.9937 13.9071 37.2548ZM14.9515 26.5511C15.1255 27.0732 15.0385 27.3343 14.5163 27.5083C14.2552 27.9434 14.2552 28.5526 14.3423 29.0747C14.7774 28.9007 15.3866 28.6396 15.6477 28.2045C15.6477 28.1175 15.5607 28.0304 15.4737 27.9434C15.9088 27.5953 15.5607 27.5083 15.4737 26.9862C15.5607 26.8992 15.5607 26.8121 15.6477 26.7251C15.5607 26.6381 15.3866 26.5511 15.2996 26.4641C15.1255 26.5511 15.0385 26.5511 14.9515 26.5511ZM16.344 36.2105C16.431 36.1235 16.431 36.0365 16.344 35.9495H16.257L16.344 36.2105ZM22.3491 3.75129C22.4361 4.27343 22.4361 4.79556 22.3491 5.31769C22.7843 5.05663 23.1324 4.70854 23.4805 4.36045C22.9583 3.83831 23.7416 3.40321 23.5676 2.88107C23.3935 2.88107 23.2194 2.96809 23.0454 2.96809C22.8713 3.4032 22.5232 3.49023 22.3491 3.75129ZM28.3543 -11.5646C28.7024 -11.5646 28.9635 -11.5646 29.3986 -11.6516C29.4857 -11.6516 29.4857 -11.7386 29.5727 -11.7386C29.5727 -11.7386 29.5727 -11.8257 29.5727 -11.9127C29.2246 -11.9127 29.2246 -12.1737 28.8764 -12.4348C28.7894 -12.0867 28.4413 -12.0867 28.2672 -11.9997C28.0932 -11.7386 28.0061 -11.4776 28.0061 -11.2165H28.0932C28.0932 -11.3035 28.2672 -11.4776 28.3543 -11.5646ZM37.6666 -5.90815C37.6666 -5.99517 37.7536 -6.0822 37.6666 -6.34327C37.5795 -6.16922 37.5795 -5.99517 37.4925 -5.90815H37.6666ZM39.5812 -6.16922C39.4942 -6.0822 39.5812 -5.99518 39.6683 -5.99518C39.7553 -6.0822 39.7553 -6.0822 39.8423 -6.16922C39.7553 -6.16922 39.6683 -6.16922 39.5812 -6.16922ZM110.163 -15.0455C110.25 -14.7844 110.076 -14.3493 110.424 -14.5233C110.511 -14.6974 110.337 -14.9584 110.163 -15.0455ZM117.996 -7.73562C117.648 -8.17073 117.126 -8.34478 116.517 -8.34478C116.343 -7.82264 116.169 -7.38753 115.994 -6.8654C116.43 -6.69135 116.517 -6.8654 117.213 -6.95242C117.3 -6.8654 117.3 -6.77837 117.387 -6.77837C117.561 -7.03944 117.735 -7.47455 117.996 -7.73562ZM121.477 -0.860874C121.913 -0.947899 121.826 -0.686829 122.261 -0.686829C122.261 -1.03492 122.261 -1.47003 122.087 -1.64407C121.477 -1.90514 121.738 -1.03492 121.477 -0.860874ZM133.662 51.1783C133.749 51.0913 133.836 51.0043 133.836 50.9172C133.575 50.8302 133.227 50.8302 133.053 51.0913C133.227 51.0913 133.488 51.0913 133.662 51.1783C133.662 51.0913 133.662 51.0913 133.662 51.1783ZM128.266 65.1018C128.266 64.8408 128.788 64.8408 128.527 64.4927C128.005 64.4057 127.831 65.0148 128.266 65.1018ZM118.692 66.5812C118.866 66.5812 119.041 66.5812 119.128 66.6682C119.128 66.4942 119.128 66.4072 119.041 66.3202C118.953 66.3202 118.779 66.3202 118.692 66.3202C118.692 66.4072 118.692 66.4942 118.692 66.5812ZM116.952 67.0163C117.039 67.0163 117.126 67.0163 117.126 67.0163C117.3 66.7553 117.474 66.4072 117.648 66.1461C117.3 66.2331 116.778 66.4072 116.952 67.0163ZM95.9773 53.5279C96.0643 53.876 96.2384 54.05 96.5865 53.876C96.6736 53.4409 96.3254 53.6149 95.9773 53.5279ZM95.5422 54.9203C95.8033 55.0943 96.3254 54.9203 96.1514 54.5722H96.0643C95.8903 54.4852 95.6292 54.6592 95.5422 54.9203ZM58.0318 61.795C58.467 61.969 58.467 61.1859 58.0318 61.3599V61.795ZM51.9396 59.5324C52.0267 59.7935 51.7656 60.4897 52.2007 60.3156C52.3748 60.0546 52.6359 59.7065 52.7229 59.3584C52.3748 59.1843 52.0267 59.0973 51.5045 59.1843C51.6786 59.2714 51.8526 59.4454 51.9396 59.5324ZM47.9362 57.966C47.8492 57.879 47.8492 57.792 47.8492 57.705L47.5881 57.792L47.6751 58.0531L47.9362 57.966ZM35.6649 65.0148H35.4038V65.2759H35.6649V65.0148ZM28.7024 58.2271C28.7024 58.4882 28.4413 58.4882 28.3543 58.6622C28.5283 58.9233 28.9635 58.8363 29.4857 58.8363V58.4011C28.8764 58.5752 29.2246 58.3141 28.7024 58.2271ZM27.9191 56.6607C27.745 56.4867 27.3969 56.4867 27.3099 56.8347C27.3969 57.0088 27.9191 57.0088 27.9191 56.6607ZM20.6955 40.9967C20.3474 40.5616 21.3918 40.3876 20.6955 40.9967V40.9967ZM35.2297 -13.305L35.3167 -13.044L35.5778 -13.131L35.4908 -13.3921L35.2297 -13.305ZM45.9345 -4.86389C45.8475 -4.86389 45.7604 -4.86389 45.6734 -4.77687C45.4994 -4.68985 45.4123 -4.5158 45.4994 -4.34176C45.5864 -4.34176 45.6734 -4.42878 45.7604 -4.42878C45.8475 -4.60283 45.9345 -4.60283 45.9345 -4.86389ZM60.5557 -7.30051C60.4687 -7.47455 60.6427 -7.90966 60.2076 -7.73562C60.2076 -7.56158 60.0335 -7.47455 59.9465 -7.30051C60.1206 -7.30051 60.2946 -7.30051 60.5557 -7.30051ZM77.6138 -9.91117C77.5267 -9.82415 77.4397 -9.73713 77.2657 -9.6501C77.7008 -9.47606 78.0489 -9.38904 78.5711 -9.30202C78.136 -9.47606 77.8749 -9.6501 77.6138 -9.91117ZM118.779 -1.73109C118.692 -2.77536 119.65 -3.64558 118.779 -4.16771C118.692 -4.16771 118.692 -4.25474 118.605 -4.25474C119.215 -3.47154 117.561 -2.25323 118.779 -1.73109ZM123.218 17.9359C123.392 18.6321 122.783 18.8931 122.783 19.4153C123.131 19.4153 123.479 19.2412 123.827 19.1542C123.914 18.7191 124.001 18.284 124.262 17.9359C123.827 17.8489 123.479 17.8489 123.218 17.9359ZM122 51.3524C122 51.3524 122 51.3524 121.913 51.4394C121.913 51.7005 121.826 51.8745 121.738 52.1356C122 51.8745 121.913 51.6134 122 51.3524ZM114.254 38.9082C114.254 39.0823 114.428 39.2563 114.515 39.5174C114.776 39.1693 115.298 38.9082 114.689 38.6471C114.515 38.6471 114.341 38.8212 114.254 38.9082ZM77.1786 76.9369C77.0046 76.7628 76.8305 76.5017 76.6564 76.2407C76.2213 76.2407 75.7861 76.2407 75.2639 76.2407C75.525 76.7628 75.9602 77.372 76.0472 77.72C76.3953 77.546 76.7435 77.2849 77.1786 76.9369ZM61.0779 72.2377C61.1649 72.1506 61.0779 71.8896 60.9038 71.8896C60.5557 71.8896 60.8168 72.4117 61.0779 72.2377ZM19.6512 27.2472C19.7382 27.4213 19.216 27.7694 19.6512 27.6824C19.6512 27.5953 19.6512 27.5083 19.7382 27.5083C19.9123 27.5953 19.9993 27.7694 20.2604 27.6824C20.2604 27.5953 20.2604 27.5083 20.2604 27.4213C20.3474 27.4213 20.3474 27.3343 20.3474 27.3343C20.2604 27.2472 19.9993 27.1602 19.6512 27.2472ZM21.5658 23.8534C21.5658 23.8534 21.4788 23.9404 21.4788 24.0274C21.5658 24.0274 21.5658 24.0274 21.6529 24.0274C21.6529 23.9404 21.5658 23.9404 21.5658 23.8534ZM31.1392 -12.0867C31.1392 -11.9997 31.1392 -11.8257 31.1392 -11.6516C31.2263 -11.7386 31.3133 -11.7386 31.4003 -11.8257C31.4874 -11.9997 31.4003 -12.0867 31.1392 -12.0867ZM32.7928 -10.6944L32.8799 -10.4333L33.4021 -10.6073L33.315 -10.8684L32.7928 -10.6944ZM57.4226 -5.12496C57.5967 -5.38602 57.3356 -5.38602 57.1615 -5.73411C56.5523 -5.73411 56.9004 -4.86389 57.4226 -5.12496ZM56.2042 -3.90665C56.2912 -3.90665 56.2912 -3.90665 56.2912 -4.08069C56.2042 -4.08069 56.2042 -4.08069 56.1171 -4.08069C56.0301 -3.99367 56.2042 -3.99367 56.2042 -3.90665ZM63.8629 -4.34176C63.6888 -4.34176 63.5148 -4.25473 63.3407 -4.16771C63.3407 -4.08069 63.2537 -3.99367 63.1666 -3.99367C63.4277 -3.90665 63.7759 -3.7326 64.0369 -3.55856C64.211 -3.81963 64.4721 -3.90665 64.7332 -3.81963C64.8202 -3.99367 65.0813 -4.08069 65.0813 -4.25474C64.9073 -4.34176 64.7332 -4.42878 64.5591 -4.42878C64.3851 -4.25474 64.211 -4.08069 63.8629 -4.08069C63.8629 -4.16771 63.8629 -4.25473 63.8629 -4.34176ZM75.6121 -7.47455C75.438 -7.47455 75.2639 -7.38753 75.0899 -7.38753C75.438 -6.95242 75.6121 -6.43029 75.6121 -5.90815C76.1343 -6.0822 76.1343 -5.90815 76.7435 -5.90815C76.7435 -6.69135 77.9619 -6.43029 78.4841 -6.69135L78.5711 -6.8654C77.4397 -6.8654 76.3083 -6.77838 75.6121 -7.47455ZM99.0234 -5.21198V-5.38602H98.7623V-5.21198C98.8493 -5.21198 98.9364 -5.21198 99.0234 -5.21198ZM103.114 -10.6073C103.114 -10.6944 102.94 -10.6944 102.766 -10.7814C102.679 -10.6944 102.592 -10.5203 102.592 -10.4333C102.592 -10.3463 102.679 -10.3463 102.679 -10.2593C102.679 -10.6073 102.853 -10.6073 103.114 -10.6073ZM112.687 -7.47455C112.948 -7.73562 113.122 -8.08371 113.122 -8.4318C111.991 -8.60584 111.817 -8.08371 111.121 -7.90966C111.643 -7.6486 112.165 -7.47455 112.687 -7.47455ZM118.344 -1.64407C118.344 -1.7311 118.257 -1.7311 118.17 -1.81812C118.257 -1.7311 118.257 -1.7311 118.344 -1.64407ZM129.223 46.131C129.832 46.2181 130.355 46.7402 131.138 46.4791C130.964 45.4349 130.268 45.5219 129.832 44.8257C129.397 45.1738 129.397 45.6959 129.223 46.131ZM131.573 44.1295C131.486 44.2166 131.486 44.3036 131.486 44.4776C131.486 44.4776 131.573 44.4776 131.66 44.4776C131.573 44.3906 131.573 44.3906 131.573 44.3906C131.573 44.3036 131.573 44.2166 131.573 44.1295ZM128.179 48.7417L128.092 48.4806L127.831 48.5677L127.918 48.8287L128.179 48.7417ZM128.875 59.0973L128.614 59.1843L128.701 59.4454L128.962 59.3584L128.875 59.0973ZM109.989 56.1386C110.163 56.0516 110.337 55.9645 110.511 55.8775C110.424 55.8775 110.424 55.7905 110.424 55.7035C110.337 55.7905 110.337 55.9645 109.989 55.9645C109.989 56.0516 109.989 56.0516 109.989 56.1386ZM108.771 55.9645C108.771 55.9645 108.771 55.8775 108.684 55.7905C108.597 55.7905 108.51 55.8775 108.423 55.8775L108.51 56.0516L108.771 55.9645ZM76.1343 75.1964C75.2639 75.2834 76.3083 75.8056 76.1343 75.1964V75.1964ZM39.9294 34.4701C39.8423 34.5571 39.6683 34.7311 39.5812 34.8182C39.7553 34.8182 40.0164 34.6441 39.9294 34.4701ZM33.7502 53.702C34.0113 53.876 34.2724 54.05 34.6205 54.2241C35.0556 53.702 34.8816 52.9188 35.4908 52.3096C35.1427 52.3096 34.8816 52.3096 34.6205 52.3966C34.3594 52.8317 34.0983 53.2668 33.7502 53.702ZM24.699 11.4963C24.5249 11.9314 24.96 11.7573 25.3082 11.7573V11.3222C25.0471 11.3222 24.96 11.4963 24.699 11.4963ZM29.2246 6.36195C29.3116 6.27493 29.3986 6.36195 29.6597 6.36195C29.5727 6.36195 29.3986 6.27493 29.2246 6.36195ZM30.9652 -8.08371C30.9652 -8.17073 30.9652 -8.17073 30.9652 -8.08371V-8.08371ZM29.6597 42.6502L29.7467 42.9112L30.0078 42.8242L29.9208 42.5631L29.6597 42.6502ZM37.2314 7.23217C37.3184 7.23217 37.4055 7.23217 37.4055 7.23217C37.4925 7.05813 37.5795 6.97111 37.5795 6.79707C37.4055 6.88409 37.3184 7.05813 37.2314 7.23217ZM32.1836 12.9756L32.2706 13.2367L32.5317 13.1497L32.4447 12.8886L32.1836 12.9756ZM33.9242 24.1145H34.1853V23.8534H33.9242V24.1145ZM32.5317 43.3463C32.7928 43.5204 33.141 43.4333 33.4021 43.4333C33.4891 43.2593 33.5761 42.9982 33.5761 42.8242C33.228 42.7372 32.5317 42.7372 32.5317 43.3463ZM37.2314 13.4978L36.8833 13.5848V13.6718H37.2314V13.4978ZM31.8355 23.5923C31.7485 23.6793 31.6614 23.7664 31.7485 23.8534C31.8355 23.8534 32.0096 23.9404 32.0966 24.0274C32.1836 23.8534 32.0966 23.5923 31.8355 23.5923ZM36.5352 25.5938C36.9703 25.3328 37.5795 25.1587 38.1888 24.8977C38.1017 24.7236 38.1017 24.6366 38.1888 24.4625L37.3184 24.7236C37.2314 25.0717 36.8833 25.4198 36.5352 25.5938ZM38.798 22.2C38.798 22.6351 39.5812 22.374 39.2331 22.1129L38.798 22.2ZM38.2758 6.536C38.2758 6.44898 38.2758 6.44898 38.2758 6.36195C38.1017 6.44898 37.9277 6.62302 37.7536 6.71004C37.9277 6.71004 38.1017 6.62302 38.2758 6.536ZM36.4481 34.5571C36.5352 34.6441 36.5352 34.7311 36.5352 34.8182H36.6222L36.4481 34.5571ZM47.414 38.299C47.5011 38.3861 47.5011 38.4731 47.6751 38.5601C47.6751 38.5601 47.5881 38.299 47.414 38.299ZM45.4123 13.2367C45.6734 13.0627 45.8475 12.8016 45.9345 12.4535C45.7604 12.3665 45.6734 12.1924 45.4994 12.1054C44.9772 12.2795 44.455 12.5405 44.0198 12.8886C43.8458 13.2367 43.4976 13.5848 43.4976 14.1939C43.1495 14.368 43.0625 14.6291 42.6273 14.7161C42.6273 15.2382 42.2792 15.7603 41.757 15.9344C41.757 16.2825 41.67 16.6306 41.4089 16.8916C42.0181 16.8916 42.6273 16.8916 43.2366 16.8916C43.4106 16.7176 43.4976 16.5435 43.6717 16.3695C44.1069 15.4123 45.1512 14.542 45.4123 13.2367ZM31.5744 3.4032C31.8355 3.4032 32.0096 3.40321 32.1836 3.31618C32.4447 2.96809 32.7928 2.70703 33.315 2.53298C33.315 2.44596 33.315 2.44596 33.315 2.35894C32.4447 2.35894 31.4874 2.62001 31.5744 3.4032ZM32.0966 -5.64709C32.3577 -5.21198 31.5744 -5.299 31.8355 -4.86389C32.0966 -4.95091 32.3577 -4.95091 32.5317 -4.86389C32.6188 -5.21198 32.7928 -5.64709 33.0539 -5.90815C32.7928 -5.73411 32.4447 -5.64709 32.0966 -5.64709ZM28.7024 41.3448C28.3543 41.7799 28.0932 42.215 27.8321 42.7372C28.0932 42.8242 28.3543 42.9112 28.6153 43.0853C28.8764 42.8242 29.0505 42.5631 29.2246 42.215C29.7467 42.128 30.2689 41.867 30.6171 41.4318C30.7041 41.2578 30.7041 41.0838 30.7911 40.9097C30.7911 40.7357 30.53 40.6487 30.0949 40.6487C29.5727 40.7357 29.0505 40.9967 28.7024 41.3448ZM30.0949 47.6104C30.0078 47.8715 29.8338 48.1325 29.7467 48.4806C29.9208 48.4806 30.0078 48.4806 30.1819 48.4806C30.53 48.5677 30.7041 49.0898 31.3133 48.8287C31.5744 48.0455 30.6171 47.8715 30.0949 47.6104ZM35.6649 46.131C35.5778 46.044 35.5778 46.044 35.5778 46.044C35.4038 45.957 35.1427 45.957 34.8816 45.957C34.7945 46.044 34.7945 46.2181 34.7945 46.3921C35.2297 46.4791 35.1427 45.957 35.6649 46.131ZM91.7128 -3.64558C91.7128 -3.55856 91.6258 -3.38451 91.5387 -3.21047C91.9739 -3.29749 92.6701 -3.38451 92.409 -3.7326L91.9739 -3.55856C91.8869 -3.55856 91.7998 -3.55856 91.7128 -3.64558ZM111.556 2.70703C110.599 2.88107 111.643 3.31618 111.556 2.70703V2.70703ZM101.025 19.5023C100.59 18.371 101.634 17.8489 102.592 18.197C102.679 18.1099 102.679 18.1099 102.679 18.1099C102.244 17.8489 101.808 17.5878 101.199 17.5008C100.503 17.9359 99.7197 18.371 99.7197 19.1542C100.242 19.2412 100.416 19.6763 101.025 19.5023ZM64.211 30.9892C64.298 30.9022 64.298 30.7281 64.298 30.6411C64.211 30.4671 64.0369 30.293 63.9499 30.119C63.7759 30.119 63.6018 30.119 63.4277 30.206C63.7759 30.4671 63.9499 30.7281 64.211 30.9892ZM54.6376 28.2045C54.9857 27.4213 56.0301 27.2473 56.3782 26.7251C56.2912 26.4641 56.2042 26.203 56.1171 26.0289C55.856 26.116 55.682 26.377 55.682 26.6381C54.8117 26.9862 54.0284 27.3343 53.9414 28.0304C54.1154 27.9434 54.3765 28.2915 54.6376 28.2045ZM94.6719 5.05663C94.7589 5.23067 94.2367 5.49174 94.6719 5.40471C94.6719 5.31769 94.6719 5.23067 94.7589 5.23067C94.9329 5.40471 95.107 5.57875 95.5422 5.31769C95.4551 4.9696 95.02 5.05663 94.6719 5.05663ZM100.068 10.8001C99.9807 10.9741 99.9807 11.0611 100.068 11.1482C100.242 11.2352 100.503 11.2352 100.677 11.3222C100.677 10.9741 100.416 10.8871 100.068 10.8001ZM103.201 45.87C103.201 45.957 103.114 46.044 103.027 46.131C103.288 46.131 103.549 46.131 103.462 45.87H103.201ZM104.942 20.2855L104.68 20.3725L104.767 20.6336L105.029 20.5466L104.942 20.2855ZM104.593 14.8031C104.593 14.7161 104.593 14.6291 104.593 14.542C104.506 14.6291 104.506 14.7161 104.506 14.8031H104.593ZM104.332 8.8856C104.158 9.05964 104.158 9.40773 104.245 9.66879C104.332 9.58177 104.419 9.49475 104.506 9.32071C104.506 9.14666 104.506 8.97262 104.332 8.8856ZM102.592 7.92835C102.853 7.84133 103.201 7.92835 103.114 7.84133C102.94 7.66729 102.505 7.14515 102.418 7.40622C102.679 7.40622 102.592 7.75431 102.592 7.92835ZM101.112 3.49023C101.112 3.49023 101.199 3.49023 101.199 3.57725C101.199 3.49023 101.199 3.49023 101.112 3.4032V3.49023ZM95.9773 13.2367C96.1514 13.4107 96.4995 13.4107 96.7606 13.4107L96.8476 13.3237C96.6736 13.0627 96.4995 12.8886 96.4995 12.7146C96.4125 12.7146 96.3254 12.7146 96.2384 12.7146C96.3254 12.9756 95.8903 12.8886 95.9773 13.2367ZM82.0524 31.3373C82.0524 31.2503 82.0524 31.0762 81.8783 30.8152C81.7042 30.7281 81.6172 30.38 81.4431 30.38C81.008 30.293 80.3988 30.38 79.9636 30.5541V30.6411C79.6155 31.2503 79.4414 31.9464 79.6155 32.5556C80.0506 32.4686 80.4858 32.5556 81.008 32.7296C81.2691 32.4686 81.3561 32.1205 81.1821 31.8594C81.7913 31.9464 81.4431 31.2503 82.0524 31.3373ZM66.4738 -2.42727C66.5608 -2.16621 66.7349 -2.07919 66.996 -2.16621C66.996 -2.34025 66.909 -2.51429 66.8219 -2.60132C66.6479 -2.60132 66.6479 -2.68834 66.4738 -2.42727ZM74.8288 8.45049C74.3066 8.53751 73.7844 8.27644 73.6104 7.84133C73.3493 7.84133 73.0882 7.84133 72.8271 7.84133C73.0882 8.53751 73.3493 9.14666 74.1325 9.40773C74.3066 9.05964 74.8288 8.97262 74.8288 8.45049ZM77.3527 5.49173H77.0916C77.0916 5.7528 77.1786 5.7528 77.3527 5.7528V5.49173ZM76.1343 11.8443C76.3083 11.7573 76.4824 11.6703 76.3083 11.4963C76.1343 11.5833 75.9602 11.5833 75.9602 11.7573C76.0472 11.7573 76.1343 11.7573 76.1343 11.8443ZM73.1752 15.0642C73.0011 15.1512 72.9141 15.2382 72.8271 15.1512C72.479 15.8474 72.0438 16.5435 71.4346 17.1527C71.7827 17.2397 72.1308 17.3267 72.566 17.4138C72.566 17.3267 72.653 17.1527 72.653 16.9786C73.7844 16.7176 73.7844 15.5863 74.4807 14.9771C74.5677 14.8901 74.5677 14.8031 74.5677 14.7161C74.6547 14.368 74.3066 14.0199 73.9585 14.0199H73.6974L73.6104 14.1939C73.6974 14.542 73.4363 14.8031 73.1752 15.0642ZM74.4807 20.3725C74.5677 20.3725 74.6547 20.3725 74.8288 20.1985C74.6547 20.2855 74.5677 20.1985 74.4807 20.1985C74.4807 20.2855 74.4807 20.2855 74.4807 20.3725ZM70.5643 28.5526C70.6513 28.5526 70.6513 28.5526 70.6513 28.6396C70.6513 28.5526 70.6513 28.5526 70.6513 28.5526H70.5643ZM66.3868 20.8946C66.2127 20.9817 66.1257 21.0687 65.9516 21.2427C66.0387 21.2427 66.1257 21.3298 66.2127 21.3298C66.2998 21.1557 66.2998 21.0687 66.3868 20.8946ZM68.3885 21.6778C68.2144 21.8519 68.2144 22.0259 68.2144 22.2C68.3885 22.2 68.4755 22.1129 68.6496 22.1129C68.6496 21.9389 68.7366 21.8519 68.8237 21.6778C68.7366 21.5908 68.5626 21.5908 68.3885 21.6778ZM76.4824 12.2795C76.4824 12.2795 76.5694 12.1924 76.5694 12.0184L76.3953 12.1924C76.3953 12.2795 76.4824 12.2795 76.4824 12.2795ZM72.479 7.84133C72.3919 7.84133 72.3049 7.84133 72.2179 7.84133V7.92835L72.479 7.84133ZM66.2998 6.79707C66.2127 6.71004 65.9516 6.71004 65.8646 6.79707C66.0387 6.88409 66.1257 6.88409 66.2998 6.97111C66.2998 6.97111 66.2998 6.88409 66.2998 6.79707ZM66.6479 10.2779C66.4738 10.452 66.2998 10.626 66.0387 10.7131C66.2998 11.1482 66.6479 11.4092 67.1701 11.4963C67.083 12.1054 67.4312 12.4535 68.0404 12.4535C68.3885 12.2795 68.3015 11.7573 69.1718 11.9314C69.2588 10.7131 67.4312 10.8871 66.996 10.0169C66.8219 10.1039 66.7349 10.1909 66.6479 10.2779ZM63.0796 12.6275C62.9055 12.8016 62.8185 12.8886 62.6445 12.9756C62.6445 12.8016 62.4704 12.6275 62.4704 12.8886C62.3834 12.8886 62.2963 12.9756 62.3834 13.0627C62.7315 13.1497 62.9055 13.6718 63.4277 14.0199C63.5148 14.0199 63.5148 14.1069 63.6018 14.1939C63.7759 14.281 63.8629 14.368 64.0369 14.368C64.0369 13.9329 64.211 13.4107 63.7759 13.4107C63.7759 13.6718 63.6018 13.7588 63.3407 13.6718C63.0796 13.3237 63.0796 12.9756 63.0796 12.6275ZM73.6104 60.5767C73.8715 60.7507 74.1325 60.8378 74.2196 60.9248C74.4807 60.5767 75.438 60.7507 75.351 60.1416C75.1769 60.0546 75.0029 59.8805 74.9158 59.7065C74.3936 59.7935 73.7844 59.7065 73.4363 59.3584C73.3493 59.5324 73.2622 59.7065 73.1752 59.9675C73.2622 60.0546 73.3493 60.1416 73.4363 60.2286C73.5233 60.3156 73.5233 60.4897 73.6104 60.5767ZM92.1479 9.14666C92.6701 9.14666 93.0183 8.79857 93.1923 8.27644C92.9312 8.62453 92.5831 8.8856 92.1479 9.14666ZM86.665 7.14515C86.752 7.14515 86.8391 7.14515 87.0131 7.14515C87.1002 7.05813 87.1872 6.97111 87.2742 6.88409C87.0131 6.97111 86.8391 7.05813 86.665 7.14515ZM89.6241 41.7799L89.363 41.867V41.954L89.6241 41.7799ZM89.363 3.22916C89.2759 3.66427 90.2333 3.75129 90.2333 3.4032C89.7981 3.49023 89.7981 3.14214 89.363 3.22916ZM83.5319 13.6718L83.4449 13.7588C83.4449 13.8459 83.4449 13.9329 83.4449 14.0199C83.4449 13.8459 83.5319 13.7588 83.5319 13.6718ZM68.9977 0.444454C69.0847 0.357433 69.1718 0.357433 69.2588 0.183392C68.9107 -0.0776749 68.3885 -0.0776749 67.9533 0.183392C68.3015 0.270412 68.6496 0.357433 68.9977 0.444454ZM66.8219 -1.73109L66.4738 -1.64407C66.6479 -1.64407 66.7349 -1.64407 66.8219 -1.73109ZM53.4192 25.2457V25.3328C53.5062 25.3328 53.5062 25.2457 53.5932 25.2457H53.4192ZM54.3765 25.9419C54.3765 26.0289 54.3765 26.116 54.3765 26.29L54.6376 26.203L54.5506 25.9419H54.3765ZM58.2929 40.9967C57.8577 40.9967 57.8578 41.2578 57.5096 41.3448C57.5967 41.6929 57.8577 41.954 58.2059 42.041C58.3799 41.7799 58.554 41.6059 58.641 41.3448C58.467 41.3448 58.2929 41.1708 58.2929 40.9967ZM60.2946 26.203C60.9909 26.4641 61.0779 27.1602 61.5131 27.6824C62.0352 27.6824 61.8612 27.2473 62.0352 27.0732C61.7741 26.6381 61.1649 26.6381 60.9038 25.8549C60.7298 26.0289 60.2076 25.9419 60.2946 26.203ZM95.4551 15.3252C95.4551 15.4123 95.5422 15.5863 95.5422 15.6733C95.8903 15.6733 95.8033 15.2382 95.5422 15.1512C95.5422 15.2382 95.4551 15.2382 95.4551 15.3252ZM102.766 50.8302C102.766 51.0043 102.94 51.0913 103.027 51.1783C103.462 51.0913 103.375 49.96 104.158 49.6989C104.158 49.6989 104.158 49.6119 104.158 49.5249C104.158 49.6119 104.071 49.6119 104.071 49.6119C103.114 49.5249 103.027 50.3951 102.766 50.8302ZM107.204 31.3373C107.291 31.3373 107.291 31.3373 107.291 31.2503C107.204 31.2503 107.204 31.3373 107.204 31.3373ZM108.684 44.9127C108.771 44.9127 108.858 44.9127 108.945 44.9127C109.119 44.8257 109.38 44.7387 109.554 44.6517C109.641 44.6517 109.728 44.6517 109.815 44.6517V44.5646C109.728 44.4776 108.684 44.6517 108.684 44.9127ZM110.424 42.7372C110.511 42.9112 110.511 43.2593 110.773 43.2593C110.773 43.0853 111.295 42.4761 110.947 42.4761C110.947 42.6502 110.599 42.6502 110.424 42.7372ZM99.1975 2.88107C99.0234 3.05512 98.8493 3.14214 98.6753 3.22916C99.0234 3.40321 99.4586 3.49023 99.8937 3.4032C99.7197 3.05511 99.2845 3.22916 99.1975 2.88107ZM96.4995 5.7528C96.4125 5.66578 96.3254 5.57875 96.2384 5.57875C96.0643 5.66578 95.8903 5.83982 95.8033 6.01387C95.9773 6.10089 96.3254 6.18791 96.4995 5.7528ZM86.1428 3.75129C86.1428 3.66427 86.1428 3.66427 86.0558 3.66427L86.1428 3.75129ZM60.9909 10.0169C60.8168 10.1039 60.6427 10.1909 60.4687 10.365C60.3816 10.7131 60.2946 10.9741 60.2076 11.3222C60.3817 11.4963 60.5557 11.6703 60.7298 11.9314C61.0779 11.6703 61.339 11.3222 61.5131 10.9741C61.6001 10.8871 61.6001 10.8871 61.6871 10.8871C61.513 10.539 61.252 10.278 60.9909 10.0169ZM53.4192 16.1954C53.4192 16.1954 53.4192 16.1084 53.4192 15.9344C53.3321 15.8474 52.984 16.0214 52.984 16.1084C52.984 16.1954 52.984 16.1954 52.984 16.1954C53.071 16.1954 53.2451 16.1954 53.4192 16.1954ZM55.1598 37.2548C55.2468 37.6029 55.4209 37.8639 55.5079 38.038C55.9431 38.038 56.5523 38.038 56.9874 38.212C57.0745 37.951 57.5096 37.8639 57.6837 37.6029C56.9874 36.5586 56.2042 36.9067 55.1598 37.2548ZM56.2042 46.2181C55.9431 46.3051 54.9857 46.131 55.4209 46.7402C55.769 46.3921 56.2912 46.7402 56.2042 46.2181ZM58.467 50.1341C58.2929 50.5692 58.0318 50.9173 57.9448 51.4394C58.641 51.5264 58.467 50.7432 59.0762 50.6562C58.9892 50.5692 58.9021 50.4821 58.9021 50.3951C58.7281 50.3081 58.554 50.2211 58.467 50.1341ZM71.0865 73.9781C70.9994 73.8911 70.9124 73.8911 70.8254 73.8911L70.7383 73.9781C70.8254 73.9781 70.9994 73.9781 71.0865 73.9781ZM77.2657 69.4529C77.6138 69.4529 77.9619 69.4529 78.4841 69.3659C78.4841 69.1049 78.4841 68.8438 78.3971 68.5827C78.31 68.5827 78.223 68.4957 78.136 68.4957C77.7008 68.8438 77.4397 69.1049 77.2657 69.4529ZM104.158 63.0133C104.245 63.1003 104.245 63.1874 104.332 63.3614C104.245 63.2744 104.245 63.1003 104.158 63.0133ZM116.517 12.4535C116.604 12.4535 116.691 12.4535 116.691 12.5405C116.691 12.3665 116.691 12.2795 116.691 12.1054C116.604 12.1054 116.517 12.1054 116.43 12.1054C116.517 12.1924 116.604 12.3665 116.517 12.4535ZM120.085 30.206H119.65C119.65 30.5541 119.389 30.4671 119.65 30.7281C119.998 30.7281 120.085 30.5541 120.085 30.206ZM117.648 44.2166C118.083 44.3906 118.083 43.6074 117.648 43.7814V44.2166ZM120.259 45.5219C120.259 45.3478 120.346 45.1738 120.433 44.8257C120.433 44.6517 120.346 44.4776 120.259 44.3906C120.085 44.1295 119.911 43.8685 119.65 43.5204C119.215 44.3036 119.041 45.3478 118.17 45.783C118.257 45.87 118.344 45.957 118.431 46.044C118.953 45.5219 119.215 45.6959 119.998 45.783C120.085 45.6959 120.172 45.6089 120.259 45.5219ZM113.732 11.6703C113.645 11.3222 113.819 11.1482 113.906 11.0611C113.558 10.9741 113.296 10.8871 113.035 10.7131C113.035 10.9741 112.948 11.2352 112.861 11.4963C113.035 11.5833 113.296 11.6703 113.732 11.6703ZM95.8033 -5.64709V-5.90815C95.5422 -6.25624 94.9329 -6.16922 94.4108 -6.34327C94.6719 -5.82113 95.2811 -5.56007 95.8033 -5.64709ZM73.0882 -6.60433C72.74 -6.8654 72.3049 -7.03944 71.8697 -7.12646C71.8697 -6.8654 71.6957 -6.69135 71.5216 -6.51731C71.8697 -5.99518 72.3919 -5.56007 73.0011 -5.21198C73.0882 -5.21198 73.1752 -5.299 73.2622 -5.38602C73.1752 -5.82113 72.9141 -6.0822 73.0882 -6.60433ZM60.7298 -2.16621C60.6427 -2.07919 60.4687 -1.99216 60.2946 -1.90514C60.1206 -1.64407 59.9465 -1.29599 59.7724 -0.947899C60.4687 -0.686832 61.252 -0.512791 62.0352 -0.512791C61.8612 -1.03492 61.6871 -1.55705 61.5131 -2.07919C61.1649 -1.90514 60.9038 -1.64407 60.7298 -2.16621ZM55.2468 12.9756C54.6376 13.2367 54.0284 13.5848 53.2451 13.9329C53.3321 14.0199 53.3321 14.1939 53.2451 14.281C53.2451 14.6291 53.2451 14.9771 53.4192 15.1512C54.6376 14.6291 54.6376 13.9329 55.2468 12.9756ZM30.7911 -7.99669C30.6171 -8.08371 30.443 -7.99669 30.2689 -7.90966C30.2689 -7.73562 30.443 -7.73562 30.6171 -7.73562C30.6171 -7.82264 30.53 -7.82264 30.53 -7.90966C30.6171 -7.90966 30.7041 -7.99669 30.7911 -7.99669ZM24.873 12.1924C24.699 12.1924 24.5249 12.1924 24.5249 12.4535C24.699 12.3665 24.786 12.2795 24.873 12.1924ZM28.7024 50.6562C29.0505 51.0913 29.5727 51.0913 30.0078 51.3524C30.0949 51.1783 30.0949 51.0913 30.1819 50.9172H30.0949C30.0078 50.9172 29.9208 50.5692 29.9208 50.5692C29.6597 50.4821 29.6597 50.8302 29.3986 50.8302C29.1375 50.8302 28.8764 50.3081 28.7894 50.4821C28.7024 50.5692 28.7024 50.5692 28.7024 50.6562ZM30.7041 50.6562C30.53 50.7432 30.443 50.8302 30.2689 50.9172C30.356 50.9172 30.53 50.9172 30.53 50.9172C30.6171 50.8302 30.6171 50.7432 30.7041 50.6562ZM35.1427 60.4897C35.2297 60.4026 35.2297 60.2286 35.2297 60.1416C35.2297 60.3156 35.1427 60.4026 35.1427 60.4897ZM44.455 61.0988C44.8031 61.3599 45.1512 61.621 45.0642 61.9691C45.3253 62.1431 45.6734 62.1431 46.1086 62.3171C45.8475 61.5339 45.3253 61.0118 44.455 61.0988ZM50.8953 56.4867C50.8953 56.5737 50.8953 56.6607 50.9823 56.7477H51.0693C51.0693 56.6607 50.9823 56.5737 50.8953 56.4867ZM63.7759 56.3996V56.9218H64.0369V56.3996H63.7759ZM70.4772 79.5475C70.3902 79.6345 70.3032 79.8086 70.2161 79.8956L70.7383 79.7216L70.6513 79.4605L70.4772 79.5475ZM72.8271 81.8971C72.566 81.9841 72.3049 82.0712 72.1308 82.1582C72.9141 82.3322 73.6974 82.5063 74.4807 82.7673C74.4807 82.6803 74.3936 82.5063 74.3936 82.4192C74.2196 82.0711 73.6104 81.8101 73.2622 82.2452C73.0882 82.1582 73.0011 81.9841 72.8271 81.8971ZM107.204 62.7523C107.814 62.3171 108.336 61.795 108.51 61.2729C107.988 61.0988 107.465 60.9248 106.943 60.6637C106.595 59.2714 106.073 58.9233 105.812 58.1401C105.29 58.1401 105.812 58.6622 105.29 58.7492C105.725 59.3584 105.203 59.6195 105.203 60.0546C105.29 60.1416 105.377 60.2286 105.464 60.3156C106.247 61.4469 106.16 62.7523 107.204 62.7523ZM110.163 58.2271C110.25 58.4011 110.076 58.8363 110.424 58.7492C110.511 58.4882 110.424 58.2271 110.163 58.2271ZM110.163 48.9157C110.25 48.9157 110.337 49.0028 110.337 48.9157C110.424 48.9157 110.511 48.9157 110.511 48.8287C110.424 48.5677 110.25 48.4806 110.076 48.4806C109.989 48.6547 110.163 48.6547 110.163 48.9157ZM128.266 50.3081C128.614 49.96 129.049 49.6119 129.571 49.4379C128.788 49.5249 127.918 49.6119 127.134 49.6989C127.396 50.1341 127.831 50.3081 128.266 50.3081ZM130.616 14.8901L130.442 14.9771V15.0642C130.442 14.9771 130.616 14.9771 130.616 14.8901ZM122.609 16.4565C122.522 15.9344 121.738 16.1084 122.087 16.6306L122.609 16.4565ZM119.737 17.6748C119.911 17.9359 120.085 18.1099 120.346 18.284C121.129 17.6748 120.955 16.7176 121.564 16.0214C121.39 16.0214 121.216 15.9344 121.129 15.8474C120.955 15.9344 120.781 16.1084 120.607 16.2825C118.953 16.1954 118.431 16.5435 117.474 16.4565C117.474 16.5435 117.474 16.5435 117.474 16.6306C117.561 16.7176 117.561 16.7176 117.648 16.8046C117.822 16.8916 117.996 16.8916 117.909 17.1527C118.866 16.9786 118.779 17.7618 119.737 17.6748ZM115.646 -4.08069C115.82 -4.25474 115.994 -4.34176 116.169 -4.5158C115.907 -4.5158 115.733 -4.42878 115.559 -4.42878C115.559 -4.34176 115.559 -4.16771 115.646 -4.08069ZM110.947 -9.38904C111.034 -9.47606 111.034 -9.56308 111.121 -9.73713C110.947 -9.73713 110.86 -9.82415 110.686 -9.82415C110.686 -9.6501 110.773 -9.47606 110.947 -9.38904ZM109.815 -10.0852C109.641 -10.0852 109.467 -10.0852 109.293 -10.1722V-10.0852C109.38 -10.0852 109.641 -10.0852 109.815 -10.0852ZM108.945 0.792542C108.771 0.444454 108.423 0.183388 108.075 0.0963669C107.814 0.357433 107.639 0.705521 107.639 1.05361C107.988 1.22765 108.336 1.48872 108.684 1.66276C108.597 1.4017 108.771 1.14063 108.945 0.792542ZM105.638 -1.90514C105.377 -2.25323 105.29 -2.60132 104.942 -2.77536C104.854 -2.25323 104.593 -1.73109 104.245 -1.29599C104.68 -1.55705 105.116 -1.7311 105.638 -1.90514ZM102.069 -12.0867C101.982 -12.0867 101.895 -12.0867 101.808 -12.0867C101.808 -11.9127 101.721 -11.7386 101.634 -11.5646C102.418 -11.6516 102.244 -10.9554 102.766 -10.7814C102.766 -11.2165 102.853 -11.5646 102.853 -11.8257C102.679 -11.7386 102.505 -11.6516 102.418 -11.8257C102.244 -12.2608 102.766 -12.2608 102.418 -12.6959C101.547 -12.8699 102.418 -12.1737 102.069 -12.0867ZM100.503 -14.0012L100.242 -13.9142V-13.8272H100.503V-14.0012ZM87.7964 -4.86389C87.7094 -4.95091 87.6223 -5.03793 87.4483 -5.03793V-4.95091C87.5353 -4.95091 87.7094 -4.86389 87.7964 -4.86389ZM81.7042 -4.34176C81.8783 -4.34176 82.0524 -4.42878 82.2264 -4.42878C82.4875 -4.68985 82.7486 -4.77687 83.0967 -4.77687C83.0097 -5.38602 82.6616 -5.90815 81.9653 -6.0822C81.9653 -6.0822 81.8783 -6.0822 81.7913 -6.0822C81.3561 -5.56007 80.921 -5.03793 80.3117 -4.60282C80.6599 -4.5158 80.921 -4.25474 81.3561 -4.68985C81.4431 -4.5158 81.6172 -4.42878 81.7042 -4.34176ZM60.7298 -7.21349C60.7298 -7.21349 60.7298 -7.21349 60.8168 -7.12646V-7.21349H60.7298ZM54.1154 -11.9127L53.9414 -11.8257C53.9414 -11.7386 53.9414 -11.6516 53.9414 -11.5646L54.2024 -11.6516L54.1154 -11.9127ZM30.0078 -7.56157C29.9208 -7.38753 29.8338 -7.30051 29.7467 -7.12646V-7.03944C29.9208 -7.12646 30.0078 -7.12646 30.1819 -7.12646C30.1819 -7.21349 30.2689 -7.21349 30.356 -7.30051C30.356 -7.38753 30.356 -7.47455 30.356 -7.56157C30.2689 -7.56157 30.0949 -7.56157 30.0078 -7.56157ZM23.1324 21.8519C22.6972 22.113 22.4361 22.461 22.2621 23.0702C22.5232 22.8091 22.8713 22.6351 23.1324 22.374C23.1324 22.287 23.1324 22.287 23.1324 22.2C23.6546 21.6778 24.1768 20.9817 24.4379 20.2855L24.1768 20.0244C24.1768 20.1114 24.0897 20.1985 24.0897 20.2855C23.5676 20.3725 23.6546 20.8946 23.2194 20.9817V21.8519H23.1324ZM19.9123 41.867V42.128H20.1733V41.867H19.9123ZM31.1392 58.2271C31.1392 58.4011 30.9652 58.8363 31.4003 58.7492C31.5744 58.4882 31.4874 58.2271 31.1392 58.2271ZM48.1973 57.618H48.0233L48.1103 57.879H48.2843C48.2843 57.792 48.1973 57.705 48.1973 57.618ZM48.2843 50.3951C48.3714 50.5692 48.4584 50.6562 48.6325 50.8302C49.0676 50.3951 49.5028 50.047 50.112 49.6119C50.025 49.3509 49.9379 49.0898 49.7639 48.8287C49.2417 49.1768 48.7195 49.6989 48.2843 50.3951ZM60.6427 80.3307C60.9909 80.5048 61.252 80.6788 61.426 80.9399C61.6001 80.7658 61.6871 80.5918 61.6871 80.3307C61.513 80.1567 61.426 79.9826 61.426 79.8086C60.9038 80.0696 60.3817 79.4605 60.5557 79.1124C60.4687 79.0254 60.3817 79.1124 60.2076 79.1124C60.2076 79.5475 60.3817 79.9826 60.6427 80.3307ZM64.3851 71.5415C64.4721 71.5415 64.5591 71.5415 64.6462 71.4545H64.3851V71.5415ZM82.1394 72.5857C82.1394 72.6728 82.0524 72.7598 82.0524 72.9338C82.2264 72.9338 82.3135 73.0209 82.4005 73.1079C82.2264 72.9338 82.4005 72.8468 82.3135 72.5857C82.2264 72.5857 82.2264 72.5857 82.1394 72.5857ZM88.9278 76.1536L88.6667 76.2407L88.7537 76.5017L89.0148 76.4147L88.9278 76.1536ZM104.332 73.456C104.68 73.543 104.942 73.8041 105.116 74.0651C105.29 74.0651 105.551 73.9781 105.725 73.8911C105.899 73.8911 105.899 73.8041 105.812 73.63C105.551 73.456 105.116 73.456 104.767 73.63C104.68 73.543 104.506 73.3689 104.332 73.2819C104.419 73.3689 104.332 73.3689 104.332 73.456ZM109.902 52.0485C110.337 51.8745 110.773 51.6134 111.208 51.3524C111.121 51.0043 110.947 50.7432 110.599 50.6562C110.599 50.7432 110.686 51.0043 110.599 51.0913C110.424 51.3524 110.163 51.4394 109.989 51.6134C109.902 51.7875 109.902 51.8745 109.902 52.0485ZM135.315 32.9907C135.315 32.9037 135.315 32.9037 135.315 32.9907V32.9907ZM130.703 11.7573V11.4963H130.355V11.7573H130.703ZM119.911 -2.86238C119.65 -2.42727 120.52 -2.42727 120.52 -2.68834C120.259 -2.77536 120.259 -2.94941 119.911 -2.86238ZM106.595 -14.6974C106.682 -15.0455 106.595 -15.3065 106.334 -15.2195C106.334 -14.9584 105.986 -15.0455 106.073 -14.6974C106.16 -14.6974 106.247 -14.6974 106.334 -14.6104C106.421 -14.6104 106.508 -14.6974 106.595 -14.6974ZM96.4995 -14.5233C96.6736 -14.5233 96.7606 -14.6104 96.9347 -14.7844C96.6736 -14.7844 96.4125 -14.8714 96.4995 -14.5233ZM84.1411 -13.7401C84.0541 -13.8272 84.0541 -13.8272 84.1411 -13.7401V-13.7401ZM64.7332 -8.34478C64.5591 -8.34478 64.298 -8.43179 64.124 -8.51881C63.9499 -8.17073 63.7759 -7.90966 63.6018 -7.64859C64.0369 -7.82264 64.3851 -8.08371 64.7332 -8.34478ZM62.0352 -16.8729C62.2093 -16.96 62.2963 -17.134 62.3834 -17.221C62.0352 -17.4821 61.6001 -17.5691 61.0779 -17.4821C61.252 -17.134 61.6001 -16.96 62.0352 -16.8729ZM52.81 -16.0027C52.4618 -15.8287 52.3748 -15.9157 52.3748 -16.0897C52.2878 -16.0027 52.2007 -15.9157 52.1137 -15.8287L52.2007 -15.7416C52.4618 -15.4806 52.7229 -15.4806 52.984 -15.6546L52.81 -16.0027ZM30.0949 -1.81812C29.3116 -1.7311 28.4413 -1.81812 27.745 -1.99216C28.2672 -1.47003 27.745 -0.425766 27.8321 0.270412C28.0932 0.270412 28.2672 0.270412 28.5283 0.270412C29.0505 -0.425766 29.9208 -0.947899 30.0949 -1.81812ZM19.7382 21.5908C19.9123 21.7649 19.9993 21.9389 19.9993 22.0259C20.0863 21.7649 20.0863 21.5038 19.9993 21.3298C20.4344 20.8946 21.2177 20.8076 21.1307 19.8504C21.5658 19.7634 21.6529 19.4153 21.8269 19.0672C21.4788 19.0672 21.0437 19.0672 20.6085 19.1542C20.6085 20.0244 20.6085 20.8946 19.7382 21.5908ZM24.5249 51.6134C24.5249 51.9615 24.6119 52.3096 24.786 52.6577C24.873 52.7447 25.0471 52.8317 25.1341 52.8317C24.96 52.3096 25.2211 52.2226 25.3952 52.0485C25.0471 52.0485 24.96 51.5264 24.5249 51.6134ZM27.2229 53.789C27.2229 53.876 27.1358 54.05 27.0488 54.1371C27.1358 54.2241 27.3099 54.2241 27.3969 54.3111C27.3969 54.2241 27.4839 54.1371 27.571 54.1371C27.658 54.1371 27.658 54.05 27.658 53.963C27.571 53.876 27.571 53.789 27.2229 53.789ZM26.7007 57.618C26.8747 57.966 26.9618 58.2271 27.1358 58.5752C27.3969 58.3141 27.9191 58.2271 28.1802 57.792C27.745 58.1401 27.0488 58.0531 26.7007 57.618ZM30.7041 59.7935C30.7041 59.8805 30.7911 59.8805 30.8782 59.8805C30.7911 59.7935 30.7911 59.7935 30.7041 59.7935ZM31.7485 63.2744C31.7485 63.1874 31.7485 63.1003 31.7485 63.0133C31.6614 62.9263 31.4874 62.9263 31.4003 62.8393C31.5744 63.0133 31.6614 63.1003 31.7485 63.2744ZM43.4976 65.711C44.1939 66.1461 44.7161 66.7553 44.8031 67.5385C45.2383 67.2774 45.8475 67.0163 45.9345 66.4942C45.2383 66.4072 44.542 65.9721 44.368 65.3629C44.1069 65.3629 43.9328 65.2759 43.7587 65.2759C43.6717 65.4499 43.5847 65.624 43.4976 65.711ZM48.8936 61.4469C48.9806 61.621 49.1547 61.795 49.3287 61.708C49.2417 61.5339 49.1547 61.2729 48.8936 61.4469ZM48.7195 60.4897C49.1547 60.4026 49.5898 60.6637 49.8509 61.1859C49.8509 61.0988 49.8509 61.0988 49.8509 61.0118C49.3287 60.4897 49.0676 59.7065 49.2417 59.0103C49.1547 58.8363 48.8936 58.9233 48.7195 58.8363C48.6325 58.8363 48.4584 58.8363 48.2843 58.8363C48.2843 58.4011 47.6751 58.3141 47.414 58.5752C47.5881 58.8363 47.6751 59.0103 47.8492 59.2714C48.1103 59.6195 48.8065 59.8805 48.7195 60.4897ZM56.6393 61.9691C55.5949 61.3599 55.4209 63.0133 55.5079 63.4484C56.2042 63.1874 56.5523 62.5782 56.6393 61.9691ZM60.3816 63.9706C60.4687 64.0576 60.6427 64.1446 60.8168 64.4057C60.9909 64.3186 61.1649 64.3186 61.339 64.2316C61.426 64.4057 61.6001 64.4927 61.7741 64.6667C61.8612 64.4927 62.2093 64.4057 62.3834 64.3186C62.3834 64.1446 62.3834 64.0576 62.3834 63.9706C61.8612 63.9706 61.6871 63.3614 61.1649 63.0133C60.9909 63.3614 60.8168 63.5355 60.2946 63.1874V63.9706H60.3816ZM58.0318 78.9383C57.8578 78.9383 57.5967 79.0254 57.5096 79.1994C57.6837 79.2864 57.7707 79.3735 57.8577 79.4605C58.0318 79.3735 58.1188 79.1124 58.0318 78.9383ZM101.286 78.5032C101.46 78.5032 101.547 78.4162 101.199 78.3292C101.199 78.4162 101.286 78.4162 101.286 78.5032ZM108.945 76.2407V76.5017H109.206V76.4147C109.119 76.3277 109.119 76.3277 109.032 76.2407H108.945C108.945 76.1536 108.945 76.1536 108.945 76.2407ZM125.046 62.2301L125.133 62.4912L125.394 62.4042L125.307 62.1431L125.046 62.2301ZM134.619 55.8775H134.793C134.793 55.7905 134.88 55.7035 134.88 55.6164H134.619V55.8775ZM135.838 32.4686C136.186 32.2945 136.708 32.1205 136.621 31.7724C136.447 32.0335 136.099 32.2075 135.838 32.4686ZM115.646 -13.305C115.385 -13.5661 114.95 -13.7401 114.341 -13.9142C113.906 -13.9142 113.296 -13.7401 112.948 -13.4791C113.122 -13.4791 113.122 -13.3921 113.122 -13.218C112.948 -13.218 112.687 -13.131 112.513 -13.044C112.6 -12.9569 112.6 -12.9569 112.6 -12.8699C113.384 -12.6959 114.167 -12.4348 114.863 -12.0867C114.863 -12.6089 115.472 -12.8699 115.646 -13.305ZM112.6 -14.7844C112.513 -14.7844 112.339 -14.7844 112.165 -14.7844C112.165 -14.6104 112.339 -14.5233 112.6 -14.5233V-14.7844ZM106.334 -15.5676C106.595 -15.5676 106.769 -15.7416 106.769 -16.0027C106.682 -15.9157 106.508 -15.9157 106.334 -15.9157C106.334 -15.8287 106.334 -15.6546 106.334 -15.5676ZM99.6326 -16.96C99.6326 -17.134 99.6326 -17.308 99.5456 -17.4821C99.3715 -17.308 99.3715 -17.134 99.5456 -16.96H99.6326ZM83.7059 -25.053L83.967 -25.14C83.967 -25.2271 83.88 -25.3141 83.88 -25.4011L83.6189 -25.3141C83.6189 -25.2271 83.7059 -25.14 83.7059 -25.053ZM66.7349 -22.9645C66.7349 -22.9645 66.7349 -22.9645 66.6479 -22.8775C66.7349 -22.8775 66.7349 -22.8775 66.8219 -22.8775C66.8219 -22.8775 66.8219 -22.9645 66.7349 -22.9645ZM67.2571 -20.5279H66.909V-20.2668H67.2571V-20.5279ZM59.6854 -20.7019C60.0335 -20.4408 60.1206 -21.137 59.8595 -21.137C59.8595 -21.05 59.7724 -20.963 59.6854 -20.963V-20.7019ZM47.5011 -9.12797C47.414 -9.30201 47.24 -9.38904 46.9789 -9.47606C46.6308 -9.04095 46.3697 -8.60584 45.9345 -8.17073C45.9345 -8.08371 46.0215 -7.90966 46.0215 -7.90966C46.4567 -7.82264 47.0659 -8.17073 47.5881 -8.17073C47.6751 -8.17073 47.6751 -8.17073 47.6751 -8.17073C48.3714 -8.4318 49.0676 -8.86691 49.5028 -9.38904C49.0676 -9.38904 48.7195 -9.47606 48.2843 -9.6501C47.9362 -9.47606 47.7622 -9.30201 47.5011 -9.12797ZM39.6683 -8.95393C39.8423 -9.04095 40.1034 -9.12797 40.1034 -9.30202C39.9294 -9.21499 39.7553 -9.12797 39.6683 -8.95393ZM24.1768 -4.95091C24.2638 -4.95091 24.3508 -4.95091 24.4379 -5.03793L24.1768 -4.95091C24.2638 -4.95091 24.2638 -4.95091 24.1768 -4.95091ZM32.8799 67.8866C32.7058 68.4087 32.6188 68.8438 32.5317 69.3659C33.228 69.4529 33.7502 69.8881 34.3594 70.0621C34.2724 69.0178 33.5761 68.4957 32.8799 67.8866ZM33.7502 67.1034C33.9242 67.1904 34.9686 67.1034 34.9686 66.7553C34.7075 66.5812 33.7502 66.7553 33.7502 67.1034ZM33.6631 65.1018C34.0983 65.3629 34.5335 65.537 34.9686 65.711C34.7075 65.1889 34.2724 64.8408 33.7502 64.4927C33.7502 64.6667 33.6631 64.9278 33.6631 65.1018ZM36.4481 69.627C36.187 69.8881 35.8389 70.1491 35.9259 70.6712C36.6222 70.9323 36.6222 70.1491 36.4481 69.627ZM37.3184 69.627C37.4055 69.714 37.4055 69.714 37.4925 69.714C37.4925 69.714 37.4055 69.627 37.3184 69.627ZM39.8423 66.4072C39.8423 66.5812 40.0164 66.8423 40.1034 66.9293C40.1905 66.6682 40.1905 66.4072 40.0164 66.2331C39.9294 66.3202 39.9294 66.3202 39.8423 66.4072ZM41.4959 67.8866C41.67 67.6255 41.8441 67.6255 41.9311 67.7125C41.8441 67.3644 41.8441 67.0163 41.9311 66.6682C41.4959 66.7553 41.67 66.3202 41.2348 66.4072C40.9737 66.6682 40.8867 67.0163 40.7997 67.3644C41.0608 67.4514 41.3219 67.6255 41.4959 67.8866ZM48.8936 71.7155V71.9766H49.1547V71.8025L49.0676 71.7155H48.8936ZM53.9414 64.3186C54.1154 64.4057 54.2895 64.4057 54.3765 64.4927C54.3765 64.3186 54.2895 64.2316 53.9414 64.3186ZM56.8134 84.4207C56.8134 84.5078 56.9004 84.5078 56.9004 84.5078L56.8134 84.4207ZM60.6427 90.6863C60.6427 90.6863 60.5557 90.5993 60.4687 90.5123C60.5557 90.5993 60.6427 90.5993 60.6427 90.6863ZM60.9038 91.2085L61.1649 91.1214L61.0779 90.8604L60.8168 90.9474C60.8168 91.0344 60.9038 91.1214 60.9038 91.2085ZM63.9499 88.0757C63.9499 88.1627 63.9499 88.2497 64.0369 88.2497C64.124 88.2497 64.124 88.1627 64.211 88.1627C64.124 88.0757 64.0369 88.0757 63.9499 88.0757ZM95.6292 80.5918C95.7162 80.5048 95.8903 80.3307 95.9773 80.1567C95.8903 79.8086 95.8033 79.4605 95.9773 79.2864C95.2811 78.8513 94.4108 78.5032 93.7145 78.0681C93.2794 78.4162 92.8442 78.5903 92.322 78.6773C92.0609 79.2864 91.7998 79.8956 91.4517 80.4177C91.6258 80.5918 91.7128 80.8528 91.7128 81.1139C92.9312 81.549 94.4108 80.6788 95.6292 80.5918ZM108.162 77.633C108.336 77.633 108.51 77.546 108.597 77.459C108.684 77.1109 108.684 76.8498 108.597 76.5017C108.423 76.5888 108.162 76.5017 108.162 76.6758C108.684 77.0239 107.639 77.1109 107.552 77.372C107.552 77.546 108.162 77.3719 108.162 77.633ZM111.556 68.4957C111.643 68.4957 111.643 68.4957 111.556 68.4957V68.4957ZM113.471 69.8881C113.384 69.9751 113.384 70.0621 113.296 70.2361C113.558 70.2361 113.906 69.714 113.558 69.801C113.558 69.801 113.558 69.801 113.471 69.8881ZM138.71 49.6119C138.797 49.6989 138.884 49.6989 138.884 49.6989C138.884 49.6119 138.797 49.6119 138.71 49.6119ZM123.74 -3.90665C124.088 -4.34176 124.349 -4.77687 124.436 -5.299C123.827 -4.95091 123.131 -4.68985 122.435 -4.60282C122.783 -4.25473 123.305 -3.99367 123.74 -3.90665ZM114.341 -17.3951C114.341 -17.3951 114.428 -17.4821 114.515 -17.3951C114.254 -17.5691 114.167 -17.9172 113.645 -17.8302C113.906 -17.6561 114.08 -17.5691 114.341 -17.3951ZM102.331 -21.8332C102.244 -21.8332 102.244 -21.8332 102.244 -21.7462C102.244 -21.6591 102.331 -21.5721 102.418 -21.5721C102.331 -21.6591 102.331 -21.7462 102.331 -21.8332ZM84.0541 -24.966C84.1411 -24.966 84.2281 -25.053 84.4022 -25.14C84.3152 -25.14 84.1411 -25.14 84.0541 -25.053V-24.966ZM79.7025 -25.9232C79.4414 -26.2713 79.0933 -26.5324 78.4841 -26.5324C78.8322 -25.8362 79.2674 -25.2271 79.9636 -24.7919C79.8766 -25.14 79.7896 -25.5751 79.7025 -25.9232ZM75.8732 -25.4881C76.3953 -25.5751 76.2213 -26.1843 75.7861 -26.0103C75.8732 -25.7492 75.525 -25.6622 75.8732 -25.4881ZM74.9158 -25.4881L75.1769 -25.5751L75.0899 -25.8362L74.8288 -25.7492L74.9158 -25.4881ZM40.0164 -16.8729C40.1034 -16.5248 40.3645 -16.5248 40.7127 -16.6989C40.5386 -16.96 40.1905 -17.221 40.0164 -16.8729ZM24.786 -7.38753C24.699 -7.38753 24.6119 -7.38753 24.5249 -7.47455V-7.38753H24.786ZM5.11699 23.1572C5.11699 23.5053 5.02995 23.7664 4.94292 24.1145C5.02995 24.3755 5.11699 24.7236 5.20402 25.0717C5.55214 24.9847 5.37808 24.7236 5.81323 24.7236L5.46511 23.6793L6.07433 23.5053C5.9873 23.2442 5.90026 23.0702 5.81323 22.8091C5.55214 22.9832 5.37808 23.0702 5.11699 23.1572ZM11.3832 57.0958C11.6443 57.705 12.0795 58.3141 12.6887 58.6622C12.8627 58.3141 13.0368 57.966 13.1238 57.5309C12.6887 57.2699 12.2535 56.9218 11.8184 56.5737C11.6443 56.7477 11.4702 56.9218 11.3832 57.0958ZM15.7348 62.7523C16.2569 62.8393 16.431 63.2744 16.8662 63.7965C17.0402 63.7965 17.1273 63.7965 17.3013 63.7965C17.2143 63.3614 16.8662 63.5354 16.8662 63.1003C17.1273 63.1003 17.1273 62.9263 17.0402 62.7523C16.9532 62.6652 16.8662 62.5782 16.8662 62.4912C16.431 62.4912 15.9959 62.4042 15.5607 62.2301C15.6477 62.4042 15.7348 62.5782 15.7348 62.7523ZM17.0402 64.2316C17.0402 64.3186 17.1273 64.4057 17.2143 64.4057H17.3013L17.2143 64.1446L17.0402 64.2316ZM18.7808 57.1828C18.8679 57.705 18.9549 58.2271 19.216 58.6622C19.4771 58.3141 19.5641 57.879 19.4771 57.5309C19.303 57.3569 19.0419 57.1828 18.7808 57.1828ZM47.5011 72.3247C47.6751 72.4117 47.7622 72.4117 47.8492 72.4987C47.8492 72.3247 47.7622 72.2377 47.6751 72.1506C47.5881 72.2377 47.5881 72.2377 47.5011 72.3247ZM51.8526 73.0209C51.5915 73.1949 51.4175 73.3689 51.2434 73.456C51.5915 73.63 51.9396 73.717 52.4618 73.8041C52.2007 73.543 52.0267 73.2819 51.8526 73.0209ZM54.6376 76.8498C54.3765 76.8498 54.1154 76.8498 54.2024 77.1109C54.3765 77.1109 54.5506 77.0239 54.6376 76.8498ZM53.4192 85.0299H53.5062C53.5062 84.9429 53.5062 84.7688 53.4192 84.7688C53.4192 84.7688 53.4192 84.8559 53.3321 84.8559C53.4192 84.9429 53.4192 84.9429 53.4192 85.0299ZM62.1223 91.8176C62.5574 91.8176 63.5148 92.0787 63.2537 91.2085C62.6445 91.7306 62.5574 91.1214 61.7741 91.2085C61.6871 91.5565 62.1223 91.3825 62.1223 91.8176ZM66.8219 93.7321C66.909 93.7321 66.996 93.8191 67.083 93.9062C67.083 93.6451 67.1701 93.384 66.8219 93.471V93.7321ZM86.2299 89.381C86.4039 89.381 86.4909 89.294 86.752 89.207C86.578 89.0329 86.4909 88.8589 86.578 88.5978C86.3169 88.5978 86.0558 88.5978 85.7947 88.6848C86.0558 88.7719 86.3169 88.9459 86.2299 89.381ZM95.4551 93.471C95.4551 93.384 95.4551 93.297 95.5422 93.0359C95.107 92.9489 95.107 93.297 94.6719 93.21C94.7589 92.7749 94.3237 92.9489 94.0626 92.9489C93.8886 93.471 93.6275 93.8191 93.2794 94.1672C93.8015 94.4283 94.1497 93.9932 94.3237 93.5581C94.5848 93.5581 95.02 93.5581 95.4551 93.471ZM106.595 87.7276V88.1627H106.856C106.856 88.0757 107.03 87.9886 107.03 87.9016C106.856 87.8146 106.856 87.7276 106.595 87.7276ZM114.515 74.4132C115.037 74.0651 115.559 73.63 115.994 73.1949C115.733 73.1949 115.559 73.1079 115.298 73.0209C114.95 73.456 114.689 73.8911 114.515 74.4132ZM125.307 67.8866C124.785 67.9736 124.872 68.3217 124.872 68.5827C125.046 68.5827 125.307 68.4087 125.481 68.2346L125.307 67.8866ZM131.747 79.3735C131.834 79.9826 130.964 79.7215 131.051 80.3307H132.269C132.182 80.0696 132.356 79.4605 131.747 79.3735ZM133.314 70.2361C133.401 70.1491 133.314 70.0621 133.314 69.9751V70.2361ZM144.454 49.96C144.28 49.96 144.192 49.786 144.018 49.96L144.105 50.2211C144.367 50.3081 144.454 50.2211 144.454 49.96ZM146.194 8.53751C146.107 8.62453 145.846 8.62453 145.846 8.79857C145.933 8.79857 146.02 8.79857 146.02 8.8856C146.194 8.79857 146.368 8.71155 146.194 8.53751ZM147.239 18.7191C147.239 18.8061 147.239 18.9802 147.239 19.0672C147.326 19.0672 147.413 19.0672 147.413 19.0672C147.326 18.8931 147.326 18.8061 147.239 18.7191ZM149.675 19.4153L149.762 19.5893C149.762 19.5023 149.849 19.4153 149.937 19.3282L149.675 19.4153ZM149.501 18.8061L149.24 18.8931C149.24 18.9802 149.327 19.0672 149.327 19.1542L149.588 19.0672L149.501 18.8061ZM149.066 40.5616H149.24C149.327 40.3876 149.414 40.0395 148.979 40.1265C149.066 40.2135 148.979 40.4746 149.066 40.5616ZM150.024 30.6411C150.024 30.6411 150.024 30.6411 150.024 30.5541H149.849C149.937 30.5541 149.937 30.6411 150.024 30.6411ZM149.849 28.3785V28.1175H149.501V28.3785H149.849ZM148.805 47.6104C148.718 48.2196 148.631 48.7417 148.544 49.2638C148.544 49.3509 148.544 49.4379 148.544 49.5249C148.805 49.4379 149.153 49.3509 149.24 49.6989C150.372 49.2638 149.066 48.4806 149.675 47.8715C149.327 47.8715 149.153 47.6104 148.805 47.6104ZM149.327 27.6824C150.198 27.5953 151.068 26.9862 151.416 26.0289C151.068 25.6809 150.807 25.3328 150.546 24.8977C148.979 25.8549 148.805 27.4213 147.848 28.7266C148.109 28.7266 148.37 28.7266 148.631 28.8137C148.979 28.2045 148.805 28.0304 149.327 27.6824ZM149.066 18.371C149.066 18.0229 148.892 17.5878 148.631 17.3267C148.283 17.0657 148.283 16.5435 147.761 16.4565L147.674 16.5435C147.761 17.3267 148.283 18.1099 149.066 18.371ZM147.152 24.4625C146.977 24.4625 146.89 24.4625 146.803 24.4625C146.89 24.6366 146.89 24.7236 146.977 24.8977C147.065 24.7236 147.064 24.6366 147.152 24.4625ZM138.71 10.2779C137.665 10.0169 137.143 12.8016 136.447 13.4978C136.621 13.7588 136.882 14.0199 137.143 14.1939C137.578 13.7588 138.187 13.4107 138.71 13.0627C138.71 12.8886 138.71 12.7146 138.622 12.5405C139.058 12.3665 139.406 11.8443 139.319 11.3222C139.319 11.1482 138.622 10.2779 138.71 10.2779ZM136.708 9.23368C136.882 9.05964 137.143 8.97262 137.056 8.53751C136.534 8.53751 136.534 8.88559 136.447 9.23368C136.621 9.23368 136.795 9.75581 136.882 9.40773C136.795 9.32071 136.708 9.32071 136.708 9.23368ZM134.706 3.92534C134.793 3.83832 134.793 3.75129 134.706 3.75129C134.706 3.75129 134.706 3.83832 134.706 3.92534ZM114.341 -25.053C114.341 -24.966 114.341 -24.879 114.341 -24.7049L114.428 -24.6179C114.428 -24.7049 114.428 -24.7049 114.515 -24.7049C114.602 -24.879 114.689 -25.053 114.341 -25.053ZM112.513 -25.4881V-25.6622H112.426L112.513 -25.4881ZM112.078 -24.7919C112.078 -24.7919 112.078 -24.7049 112.165 -24.6179C112.252 -24.7049 112.252 -24.7049 112.252 -24.7919C112.165 -24.7919 112.165 -24.7919 112.078 -24.7919ZM112.6 -28.1858C112.513 -28.2728 112.339 -28.3598 112.252 -28.4469C112.252 -28.4469 112.165 -28.3598 112.078 -28.3598C112.078 -28.2728 112.165 -28.0988 112.165 -28.0118C112.339 -28.0118 112.513 -28.0988 112.6 -28.1858ZM73.7844 -32.1018L73.4363 -32.0148V-31.9278C73.4363 -31.8407 73.5233 -31.8407 73.5233 -31.8407C73.6974 -31.8407 73.7844 -31.9278 73.9585 -31.9278V-32.0148C73.8714 -32.0148 73.7844 -32.0148 73.7844 -32.1018ZM57.6837 -24.966C57.5967 -24.966 57.5967 -24.966 57.5967 -24.966C57.5967 -24.879 57.5967 -24.879 57.5967 -24.7919C57.5967 -24.879 57.6837 -24.879 57.6837 -24.966ZM52.984 -23.3126C52.2878 -23.2255 51.5045 -23.0515 50.8953 -22.8775C50.6342 -22.7904 50.3731 -22.5294 50.3731 -22.1813C51.4175 -21.8332 52.5489 -21.6591 53.6803 -21.5721C54.0284 -21.9202 54.3765 -22.1813 54.8987 -22.2683C54.8117 -22.4423 54.6376 -22.6164 54.7246 -22.8775L54.8117 -22.9645C54.0284 -22.9645 53.5062 -22.8775 52.984 -23.3126ZM47.5011 -18.8744C47.414 -18.7874 47.414 -18.8744 47.327 -18.8744C47.327 -18.8744 47.24 -18.7874 47.24 -18.7004C47.327 -18.7004 47.5011 -18.7874 47.5011 -18.8744ZM43.3236 -19.9187C43.4976 -19.9187 43.5847 -20.0057 43.6717 -20.0928C43.5847 -20.0928 43.4106 -20.0057 43.3236 -19.9187ZM37.4925 -21.3111C38.5369 -22.0943 39.3202 -23.1385 39.8423 -24.3568C39.6683 -24.0958 39.4942 -23.9217 39.2331 -23.8347C38.4498 -23.3996 38.6239 -23.3996 38.1888 -22.9645C37.7536 -22.4423 36.7963 -22.0072 36.9703 -21.4851C37.2314 -21.3111 37.3184 -21.3111 37.4925 -21.3111ZM26.7877 -21.05C26.9618 -21.224 27.1358 -21.3111 27.2229 -21.4851C26.8747 -21.4851 26.7877 -21.224 26.7007 -20.963L26.7877 -21.05ZM19.9123 -14.0882C19.7382 -13.305 20.6085 -14.0012 19.9123 -14.0882V-14.0882ZM7.20573 4.01236C7.20573 3.83831 7.37979 3.57725 7.1187 3.66427V4.18641L7.20573 4.01236ZM23.2194 67.2774C24.6119 66.9293 24.5249 65.9721 24.6119 65.0148C24.5249 65.0148 24.4379 64.9278 24.4379 64.9278L23.7416 65.1018C23.3935 64.4927 22.5232 64.7538 22.1751 64.3186C22.001 64.5797 21.914 64.8408 21.914 65.1018C22.5232 65.624 22.9583 66.4072 23.2194 67.2774ZM27.745 71.8896C27.8321 72.5857 28.4413 73.0209 29.2246 73.456C29.2246 73.1079 29.3116 72.6728 29.3116 72.3247C28.7024 72.3247 28.1802 72.1506 27.745 71.8896ZM36.7963 75.6315C36.5352 76.0666 36.8833 76.3277 36.7092 76.9369C38.5369 77.0239 40.1034 78.0681 41.757 78.2422C40.7127 77.72 39.4942 77.459 38.972 76.5888C38.798 76.6758 38.5369 76.6758 38.2758 76.5888C38.1017 75.9796 37.4055 75.8926 36.7963 75.6315ZM49.3287 75.1094C49.2417 75.3704 49.1547 75.7185 49.0676 75.9796C49.4157 76.1536 49.6768 76.2407 50.112 76.4147C50.112 76.3277 50.199 76.2407 50.3731 76.2407C51.5045 77.0239 52.7229 77.546 54.0284 77.8071C54.0284 77.372 53.9414 76.9369 53.7673 76.5017C52.897 76.1537 51.9396 75.8926 51.0693 75.7185C51.4175 75.6315 51.2434 75.3705 51.6786 75.3705C52.2007 75.5445 52.81 75.4575 53.2451 75.1964C53.1581 75.1094 53.1581 74.9353 53.071 74.8483C52.2878 75.0224 50.9823 74.6743 50.7212 75.6315C50.2861 75.4575 50.8082 75.2834 50.6342 74.9353C50.199 74.9353 50.3731 75.2834 50.199 75.3705C49.7639 75.2834 49.5898 75.1964 49.3287 75.1094ZM49.6768 79.3735C49.5898 79.7215 49.6768 79.9826 49.8509 80.3307C49.9379 80.2437 49.9379 80.2437 50.025 80.2437C50.199 81.1139 51.2434 80.5918 51.7656 80.9399C51.9396 80.7658 51.9396 80.5048 51.9396 80.3307C50.9823 80.2437 50.7212 79.4605 49.6768 79.3735ZM63.6018 91.8176C63.9499 92.4268 64.6462 92.6008 65.1684 92.9489C65.2554 92.8619 65.3424 92.8619 65.4294 92.8619C65.4294 92.7749 65.5165 92.6879 65.5165 92.6008C65.2554 92.5138 65.0813 92.4268 64.8202 92.3398C64.6462 91.7306 64.211 91.8176 63.6018 91.8176ZM95.9773 93.384C95.9773 93.384 96.0643 93.384 96.1514 93.384H95.9773ZM97.2828 89.294C97.1957 89.468 97.1957 89.7291 97.1957 89.9902C98.6753 89.9031 99.5456 89.5551 100.764 90.1642C100.677 89.9902 100.938 89.9902 101.112 89.9031L100.938 89.381C99.8067 89.7291 99.5456 88.5108 98.8493 88.1627C98.7623 88.1627 98.6753 88.2497 98.5882 88.2497C98.1531 88.5108 98.1531 89.1199 97.3698 89.207L97.2828 89.294ZM107.552 86.8574C107.988 86.9444 108.423 86.9444 108.945 86.6833C108.771 86.4223 108.597 86.2482 108.423 85.9871C108.249 86.3352 107.988 86.6833 107.552 86.8574ZM112.339 84.0727C112.165 84.3337 111.817 84.5948 112.078 84.9429C112.252 84.9429 112.339 84.9429 112.513 84.9429C112.078 84.1597 113.209 84.5948 113.122 83.8116C112.861 83.9856 112.6 83.9856 112.339 84.0727ZM114.167 81.636C114.254 81.549 114.341 81.375 114.254 81.288C114.08 81.288 113.993 81.375 113.906 81.462C113.993 81.462 114.08 81.549 114.167 81.636ZM142.8 2.96809C142.887 2.62001 142.8 2.53298 142.452 2.53298V2.96809H142.8ZM140.972 1.14063C141.146 0.879566 141.32 0.705521 141.407 0.531475C141.059 -0.0776787 140.624 -0.686832 139.841 -0.773853C140.189 -0.25172 140.015 -0.0776749 140.102 0.444454C140.537 0.183388 140.45 0.792542 140.711 0.792542C140.885 0.879562 140.885 1.05361 140.972 1.14063ZM139.841 -9.04095C139.754 -9.04095 139.667 -9.04095 139.493 -9.215C139.58 -9.04095 139.58 -8.95393 139.667 -8.86691C139.754 -8.86691 139.754 -8.95393 139.841 -9.04095ZM135.663 -14.4363C135.576 -14.3493 135.489 -14.4363 135.402 -14.4363C135.489 -14.4363 135.576 -14.4363 135.663 -14.4363C135.663 -14.3493 135.663 -14.3493 135.663 -14.4363ZM124.088 -26.7064C124.088 -26.5324 124.262 -26.4454 124.262 -26.2713L124.523 -26.3583L124.349 -26.7064C124.262 -26.7064 124.175 -26.7064 124.088 -26.7064ZM125.046 -25.8362L125.307 -25.9232L125.22 -26.1843L124.959 -26.0973L125.046 -25.8362ZM124.262 -27.9247C124.611 -28.1858 124.698 -27.8377 125.046 -28.0118C125.046 -28.4469 124.175 -28.3598 124.262 -27.9247ZM124.262 -28.969C124.175 -29.056 124.175 -29.056 124.262 -28.969C123.566 -29.3171 122.696 -29.4911 122.087 -29.4911C122.261 -29.056 122.087 -28.795 122.174 -28.3598C122.696 -28.1858 123.479 -28.7079 123.74 -28.969C124.088 -28.969 124.262 -28.3598 124.785 -28.4469C124.523 -28.6209 124.436 -28.795 124.262 -28.969ZM122.348 -22.7034C122.174 -23.7477 120.955 -22.9645 120.52 -23.6607C120.346 -23.3126 119.911 -23.2255 119.911 -22.7034C120.607 -22.6164 121.129 -22.2683 121.913 -22.1813C122 -22.4423 122 -22.7034 122.348 -22.7034ZM114.602 -31.4926C114.602 -31.4056 114.341 -31.2316 114.602 -31.0575C114.602 -31.2316 114.863 -31.4056 114.602 -31.4926ZM112.6 -32.4499V-32.885H112.165C112.165 -32.5369 112.252 -32.4499 112.6 -32.4499ZM111.034 -32.885C111.469 -32.7109 111.469 -33.4941 111.034 -33.3201V-32.885ZM107.552 -35.9308C107.552 -36.1048 107.639 -36.1918 107.552 -36.2789L107.117 -36.1918L107.204 -35.9308C107.378 -36.0178 107.465 -35.9308 107.552 -35.9308ZM103.114 -36.3659C103.984 -36.2789 104.942 -36.1918 105.638 -36.1048C105.377 -36.1918 105.203 -36.2789 105.029 -36.4529C103.81 -35.9308 103.636 -37.0621 102.679 -36.975C102.679 -36.888 102.679 -36.888 102.679 -36.888C102.766 -36.888 102.766 -36.801 102.853 -36.714C102.94 -36.6269 103.114 -36.6269 103.114 -36.3659ZM97.5439 -30.9705L97.805 -31.0575L97.7179 -31.3186L97.4568 -31.2316L97.5439 -30.9705ZM89.7981 -37.3231C89.7981 -37.4972 90.1462 -37.4101 90.0592 -37.7582H89.6241C89.7111 -37.5842 89.6241 -37.3231 89.7981 -37.3231ZM74.2196 -37.8453C74.3936 -37.6712 74.7418 -37.6712 74.8288 -38.0193C74.6547 -38.1933 74.2196 -38.1933 74.2196 -37.8453ZM74.4807 -37.4101C74.2196 -37.4972 73.9585 -37.3231 73.8714 -37.0621C74.0455 -37.1491 74.3066 -37.2361 74.4807 -37.3231V-37.4101ZM63.0796 -34.7125C63.1666 -34.6254 63.3407 -34.6254 63.4277 -34.6254C63.3407 -34.6254 63.2537 -34.6254 63.2537 -34.7125C63.1666 -34.7125 63.1666 -34.7125 63.0796 -34.7125ZM41.4959 -21.9202C41.583 -22.0072 41.583 -22.0943 41.67 -22.0943H41.4959V-21.9202ZM34.0983 -26.4454C34.0113 -26.3583 33.9242 -26.3583 33.8372 -26.3583V-26.1843C33.9242 -26.2713 34.0113 -26.3583 34.0983 -26.4454ZM21.914 -18.1783C21.6529 -17.5691 21.3047 -17.134 20.7826 -16.7859C21.0437 -16.7859 21.3918 -16.7859 21.6529 -16.96C22.2621 -16.0897 22.6972 -17.308 23.6546 -17.134C24.2638 -18.0042 25.2211 -18.6134 25.6563 -19.4836C25.7433 -19.6576 25.4822 -20.0057 25.9174 -20.0928C26.0044 -20.0057 26.0914 -19.9187 26.0914 -20.0928C25.8304 -20.0057 26.0044 -20.3538 26.2655 -20.6149C25.3952 -20.7019 25.4822 -20.0057 24.4379 -20.0928C23.9157 -19.2225 22.9583 -18.6134 21.914 -18.1783ZM15.3866 -10.5203C15.2126 -10.6944 14.7774 -10.6073 14.7774 -10.2593C15.1255 -10.1722 15.3866 -10.2593 15.3866 -10.5203ZM14.5163 -9.91117C14.4293 -9.73713 14.3423 -9.6501 14.3423 -9.38904H14.7774C14.7774 -9.6501 14.9515 -10.0852 14.5163 -9.91117ZM16.6921 -7.90966C15.4737 -8.08371 15.0385 -6.43029 13.9071 -6.16922C13.9071 -5.82114 13.7331 -5.56007 13.472 -5.299C13.646 -5.299 13.7331 -5.299 13.9071 -5.299C13.9071 -5.299 13.9071 -5.38602 13.9071 -5.47305C15.1255 -5.47305 14.6034 -6.77838 16.1699 -6.43029C16.344 -6.69135 16.431 -6.8654 16.518 -7.03944C16.518 -7.30051 16.518 -7.6486 16.6921 -7.90966ZM11.6443 -2.68834C11.3832 -2.94941 11.0351 -3.03643 10.5999 -3.03643V-2.5143C10.1648 -2.07919 8.94635 -1.90514 8.42416 -1.29599C8.33713 -1.12194 8.42416 -0.686832 8.16307 -0.338745C7.90198 0.0963669 7.37979 0.444454 7.1187 0.879566C7.20573 0.966587 7.29276 0.966587 7.37979 1.05361C7.29276 1.05361 7.20573 1.05361 7.1187 1.05361C7.1187 1.22765 7.1187 1.4017 7.20573 1.57574C5.9873 2.09787 7.29276 3.05511 7.37979 3.83831C8.16307 3.05511 9.03338 2.18489 9.6426 1.22765C10.1648 1.14063 9.99072 0.6185 10.687 0.531475C10.861 0.357433 10.5129 0.00934219 10.774 -0.0776787C11.9054 -0.338745 11.5573 -1.81812 12.6887 -1.47003C12.6016 -1.99216 12.5146 -2.25323 13.2109 -2.5143C13.2109 -2.60132 13.2109 -2.60132 13.2109 -2.68834L13.1238 -2.94941C12.6016 -2.94941 12.0795 -3.12345 11.6443 -2.68834ZM4.76886 49.0028C4.07261 49.1768 4.68183 49.786 4.94292 49.96C4.94292 49.873 4.94292 49.6989 4.94292 49.6119C4.94292 49.4379 4.85589 49.1768 4.76886 49.0028ZM4.76886 50.7432C4.85589 50.8302 4.94292 50.8302 4.94292 50.8302C4.85589 50.7432 4.85589 50.5692 4.76886 50.4821C4.76886 50.5692 4.76886 50.6562 4.76886 50.7432ZM5.81323 52.4837C5.90026 52.8317 5.55214 53.0058 5.7262 53.3539C5.81323 53.3539 5.9873 53.4409 6.07433 53.5279C6.94464 53.2668 6.24839 52.6577 5.81323 52.4837ZM7.03167 55.9645H6.77057C7.03167 56.3996 7.20573 56.7477 7.46682 57.0958C7.46682 56.9218 7.46682 56.7477 7.55385 56.6607C7.1187 56.6607 7.03167 56.3996 6.8576 56.1386C6.94464 56.1386 6.94464 56.0516 7.03167 55.9645ZM8.94635 59.0973C8.94635 59.3584 8.59822 59.0103 8.33713 58.4882C8.42416 58.9233 8.42416 59.2714 8.42416 59.7065C8.85932 59.9675 8.85932 59.7065 9.55556 59.7065V59.6195C9.3815 59.5324 9.12041 59.5324 9.03338 59.4454C9.03338 59.4454 8.94635 59.4454 8.85932 59.3584C8.85932 59.2714 8.94635 59.1843 8.94635 59.0973ZM33.4891 87.1184C33.4891 87.4665 33.5761 87.6405 33.7502 87.6405C33.8372 87.4665 34.0113 87.3795 33.9242 87.1184H33.4891ZM33.9242 86.8574C33.9242 86.7703 33.8372 86.7703 33.7502 86.6833C33.8372 86.7703 33.8372 86.8574 33.9242 86.8574ZM36.7092 90.1642C36.5352 89.8161 36.187 89.555 35.8389 89.468C35.9259 89.7291 35.7519 89.9902 36.013 90.3382C36.187 90.1642 36.4481 90.0772 36.7092 90.1642ZM58.2059 97.8221C58.2059 97.9962 58.1188 98.1702 58.1188 98.2573C58.7281 98.1702 59.2502 98.6053 59.6854 98.2573C59.6854 98.4313 59.7724 98.6053 59.8595 98.6924C60.2946 98.6924 60.7298 98.6924 61.252 98.6053C60.2946 98.0832 59.0762 98.1702 58.2059 97.8221ZM62.4704 97.9092C62.1223 98.1702 61.7741 98.3443 61.339 98.5183C61.6871 98.4313 62.2093 98.1702 62.4704 97.9092ZM124.175 86.7703C124.088 86.7703 124.088 86.7703 124.175 86.7703V86.7703ZM137.056 69.627C137.143 69.627 137.317 69.627 137.491 69.54C137.491 69.54 137.491 69.54 137.491 69.4529C137.404 69.4529 137.23 69.54 137.056 69.627ZM140.711 62.0561C140.537 62.1431 140.363 62.3171 140.276 62.5782C140.45 62.4042 140.624 62.2301 140.711 62.0561ZM144.28 58.4882C143.931 59.0973 143.496 59.6195 142.887 60.1416L143.757 60.2286V60.1416C144.018 59.7065 145.063 58.8363 144.28 58.4882ZM151.068 53.0058C150.285 53.0928 151.242 53.5279 151.068 53.0058V53.0058ZM151.416 44.6517C151.329 44.9127 151.59 44.9127 151.764 44.8257C151.851 44.8257 151.851 44.7387 151.851 44.7387C151.764 44.6517 151.764 44.6517 151.677 44.5646L151.416 44.6517ZM156.725 37.2548C156.725 37.1678 156.638 37.1678 156.551 37.1678C156.551 37.2548 156.638 37.2548 156.725 37.2548ZM157.421 43.4333C157.421 43.1723 157.595 42.9112 157.856 42.6502C157.769 42.5631 157.769 42.5631 157.769 42.4761C157.682 42.3891 157.508 42.3891 157.421 42.3891C157.334 42.5631 157.247 42.8242 157.16 43.0853C157.073 43.2593 157.16 43.4333 157.421 43.4333ZM157.682 29.2488C157.769 29.4228 157.769 29.5968 157.856 29.7709C157.943 29.7709 158.117 29.7709 158.204 29.7709C158.204 29.5098 158.03 29.5098 158.03 29.2488H157.682ZM113.122 -32.885C112.948 -32.4499 113.645 -32.3629 113.906 -32.7109C113.732 -32.798 113.645 -32.885 113.471 -32.972C113.471 -32.885 113.209 -32.885 113.122 -32.885ZM87.9705 -40.0208C87.8834 -40.0208 87.7094 -40.0208 87.7094 -40.0208H87.9705ZM79.9636 -39.6727C79.7025 -39.8468 79.4414 -39.9338 79.1803 -39.8468C78.8322 -39.4987 78.3971 -39.3246 77.8749 -39.3246C77.9619 -39.2376 78.136 -39.1506 78.136 -38.9765C78.4841 -39.4987 79.8766 -38.9765 79.9636 -39.6727ZM67.7793 -36.6269C67.2571 -36.3659 66.6479 -36.1918 66.1257 -36.0178C66.8219 -35.9308 67.6923 -35.7567 68.3885 -35.4086C68.5626 -35.4957 68.6496 -35.6697 68.8237 -35.7567C68.7366 -36.3659 68.2144 -36.4529 67.7793 -36.6269ZM56.9004 -33.1461C56.9004 -33.2331 56.8134 -33.4071 56.6393 -33.4941C56.2912 -33.4071 56.0301 -33.2331 55.769 -32.972C56.0301 -33.059 56.5523 -33.1461 56.9004 -33.1461ZM17.3884 -14.7844V-14.3493H17.6494C17.6494 -14.4363 17.8235 -14.5233 17.8235 -14.6104C17.6494 -14.6974 17.6494 -14.7844 17.3884 -14.7844ZM6.24839 -5.82113C6.16136 -6.0822 6.16136 -6.34327 5.81323 -6.43029C5.55214 -6.16922 5.37808 -5.82113 5.29105 -5.47305C5.55214 -5.38602 5.9873 -5.64709 6.24839 -5.82113ZM3.72449 46.8272C3.72449 46.3051 3.55043 45.7829 3.37637 45.2608C3.37637 45.4349 3.28934 45.6089 3.2023 45.6959C3.4634 46.044 3.63746 46.3921 3.72449 46.8272ZM0.15622 4.79556C0.15622 4.70854 0.15622 4.53449 0.0691893 4.44747C0.0691893 4.62151 0.0691891 4.70854 -0.0178421 4.79556C0.0691891 4.79556 0.0691893 4.79556 0.15622 4.79556ZM3.89855 47.6974C3.89855 47.9585 3.89855 48.1325 3.98558 48.3936C4.07261 48.3936 4.07261 48.4806 4.15964 48.4806C4.33371 48.2196 4.07261 47.9585 3.89855 47.6974ZM19.0419 76.3277C19.129 76.4147 19.216 76.5017 19.303 76.5888C19.5641 76.5017 19.7382 76.3277 19.7382 76.2407C19.5641 76.1536 19.303 76.2407 19.0419 76.3277ZM24.3508 81.0269C25.3952 80.9399 25.9174 81.8101 26.4396 82.7673C26.7877 83.0284 27.2229 83.2895 27.658 83.6376C27.9191 83.6376 28.0061 83.8116 28.1802 84.0727C28.3543 84.2467 28.5283 84.4207 28.7024 84.6818C29.1375 84.8559 29.4857 84.6818 29.5727 85.1169C29.6597 85.291 29.7467 85.552 29.8338 85.8131C30.0078 85.465 30.356 86.0742 30.7041 85.9871C29.2246 83.6375 28.2672 81.462 26.5266 79.6345C26.5266 79.1124 26.0044 79.1124 26.0914 78.5903C26.0044 78.4162 25.4822 78.5903 25.4822 78.3292C25.4822 77.2849 23.9157 77.1109 24.4379 76.3277L24.3508 76.2407C23.9157 76.1536 23.6546 76.1536 23.5676 75.4575H23.1324C23.0454 75.9796 22.6972 76.3277 22.9583 76.8498C22.3491 77.1109 22.2621 77.8071 22.088 78.5032C22.2621 78.4162 22.2621 78.1552 22.6102 78.1552C22.9583 79.5475 24.0897 79.6345 24.3508 81.0269ZM46.3697 90.4253L46.4567 90.5123C46.4567 90.4253 46.4567 90.4253 46.4567 90.4253H46.3697ZM105.029 95.8206C104.506 95.8206 104.506 96.0817 104.68 96.4298C104.854 96.4298 105.029 96.4298 105.203 96.3428L105.029 95.8206ZM105.986 95.6466H106.16C106.508 95.6466 106.943 95.4725 106.856 95.1245C106.421 95.1245 106.073 95.3855 105.986 95.6466ZM113.558 93.1229C113.732 93.1229 113.906 93.0359 113.993 92.9489V92.8619C113.819 92.8619 113.819 92.6878 113.732 92.5138C113.296 92.6008 113.558 92.8619 113.558 93.1229ZM137.056 -23.2255C137.143 -23.4866 136.969 -23.7477 136.708 -23.8347C136.795 -23.5736 136.882 -23.3996 137.056 -23.2255ZM110.25 -39.6727C110.076 -39.6727 109.902 -39.5857 109.815 -39.4116C109.902 -39.4116 109.902 -39.3246 109.989 -39.3246C110.076 -39.4116 110.25 -39.4987 110.25 -39.6727ZM79.6155 -44.1108L79.3544 -44.0238L79.4414 -43.7628L79.7025 -43.8498L79.6155 -44.1108ZM42.8884 -36.4529C42.8014 -36.888 42.0181 -36.714 42.1051 -36.3659C42.2792 -36.2789 42.5403 -36.3659 42.8884 -36.4529ZM20.8696 -25.6622L20.6085 -25.5751L20.6955 -25.3141L20.9566 -25.4011L20.8696 -25.6622ZM19.9123 -24.3568C19.6512 -24.2698 19.129 -24.2698 19.4771 -23.9217C19.6512 -23.9217 19.9993 -24.0087 19.9123 -24.3568ZM8.68526 -10.8684C8.16307 -10.7814 8.2501 -10.4333 7.90198 -10.6073C7.90198 -10.2593 7.81495 -9.91117 7.72791 -9.56308C7.98901 -9.73713 8.2501 -9.99819 7.98901 -10.3463C9.12041 -10.4333 8.85932 -11.5646 9.81666 -11.8257C9.55556 -11.9997 9.46853 -12.1737 9.46853 -12.3478C8.85932 -12.0867 8.59822 -11.4776 8.68526 -10.8684ZM6.68354 -8.34478C6.59651 -8.34478 6.59651 -8.25775 6.59651 -8.25775C6.59651 -8.17073 6.59651 -7.99669 6.59651 -7.90966C6.68354 -8.08371 6.68354 -8.17073 6.68354 -8.34478ZM-0.627059 5.31769C-0.71409 5.40471 -0.888152 5.40471 -1.06221 5.49173C-0.975183 6.01387 -1.06221 6.18791 -0.71409 6.536C-0.627059 6.44898 -0.540028 6.44898 -0.452997 6.36195C-0.191904 6.10089 -0.104873 5.57875 -0.365966 5.31769C-0.71409 5.31769 -0.278935 5.92685 -0.801121 5.7528C-0.71409 5.57875 -0.71409 5.49173 -0.627059 5.31769ZM-1.41034 7.92835C-1.49737 8.10239 -1.5844 8.27644 -1.49737 8.53751C-1.49737 8.36346 -1.49737 8.10239 -1.41034 7.92835ZM-3.32502 13.2367C-3.49908 13.3237 -3.76017 13.3237 -3.67314 13.4978C-3.58611 13.4978 -3.49908 13.4978 -3.49908 13.5848C-3.32502 13.4978 -3.15096 13.4107 -3.32502 13.2367ZM-3.58611 40.3006C-3.58611 40.3876 -3.49908 40.5616 -3.32502 40.6487C-3.41205 40.4746 -3.49908 40.3006 -3.58611 40.3006ZM0.417313 49.4379C0.417313 49.5249 0.417313 49.6119 0.417313 49.6119H0.504344C0.417313 49.5249 0.417313 49.5249 0.417313 49.4379ZM0.765437 52.9188C0.678406 52.4837 0.939499 52.3966 1.37465 52.3966C1.28762 52.2226 1.28762 52.1356 1.20059 51.9615C1.02653 51.9615 0.939499 51.9615 0.765437 51.9615C0.591375 52.2226 0.15622 52.8317 0.765437 52.9188ZM1.72278 62.2301H1.63575V61.9691H1.37465V62.2301H1.72278ZM1.46168 52.6577C1.37465 53.1798 1.80981 53.6149 1.98387 54.2241C2.0709 54.2241 2.0709 54.2241 2.15793 54.2241C2.15793 53.963 2.15793 53.6149 2.0709 53.3539C1.80981 53.1798 1.63575 52.9188 1.46168 52.6577ZM1.80981 54.4852V54.9203H2.24496C2.24496 54.8332 2.24496 54.7462 2.24496 54.6592C2.15793 54.4852 1.98387 54.4852 1.80981 54.4852ZM2.76715 63.7095C2.85418 63.3614 2.76715 63.1874 2.50606 63.1874C2.41903 63.4484 2.24496 63.8835 2.76715 63.7095ZM2.76715 57.2699C3.37637 57.705 3.63746 58.4882 4.15964 59.0103C4.15964 58.8363 4.24668 58.6622 4.33371 58.4882C4.33371 58.4011 4.33371 58.2271 4.24668 58.0531C4.15965 58.0531 4.15964 57.879 4.15964 57.792C3.89855 57.792 3.89855 57.966 3.63746 58.0531C3.28933 57.705 3.2023 57.2699 3.11527 56.8347C2.94121 57.0088 2.85418 57.0958 2.76715 57.2699ZM6.16136 63.2744C6.16136 63.1874 6.16136 63.0133 6.33542 62.9263C6.24839 62.9263 6.16136 62.8393 6.16136 62.8393C5.9873 62.2301 5.81323 62.1431 5.9873 61.621C5.90026 61.5339 5.81323 61.5339 5.7262 61.4469C5.55214 61.4469 5.46511 61.4469 5.29105 61.5339C5.29105 60.7507 4.68183 60.1416 4.42074 59.5324C3.98558 60.1416 4.85589 60.7507 4.5948 61.0988C3.89855 61.0988 4.68183 62.0561 4.85589 62.4912C5.63917 62.0561 5.46511 63.1874 6.16136 63.2744ZM18.0846 81.375C18.8679 80.2437 16.6921 79.6345 16.431 78.4162C16.257 78.2422 15.8218 78.1552 15.7348 77.8941C15.8218 77.372 15.1255 77.546 15.2996 76.9369C14.6034 76.7628 13.9941 76.5017 13.9941 75.7185C13.9071 75.5445 13.3849 75.7185 13.3849 75.4575C13.2109 74.5872 12.0795 74.5002 12.0795 73.456C10.9481 73.1079 10.687 72.0636 9.81666 71.5415C9.90369 72.3247 10.1648 73.0209 10.5129 73.717C12.3406 74.2392 11.1221 76.6758 13.2109 76.9369C13.1238 77.372 13.559 77.459 13.2109 77.72C14.3423 77.9811 15.2996 78.7643 15.3866 79.4605C16.7791 79.6345 17.0402 80.8528 18.0846 81.375ZM20.0863 82.7673C19.9993 83.2895 20.1733 83.5505 20.6955 83.5505C20.6085 83.2024 20.3474 82.9414 20.0863 82.7673ZM28.7894 90.2512C29.4857 90.5993 30.443 92.0787 31.2263 91.3825C30.9652 91.3825 30.7911 91.2955 30.6171 91.1214C30.6171 91.0344 30.7041 90.8604 30.7041 90.7733C30.1819 90.5993 29.4857 90.5993 29.3986 89.7291C28.8764 90.0772 28.7894 90.0772 28.3543 89.6421C28.5283 89.381 28.3543 89.381 28.8764 89.381C28.5283 88.7718 27.571 89.207 27.0488 88.9459C26.9618 88.5978 26.7877 88.2497 26.4396 88.0757C26.1785 88.1627 25.9174 88.4238 25.9174 88.7719C26.9618 88.8589 27.4839 89.294 27.4839 90.2512C28.1802 90.3382 28.3543 90.4253 28.7894 90.2512ZM35.4038 94.9504C35.4038 94.8634 35.4038 94.7764 35.4908 94.7764C35.4908 94.6023 35.4908 94.4283 35.2297 94.5153C35.3167 94.6893 35.2297 94.9504 35.4038 94.9504ZM74.0455 103.827H74.2196C74.2196 103.74 74.1325 103.653 74.1325 103.566H74.0455H73.9585L74.0455 103.827ZM83.6189 103.392L83.88 103.305C83.88 103.217 83.793 103.13 83.793 103.043L83.5319 103.13L83.6189 103.392ZM138.448 81.8971C138.884 82.1582 138.884 81.2879 138.448 81.462V81.8971ZM140.624 79.1124C140.624 79.1994 140.711 79.2864 140.885 79.2864C141.059 79.2864 141.233 79.1994 141.233 79.0254C141.146 79.0254 141.059 79.0254 140.972 78.9383C140.885 79.0254 140.711 79.0254 140.624 79.1124ZM154.636 61.9691C154.81 61.882 154.897 61.795 154.897 61.621C154.81 61.708 154.723 61.795 154.636 61.9691Z" fill="white"/>
</g>
</svg>
