<svg width="140" height="97" viewBox="0 0 140 97" fill="none" xmlns="http://www.w3.org/2000/svg">
<g id="Frame">
<g id="Mask group">
<mask id="mask0_5_1556" style="mask-type:luminance" maskUnits="userSpaceOnUse" x="0" y="0" width="139" height="97">
<g id="Group">
<g id="Group_2">
<path id="Vector" d="M105.962 7.00679C105.796 6.71047 105.796 7.20434 105.755 7.20434C106.045 7.50065 106.004 6.90802 105.962 7.00679Z" fill="white"/>
<path id="Vector_2" d="M130.818 10.3643H130.735L131.192 10.7593L130.818 10.3643Z" fill="white"/>
<path id="Vector_3" d="M132.892 15.0071C132.892 14.5133 132.726 14.1182 132.477 13.7231C132.228 13.328 132.021 12.9329 131.813 12.3403V12.0439H131.481C131.73 12.5378 132.021 13.0317 132.27 13.5255C132.519 13.9206 132.726 14.4145 132.892 15.0071Z" fill="white"/>
<path id="Vector_4" d="M133.391 20.0439C133.433 19.7476 133.682 20.439 133.184 19.3525C133.184 19.4513 133.184 19.4513 133.184 19.5501C133.308 19.6489 133.35 19.8464 133.391 20.0439Z" fill="white"/>
<path id="Vector_5" d="M133.225 18.0693C133.017 17.5755 133.308 18.5632 133.225 18.0693V18.0693Z" fill="white"/>
<path id="Vector_6" d="M134.138 22.118L133.972 21.8217C133.889 21.6242 133.806 21.5254 133.806 21.5254C133.806 21.7229 133.972 22.4143 133.889 22.3156C134.138 22.9082 134.138 22.7107 134.138 22.118Z" fill="white"/>
<path id="Vector_7" d="M134.511 22.6127L134.345 22.3164C134.345 22.3164 134.386 22.514 134.511 22.6127Z" fill="white"/>
<path id="Vector_8" d="M134.013 21.5254L134.345 22.2168C134.345 22.0193 134.428 21.9205 134.22 21.9205C134.303 21.8217 134.179 21.7229 134.013 21.5254Z" fill="white"/>
<path id="Vector_9" d="M133.93 20.8341C133.847 20.3402 133.681 19.7476 134.013 20.3402C133.515 18.9574 133.432 19.5501 133.93 20.8341Z" fill="white"/>
<path id="Vector_10" d="M133.225 14.7104L133.059 14.019L132.81 13.7227C132.934 13.9202 133.142 14.9079 133.225 14.7104Z" fill="white"/>
<path id="Vector_11" d="M135.258 27.4517C135.341 27.4517 135.341 26.9579 135.382 26.8591L135.175 26.3652C135.258 26.6616 135.341 27.353 135.258 27.4517Z" fill="white"/>
<path id="Vector_12" d="M135.424 26.8597L135.714 27.6499C135.548 26.8597 135.465 26.761 135.424 26.8597Z" fill="white"/>
<path id="Vector_13" d="M134.802 22.2174L134.221 21.1309L134.885 22.5137L134.802 22.2174Z" fill="white"/>
<path id="Vector_14" d="M136.005 31.2056L135.798 30.8105L136.171 31.502L136.005 31.2056Z" fill="white"/>
<path id="Vector_15" d="M136.42 33.7739C136.254 33.4776 136.295 34.4653 136.171 34.169C136.295 34.7616 136.461 35.2555 136.627 35.6506C136.503 35.0579 136.42 34.4653 136.42 33.7739Z" fill="white"/>
<path id="Vector_16" d="M136.005 29.4277C135.963 29.7241 135.963 30.0204 136.005 30.3167L136.088 29.8228L136.005 29.4277Z" fill="white"/>
<path id="Vector_17" d="M136.088 29.8223C136.129 30.1186 136.171 30.3161 136.212 30.6124C136.212 30.5137 136.171 30.2174 136.088 29.8223Z" fill="white"/>
<path id="Vector_18" d="M135.3 24.9824C135.507 25.3775 135.881 26.3652 135.756 25.0812C135.549 24.8836 135.632 25.5751 135.3 24.9824Z" fill="white"/>
<path id="Vector_19" d="M136.088 28.5385L136.005 28.0446C135.963 27.7483 135.922 27.5508 135.922 27.5508C135.88 27.6496 135.88 27.8471 135.756 27.6496C135.756 27.6496 135.839 27.8471 135.922 28.1434L136.088 28.5385Z" fill="white"/>
<path id="Vector_20" d="M136.254 29.0328L136.088 28.6377L136.171 29.0328H136.254Z" fill="white"/>
<path id="Vector_21" d="M136.793 34.5635C136.917 34.9586 137.042 35.4525 137.083 35.9463C137.042 35.3537 137 34.761 136.876 34.1684C136.793 34.0696 136.668 33.9709 136.793 34.5635Z" fill="white"/>
<path id="Vector_22" d="M137.623 41.9718L137.665 41.873H137.623V41.9718Z" fill="white"/>
<path id="Vector_23" d="M136.876 33.8724C136.835 33.4773 136.793 33.1809 136.669 32.9834C136.752 33.2797 136.793 33.6748 136.876 33.9711C136.876 34.0699 136.918 34.0699 136.876 33.8724Z" fill="white"/>
<path id="Vector_24" d="M137.125 38.1193C137.125 37.823 137.125 37.5266 137.125 37.3291C137.083 37.5266 137.083 38.0205 137.125 38.1193Z" fill="white"/>
<path id="Vector_25" d="M136.503 32.4893C136.461 32.588 136.461 32.588 136.503 32.4893V32.4893Z" fill="white"/>
<path id="Vector_26" d="M136.503 32.4895C136.544 32.6871 136.627 32.7859 136.71 32.9834C136.669 32.7859 136.586 32.4895 136.544 32.292C136.503 32.3908 136.503 32.3908 136.503 32.4895Z" fill="white"/>
<path id="Vector_27" d="M138.826 43.4534C138.743 43.4534 138.66 43.1571 138.577 42.6632C138.494 42.1694 138.494 41.5767 138.536 41.0829C138.328 40.0951 137.872 40.9841 137.623 41.9718C137.706 41.9718 137.748 41.9718 137.914 42.9595C137.997 42.5644 137.955 40.4902 138.162 41.3792C138.37 42.762 138.204 42.5644 138.121 43.2559C138.287 42.5644 138.494 45.0338 138.785 44.6387L138.619 43.3546C138.702 43.3546 138.785 43.7497 138.826 43.4534Z" fill="white"/>
<path id="Vector_28" d="M137.499 39.7984L137.457 39.4033C137.457 39.8972 137.457 40.4898 137.374 40.9837C137.499 41.6751 137.582 41.7739 137.623 41.7739L137.54 40.6874C137.54 40.2923 137.499 39.996 137.457 39.6009L137.499 39.7984Z" fill="white"/>
<path id="Vector_29" d="M137.25 37.231C137.457 37.4286 137.623 38.4163 137.748 37.7249C137.582 36.4408 137.499 36.9347 137.333 36.2433C137.623 38.2187 137.167 35.6507 137.25 37.231C137.208 36.8359 137.125 36.5396 137.084 36.1445C137.125 36.5396 137.125 36.8359 137.125 37.231V37.1323C137.125 37.0335 137.125 37.0335 137.125 37.1323C137.167 37.1323 137.208 37.231 137.25 37.231C137.291 37.8237 137.208 37.3298 137.167 37.231C137.167 37.231 137.167 37.231 137.125 37.231C137.167 37.5273 137.25 37.8237 137.291 38.2187L137.457 39.2065C137.374 38.5151 137.333 37.8237 137.25 37.231Z" fill="white"/>
<path id="Vector_30" d="M136.295 25.6738C136.295 25.6738 136.295 25.7726 136.254 25.7726C136.337 25.8714 136.378 25.8714 136.295 25.6738Z" fill="white"/>
<path id="Vector_31" d="M136.42 26.6622C136.296 26.5635 136.213 26.2671 136.171 26.0696C136.13 25.5757 136.254 25.9708 136.296 25.872C136.171 25.6745 135.964 25.0819 136.088 25.9708L136.13 26.0696C136.254 26.8598 136.296 28.1438 136.213 28.045C136.337 27.5512 136.42 27.1561 136.42 26.6622Z" fill="white"/>
<path id="Vector_32" d="M137.001 31.9961C137.001 31.9961 137.084 32.3912 137.167 32.7863C137.25 33.1814 137.333 33.5765 137.333 33.5765V32.5887L137.25 32.6875C137.167 31.6998 137.084 32.0949 137.001 31.9961Z" fill="white"/>
<path id="Vector_33" d="M137.54 42.2679L137.333 42.0703L137.499 42.4654C137.582 42.6629 137.665 42.9593 137.665 42.9593C137.665 42.8605 137.623 42.6629 137.623 42.5642L137.54 42.2679Z" fill="white"/>
<path id="Vector_34" d="M137.665 44.6387H137.499L137.624 45.2313L137.665 44.6387Z" fill="white"/>
<path id="Vector_35" d="M3.46872 69.8258L3.30273 69.4307C3.34423 69.6282 3.42722 69.727 3.46872 69.8258Z" fill="white"/>
<path id="Vector_36" d="M4.50651 73.4803H4.5895C4.50651 73.3816 4.46502 73.3816 4.50651 73.4803Z" fill="white"/>
<path id="Vector_37" d="M97.746 89.6793C97.414 89.4817 96.999 89.1854 97.082 89.5805L97.2065 89.9756C97.3725 89.778 97.58 89.6793 97.746 89.6793Z" fill="white"/>
<path id="Vector_38" d="M48.6162 90.7656L48.6577 90.9632L48.9067 90.7656H48.6162Z" fill="white"/>
<path id="Vector_39" d="M46.4584 92.2469L46.085 91.6543C46.2094 91.8518 46.3339 92.0494 46.4584 92.2469Z" fill="white"/>
<path id="Vector_40" d="M1.0209 46.416L0.854922 45.7246C0.813427 46.7123 0.937912 46.3172 1.0209 46.416Z" fill="white"/>
<path id="Vector_41" d="M135.922 68.7393C135.756 69.1343 135.631 69.5294 135.507 70.0233C135.756 69.4307 136.005 69.1343 135.922 68.7393Z" fill="white"/>
<path id="Vector_42" d="M5.37837 68.542C5.29538 68.3444 5.21239 68.2456 5.1709 68.3444C5.29538 68.542 5.37837 68.6407 5.37837 68.542Z" fill="white"/>
<path id="Vector_43" d="M135.092 71.7023C135.133 71.6035 135.175 71.5047 135.216 71.5047C135.299 71.0109 135.382 70.6158 135.507 70.2207C135.299 70.517 135.175 71.1097 135.092 71.7023Z" fill="white"/>
<path id="Vector_44" d="M78.5342 0.68457C78.5757 0.68457 78.5757 0.68457 78.6172 0.783343C78.6172 0.68457 78.5757 0.68457 78.5342 0.68457Z" fill="white"/>
<path id="Vector_45" d="M106.418 7.20424C106.335 7.20424 106.169 7.10547 106.045 7.10547C106.169 7.20424 106.294 7.20424 106.418 7.20424Z" fill="white"/>
<path id="Vector_46" d="M137.54 54.3183C137.498 54.2196 137.54 53.8245 137.54 54.3183V54.3183Z" fill="white"/>
<path id="Vector_47" d="M137.54 53.627L137.582 53.2319C137.582 53.1331 137.54 53.2319 137.54 53.627Z" fill="white"/>
<path id="Vector_48" d="M137.499 55.0099C137.499 54.7136 137.541 54.516 137.541 54.2197C137.541 54.3185 137.499 54.3185 137.499 54.3185C137.499 54.516 137.499 54.7136 137.499 55.0099Z" fill="white"/>
<path id="Vector_49" d="M9.44434 12.6361H9.48583C9.61032 12.1423 9.52733 12.241 9.44434 12.6361Z" fill="white"/>
<path id="Vector_50" d="M81.0654 96.3958C81.2729 96.0007 81.5634 95.8032 81.8538 96.0007L81.5634 94.8154L81.0654 96.3958Z" fill="white"/>
<path id="Vector_51" d="M3.26171 60.2446C3.26171 60.7385 3.30321 61.2324 3.3447 61.825C2.84676 61.3311 2.39031 60.7385 1.97536 60.0471C1.76788 59.7508 1.6434 59.7508 1.56041 60.5409C2.39031 60.4422 2.97124 61.825 3.59367 63.2078C4.2576 64.5906 5.04601 65.8747 5.83441 65.6771C5.87591 65.9734 5.9589 66.3685 6.04189 66.6648C5.9174 66.2697 5.83441 66.2697 5.66843 65.9734C5.83441 66.9611 6.29086 67.1587 6.87179 67.3562C7.53572 67.5538 8.15815 68.0476 8.73908 68.8378C9.15403 69.628 9.32001 70.2206 8.78057 69.8255C8.78057 69.8255 9.15403 70.2206 9.56898 70.517L10.3989 71.2084C10.7308 71.7022 10.3989 71.7022 10.0669 71.2084L11.1043 72.2949C11.6437 72.8875 12.2247 73.3813 12.2247 73.3813H12.1832C12.6811 73.5789 13.677 74.0728 14.175 74.2703C14.5484 74.9617 13.76 74.0728 13.76 74.3691L15.2953 75.258C15.5028 75.9494 14.1335 75.258 13.3036 74.4678C13.2621 75.4556 13.594 75.6531 14.175 75.9494C15.0049 76.3445 15.8348 77.0359 16.5817 78.0237L15.1708 77.1347C15.3368 78.32 16.5402 79.0114 17.6605 80.493C17.4531 79.9991 15.7103 77.2335 17.4946 78.2212C18.0755 78.9126 18.7394 79.3077 19.4033 79.5052C19.0299 79.9003 19.9013 80.3942 20.9802 81.0856L20.3992 81.5795C21.6856 82.1721 21.8516 81.8758 22.723 82.0733C23.9678 82.9623 23.8848 83.4561 23.8848 84.0488C25.9181 85.4316 23.0134 82.4684 25.5861 83.8512C26.3745 84.4439 27.2044 84.8389 27.9929 85.234C28.8643 85.6291 29.8186 85.8267 31.022 86.2218C32.1839 87.0119 30.5656 86.5181 30.8975 86.8144L32.3498 86.9132C32.6403 87.0119 32.4328 87.1107 32.3498 87.2095C33.4287 87.5058 32.8063 86.6168 34.4246 87.2095C35.213 86.7156 37.0388 89.4812 39.404 89.3825C39.7775 89.7776 38.9891 89.6788 38.9891 89.9751C41.9352 90.3702 41.4788 90.469 44.01 90.469L44.8814 90.9628L45.7528 91.4567C44.5494 90.5677 46.5827 90.5677 48.284 90.469C47.8691 90.0739 47.5371 89.7776 47.2881 89.58C47.2881 89.58 47.952 89.6788 48.5745 89.7776L49.8608 89.9751C50.1098 90.1727 49.7778 90.2714 49.2799 90.469C49.4874 90.469 49.6534 90.469 49.7778 90.469C50.5662 90.9628 49.9853 91.1604 49.2384 91.3579C48.9894 91.1604 48.7405 90.9628 48.4915 90.7653C47.7446 90.9628 46.9977 91.2591 46.9562 91.6542C47.2466 91.6542 47.5371 91.6542 47.8691 91.6542C47.6616 91.753 47.5371 91.753 47.5786 91.8518C47.8691 91.9506 48.1595 91.8518 48.45 91.8518L48.782 92.7407L49.0309 92.4444C49.0309 92.4444 49.8193 92.7407 50.6492 93.037C51.4791 93.3334 52.2675 93.6297 52.2675 93.6297C54.9232 93.4321 57.2885 92.7407 61.189 93.037C60.1101 93.4321 60.8156 93.926 60.6081 94.5186C59.6952 93.7285 57.5374 94.3211 55.5457 93.8272C56.5831 94.1235 56.2511 94.3211 55.9606 94.4199C55.9606 94.4199 56.915 94.4199 57.8279 94.4199C58.7408 94.4199 59.6952 94.4199 59.6952 94.4199C59.4877 94.9137 60.3591 94.9137 61.272 95.3088C60.7741 94.2223 64.0937 95.0125 65.629 94.8149C65.6705 95.21 65.2556 95.5064 63.4713 95.21C65.3385 96.1978 66.2099 94.3211 68.0772 95.1113C67.7868 95.0125 67.4963 95.0125 67.2058 95.21C68.2847 95.0125 70.7329 95.4076 70.152 95.7039H69.6955C71.1479 95.9015 73.3886 96.0002 75.3389 95.9014C77.2477 95.8027 78.866 95.5064 79.0735 95.1113C79.115 95.21 78.7 96.1978 78.534 96.3953L79.3639 95.9014L81.1067 94.8149C81.7291 94.4199 82.3516 94.0248 82.808 93.7285L83.5549 93.2346C83.14 94.0248 85.0903 95.7039 82.6835 96.2965C83.7209 96.3953 84.7168 96.3953 85.7542 96.099C85.2562 96.0002 84.4678 95.1113 85.0903 95.0125C86.9576 95.7039 86.3766 95.4076 88.6588 95.9014C87.9119 95.8027 88.5344 94.5186 89.6547 94.4199C89.5303 94.6174 89.9452 95.6051 89.5717 95.8027L90.8581 95.0125C91.522 94.6174 92.1444 94.2223 92.1444 94.2223C91.4805 94.5186 92.2274 95.21 92.9329 95.4076C92.6009 95.21 95.3811 95.0125 96.0865 94.8149H94.8416C98.0368 94.4199 97.4558 92.642 100.443 91.9506C100.153 92.2469 100.029 93.6297 101.647 93.3334C101.896 92.9383 102.435 92.0493 103.141 91.0616C104.012 89.8763 104.925 88.9874 105.879 88.3948L106.502 88.5923L107.332 88.0984C107.747 87.8021 108.162 87.6046 108.162 87.6046C107.498 88.6911 106.834 89.58 106.087 90.3702C105.132 91.4567 104.178 92.3456 103.182 93.1358C104.427 93.037 103.68 93.4321 105.34 92.8395C106.087 92.9383 104.593 93.6297 104.095 93.7285L106.17 93.2346C107.207 93.037 108.203 92.642 108.203 92.642C107.954 92.3456 108.618 91.9506 109.282 91.4567C109.946 90.9628 110.61 90.5677 110.402 90.3702C110.402 90.3702 109.489 90.9628 108.494 91.4567L107.166 91.9506C106.792 92.1481 106.543 92.2469 106.543 92.2469C106.294 91.9506 106.709 91.2591 107.498 90.5677C107.954 90.1726 108.452 89.7776 108.95 89.4812C109.572 89.0862 110.153 88.7898 110.776 88.5923C111.606 88.5923 110.942 89.8763 111.108 90.0739C111.523 89.6788 111.938 89.3825 112.394 89.1849C112.851 88.8886 113.266 88.6911 113.722 88.5923L112.809 89.4812C114.469 88.9874 114.676 87.6046 116.751 87.2095C117.374 86.9132 119.075 87.0119 118.909 86.6168C117.415 86.5181 115.631 84.5426 115.797 83.6537L117.623 83.1598C118.535 82.9623 119.49 82.5672 119.946 82.5672C121.274 82.4684 119.739 84.6414 120.901 84.5426C120.776 84.3451 121.108 83.8512 121.233 83.6537C121.938 83.3574 121.44 84.2463 122.602 83.3574C122.228 82.666 125.009 81.5795 122.685 82.4684C123.639 81.4807 124.054 81.6782 125.258 80.5917C124.469 80.5917 125.092 78.6163 125.797 77.5298C126.046 77.6286 126.295 77.7273 126.544 77.6286C127.042 77.1347 127.54 76.7396 127.955 76.3445C128.37 75.9494 128.743 75.5543 129.117 75.258C129.905 74.5666 130.652 73.7764 131.357 72.7887C131.689 72.6899 132.602 71.801 132.644 72.3936C132.685 71.801 132.851 71.2084 133.059 70.912C134.553 69.9243 132.187 72.3936 133.598 71.801C133.225 71.5047 134.179 69.8255 134.387 68.7391C133.972 68.8378 133.598 69.2329 133.308 69.9243C133.017 70.517 132.768 71.2084 132.561 71.8998C132.104 71.7022 131.897 71.0108 131.938 70.2206C132.021 69.0354 132.229 68.0476 132.561 67.0599C133.266 65.1833 133.598 66.5661 133.598 66.171C134.47 64.4918 134.387 63.6029 134.262 62.9115C134.138 62.2201 134.138 61.5287 134.885 60.1459C135.88 59.1581 136.212 60.3434 136.752 60.2446C136.544 61.825 135.507 62.5164 135.175 63.5041L135.963 62.3188C135.922 63.2078 135.673 63.998 135.341 64.3931C135.631 64.0967 135.922 63.6029 136.171 63.109C136.503 62.4176 136.793 61.6274 137.084 60.8373C137.665 59.0594 138.163 57.0839 138.702 55.7011C138.578 55.2072 138.453 54.2195 138.121 54.6146L138.08 55.5036C137.416 56.2937 137.623 53.7257 137.167 54.8122C137.001 53.6269 136.544 52.2441 136.959 50.5649L137.748 50.2686C137.54 50.2686 137.208 51.3551 137.416 51.849C137.167 51.1576 138.578 49.2809 137.582 48.4907L137.042 49.676C136.835 49.0834 136.586 48.3919 136.337 47.7005C136.088 47.2067 135.922 46.4165 135.963 45.6263C135.258 46.3177 136.088 45.9226 135.258 47.0091C135.756 46.5153 135.839 47.503 135.839 48.2932C135.839 49.0834 135.797 49.9723 136.378 49.1821C135.341 50.1698 135.88 50.96 134.885 52.3428C135.133 52.3428 135.424 51.849 135.175 53.133C135.258 53.2318 135.299 53.3306 135.341 53.4293C135.382 53.5281 135.382 53.5281 135.341 53.4293C135.465 53.133 135.631 52.9355 135.797 52.8367C136.337 53.5281 135.963 55.4048 136.171 56.0962C135.88 56.7876 135.963 55.7999 135.59 56.0962L135.797 57.0839C135.216 57.0839 134.47 58.763 134.511 57.0839L134.345 57.7753C134.304 58.0716 134.221 58.2692 134.138 58.4667C133.64 59.0594 133.266 59.9483 133.059 61.1336C132.685 61.7262 132.976 63.0103 132.81 62.3188C132.81 62.3188 132.768 62.4176 132.727 62.7139C132.685 63.0103 132.602 63.3066 132.519 63.5041L132.146 64.6894H132.021C131.523 65.7759 131.067 66.9612 130.569 68.1464C129.781 69.628 128.909 70.7145 127.955 71.3071C127.747 71.7022 127.581 71.9985 127.332 72.4924C126.959 72.9863 126.544 73.4801 126.129 73.7764H125.548C125.05 74.3691 124.552 74.8629 124.054 75.258C123.473 75.7519 122.975 76.147 123.017 76.4433C122.062 76.4433 121.108 77.3322 120.029 78.2212L118.411 79.604C117.871 79.9991 117.374 80.3942 116.917 80.5917L117.249 81.0856C116.668 81.4807 116.087 81.777 115.548 82.2709C115.008 82.7647 114.386 83.1598 113.68 83.6537L114.054 84.0488C113.224 84.6414 112.394 85.1353 111.523 85.3328L109.863 85.8267C109.282 86.0242 108.701 86.2218 108.162 86.4193C108.535 86.123 108.909 85.9254 109.282 85.9254C108.535 85.9254 107.788 86.123 107.041 86.4193C106.336 86.7156 105.672 87.0119 105.008 87.407C103.68 88.1972 102.269 88.6911 100.9 88.7898C100.402 89.0862 99.8626 89.1849 99.3231 89.1849C99.3646 89.1849 99.4061 89.1849 99.4891 89.0862C99.4061 89.0862 99.3231 89.0862 99.2401 89.1849C98.9082 89.1849 98.5762 89.1849 98.2442 89.1849C98.5347 89.1849 98.8667 89.2837 99.0742 89.2837C98.5762 89.3825 97.8293 89.6788 97.1239 89.8763L96.6674 89.4812L96.5014 89.58C95.713 89.58 95.962 89.9751 96.4599 90.2714C96.128 90.3702 95.8375 90.5677 95.5471 90.7653C94.7171 90.0739 93.5968 91.4567 92.5594 90.6665C91.854 91.0616 91.1486 91.2591 90.4431 91.4567C89.4888 91.753 88.5759 92.0493 88.4514 92.4444C88.4099 92.3456 88.1609 92.3456 88.5759 92.2469C87.746 92.1481 86.8746 92.2469 86.0447 92.5432L85.5882 91.9506C85.5882 91.9506 85.1318 92.2469 84.6753 92.4444L83.7624 92.9383C82.5591 92.642 82.0611 92.4444 83.1815 91.8518C80.4428 92.7407 80.9407 92.2469 78.5755 93.037L78.7 92.642C77.8286 92.642 76.4593 93.2346 75.9613 92.8395C75.0069 92.4444 72.6417 92.3456 69.903 92.1481C67.1643 91.9505 64.0937 91.5555 61.7285 90.8641C62.3924 92.2469 59.6122 89.9751 59.1973 90.8641C58.9898 90.5677 58.3673 90.2714 59.1973 90.1726C56.666 90.0739 55.6702 89.0862 53.8029 89.4812C53.5954 89.1849 54.4253 89.1849 54.2593 88.9874C53.9274 89.0862 53.5539 88.9874 53.2219 88.8886C53.0145 88.6911 53.6369 88.6911 54.0518 88.6911C51.6036 88.1972 51.0642 88.9874 50.6077 89.7776C49.6948 89.0862 48.699 88.8886 47.7446 89.2837C47.4126 88.8886 46.8317 88.3948 48.367 88.7898C47.5371 88.4935 43.3876 86.9132 43.0141 87.5058C42.5577 87.2095 42.1012 87.1107 41.6033 87.1107C39.7775 86.4193 39.6115 86.3205 37.8272 85.6291L38.2837 85.9254C37.1633 86.3205 36.7068 85.5303 35.213 84.9377L35.296 84.8389C32.3913 82.8635 33.7192 84.4439 31.022 82.3696L30.8975 82.8635C30.3996 83.2586 29.8186 82.7647 29.1132 82.0733C28.3248 81.1844 27.4949 80.5917 26.6235 80.1966L27.0385 80.7893C26.5405 80.6905 26.0426 80.0979 25.7106 79.2089C25.4616 78.4187 25.1297 77.8261 24.7562 77.3322C24.6317 77.1347 25.1712 77.431 25.5031 77.5298C23.7188 75.5543 24.6732 77.9249 22.8889 76.8384C22.8474 76.3445 23.9678 76.4433 22.9304 75.5543C22.7645 75.258 21.7686 74.8629 20.6897 74.3691C19.6108 73.8752 18.4905 73.085 18.117 72.2949C18.1585 72.7887 18.2415 73.1838 17.3701 72.6899C16.2082 71.801 15.6688 69.3317 14.0505 68.9366C14.009 68.739 14.0505 68.6403 14.092 68.6403C13.1791 67.9489 11.6437 66.171 10.8553 65.7759C11.1873 65.3808 11.0628 64.8869 10.7723 64.2943C10.3989 63.6029 9.98393 63.0103 9.56898 62.5164C8.65609 61.3311 7.90917 60.0471 8.82207 59.8495C8.73908 59.7508 8.69758 59.5532 8.61459 59.4544C8.5316 59.1581 8.40712 58.8618 8.28263 58.4667L7.95067 57.479C7.90917 57.3802 7.82618 57.1827 7.78469 56.9851H7.99217C7.7017 55.1085 7.12077 54.5158 6.62282 53.8244C6.70581 53.3306 6.91329 53.7257 7.03778 53.7257C7.03778 53.0342 7.03778 52.4416 7.03778 52.0465C7.07927 51.6514 7.03778 51.2563 6.99628 50.8613C6.91329 50.4662 6.8303 50.0711 6.70581 49.7748C6.58133 49.3797 6.45684 48.8858 6.24937 48.2932L6.87179 48.0956C6.7888 47.8981 6.8303 47.6018 6.91329 47.1079C7.03778 46.614 7.24525 46.1202 7.41123 45.4288C7.57721 44.8361 7.86768 44.1447 8.03366 43.3546C8.11665 43.0582 8.19964 42.6632 8.24114 42.2681C8.32413 41.9717 8.36562 41.5767 8.40712 41.1816C8.44861 41.1816 8.5731 41.2803 8.5731 41.5767C8.65609 39.9963 9.73496 38.2184 10.6894 36.8356C11.6022 35.354 12.3492 34.1687 11.6437 33.2798L11.7267 32.9835C11.8097 32.6871 11.8512 32.4896 11.9342 32.2921L12.3077 31.3043C10.5649 33.6749 11.6852 30.5142 10.6894 31.4031C11.2288 30.4154 12.9301 29.2301 12.2247 30.4154L12.0172 30.5142C12.6811 31.4031 14.5069 27.7485 15.1293 28.2424C17.1211 25.8719 19.1959 23.8964 21.3121 22.316C23.5944 20.5381 26.0426 19.0566 28.4493 17.575L27.9099 17.4762L27.2874 16.8836C27.2874 16.8836 27.7024 16.5873 28.1588 16.3897L29.0302 15.8958C29.6112 15.7971 30.0261 15.9946 28.7813 16.686C29.6942 16.686 30.5656 15.2044 30.5241 15.0069C33.1798 14.0192 30.1506 16.2909 30.8975 15.8958L31.8934 15.3032H31.6029C32.2254 14.6118 32.0594 14.2167 33.6777 13.5253C34.7566 13.229 34.4661 13.7229 34.8811 13.5253C34.9226 13.5253 35.047 13.5253 35.5035 13.229C35.5035 13.229 36.0844 12.9327 36.6654 12.7351L37.8687 12.2413L36.6239 12.1425C37.4953 11.4511 38.8646 11.2535 37.4123 11.056C38.4911 11.1548 40.7734 10.3646 43.0141 9.67319C45.2549 8.98178 47.4126 8.29038 47.9935 8.29038C49.6119 7.40142 51.3132 6.90756 52.973 6.71002C52.4335 6.71002 51.9356 6.11738 53.6784 5.82107C53.4294 7.30265 56.998 5.82107 58.5748 6.61124C57.2055 6.11738 63.4298 5.82107 61.3135 5.12966C62.7658 5.03089 61.4795 5.62352 62.6414 5.82107C66.0025 4.93212 70.2765 5.52475 74.509 5.22843C74.592 5.03089 73.8451 4.73457 74.7579 4.43825L77.0402 5.3272C77.8701 5.22843 77.8286 4.24071 79.3639 4.93212C79.1564 4.73457 78.8245 4.53703 79.4054 4.43825C83.5964 4.93212 87.9119 5.03089 92.2689 5.3272C96.5429 5.52475 100.817 6.21616 105.049 7.59897C103.971 7.10511 104.759 7.20388 105.63 7.30265C105.091 7.10511 105.755 6.80879 105.672 6.61124L109.074 7.79651C109.863 7.20388 112.892 8.38915 113.431 7.79651L112.27 7.69774C113.971 7.20388 110.568 5.62352 110.983 4.73457C109.116 5.3272 106.751 2.75912 103.722 3.64807C103.141 3.35176 104.303 3.45053 104.012 3.15421C102.933 3.45053 101.854 3.45053 100.775 3.05544L100.983 2.95667C96.46 2.56158 94.6342 1.87017 89.5303 1.17877L89.8622 1.67263C89.2398 1.57386 88.6588 1.47508 88.0364 1.17877C86.7086 1.87017 91.1071 1.47508 89.8622 2.16649C88.4929 1.37631 82.1441 2.06772 81.1897 0.981221C79.4884 0.981221 81.6462 1.57386 79.9864 1.47508L79.5299 1.17877L79.0735 1.57386C77.9531 1.47508 77.4137 1.07999 77.3722 0.783677C77.6626 0.783677 78.1606 0.684904 78.451 0.684904C76.9987 0.289815 74.343 0.783677 73.8451 0.684904L75.5049 0.882449C70.8574 1.17877 65.1311 1.07999 60.7326 2.36403L61.106 2.56158C57.7864 3.45053 58.3259 2.66035 54.6743 3.45053L54.7988 3.35176C53.9274 3.74685 53.056 4.04316 52.1431 4.24071C52.973 3.74685 50.2343 4.14194 51.3547 3.5493C47.8691 4.83334 49.6534 4.24071 47.6201 5.72229L46.9977 5.42598C46.2093 6.11738 45.4208 6.61125 44.5909 6.80879C45.9188 6.01861 43.2216 6.61124 44.6739 5.72229C43.1801 5.82107 41.7278 6.21616 40.2754 7.10511C39.321 7.69774 38.2837 7.99406 37.2878 7.79651C36.2089 9.2781 40.7319 7.10511 39.9435 7.69774C40.8979 7.69774 38.9476 8.88301 37.7857 9.2781C37.0803 9.37687 36.3749 9.47564 35.6695 9.37687C34.5491 9.37687 33.3872 9.57442 32.3084 10.167C32.5988 10.0683 32.5573 9.96951 32.8478 9.87073C31.6444 9.96951 30.9805 10.9572 29.4452 11.2535C29.1547 12.1425 27.7854 12.0437 28.1173 12.8339L30.4826 11.3523C29.8601 11.8462 29.3622 12.4388 28.6983 13.0314C27.8269 13.8216 26.914 14.4143 26.0011 14.7106C26.2916 14.2167 26.6235 13.8216 26.9555 13.5253C26.1256 13.7229 25.7936 14.4143 24.9637 14.6118C24.7562 14.2167 25.4202 13.7229 26.333 13.229C27.2044 12.7351 28.0343 12.1425 28.8643 11.4511C27.8684 11.5499 26.416 13.5253 26.582 12.34C26.416 13.1302 25.7521 13.4265 24.9637 13.8216C24.2168 14.2167 23.3039 14.7106 22.7645 15.5995L22.5155 15.2044C22.1835 15.6983 21.8101 16.0934 21.4366 16.3897L21.8101 15.3032C20.8557 16.686 18.7809 16.7848 17.785 18.0688C20.3992 15.9946 18.8639 18.0688 20.2332 17.4762C17.6191 20.5381 17.2456 17.9701 14.092 21.2296C14.4239 20.7357 16.0837 19.8467 15.5443 20.6369C14.7974 21.2296 14.009 21.7234 13.2206 22.1185C11.2288 24.3903 14.009 22.1185 13.428 23.205C12.1417 23.6001 12.6811 24.489 12.0587 25.4768L11.5608 25.1804C9.15403 27.6498 12.0587 26.4645 9.85945 28.6375C9.85945 28.4399 9.85945 28.1436 9.85945 27.9461C9.85945 27.6498 9.90094 27.2547 9.90094 27.2547L9.52749 27.9461C9.403 28.1436 9.27852 28.3412 9.19553 28.6375L8.78057 28.0448C8.32413 29.724 7.82618 30.0203 6.87179 31.4031C7.45273 31.2056 7.74319 31.9957 7.07927 33.2798C6.29086 34.07 6.7888 32.5884 6.00039 34.465C5.87591 33.9712 5.58544 33.2798 6.53983 32.6871C6.41535 32.5884 6.41535 32.1933 6.29086 31.9957C5.33647 32.7859 5.00451 34.3663 4.67255 35.0577C4.83853 34.7614 4.96301 34.5638 5.17049 34.3663C5.17049 34.3663 5.04601 35.0577 4.92152 35.8479C4.83853 36.5393 4.79703 37.3294 4.79703 37.3294C4.42358 37.7245 4.38208 37.3294 4.34059 36.9344C4.17461 37.527 4.29909 37.9221 4.05012 38.811C3.63517 38.5147 3.13723 38.4159 3.3862 37.2307C3.30321 37.7245 3.22022 38.1196 3.13723 38.6135C3.05424 39.3049 2.97124 39.9963 2.97124 39.9963C2.72227 40.0951 1.97536 41.2803 1.89237 40.8852C1.56041 41.5767 1.6019 42.5644 1.56041 43.6509C1.6019 44.4411 1.68489 45.5275 1.35293 46.5153C1.47742 46.7128 1.56041 47.0091 1.56041 47.3055C1.31144 49.1821 0.689008 50.96 1.6019 53.2318L0.896484 54.6146C1.35293 56.3925 1.72639 52.7379 2.5148 55.7011C3.22022 57.6765 1.93386 56.5901 1.85087 57.3802C2.18284 57.7753 2.72227 58.368 3.17872 59.1581C3.3862 59.4544 3.55218 59.9483 3.71816 60.4422C3.88414 60.8373 3.96713 61.3311 4.00862 61.825C3.71816 61.4299 3.46919 60.8373 3.26171 60.2446ZM17.4531 78.2212C16.9966 78.0237 16.0422 77.6286 16.0007 77.2335C16.4987 77.0359 17.0381 77.431 17.4531 78.2212ZM51.4376 92.1481C50.9397 92.1481 50.4833 92.0493 49.9853 91.6542C50.4833 91.753 50.9812 91.8518 51.4376 92.1481ZM134.221 59.9483C133.764 60.7385 133.93 60.4422 134.221 59.9483V59.9483ZM134.967 58.2692C134.926 58.0716 134.843 58.0716 134.76 58.1704C134.885 58.2692 134.802 58.6643 134.594 59.1581C134.802 59.0594 134.967 58.8618 134.967 58.2692ZM34.9641 13.4265L34.5491 13.5253C35.296 12.9327 35.13 13.229 34.9641 13.4265Z" fill="white"/>
<path id="Vector_52" d="M47.039 92.0492C46.9975 91.9505 46.9976 91.8517 46.9976 91.7529C46.9561 91.7529 46.9146 91.8517 47.039 92.0492Z" fill="white"/>
<path id="Vector_53" d="M1.062 46.5148C1.062 46.416 1.062 46.416 1.02051 46.416L1.062 46.5148Z" fill="white"/>
<path id="Vector_54" d="M133.225 85.2344C133.142 85.3331 133.018 85.4319 132.935 85.5307C132.935 85.5307 133.018 85.5307 133.225 85.2344Z" fill="white"/>
<path id="Vector_55" d="M137.582 49.083L137.624 50.0707C137.624 49.7744 137.624 49.4781 137.707 49.1818C137.665 49.1818 137.582 49.3793 137.582 49.083Z" fill="white"/>
<path id="Vector_56" d="M138.37 38.9099C138.329 38.8111 138.329 38.6136 138.287 38.416L138.204 38.5148C138.287 39.2062 138.412 39.6013 138.37 38.9099Z" fill="white"/>
<path id="Vector_57" d="M138.245 47.8976C138.411 47.7988 138.328 47.1074 138.287 46.416V46.5148C138.038 46.416 138.162 47.1074 138.245 47.8976Z" fill="white"/>
<path id="Vector_58" d="M138.287 46.1201C138.287 45.9226 138.287 45.6263 138.287 45.4287C138.163 45.4287 138.246 45.725 138.287 46.1201Z" fill="white"/>
<path id="Vector_59" d="M137.581 56.096C137.664 55.7997 137.374 55.7997 137.457 55.6022C137.291 55.1083 137.54 57.9727 137.581 56.096Z" fill="white"/>
<path id="Vector_60" d="M138.785 47.3057L138.577 47.602L138.743 47.9971L138.785 47.3057Z" fill="white"/>
<path id="Vector_61" d="M138.536 53.7257C138.536 53.7257 138.578 53.4294 138.578 53.1331L138.619 52.5405C138.578 52.5405 138.578 52.4417 138.578 52.2441C138.536 52.9355 138.453 53.7257 138.536 53.7257Z" fill="white"/>
<path id="Vector_62" d="M138.578 52.0463C138.619 51.75 138.578 51.3549 138.578 51.0586C138.537 51.4537 138.537 51.75 138.578 52.0463Z" fill="white"/>
<path id="Vector_63" d="M138.827 49.1816L138.785 49.5767V50.4657L138.827 49.1816Z" fill="white"/>
<path id="Vector_64" d="M137.042 67.3562L136.876 68.6402C136.917 68.8378 137 68.5414 137.083 68.0476C137.083 67.6525 137.166 67.2574 137.042 67.3562Z" fill="white"/>
<path id="Vector_65" d="M138.205 63.7021C138.122 63.9985 138.08 63.9985 137.997 64.196L138.246 64.3936L138.205 63.7021Z" fill="white"/>
<path id="Vector_66" d="M137.664 67.8504C137.706 68.048 137.498 69.8259 137.789 68.2455C137.747 68.048 137.913 66.7639 137.664 67.8504Z" fill="white"/>
<path id="Vector_67" d="M132.063 85.2338L132.187 85.0363L131.938 84.2461L132.063 85.2338Z" fill="white"/>
<path id="Vector_68" d="M99.3641 94.8149C100.07 94.6173 99.4471 94.1235 100.111 94.0247C100.236 93.7284 99.5716 94.1235 99.7376 93.8271C99.3226 94.321 99.0737 94.321 99.3641 94.8149Z" fill="white"/>
<path id="Vector_69" d="M99.6553 93.8276C99.7383 93.7288 99.7798 93.63 99.8627 93.5312C99.7798 93.63 99.6968 93.7288 99.6553 93.8276Z" fill="white"/>
<path id="Vector_70" d="M113.515 8.38881L113.93 8.7839L113.681 8.29004L113.515 8.38881Z" fill="white"/>
<path id="Vector_71" d="M130.61 8.09277L130.652 8.78418L130.942 8.38909C130.859 8.29032 130.693 8.29032 130.61 8.09277Z" fill="white"/>
<path id="Vector_72" d="M6.91305 82.4681L6.99604 82.3693C6.99604 82.1717 6.91305 81.9742 6.74707 81.5791L6.91305 82.4681Z" fill="white"/>
<path id="Vector_73" d="M2.97168 68.9371L3.01317 69.2334L3.09617 68.542L2.97168 68.9371Z" fill="white"/>
<path id="Vector_74" d="M0.813477 56.4912C0.854972 56.9851 0.937962 57.5777 0.979457 58.1703C0.813477 56.9851 1.10394 56.1949 0.813477 56.4912Z" fill="white"/>
</g>
</g>
</mask>
<g mask="url(#mask0_5_1556)">
<g id="Group_3">
<g id="Group_4">
<path id="Vector_75" d="M114.345 6.70961C113.515 6.80838 112.685 6.80838 111.855 6.51207C107.622 5.3268 104.925 6.31452 101.191 5.12926C98.6594 4.33908 94.6344 4.2403 92.1032 3.5489C85.132 1.47468 78.2023 2.85749 71.1896 3.25258C67.953 3.45013 64.8823 4.83294 61.6457 4.63539C53.4297 4.14153 45.0476 7.89488 36.9561 11.2531C24.8395 16.3893 7.9924 27.1555 3.92587 44.0456C3.6354 51.1572 3.55241 51.8486 4.75577 57.0835C6.12511 63.0099 7.03801 63.4049 7.90941 64.3927C11.8929 69.2325 15.6275 76.2453 20.0675 77.7269C22.1008 78.4183 24.134 80.8876 26.1673 81.6778C31.4787 83.752 36.7901 88.3943 42.06 88.4931C43.9687 88.4931 45.0891 88.1968 46.9149 89.4808C48.5332 90.6661 50.11 89.2833 51.7284 90.3698C53.0562 91.2587 54.467 90.1722 55.8364 90.1722C58.0356 90.1722 61.3552 92.8391 63.5545 93.1354C69.7788 93.8268 71.3556 94.8145 76.169 93.4317C81.7709 91.8514 87.7047 92.5428 93.2651 90.9624C96.0037 90.1722 98.7009 89.4808 101.44 88.6907C108.701 86.6164 116.17 84.4434 122.727 76.838C124.013 75.3564 125.59 73.5785 126.835 75.2576C127.499 74.4674 128.246 74.2699 128.951 73.5785C132.063 70.6153 135.424 61.3307 136.42 58.5651C137.25 53.1326 137.125 47.4038 137.291 40.1934C137.457 32.0941 135.964 24.3899 134.511 16.9819C133.64 12.636 132.437 9.67278 130.569 7.99365C129.366 6.90716 128.204 5.52434 126.918 5.22803C125.175 4.73417 124.801 5.52434 122.685 5.82066C120.901 6.11698 118.577 4.83294 116.793 5.82066C115.963 6.21575 115.175 6.51207 114.345 6.70961Z" stroke="#202020" stroke-width="8.96282" stroke-miterlimit="10" stroke-dasharray="448.14 448.14"/>
</g>
</g>
</g>
</g>
</g>
</svg>
