<svg width="55" height="6" viewBox="0 0 55 6" fill="none" xmlns="http://www.w3.org/2000/svg">
<g id="image" clip-path="url(#clip0_5_3212)">
<g id="Group">
<path id="Vector" d="M46.9887 3.21484C46.9961 3.22815 47.0006 3.24294 47.0017 3.25815C46.9966 3.25222 46.9929 3.24531 46.9906 3.23786C46.9884 3.2304 46.9878 3.22257 46.9887 3.21484Z" fill="black"/>
<path id="Vector_2" d="M40.8525 3.24977L40.9232 3.27335C40.8719 3.26785 40.8591 3.25996 40.8525 3.24977Z" fill="black"/>
<path id="Vector_3" d="M50.6698 3.25914C50.6698 3.25914 50.6696 3.2529 50.6611 3.24902L50.9206 3.25038L50.6698 3.25914Z" fill="black"/>
<path id="Vector_4" d="M35.1631 3.18262L35.2455 3.18599C35.218 3.18851 35.1903 3.18738 35.1631 3.18262Z" fill="black"/>
<path id="Vector_5" d="M40.7879 3.00413C40.7558 2.9854 40.7198 2.97419 40.6826 2.97135C40.7346 2.96849 40.7744 2.97439 40.7879 3.00413Z" fill="black"/>
<path id="Vector_6" d="M52.6235 2.57715L52.5215 2.6401C52.5225 2.60985 52.5581 2.58464 52.6235 2.57715Z" fill="black"/>
<path id="Vector_7" d="M53.8945 1.37537C53.8998 1.37446 53.9052 1.37427 53.9105 1.37481C53.9106 1.37781 53.9036 1.37706 53.8945 1.37537Z" fill="black"/>
<path id="Vector_8" d="M54.4756 2.24779C54.456 2.27968 54.4345 2.31035 54.4111 2.33964C54.4326 2.29826 54.4463 2.2436 54.4756 2.24779Z" fill="black"/>
<path id="Vector_9" d="M54.3779 2.36691L54.4109 2.32617C54.3972 2.35165 54.3886 2.37279 54.3779 2.36691Z" fill="black"/>
<path id="Vector_10" d="M0.980005 3.41167C0.876723 3.40892 0.775132 3.3848 0.681641 3.34082L0.980005 3.41167Z" fill="black"/>
<path id="Vector_11" d="M26.6088 3.11279L26.6307 3.13704C26.6104 3.12875 26.6071 3.12086 26.6088 3.11279Z" fill="black"/>
<path id="Vector_12" d="M0.827444 3.00342L0.751953 3.0196C0.775888 3.00955 0.801492 3.00406 0.827444 3.00342Z" fill="black"/>
<path id="Vector_13" d="M50.6785 2.46289C50.5721 2.39888 50.3523 2.46178 50.3555 2.40332C50.4685 2.41813 50.6297 2.37812 50.6785 2.46289Z" fill="black"/>
<path id="Vector_14" d="M24.8053 1.50347L24.7344 1.50074C24.7581 1.49947 24.7818 1.50038 24.8053 1.50347Z" fill="black"/>
<path id="Vector_15" d="M0.828125 3.00548L0.91499 2.98682C0.907678 2.99826 0.899335 3.00902 0.890065 3.01894C0.87044 3.01063 0.849431 3.00606 0.828125 3.00548Z" fill="black"/>
<path id="Vector_16" d="M17.2109 3.26166L17.3501 3.27972C17.303 3.2887 17.2542 3.28237 17.2109 3.26166Z" fill="black"/>
<path id="Vector_17" d="M0.681931 3.35857L0.511719 3.31763C0.570096 3.32322 0.627396 3.337 0.681931 3.35857Z" fill="black"/>
<path id="Vector_18" d="M12.1191 3.29587C12.141 3.29511 12.1628 3.29434 12.1839 3.30194C12.1622 3.30399 12.1402 3.30193 12.1191 3.29587Z" fill="black"/>
<path id="Vector_19" d="M41.1279 2.98594C41.1446 2.98536 41.1662 2.97835 41.1848 2.97458C41.1916 2.98893 41.1878 2.99844 41.1279 2.98594Z" fill="black"/>
<path id="Vector_20" d="M37.848 1.92088C37.755 1.92437 37.6635 1.89595 37.5889 1.84033C37.6814 1.84021 37.7718 1.86831 37.848 1.92088Z" fill="black"/>
<path id="Vector_21" d="M37.2266 1.86361L37.2576 1.85732C37.2476 1.86098 37.2372 1.86311 37.2266 1.86361Z" fill="black"/>
<path id="Vector_22" d="M40.281 1.84131C40.2588 1.85416 40.2344 1.86278 40.209 1.86675C40.231 1.85341 40.2555 1.84475 40.281 1.84131Z" fill="black"/>
<path id="Vector_23" d="M28.2809 1.26749C28.9925 1.29578 29.914 1.40112 30.6186 1.38068C30.8083 1.46337 31.0131 1.50554 31.22 1.5045L31.2438 1.38073L31.4307 1.42213C31.5075 1.38507 31.2871 1.39797 31.422 1.35159L31.4924 1.42935C31.5075 1.38507 31.9739 1.40524 31.6602 1.31201L32.3899 1.32196C32.5511 1.31632 32.483 1.42289 32.6613 1.39895C32.6976 1.3633 32.5979 1.37303 32.612 1.32878C33.1467 1.24552 33.2282 1.57919 33.7266 1.53053L33.6843 1.51326C33.7688 1.54781 33.9303 1.54634 33.9319 1.564C33.8675 1.68814 33.8431 1.49521 33.6903 1.56618C33.7023 1.66995 33.8789 1.62628 33.8692 1.7058C33.9856 1.66943 34.0544 1.73058 34.1558 1.7385C34.3296 1.67513 34.5783 1.72375 34.7089 1.64522C34.8155 1.72301 34.9396 1.77341 35.0703 1.792C35.2019 1.71239 35.0405 1.71282 35.2186 1.68264L35.2468 1.74416C35.3925 1.73908 35.37 1.72007 35.3648 1.69108C35.5211 1.69187 35.4939 1.77721 35.6895 1.74225L35.5832 1.68032C35.7175 1.70064 35.8536 1.70602 35.989 1.69637C35.9878 1.66099 35.9034 1.66185 35.8443 1.67016C35.9548 1.58191 36.0313 1.71364 36.0904 1.70533C36.0736 1.73196 35.9333 1.74103 36.0011 1.80222C36.1049 1.79338 36.2125 1.88964 36.2851 1.81939L36.1787 1.7585C36.3889 1.81055 36.2857 1.83708 36.5288 1.81921C36.5162 1.81444 36.5219 1.79966 36.5173 1.78627C36.6681 1.86748 36.8668 1.80116 37.0908 1.80063L37.0485 1.78335C37.1389 1.80624 37.1878 1.86184 37.2366 1.85805C37.1085 1.89065 37.1436 1.90922 37.131 1.96592C37.3005 1.86832 37.3874 2.08824 37.6637 2.03484C37.6624 1.99946 37.5942 1.956 37.5173 1.99098C37.4252 1.89001 37.4137 1.79665 37.2462 1.74519C37.3513 1.77173 37.4727 1.78833 37.4483 1.74438L37.4798 1.84122C37.5435 1.84525 37.5932 1.83726 37.6413 1.84183C37.6674 1.90343 37.5124 1.93906 37.6587 1.98188C37.8235 2.01675 37.748 1.88499 37.7735 1.9289C38.0001 1.97204 37.8656 2.02987 38.0888 2.00749C38.0667 1.99889 38.0244 1.98161 38.006 1.99059C38.1631 1.95489 38.3913 2.01672 38.4394 1.90252C38.4166 1.87623 38.4123 1.84096 38.3532 1.84927L38.3538 1.86696C38.1829 1.77812 38.4974 1.8932 38.4448 1.78773C38.4313 1.84967 38.655 1.84185 38.7527 1.83324L38.7207 1.90311C39.0483 2.12505 38.7054 1.76196 39.0297 1.79856C39.2399 1.85165 38.9511 1.81589 39.0769 1.86984C39.2066 1.83349 39.3419 1.82204 39.4758 1.83611C39.5332 1.8091 39.6508 1.77478 39.6616 1.69523C39.7858 1.73048 40.041 1.66947 40.1115 1.74932C39.8969 1.80995 39.9 1.65981 39.6492 1.75713L39.7176 1.83601C39.888 1.85467 40.0595 1.86157 40.2309 1.85663C40.2064 1.87103 40.1956 1.8912 40.2108 1.90838C40.3903 1.96622 40.5769 1.99932 40.7654 2.00675C40.7984 1.93683 40.659 1.94482 40.5545 1.93597C40.71 1.88366 40.716 1.93658 40.9562 1.92194C40.9697 1.86 40.7947 1.92133 40.7686 1.85973L41.0331 1.88696C41.0325 1.88283 41.0324 1.87864 41.0327 1.87447C41.0696 1.97737 41.2346 1.86742 41.3964 1.90657C41.7802 1.91817 41.8362 2.06 42.0477 2.15054C42.1052 2.12458 42.123 2.09895 42.0992 2.07165C42.0038 2.11457 42.0211 2.07438 41.989 2.05049C42.1187 2.06576 42.2744 1.95822 42.203 1.91383C42.4127 1.95026 42.1278 1.96646 42.253 2.00272L42.5355 2.00536C42.5008 2.05762 42.4011 2.06527 42.5464 2.10917C42.6603 2.12231 42.775 2.12631 42.8896 2.12115C42.8668 2.09485 42.942 2.04222 42.8211 2.04123C42.8622 2.02876 42.9055 2.02563 42.9479 2.03208C42.9903 2.03853 43.0308 2.0544 43.0662 2.07851C42.8896 2.12115 43.3537 2.13411 43.2209 2.21168L43.3976 2.16904C43.357 2.17046 43.3536 2.13307 43.2924 2.14146C43.3439 2.06257 43.4361 2.16874 43.5021 2.17894C43.5642 2.16531 43.7256 2.16384 43.7391 2.13315C43.7753 2.14508 43.8137 2.14863 43.8514 2.14352C43.8891 2.13841 43.9252 2.12478 43.9569 2.10367C44.0388 2.12269 43.9587 2.15674 43.9857 2.18289L44.2671 2.18556C44.2833 2.14124 44.3092 2.01844 44.2679 2.00008C44.3737 2.04536 44.3028 2.13327 44.4643 2.13388C44.3736 2.04432 44.6789 2.07429 44.547 1.96742C44.7092 1.91629 44.8822 1.91025 45.0476 1.94994C45.1355 2.02188 44.8903 1.98252 44.897 2.05313C45.3037 2.09415 45.322 2.28938 45.6233 2.2674L45.5458 2.28365C45.6427 2.29633 45.7354 2.33086 45.817 2.38461C45.7681 2.29568 46.0342 2.15824 46.3405 2.18921C46.365 2.2342 46.1671 2.26612 46.2155 2.33736L46.4183 2.35841C46.4338 2.35266 46.4113 2.33677 46.3848 2.32415C46.5664 2.36261 46.7272 2.22364 46.7767 2.32818L46.9653 2.20803L46.891 2.25959C46.9155 2.30354 47.1194 2.32455 47.1606 2.3429C47.2255 2.36698 47.2949 2.3768 47.3639 2.3717C47.4329 2.36659 47.5001 2.34667 47.5607 2.3133C47.5234 2.34795 47.4301 2.42205 47.5946 2.44652C47.5969 2.30475 47.9402 2.40841 47.9374 2.33036C48.0033 2.33536 48.1228 2.2968 48.1279 2.35497L48.1196 2.2667C48.1312 2.39027 48.3731 2.39537 48.5575 2.4254C48.5204 2.25687 48.7604 2.44748 48.847 2.29964C48.878 2.4142 49.1741 2.35907 49.2036 2.45701C49.3457 2.46872 49.3347 2.36284 49.372 2.32819L49.4372 2.37384C49.6015 2.33231 49.7695 2.30724 49.9388 2.29902L50.0832 2.40546L50.14 2.36284C50.1628 2.38913 50.2855 2.40986 50.2075 2.44384L50.2876 2.44104C50.2914 2.5503 50.3992 2.47569 50.5574 2.52955C50.5954 2.51364 50.5861 2.48687 50.5553 2.47024C50.6346 2.47268 50.6024 2.41546 50.647 2.38056C50.5896 2.40653 50.9283 2.58953 50.7109 2.62838C50.6947 2.6727 50.8179 2.71007 50.8986 2.69475L50.9495 2.59921L51.0397 2.70754C51.1623 2.72722 51.2165 2.66802 51.3163 2.66037C51.2117 2.64944 51.1009 2.45952 51.3588 2.47552C51.2633 2.4552 51.1712 2.42122 51.0854 2.37463C51.1395 2.37274 51.1674 2.36447 51.0835 2.31948C51.287 2.35925 51.1503 2.38278 51.3522 2.40491C51.3439 2.31664 51.4013 2.29067 51.5787 2.26884L51.4453 2.32768C51.4509 2.33833 51.4596 2.34708 51.4701 2.35286C51.4193 2.35984 51.4053 2.37388 51.3939 2.40657C51.4334 2.40519 51.6252 2.5256 51.6598 2.47334C51.4559 2.60236 52.012 2.59336 51.8752 2.6742C51.898 2.70049 52.039 2.71119 52.0542 2.66795C51.887 2.59564 52.1831 2.57176 52.1528 2.50926C52.2152 2.53626 52.0195 2.57018 52.1031 2.60581C52.1852 2.60555 52.2654 2.58139 52.334 2.53627L52.2928 2.51896L52.4478 2.48333C52.4733 2.52724 52.2971 2.55423 52.4397 2.58051C52.4777 2.56251 52.6202 2.58775 52.6159 2.55248C52.5481 2.49129 52.5985 2.41139 52.477 2.3948C52.5815 2.40365 52.8945 2.41564 52.7671 2.49719L52.8868 2.49301C52.812 2.53 52.6007 2.59468 52.8418 2.60814L52.8412 2.59045L53.0092 2.65648L53.0815 2.61019C53.0823 2.63204 53.107 2.65306 53.1684 2.65092C53.1841 2.62432 53.2431 2.61288 53.2367 2.57768C53.4191 2.57965 53.3904 2.62337 53.4173 2.64847C53.506 2.65267 53.5335 2.63296 53.49 2.58238C53.5812 2.56878 53.7398 2.57366 53.7662 2.49564C53.8952 2.49113 53.7547 2.52521 53.8536 2.55093C53.8502 2.45312 53.9181 2.39865 53.9816 2.30996C54.0547 2.22321 54.1061 2.12036 54.1316 2.00987C54.2759 2.08505 54.1536 1.95492 54.2833 1.90872C54.2634 1.9365 54.228 1.87731 54.1957 1.84614C54.1633 1.81497 54.136 1.80655 54.1256 1.8986C54.1278 1.86075 54.1264 1.82278 54.1217 1.78517C54.0718 1.75775 54.0703 1.80572 54.0602 1.84462C54.0501 1.88353 54.0262 1.91457 53.9664 1.87395C53.9648 1.82712 53.9932 1.77716 54.0028 1.72161C54.0131 1.6931 54.013 1.66184 54.0025 1.6334C53.992 1.60496 53.9717 1.58118 53.9453 1.56629C53.8932 1.65771 53.9014 1.4751 53.8412 1.56993C53.8302 1.61199 53.8608 1.62342 53.8733 1.6532L53.8452 1.65418C53.769 1.59224 53.7725 1.57336 53.7984 1.53808C53.8243 1.5028 53.8722 1.47195 53.8346 1.41075C53.6976 1.33739 53.6737 1.42887 53.649 1.46516C53.589 1.45995 53.5328 1.43389 53.4901 1.39152C53.5765 1.48019 53.7229 1.40527 53.6965 1.33431C53.5656 1.40452 53.4102 1.25054 53.3612 1.19078C53.6838 1.17951 53.5631 1.24416 53.8836 1.23192C53.8978 1.28144 53.8393 1.33765 53.9841 1.39615C53.9403 1.306 54.0296 1.35706 54.0643 1.36626C53.9963 1.38635 54.1279 1.45677 54.131 1.515C54.2014 1.53234 54.1878 1.35049 54.3137 1.49508L54.259 1.54179L54.2012 1.58653C54.2478 1.63803 54.2853 1.51795 54.3145 1.66696C54.3475 1.56787 54.4442 1.65409 54.3566 1.44253C54.4078 1.47652 54.4478 1.52485 54.4716 1.58147C54.4955 1.63808 54.5021 1.70047 54.4907 1.76083C54.4627 1.86 54.4267 1.95673 54.3831 2.05006C54.3928 2.03096 54.4115 2.03031 54.4223 2.01118C54.3915 2.06351 54.3695 2.12061 54.3574 2.18015C54.3622 2.31855 54.4409 2.09388 54.4734 2.13233L54.4513 2.24459L54.4144 2.35006C54.4146 2.35631 54.4147 2.35839 54.422 2.35917C54.3831 2.40846 54.3417 2.44637 54.366 2.48511C54.4258 2.4649 54.4832 2.43809 54.5372 2.40516C54.4801 2.47615 54.4119 2.53731 54.3351 2.58621C54.3936 2.59042 54.2674 2.79695 54.4026 2.67033L54.3647 2.71749C54.3396 2.74442 54.3021 2.77386 54.2636 2.80542C54.2136 2.84344 54.1604 2.87702 54.1045 2.90578L54.1254 2.99465C54.0292 3.01572 54.0215 3.00349 54.1155 2.95124C54.0122 2.99618 53.8989 3.01308 53.787 3.00022C53.6681 2.99916 53.5783 2.99292 53.6272 3.08081C53.3219 3.02063 53.2407 3.04951 52.9066 3.00179C53.1606 3.08356 52.6164 3.10465 52.8855 3.14318C52.7274 3.181 52.6949 3.08524 52.5704 3.06875C52.4539 3.10512 52.5049 3.19294 52.6311 3.22708L52.4827 3.18433L52.4833 3.20202L52.3554 3.14919C52.2184 3.19356 52.3252 3.23776 52.1848 3.24579L52.156 3.16657L52.0596 3.20953C52.0958 3.17492 52.0129 3.15594 51.9115 3.14698L51.9121 3.16467L51.7885 3.14502C51.9101 3.19704 51.6754 3.15835 51.7295 3.21585C51.6294 3.21585 51.5295 3.20785 51.4307 3.1919L51.4653 3.13964C51.2175 3.08266 51.4525 3.21927 51.2502 3.21487L51.2647 3.15393C50.971 3.24442 50.7741 3.06688 50.5586 3.12963C50.6801 3.14935 50.6471 3.21926 50.6455 3.20161C50.4174 3.18989 50.1914 3.15271 49.9717 3.09074C49.8997 3.17764 49.8816 3.19807 49.6839 3.23414C49.5418 3.22244 49.5206 3.21276 49.4729 3.1592C49.3343 3.18801 49.0768 3.12407 49.0676 3.18898C49.0366 3.13589 48.9428 3.19335 48.8682 3.14698L48.8514 3.17257L48.8659 3.11164C48.6172 3.2391 48.4552 3.0145 48.2038 3.12434L48.2461 3.14266L48.1409 3.11404C48.1241 3.14067 48.1654 3.15902 48.1697 3.19429L47.6859 3.1841L47.7824 3.14218C47.6778 3.13125 47.6142 3.06887 47.4966 3.10215C47.6875 3.19967 47.336 3.09942 47.3031 3.16934L47.4082 3.19796C47.2672 3.18726 47.2672 3.18726 47.2796 3.12536C47.0963 3.09634 47.1501 3.23407 46.9831 3.16489L47.104 3.16691C47.1403 3.13231 47.055 3.07798 46.9748 3.07662C46.9553 3.08563 46.8978 3.11056 46.9586 3.12094C46.8148 3.09158 46.5958 3.11486 46.5334 3.08786C46.4548 3.10415 46.4793 3.14914 46.5206 3.16749C46.213 3.10114 46.3801 3.1724 46.0715 3.10816L46.0728 3.14354L45.967 3.09722L45.8131 3.16615L45.8689 3.12253C45.7757 3.10146 45.68 3.09393 45.5847 3.10015L45.6314 3.15374C45.3455 3.11372 45.2974 3.22792 45.0268 3.14464C45.0083 3.15362 45.0496 3.17198 45.0718 3.18058C44.8205 3.08517 44.8789 3.26545 44.6271 3.15652C44.6423 3.17474 44.6139 3.19553 44.6238 3.21081L44.5089 3.1721L44.5113 3.24287L44.419 3.13565L44.3465 3.20591L44.3025 3.17098C44.1758 3.30147 44.0033 3.19497 43.8327 3.29157L43.864 3.204C43.4405 3.01042 42.8871 3.27458 42.3741 3.17268L42.3818 3.24326L42.1703 3.15375C42.0554 3.20569 42.237 3.21602 42.2007 3.25062C41.9741 3.20436 42.1085 3.14341 41.8439 3.11514C41.7079 3.15844 41.8895 3.16877 41.9509 3.19579C41.6919 3.14009 41.4266 3.12026 41.1622 3.13686C41.1619 3.1275 41.1479 3.11444 41.1613 3.11085C40.9736 3.09073 40.7846 3.08409 40.5959 3.091C40.597 3.12326 40.6452 3.12991 40.6903 3.13771C40.6208 3.1519 40.5488 3.14759 40.4815 3.12521L40.5493 3.18744C40.4088 3.19234 40.141 3.13293 40.1091 3.20281C40.1259 3.17618 40.1199 3.12325 40.0021 3.12319C39.934 3.22976 39.6741 3.06901 39.4811 3.12159C39.5039 3.14788 39.646 3.15751 39.6053 3.15789C39.5112 3.16823 39.4164 3.14619 39.3364 3.09539L39.3619 3.1393L38.9114 3.06751C38.8433 3.17408 38.4854 3.03968 38.5152 3.11886C38.3537 3.11825 38.6512 3.07556 38.4475 3.05767C38.3927 3.10126 38.2632 3.03077 38.2708 3.10135L38.292 3.10998L38.15 3.1014L38.2389 3.17226C38.1164 3.15466 38.0275 3.0838 38.0256 3.03177C37.9092 3.06813 37.7443 3.03221 37.6903 3.09453L37.7336 3.11177C37.4073 3.07732 37.1907 3.29013 36.9353 3.16673C36.9159 3.17575 36.9186 3.19337 36.9581 3.19303L36.756 3.19279L36.8037 3.2453L36.4714 3.15793L36.4726 3.19331C36.252 3.20101 35.9074 3.17763 35.6245 3.16042L35.6667 3.1777C35.3583 3.11658 35.3676 3.20481 35.1452 3.16152C35.1511 3.16927 35.1593 3.17484 35.1687 3.17738L34.9602 3.17216L35.0051 3.20705C34.8555 3.12893 34.5729 3.29924 34.6665 3.23659C34.5809 3.20207 34.4346 3.15925 34.4101 3.11531C34.188 3.10744 34.3554 3.15993 34.2178 3.18766C34.0576 3.19326 34.0293 3.12757 33.8115 3.15601L33.8127 3.19139C33.7082 3.18358 33.6479 3.15755 33.506 3.15001L33.5483 3.16728C33.3174 3.08991 33.2589 3.26595 33.0784 3.10972C32.9815 3.13707 32.7972 3.1112 32.8059 3.18279C32.5177 3.13242 32.2939 3.10794 32.0072 3.07524C31.9613 3.1904 31.9455 3.06697 31.7717 3.13139L31.7851 3.06945C31.3804 3.05649 30.9147 3.20403 30.4688 3.17584L30.4564 3.23775L30.3675 3.16896C29.887 3.19407 29.2655 3.20744 28.8821 3.20833C28.7175 3.1465 28.5423 3.11723 28.3665 3.12215L28.3877 3.13079C28.0252 3.08451 27.6591 3.07426 27.2947 3.10019C27.3185 3.12645 27.2806 3.14444 27.3229 3.16172C27.233 3.09297 27.1008 3.15697 27.0196 3.15876L27.1149 3.11272C27.063 3.09206 27.0066 3.0851 26.9512 3.09251C26.8958 3.09992 26.8433 3.12145 26.7986 3.15502L26.6275 3.08807C26.6163 3.09471 26.5989 3.10365 26.5971 3.11413L26.5814 3.08238L26.4916 3.16366C26.4493 3.14638 26.2235 3.1251 26.153 3.04629C26.1362 3.07292 25.9776 3.09409 26.1011 3.10958L25.4767 3.13138L25.5736 3.10195C25.585 3.04008 25.3983 3.00388 25.3023 3.03016C25.4291 3.07991 25.3137 3.11832 25.259 3.16398C25.1745 3.13047 25.3321 3.10934 25.2872 3.07548C25.1629 3.03161 25.0296 3.01978 24.8995 3.0411L24.9629 3.06597C24.8183 3.04289 24.7575 3.15129 24.6104 3.146C24.4826 3.09629 24.3884 3.14334 24.4138 3.03618C24.2286 3.01451 24.3434 3.10844 24.2833 3.11888C24.2214 3.09741 24.1555 3.08962 24.0903 3.09604C24.025 3.10245 23.962 3.12292 23.9054 3.15604C23.803 3.0002 23.4083 3.21299 23.3704 3.08199L23.2198 3.15601C23.2125 3.11942 23.1926 3.08654 23.1637 3.06302C23.1347 3.03949 23.0984 3.02681 23.0611 3.02715C22.9458 3.06556 22.974 3.12709 22.9388 3.1627L22.8592 3.03212C22.1931 3.17207 21.3118 3.08616 20.5826 3.20956C20.2114 3.16331 19.8376 3.14156 19.4635 3.14445L19.5057 3.16069L19.1279 3.20097L19.4018 3.13723C19.3275 3.11693 19.2513 3.10491 19.1744 3.10141C18.6859 3.1885 18.1883 3.21358 17.6934 3.17605C17.3591 3.0304 17.4752 3.31286 17.1569 3.20729C17.1845 3.22091 17.1946 3.24244 17.219 3.25617C16.9251 3.22414 16.6334 3.17342 16.3459 3.10433C16.3886 3.25287 16.1229 3.10379 16.1558 3.18182L16.1256 3.1214C16.0498 3.15947 15.8712 3.17613 15.8977 3.21896L15.7451 3.14615L15.7338 3.20906C15.534 3.21604 15.1075 3.17467 15.0005 3.30343C14.3682 3.24152 13.7315 3.24004 13.0989 3.29899C12.9661 3.25563 12.826 3.23858 12.6867 3.24879L12.5373 3.32693C12.3928 3.30801 12.2366 3.21866 12.1039 3.26914C12.1046 3.27339 12.1066 3.27736 12.1094 3.28057C12.1123 3.28379 12.116 3.28613 12.1202 3.28732C11.978 3.30322 11.8341 3.29198 11.696 3.25421C11.5358 3.2598 11.3853 3.30569 11.4314 3.37285C11.4125 3.25056 11.0916 3.3993 11.0916 3.3993L9.77193 3.46934C8.96805 3.512 7.87382 3.56376 6.71738 3.59476C4.74826 3.73561 2.76979 3.66921 0.814537 3.39665C0.743786 3.33974 0.555134 3.30778 0.623351 3.23246C0.477945 3.21566 0.418247 3.3261 0.385962 3.2668C0.581146 3.21727 0.318039 3.11185 0.50682 3.02816L0.382517 3.01895C0.355012 2.9772 0.552765 3.06094 0.518822 2.98398L0.558127 3.09513C0.628454 3.08783 0.694223 3.05688 0.744681 3.00735C0.840902 3.04775 0.906599 3.19861 1.12793 3.12212L1.06632 3.11802C1.24946 3.11162 1.17508 3.04025 1.21189 3.02021L1.1713 3.02162L1.32328 2.95797C1.20811 3.00158 1.00932 2.91788 1.11356 2.91945C1.32988 2.87856 1.05835 2.94951 1.21904 2.9564C1.3231 2.95277 1.28995 2.89871 1.28351 2.86351L1.46562 2.85715C1.45752 2.8043 1.34491 2.86136 1.41701 2.8078L1.64887 2.85388C1.68581 2.71819 1.9008 2.90759 2.00042 2.777C1.83391 2.7526 2.01343 2.73175 1.98488 2.69003L2.38968 2.67589C2.42752 2.65582 2.2842 2.63894 2.34373 2.64312C2.41839 2.603 2.47073 2.66994 2.51128 2.66748C2.54435 2.62986 2.81305 2.65694 2.79848 2.56785C3.07106 2.49686 2.91892 2.67512 3.17201 2.61315C3.20342 2.55788 2.96349 2.60897 3.08016 2.54864L3.34613 2.55706C3.33047 2.53121 3.30727 2.51078 3.27964 2.49851C3.25202 2.48625 3.2213 2.48275 3.19162 2.48848C3.75982 2.30669 4.34676 2.18973 4.94124 2.13983C5.0316 2.07208 4.87315 2.09949 4.80614 2.06016C5.2846 2.1268 5.46927 1.89531 5.87428 1.88741L5.88341 1.94023C6.50231 1.82144 7.13014 1.75525 7.7602 1.74237L7.68551 1.78145C7.79426 1.81932 7.90752 1.84269 8.02238 1.85095C8.03704 1.82335 7.94249 1.74122 8.12848 1.7566C8.09063 1.77668 8.01327 1.79917 8.03704 1.82335C8.8969 1.691 9.7637 1.60855 10.6331 1.57641C11.8524 1.58593 13.1707 1.44716 14.3683 1.45952C14.1859 1.4586 14.2686 1.58803 14.4029 1.55521C14.7742 1.32762 15.0559 1.57929 15.44 1.42105C16.0957 1.37446 16.754 1.38039 17.4088 1.43878L17.4201 1.37587C17.516 1.34648 17.5435 1.38927 17.6447 1.39407L17.6441 1.37638C17.8838 1.34926 18.1756 1.40888 18.313 1.37699L18.3228 1.44749C18.4657 1.45188 18.3958 1.39181 18.5431 1.43042L18.5418 1.39504L18.7139 1.45884C18.695 1.33552 19.1166 1.44478 19.2323 1.38656C19.5024 1.4271 19.7757 1.44162 20.0485 1.42994C20.0995 1.3667 20.4432 1.36407 20.6618 1.33039C21.0884 1.34258 21.6985 1.35878 22.2414 1.33149L22.2327 1.41098L22.3745 1.4154C22.3739 1.39771 22.3913 1.38877 22.3733 1.38002C22.4826 1.28868 22.7003 1.40715 22.814 1.35004C22.7425 1.42234 22.7102 1.362 22.6342 1.36361C22.5178 1.40206 22.6299 1.47837 22.7869 1.43851L22.7862 1.42082L22.8919 1.46297C22.9033 1.4011 23.0002 1.37167 23.0126 1.30977C23.433 1.3623 23.8559 1.39239 24.2796 1.39993C24.2292 1.33084 24.6261 1.417 24.5281 1.29644C24.8172 1.34156 24.4815 1.39392 24.6136 1.4789C24.6938 1.4761 24.7793 1.50958 24.7934 1.46533C24.7549 1.43646 24.8586 1.39221 24.7905 1.38104L24.9835 1.38993C25.0019 1.38095 24.9597 1.36367 24.9375 1.35611C25.3317 1.42466 25.6348 1.2755 25.9885 1.34754C26.015 1.39142 25.8482 1.35869 25.8748 1.40361C26.2301 1.49538 26.1846 1.32611 26.5203 1.39044L26.4515 1.33033C26.4997 1.3618 26.5543 1.38222 26.6113 1.39014C26.6683 1.39805 26.7263 1.39326 26.7813 1.37612C26.8122 1.30523 26.6313 1.3178 26.5466 1.28012C26.6674 1.27591 26.9734 1.29752 26.8808 1.36118C27.0254 1.3853 27.0784 1.32198 27.1559 1.30261C27.1565 1.3203 27.021 1.35003 27.1055 1.38251C27.3517 1.35045 27.5998 1.33656 27.848 1.34095C27.8474 1.32326 27.8621 1.2967 27.8461 1.28788C28.0357 1.40524 28.0145 1.24658 28.2809 1.26749Z" fill="black"/>
<path id="Vector_24" d="M41.1386 1.87157L41.0035 1.88254C41.0028 1.86172 41.0019 1.83675 40.9365 1.81299L41.1386 1.87157Z" fill="black"/>
<path id="Vector_25" d="M36.5176 1.79668C36.5007 1.78931 36.4846 1.78009 36.4697 1.76918C36.5022 1.7743 36.5131 1.7885 36.5176 1.79668Z" fill="black"/>
<path id="Vector_26" d="M35.3903 1.63721C35.4954 1.66063 35.4013 1.68371 35.3469 1.70644C35.3452 1.68775 35.3517 1.6646 35.3903 1.63721Z" fill="black"/>
<path id="Vector_27" d="M39.6156 2.28653C39.5924 2.27692 39.5784 2.26386 39.5829 2.24391C39.6137 2.26159 39.6204 2.2749 39.6156 2.28653Z" fill="black"/>
<path id="Vector_28" d="M49.5812 2.43262L49.541 2.44548C49.5529 2.43749 49.5669 2.43303 49.5812 2.43262Z" fill="black"/>
<path id="Vector_29" d="M49.0232 2.53297C48.9853 2.53139 48.9477 2.52536 48.9111 2.515C48.9494 2.51175 48.9879 2.51792 49.0232 2.53297Z" fill="black"/>
<path id="Vector_30" d="M41.9911 2.05666C41.9538 2.05439 41.9177 2.04314 41.8857 2.02387C41.9235 2.02308 41.9605 2.03459 41.9911 2.05666Z" fill="black"/>
<path id="Vector_31" d="M48.7965 2.50144L48.6571 2.50631C48.6563 2.5001 48.6561 2.49383 48.6564 2.48758L48.7965 2.50144Z" fill="black"/>
<path id="Vector_32" d="M49.7559 2.43148C49.6975 2.43045 49.6392 2.43249 49.5811 2.43758C49.637 2.4161 49.6986 2.41395 49.7559 2.43148Z" fill="black"/>
<path id="Vector_33" d="M43.2676 2.43927L43.253 2.43978C43.1461 2.39142 43.2134 2.41095 43.2676 2.43927Z" fill="black"/>
<path id="Vector_34" d="M48.1959 2.36822L48.1772 2.36887L48.1377 2.34108L48.1959 2.36822Z" fill="black"/>
<path id="Vector_35" d="M50.3545 2.41787C50.3306 2.41647 50.3072 2.40981 50.2861 2.39838L50.3652 2.39561C50.3599 2.40202 50.3562 2.40967 50.3545 2.41787Z" fill="black"/>
<path id="Vector_36" d="M45.359 2.35498C45.3979 2.39217 45.4112 2.41567 45.4118 2.4344C45.3659 2.4308 45.3371 2.41409 45.359 2.35498Z" fill="black"/>
</g>
</g>
<defs>
<clipPath id="clip0_5_3212">
<rect width="54.2201" height="5" fill="white" transform="translate(0.342773 0.0610352)"/>
</clipPath>
</defs>
</svg>
