<svg width="55" height="6" viewBox="0 0 55 6" fill="none" xmlns="http://www.w3.org/2000/svg">
<g id="image" clip-path="url(#clip0_5_2304)">
<g id="Group">
<path id="Vector" d="M47.3403 3.90234C47.3477 3.91565 47.3521 3.93044 47.3532 3.94565C47.3482 3.93972 47.3444 3.93281 47.3422 3.92536C47.34 3.9179 47.3393 3.91007 47.3403 3.90234Z" fill="black"/>
<path id="Vector_2" d="M41.2041 3.9375L41.2747 3.96108C41.2235 3.95558 41.2107 3.94769 41.2041 3.9375Z" fill="black"/>
<path id="Vector_3" d="M51.0214 3.94664C51.0214 3.94664 51.0212 3.9404 51.0127 3.93652L51.2722 3.93788L51.0214 3.94664Z" fill="black"/>
<path id="Vector_4" d="M35.5146 3.87012L35.5971 3.87349C35.5696 3.87601 35.5419 3.87488 35.5146 3.87012Z" fill="black"/>
<path id="Vector_5" d="M41.1395 3.69163C41.1073 3.6729 41.0713 3.66169 41.0342 3.65885C41.0862 3.65599 41.126 3.66189 41.1395 3.69163Z" fill="black"/>
<path id="Vector_6" d="M52.975 3.26465L52.873 3.3276C52.8741 3.29735 52.9097 3.27214 52.975 3.26465Z" fill="black"/>
<path id="Vector_7" d="M54.2461 2.06238C54.2514 2.06147 54.2568 2.06128 54.2621 2.06182C54.2622 2.06482 54.2552 2.06407 54.2461 2.06238Z" fill="black"/>
<path id="Vector_8" d="M54.8272 2.93577C54.8076 2.96767 54.786 2.99834 54.7627 3.02763C54.7842 2.98624 54.7979 2.93159 54.8272 2.93577Z" fill="black"/>
<path id="Vector_9" d="M54.7295 3.05441L54.7625 3.01367C54.7488 3.03915 54.7401 3.06029 54.7295 3.05441Z" fill="black"/>
<path id="Vector_10" d="M1.33157 4.09917C1.22829 4.09642 1.12669 4.0723 1.0332 4.02832L1.33157 4.09917Z" fill="black"/>
<path id="Vector_11" d="M26.9604 3.7998L26.9822 3.82406C26.9619 3.81576 26.9586 3.80787 26.9604 3.7998Z" fill="black"/>
<path id="Vector_12" d="M1.17901 3.69043L1.10352 3.70661C1.12745 3.69656 1.15305 3.69107 1.17901 3.69043Z" fill="black"/>
<path id="Vector_13" d="M51.03 3.15039C50.9236 3.08638 50.7039 3.14928 50.7071 3.09082C50.8201 3.10563 50.9812 3.06562 51.03 3.15039Z" fill="black"/>
<path id="Vector_14" d="M25.1569 2.19079L25.0859 2.18805C25.1096 2.18678 25.1334 2.1877 25.1569 2.19079Z" fill="black"/>
<path id="Vector_15" d="M1.17969 3.69347L1.26655 3.6748C1.25924 3.68625 1.2509 3.697 1.24163 3.70693C1.222 3.69862 1.20099 3.69405 1.17969 3.69347Z" fill="black"/>
<path id="Vector_16" d="M17.5625 3.94922L17.7017 3.96728C17.6546 3.97626 17.6058 3.96993 17.5625 3.94922Z" fill="black"/>
<path id="Vector_17" d="M1.03349 4.04582L0.863281 4.00488C0.921659 4.01047 0.978959 4.02425 1.03349 4.04582Z" fill="black"/>
<path id="Vector_18" d="M12.4707 3.98288C12.4926 3.98212 12.5144 3.98136 12.5355 3.98895C12.5137 3.991 12.4917 3.98894 12.4707 3.98288Z" fill="black"/>
<path id="Vector_19" d="M41.4795 3.67347C41.4961 3.67289 41.5178 3.66589 41.5364 3.66211C41.5432 3.67646 41.5393 3.68597 41.4795 3.67347Z" fill="black"/>
<path id="Vector_20" d="M38.1995 2.60887C38.1065 2.61236 38.0151 2.58394 37.9404 2.52832C38.033 2.52819 38.1234 2.55629 38.1995 2.60887Z" fill="black"/>
<path id="Vector_21" d="M37.5781 2.55121L37.6092 2.54492C37.5992 2.54859 37.5887 2.55071 37.5781 2.55121Z" fill="black"/>
<path id="Vector_22" d="M40.6326 2.5293C40.6104 2.54215 40.5859 2.55077 40.5605 2.55473C40.5826 2.5414 40.6071 2.53274 40.6326 2.5293Z" fill="black"/>
<path id="Vector_23" d="M28.6325 1.95499C29.344 1.98328 30.2656 2.08862 30.9702 2.06818C31.1598 2.15087 31.3647 2.19304 31.5715 2.192L31.5953 2.06823L31.7822 2.10963C31.8591 2.07257 31.6386 2.08547 31.7735 2.03909L31.844 2.11685C31.8591 2.07257 32.3255 2.09274 32.0118 1.99951L32.7414 2.00946C32.9027 2.00382 32.8345 2.11039 33.0129 2.08645C33.0492 2.0508 32.9495 2.06053 32.9636 2.01628C33.4983 1.93302 33.5797 2.26669 34.0781 2.21803L34.0358 2.20076C34.1204 2.23531 34.2818 2.23384 34.2835 2.2515C34.2191 2.37564 34.1946 2.18271 34.0419 2.25368C34.0538 2.35745 34.2305 2.31378 34.2207 2.3933C34.3372 2.35693 34.406 2.41808 34.5073 2.426C34.6812 2.36263 34.9298 2.41125 35.0604 2.33272C35.1671 2.41051 35.2912 2.46091 35.4219 2.4795C35.5535 2.39989 35.392 2.40032 35.5702 2.37014L35.5984 2.43166C35.7441 2.42658 35.7215 2.40757 35.7163 2.37858C35.8726 2.37937 35.8454 2.46471 36.0411 2.42975L35.9348 2.36782C36.069 2.38814 36.2051 2.39352 36.3406 2.38387C36.3394 2.34849 36.255 2.34935 36.1959 2.35766C36.3064 2.26941 36.3829 2.40114 36.442 2.39283C36.4252 2.41946 36.2849 2.42853 36.3526 2.48972C36.4565 2.48088 36.5641 2.57714 36.6366 2.50689L36.5303 2.446C36.7405 2.49805 36.6372 2.52458 36.8804 2.50671C36.8677 2.50194 36.8735 2.48716 36.8688 2.47377C37.0196 2.55498 37.2184 2.48866 37.4424 2.48813L37.4001 2.47085C37.4905 2.49374 37.5393 2.54934 37.5882 2.54555C37.4601 2.57815 37.4951 2.59672 37.4825 2.65342C37.6521 2.55582 37.7389 2.77574 38.0152 2.72234C38.014 2.68696 37.9458 2.6435 37.8689 2.67848C37.7768 2.57751 37.7652 2.48415 37.5978 2.43269C37.7029 2.45923 37.8243 2.47583 37.7999 2.43188L37.8314 2.52872C37.8951 2.53275 37.9448 2.52476 37.9929 2.52933C38.019 2.59093 37.8639 2.62656 38.0103 2.66938C38.1751 2.70425 38.0996 2.57249 38.1251 2.6164C38.3517 2.65954 38.2172 2.71737 38.4404 2.69499C38.4182 2.68639 38.376 2.66911 38.3575 2.67809C38.5146 2.64239 38.7429 2.70422 38.791 2.59002C38.7682 2.56373 38.7638 2.52846 38.7047 2.53677L38.7053 2.55446C38.5345 2.46562 38.849 2.5807 38.7963 2.47523C38.7829 2.53717 39.0066 2.52935 39.1042 2.52074L39.0723 2.59061C39.3999 2.81255 39.057 2.44946 39.3812 2.48606C39.5914 2.53915 39.3026 2.50339 39.4285 2.55734C39.5581 2.52099 39.6935 2.50954 39.8274 2.52361C39.8848 2.4966 40.0024 2.46228 40.0131 2.38273C40.1373 2.41798 40.3925 2.35697 40.463 2.43682C40.2484 2.49745 40.2515 2.34731 40.0007 2.44463L40.0691 2.52351C40.2395 2.54217 40.4111 2.54907 40.5824 2.54413C40.5579 2.55853 40.5472 2.5787 40.5624 2.59588C40.7419 2.65372 40.9285 2.68682 41.1169 2.69425C41.1499 2.62433 41.0106 2.63232 40.9061 2.62347C41.0616 2.57116 41.0676 2.62408 41.3078 2.60944C41.3212 2.5475 41.1463 2.60883 41.1201 2.54723L41.3847 2.57446C41.3841 2.57033 41.3839 2.56614 41.3843 2.56197C41.4212 2.66487 41.5861 2.55492 41.7479 2.59407C42.1318 2.60567 42.1878 2.7475 42.3993 2.83804C42.4567 2.81208 42.4746 2.78645 42.4507 2.75915C42.3553 2.80207 42.3727 2.76188 42.3406 2.73799C42.4703 2.75326 42.626 2.64572 42.5546 2.60133C42.7642 2.63776 42.4793 2.65396 42.6046 2.69022L42.887 2.69286C42.8524 2.74512 42.7526 2.75277 42.8979 2.79667C43.0118 2.80981 43.1266 2.81381 43.2411 2.80865C43.2183 2.78235 43.2936 2.72972 43.1727 2.72873C43.2138 2.71626 43.2571 2.71313 43.2995 2.71958C43.3419 2.72603 43.3823 2.7419 43.4178 2.76601C43.2411 2.80865 43.7052 2.82161 43.5725 2.89918L43.7492 2.85654C43.7086 2.85796 43.7052 2.82057 43.644 2.82896C43.6954 2.75007 43.7877 2.85624 43.8537 2.86644C43.9157 2.85281 44.0772 2.85134 44.0907 2.82065C44.1268 2.83258 44.1652 2.83613 44.203 2.83102C44.2407 2.82591 44.2768 2.81228 44.3084 2.79117C44.3904 2.81019 44.3103 2.84424 44.3373 2.87039L44.6187 2.87306C44.6348 2.82874 44.6607 2.70594 44.6195 2.68758C44.7252 2.73286 44.6543 2.82077 44.8158 2.82138C44.7252 2.73182 45.0305 2.76179 44.8986 2.65492C45.0608 2.60379 45.2338 2.59775 45.3991 2.63744C45.4871 2.70938 45.2419 2.67002 45.2485 2.74063C45.6552 2.78165 45.6735 2.97688 45.9749 2.9549L45.8973 2.97115C45.9942 2.98383 46.087 3.01836 46.1686 3.07211C46.1197 2.98318 46.3857 2.84574 46.6921 2.87671C46.7166 2.9217 46.5187 2.95362 46.567 3.02486L46.7699 3.04591C46.7853 3.04016 46.7629 3.02427 46.7364 3.01165C46.918 3.05011 47.0788 2.91114 47.1283 3.01568L47.3168 2.89553L47.2426 2.94709C47.267 2.99104 47.4709 3.01205 47.5122 3.0304C47.5771 3.05448 47.6464 3.0643 47.7155 3.0592C47.7845 3.05409 47.8516 3.03417 47.9123 3.0008C47.8749 3.03545 47.7817 3.10955 47.9461 3.13402C47.9485 2.99225 48.2917 3.09591 48.289 3.01786C48.3548 3.02286 48.4743 2.9843 48.4795 3.04247L48.4712 2.9542C48.4828 3.07777 48.7247 3.08287 48.9091 3.1129C48.872 2.94437 49.112 3.13498 49.1985 2.98714C49.2296 3.1017 49.5257 3.04657 49.5551 3.14451C49.6972 3.15622 49.6862 3.05034 49.7236 3.01569L49.7887 3.06134C49.953 3.01981 50.1211 2.99474 50.2904 2.98652L50.4347 3.09296L50.4916 3.05034C50.5144 3.07663 50.637 3.09736 50.559 3.13134L50.6391 3.12854C50.643 3.2378 50.7508 3.16319 50.909 3.21705C50.947 3.20114 50.9377 3.17437 50.9069 3.15774C50.9862 3.16018 50.9539 3.10296 50.9986 3.06806C50.9411 3.09403 51.2799 3.27703 51.0624 3.31588C51.0463 3.3602 51.1695 3.39757 51.2502 3.38225L51.301 3.28671L51.3913 3.39504C51.5139 3.41472 51.5681 3.35552 51.6678 3.34787C51.5633 3.33694 51.4524 3.14702 51.7104 3.16302C51.6149 3.1427 51.5228 3.10872 51.437 3.06213C51.4911 3.06024 51.5189 3.05197 51.4351 3.00698C51.6386 3.04675 51.5019 3.07028 51.7037 3.09241C51.6954 3.00414 51.7529 2.97817 51.9303 2.95634L51.7969 3.01518C51.8025 3.02583 51.8111 3.03458 51.8217 3.04036C51.7709 3.04734 51.7568 3.06138 51.7454 3.09407C51.785 3.09269 51.9767 3.2131 52.0114 3.16084C51.8075 3.28986 52.3635 3.28086 52.2268 3.3617C52.2496 3.38799 52.3906 3.39869 52.4057 3.35545C52.2386 3.28314 52.5347 3.25926 52.5044 3.19676C52.5668 3.22376 52.3711 3.25768 52.4546 3.29331C52.5367 3.29305 52.617 3.26889 52.6856 3.22377L52.6443 3.20646L52.7994 3.17083C52.8249 3.21474 52.6487 3.24173 52.7913 3.26801C52.8292 3.25001 52.9718 3.27525 52.9674 3.23998C52.8997 3.17879 52.95 3.09889 52.8286 3.0823C52.9331 3.09115 53.2461 3.10314 53.1187 3.18469L53.2383 3.18051C53.1636 3.2175 52.9523 3.28218 53.1934 3.29564L53.1928 3.27795L53.3607 3.34398L53.4331 3.29769C53.4339 3.31954 53.4586 3.34056 53.5199 3.33842C53.5357 3.31182 53.5947 3.30038 53.5882 3.26518C53.7706 3.26715 53.7419 3.31087 53.7689 3.33597C53.8576 3.34017 53.885 3.32046 53.8416 3.26988C53.9328 3.25628 54.0913 3.26116 54.1178 3.18314C54.2468 3.17863 54.1063 3.21271 54.2051 3.23843C54.2017 3.14062 54.2696 3.08615 54.3332 2.99746C54.4062 2.91071 54.4576 2.80786 54.4832 2.69737C54.6275 2.77255 54.5052 2.64242 54.6349 2.59622C54.615 2.624 54.5796 2.56481 54.5473 2.53364C54.5149 2.50247 54.4875 2.49405 54.4772 2.5861C54.4793 2.54825 54.478 2.51028 54.4732 2.47267C54.4233 2.44525 54.4219 2.49322 54.4118 2.53212C54.4017 2.57103 54.3777 2.60207 54.318 2.56145C54.3163 2.51462 54.3448 2.46466 54.3543 2.40911C54.3647 2.3806 54.3646 2.34934 54.3541 2.3209C54.3435 2.29246 54.3232 2.26868 54.2968 2.25379C54.2448 2.34521 54.253 2.1626 54.1928 2.25743C54.1817 2.29949 54.2123 2.31092 54.2248 2.3407L54.1967 2.34168C54.1206 2.27974 54.1241 2.26086 54.15 2.22558C54.1758 2.1903 54.2237 2.15945 54.1862 2.09825C54.0492 2.02489 54.0253 2.11637 54.0005 2.15266C53.9406 2.14745 53.8844 2.12139 53.8417 2.07902C53.9281 2.16769 54.0745 2.09277 54.048 2.02181C53.9171 2.09202 53.7617 1.93804 53.7128 1.87828C54.0353 1.86701 53.9147 1.93166 54.2351 1.91942C54.2494 1.96894 54.1909 2.02515 54.3357 2.08365C54.2919 1.9935 54.3812 2.04456 54.4159 2.05376C54.3478 2.07385 54.4795 2.14427 54.4826 2.2025C54.553 2.21984 54.5393 2.03799 54.6652 2.18258L54.6106 2.22929L54.5528 2.27403C54.5994 2.32553 54.6369 2.20545 54.666 2.35446C54.699 2.25537 54.7958 2.34159 54.7082 2.13003C54.7594 2.16402 54.7994 2.21235 54.8232 2.26897C54.8471 2.32558 54.8537 2.38797 54.8423 2.44833C54.8143 2.5475 54.7783 2.64423 54.7346 2.73756C54.7444 2.71846 54.7631 2.71781 54.7739 2.69868C54.743 2.75101 54.7211 2.80811 54.709 2.86765C54.7138 3.00605 54.7924 2.78138 54.825 2.81983L54.8029 2.93209L54.7659 3.03756C54.7662 3.04381 54.7662 3.04589 54.7735 3.04667C54.7346 3.09596 54.6932 3.13387 54.7175 3.17261C54.7774 3.1524 54.8348 3.12559 54.8887 3.09266C54.8317 3.16365 54.7635 3.22481 54.6867 3.27371C54.7452 3.27792 54.619 3.48445 54.7542 3.35783L54.7163 3.40499C54.6911 3.43192 54.6536 3.46136 54.6151 3.49292C54.5652 3.53094 54.5119 3.56452 54.4561 3.59328L54.4769 3.68215C54.3808 3.70322 54.373 3.69099 54.4671 3.63874C54.3638 3.68368 54.2504 3.70058 54.1385 3.68772C54.0197 3.68666 53.9299 3.68042 53.9788 3.76831C53.6735 3.70813 53.5922 3.73701 53.2582 3.68929C53.5121 3.77106 52.968 3.79215 53.2371 3.83068C53.079 3.8685 53.0465 3.77274 52.9219 3.75625C52.8055 3.79262 52.8565 3.88044 52.9827 3.91458L52.8343 3.87183L52.8349 3.88952L52.707 3.83669C52.57 3.88106 52.6767 3.92526 52.5364 3.93329L52.5075 3.85407L52.4111 3.89703C52.4474 3.86242 52.3644 3.84344 52.2631 3.83448L52.2637 3.85217L52.1401 3.83252C52.2617 3.88454 52.027 3.84585 52.0811 3.90335C51.981 3.90335 51.8811 3.89535 51.7822 3.8794L51.8169 3.82714C51.569 3.77016 51.804 3.90677 51.6018 3.90237L51.6163 3.84143C51.3225 3.93192 51.1257 3.75438 50.9101 3.81713C51.0317 3.83685 50.9987 3.90676 50.997 3.88911C50.769 3.87739 50.543 3.84021 50.3232 3.77824C50.2512 3.86514 50.2332 3.88557 50.0355 3.92164C49.8934 3.90994 49.8722 3.90026 49.8245 3.8467C49.6859 3.87551 49.4284 3.81157 49.4192 3.87648C49.3882 3.82339 49.2943 3.88085 49.2198 3.83448L49.203 3.86007L49.2175 3.79914C48.9688 3.9266 48.8067 3.702 48.5553 3.81184L48.5976 3.83016L48.4924 3.80154C48.4757 3.82817 48.5169 3.84652 48.5213 3.88179L48.0375 3.8716L48.134 3.82968C48.0294 3.81875 47.9658 3.75637 47.8482 3.78965C48.0391 3.88717 47.6876 3.78692 47.6546 3.85684L47.7598 3.88546C47.6188 3.87476 47.6188 3.87476 47.6312 3.81286C47.4479 3.78384 47.5016 3.92157 47.3346 3.85239L47.4555 3.85441C47.4918 3.81981 47.4066 3.76548 47.3263 3.76412C47.3068 3.77313 47.2494 3.79806 47.3102 3.80844C47.1664 3.77908 46.9474 3.80236 46.885 3.77536C46.8064 3.79165 46.8308 3.83664 46.8721 3.85499C46.5645 3.78864 46.7316 3.8599 46.4231 3.79566L46.4243 3.83104L46.3185 3.78472L46.1646 3.85365L46.2204 3.81003C46.1273 3.78896 46.0316 3.78143 45.9363 3.78765L45.9829 3.84124C45.6971 3.80122 45.649 3.91542 45.3783 3.83214C45.3599 3.84112 45.4012 3.85948 45.4233 3.86808C45.172 3.77267 45.2304 3.95295 44.9787 3.84402C44.9939 3.86224 44.9654 3.88303 44.9753 3.89831L44.8604 3.8596L44.8629 3.93037L44.7706 3.82315L44.698 3.89341L44.6541 3.85848C44.5274 3.98897 44.3549 3.88247 44.1843 3.97907L44.2156 3.8915C43.7921 3.69792 43.2387 3.96208 42.7257 3.86018L42.7333 3.93076L42.5218 3.84125C42.407 3.89319 42.5886 3.90352 42.5523 3.93812C42.3257 3.89186 42.46 3.83091 42.1954 3.80264C42.0594 3.84594 42.2411 3.85627 42.3024 3.88329C42.0435 3.82759 41.7781 3.80776 41.5138 3.82436C41.5134 3.815 41.4994 3.80194 41.5129 3.79835C41.3251 3.77823 41.1362 3.77159 40.9475 3.7785C40.9486 3.81076 40.9968 3.81741 41.0418 3.82521C40.9723 3.8394 40.9003 3.83509 40.833 3.81271L40.9008 3.87494C40.7603 3.87984 40.4926 3.82043 40.4607 3.89031C40.4774 3.86368 40.4714 3.81075 40.3537 3.81069C40.2855 3.91726 40.0257 3.75651 39.8327 3.80909C39.8555 3.83538 39.9975 3.84501 39.9569 3.84539C39.8628 3.85573 39.7679 3.83369 39.688 3.78289L39.7135 3.8268L39.263 3.75501C39.1948 3.86158 38.8369 3.72718 38.8668 3.80636C38.7053 3.80575 39.0028 3.76306 38.799 3.74517C38.7443 3.78876 38.6147 3.71827 38.6224 3.78885L38.6435 3.79748L38.5015 3.7889L38.5905 3.85976C38.468 3.84216 38.379 3.7713 38.3772 3.71927C38.2607 3.75563 38.0959 3.71971 38.0418 3.78203L38.0851 3.79927C37.7589 3.76482 37.5423 3.97763 37.2869 3.85423C37.2674 3.86325 37.2701 3.88087 37.3097 3.88053L37.1076 3.88029L37.1553 3.9328L36.823 3.84543L36.8242 3.88081C36.6036 3.88851 36.259 3.86513 35.976 3.84792L36.0183 3.8652C35.7099 3.80408 35.7192 3.89231 35.4968 3.84902C35.5027 3.85677 35.5109 3.86234 35.5203 3.86488L35.3117 3.85966L35.3567 3.89455C35.2071 3.81643 34.9244 3.98674 35.0181 3.92409C34.9325 3.88957 34.7862 3.84675 34.7617 3.80281C34.5395 3.79494 34.707 3.84743 34.5694 3.87516C34.4092 3.88076 34.3808 3.81507 34.163 3.84351L34.1643 3.87889C34.0598 3.87108 33.9995 3.84505 33.8575 3.83751L33.8998 3.85478C33.6689 3.77741 33.6105 3.95345 33.43 3.79722C33.333 3.82457 33.1488 3.7987 33.1575 3.87029C32.8692 3.81992 32.6454 3.79544 32.3588 3.76274C32.3128 3.8779 32.297 3.75447 32.1232 3.81889L32.1367 3.75695C31.732 3.74399 31.2662 3.89153 30.8204 3.86334L30.8079 3.92525L30.7191 3.85646C30.2386 3.88157 29.6171 3.89494 29.2337 3.89583C29.069 3.834 28.8939 3.80473 28.7181 3.80965L28.7392 3.81829C28.3768 3.77201 28.0107 3.76176 27.6463 3.78769C27.6701 3.81395 27.6322 3.83194 27.6745 3.84922C27.5845 3.78047 27.4524 3.84447 27.3712 3.84626L27.4665 3.80022C27.4145 3.77956 27.3582 3.7726 27.3028 3.78001C27.2474 3.78742 27.1948 3.80895 27.1502 3.84252L26.9791 3.77557C26.9678 3.78221 26.9504 3.79115 26.9487 3.80163L26.933 3.76988L26.8431 3.85116C26.8008 3.83388 26.5751 3.8126 26.5046 3.73379C26.4878 3.76042 26.3291 3.78159 26.4526 3.79708L25.8283 3.81888L25.9252 3.78945C25.9366 3.72758 25.7498 3.69138 25.6539 3.71766C25.7806 3.76741 25.6653 3.80582 25.6106 3.85148C25.5261 3.81797 25.6837 3.79684 25.6388 3.76298C25.5145 3.71911 25.3811 3.70728 25.251 3.7286L25.3144 3.75347C25.1698 3.73039 25.109 3.83879 24.9619 3.8335C24.8341 3.78379 24.7399 3.83084 24.7654 3.72368C24.5802 3.70201 24.6949 3.79594 24.6349 3.80638C24.5729 3.78491 24.5071 3.77712 24.4418 3.78354C24.3766 3.78995 24.3135 3.81042 24.2569 3.84354C24.1546 3.6877 23.7599 3.90049 23.722 3.76949L23.5714 3.84351C23.5641 3.80692 23.5442 3.77404 23.5152 3.75052C23.4863 3.72699 23.45 3.71431 23.4127 3.71465C23.2973 3.75306 23.3255 3.81459 23.2903 3.8502L23.2107 3.71962C22.5447 3.85957 21.6634 3.77366 20.9342 3.89706C20.563 3.85081 20.1891 3.82906 19.8151 3.83195L19.8573 3.84819L19.4795 3.88847L19.7533 3.82473C19.6791 3.80443 19.6029 3.79241 19.526 3.78891C19.0374 3.876 18.5398 3.90108 18.045 3.86355C17.7107 3.7179 17.8268 4.00036 17.5085 3.89479C17.536 3.90841 17.5462 3.92994 17.5706 3.94367C17.2766 3.91164 16.985 3.86092 16.6974 3.79183C16.7401 3.94037 16.4745 3.79129 16.5074 3.86932L16.4771 3.8089C16.4014 3.84697 16.2228 3.86363 16.2493 3.90646L16.0967 3.83365L16.0853 3.89656C15.8855 3.90354 15.459 3.86217 15.352 3.99093C14.7198 3.92902 14.083 3.92754 13.4505 3.98649C13.3176 3.94313 13.1776 3.92608 13.0382 3.93629L12.8888 4.01443C12.7444 3.99551 12.5881 3.90616 12.4555 3.95664C12.4562 3.96089 12.4581 3.96486 12.461 3.96807C12.4639 3.97129 12.4676 3.97363 12.4718 3.97482C12.3295 3.99072 12.1856 3.97948 12.0476 3.94171C11.8873 3.9473 11.7368 3.99319 11.7829 4.06035C11.7641 3.93806 11.4432 4.0868 11.4432 4.0868L10.1235 4.15684C9.31962 4.1995 8.22538 4.25126 7.06895 4.28226C5.09982 4.42311 3.12135 4.35671 1.1661 4.08415C1.09535 4.02724 0.906696 3.99528 0.974913 3.91996C0.829507 3.90316 0.76981 4.0136 0.737525 3.9543C0.932708 3.90477 0.669602 3.79935 0.858383 3.71566L0.734079 3.70645C0.706574 3.6647 0.904328 3.74844 0.870384 3.67148L0.909689 3.78263C0.980017 3.77533 1.04579 3.74438 1.09624 3.69485C1.19246 3.73525 1.25816 3.88611 1.47949 3.80962L1.41788 3.80552C1.60102 3.79912 1.52664 3.72775 1.56345 3.70771L1.52287 3.70912L1.67484 3.64547C1.55967 3.68908 1.36088 3.60538 1.46512 3.60695C1.68144 3.56606 1.40991 3.63701 1.5706 3.6439C1.67466 3.64027 1.64151 3.58621 1.63508 3.55101L1.81718 3.54465C1.80908 3.4918 1.69647 3.54886 1.76857 3.4953L2.00043 3.54138C2.03737 3.40569 2.25236 3.59509 2.35199 3.4645C2.18548 3.4401 2.36499 3.41925 2.33645 3.37753L2.74124 3.36339C2.77909 3.34332 2.63576 3.32644 2.69529 3.33062C2.76995 3.2905 2.8223 3.35744 2.86284 3.35498C2.89591 3.31736 3.16462 3.34444 3.15005 3.25535C3.42262 3.18436 3.27048 3.36262 3.52357 3.30065C3.55498 3.24538 3.31505 3.29647 3.43172 3.23614L3.69769 3.24456C3.68203 3.21871 3.65883 3.19828 3.6312 3.18601C3.60358 3.17375 3.57286 3.17025 3.54318 3.17598C4.11138 2.99419 4.69832 2.87723 5.29281 2.82733C5.38317 2.75958 5.22472 2.78699 5.15771 2.74766C5.63617 2.8143 5.82083 2.58281 6.22584 2.57491L6.23498 2.62773C6.85387 2.50894 7.48171 2.44275 8.11176 2.42987L8.03707 2.46895C8.14582 2.50682 8.25908 2.53019 8.37394 2.53845C8.3886 2.51085 8.29405 2.42872 8.48004 2.4441C8.44219 2.46418 8.36484 2.48667 8.3886 2.51085C9.24846 2.3785 10.1153 2.29605 10.9846 2.26391C12.204 2.27343 13.5223 2.13466 14.7198 2.14702C14.5375 2.1461 14.6201 2.27553 14.7544 2.24271C15.1257 2.01512 15.4075 2.26679 15.7916 2.10855C16.4473 2.06196 17.1056 2.06789 17.7603 2.12628L17.7717 2.06337C17.8675 2.03398 17.8951 2.07677 17.9963 2.08157L17.9957 2.06388C18.2354 2.03676 18.5271 2.09638 18.6646 2.06449L18.6743 2.13499C18.8172 2.13938 18.7474 2.07931 18.8946 2.11792L18.8934 2.08254L19.0654 2.14634C19.0465 2.02302 19.4681 2.13228 19.5838 2.07406C19.8539 2.1146 20.1273 2.12912 20.4001 2.11744C20.451 2.0542 20.7948 2.05157 21.0134 2.01789C21.44 2.03008 22.05 2.04628 22.5929 2.01899L22.5842 2.09848L22.7261 2.1029C22.7255 2.08521 22.7429 2.07627 22.7248 2.06752C22.8342 1.97618 23.0519 2.09465 23.1656 2.03754C23.0941 2.10984 23.0618 2.0495 22.9858 2.05111C22.8694 2.08956 22.9815 2.16587 23.1384 2.12601L23.1378 2.10832L23.2435 2.15047C23.2549 2.0886 23.3518 2.05917 23.3642 1.99727C23.7846 2.0498 24.2075 2.07989 24.6311 2.08743C24.5808 2.01834 24.9776 2.1045 24.8796 1.98394C25.1688 2.02906 24.833 2.08142 24.9652 2.1664C25.0453 2.1636 25.1309 2.19708 25.145 2.15283C25.1064 2.12396 25.2101 2.07971 25.142 2.06854L25.3351 2.07743C25.3535 2.06845 25.3112 2.05117 25.2891 2.04361C25.6832 2.11216 25.9864 1.963 26.34 2.03504C26.3666 2.07892 26.1998 2.04619 26.2263 2.09111C26.5817 2.18288 26.5362 2.01361 26.8718 2.07794L26.8031 2.01783C26.8513 2.0493 26.9058 2.06972 26.9628 2.07764C27.0198 2.08555 27.0779 2.08076 27.1329 2.06362C27.1637 1.99273 26.9829 2.0053 26.8982 1.96762C27.0189 1.96341 27.3249 1.98502 27.2323 2.04868C27.377 2.0728 27.43 2.00948 27.5074 1.99011C27.5081 2.0078 27.3726 2.03753 27.4571 2.07001C27.7032 2.03795 27.9514 2.02406 28.1995 2.02845C28.1989 2.01076 28.2136 1.9842 28.1977 1.97538C28.3872 2.09274 28.3661 1.93408 28.6325 1.95499Z" fill="black"/>
<path id="Vector_24" d="M41.4902 2.55956L41.3551 2.57052C41.3544 2.54971 41.3535 2.52474 41.2881 2.50098L41.4902 2.55956Z" fill="black"/>
<path id="Vector_25" d="M36.8691 2.48453C36.8522 2.47716 36.8362 2.46794 36.8213 2.45703C36.8538 2.46215 36.8647 2.47635 36.8691 2.48453Z" fill="black"/>
<path id="Vector_26" d="M35.7419 2.32422C35.8469 2.34764 35.7529 2.37072 35.6985 2.39346C35.6968 2.37476 35.7033 2.35161 35.7419 2.32422Z" fill="black"/>
<path id="Vector_27" d="M39.9672 2.97426C39.9439 2.96465 39.9299 2.95159 39.9344 2.93164C39.9653 2.94932 39.972 2.96263 39.9672 2.97426Z" fill="black"/>
<path id="Vector_28" d="M49.9328 3.12012L49.8926 3.13298C49.9045 3.12499 49.9184 3.12053 49.9328 3.12012Z" fill="black"/>
<path id="Vector_29" d="M49.3748 3.22096C49.3369 3.21938 49.2992 3.21335 49.2627 3.20299C49.301 3.19974 49.3395 3.20591 49.3748 3.22096Z" fill="black"/>
<path id="Vector_30" d="M42.3426 2.74376C42.3054 2.7415 42.2693 2.73025 42.2373 2.71098C42.275 2.71018 42.312 2.72169 42.3426 2.74376Z" fill="black"/>
<path id="Vector_31" d="M49.1481 3.18867L49.0086 3.19354C49.0078 3.18732 49.0076 3.18106 49.008 3.1748L49.1481 3.18867Z" fill="black"/>
<path id="Vector_32" d="M50.1074 3.11916C50.0491 3.11813 49.9907 3.12017 49.9326 3.12527C49.9886 3.10378 50.0501 3.10164 50.1074 3.11916Z" fill="black"/>
<path id="Vector_33" d="M43.6191 3.12659L43.6045 3.1271C43.4976 3.07874 43.565 3.09826 43.6191 3.12659Z" fill="black"/>
<path id="Vector_34" d="M48.5475 3.05546L48.5288 3.05611L48.4893 3.02832L48.5475 3.05546Z" fill="black"/>
<path id="Vector_35" d="M50.7061 3.10526C50.6821 3.10386 50.6588 3.09721 50.6377 3.08577L50.7168 3.08301C50.7114 3.08942 50.7077 3.09707 50.7061 3.10526Z" fill="black"/>
<path id="Vector_36" d="M45.7106 3.04199C45.7494 3.07919 45.7627 3.10268 45.7634 3.12141C45.7174 3.11781 45.6887 3.1011 45.7106 3.04199Z" fill="black"/>
</g>
</g>
<defs>
<clipPath id="clip0_5_2304">
<rect width="54.2201" height="5" fill="white" transform="translate(0.694336 0.748047)"/>
</clipPath>
</defs>
</svg>
