<svg width="29" height="26" viewBox="0 0 29 26" fill="none" xmlns="http://www.w3.org/2000/svg">
<g id="Frame">
<g id="Mask group">
<mask id="mask0_5_1751" style="mask-type:luminance" maskUnits="userSpaceOnUse" x="0" y="12" width="25" height="3">
<g id="Group">
<g id="Group_2">
<path id="Vector" d="M23.402 14.3701C23.402 14.2701 23.402 14.2701 23.402 14.3701V14.3701ZM24.402 14.2701C24.102 14.1701 23.802 14.2701 23.502 14.3701C23.702 14.3701 24.402 14.6701 24.402 14.2701ZM23.502 14.9701L23.802 14.8701C23.602 14.7701 23.702 14.9701 23.502 14.9701ZM23.502 14.6701V14.5701L23.302 14.6701H23.502ZM13.802 13.0701C13.802 12.9701 13.802 12.9701 13.802 12.8701V13.0701ZM13.502 13.3701C13.502 13.3701 13.402 13.3701 13.302 13.3701C13.402 13.4701 13.502 13.4701 13.502 13.3701ZM14.302 13.0701H14.202C14.202 13.0701 14.202 13.1701 14.302 13.0701ZM19.202 13.7701C19.302 13.6701 19.402 13.5701 19.502 13.5701C19.202 13.4701 19.302 13.6701 19.202 13.7701ZM11.702 14.5701L11.602 14.4701C11.602 14.4701 11.602 14.5701 11.702 14.5701ZM13.602 14.5701C13.602 14.4701 13.602 14.4701 13.602 14.3701V14.5701ZM14.602 13.2701L14.702 13.1701C14.602 13.1701 14.602 13.2701 14.602 13.2701ZM11.102 14.5701C11.102 14.6701 11.002 14.7701 11.002 14.7701C11.102 14.7701 11.102 14.6701 11.102 14.5701ZM14.302 14.4701C14.202 14.4701 14.202 14.4701 14.102 14.5701C14.202 14.5701 14.202 14.5701 14.302 14.4701Z" fill="white"/>
<path id="Vector_2" d="M5.40156 14.6703L5.80156 14.4703C5.80156 14.5703 6.00156 14.5703 5.90156 14.6703L6.00156 14.5703V14.6703C6.70156 14.8703 7.00156 14.1703 7.80156 14.6703L8.10156 14.4703C8.20156 14.4703 8.20156 14.6703 8.40156 14.7703C8.30156 14.5703 8.60156 14.7703 8.60156 14.5703C8.70156 14.6703 8.60156 14.6703 8.60156 14.7703C9.00156 14.9703 9.20156 14.6703 9.60156 14.7703C9.40156 14.6703 9.10156 14.5703 8.90156 14.4703C9.20156 14.3703 9.30156 14.5703 9.60156 14.4703L9.50156 14.5703C9.70156 14.8703 10.0016 14.4703 10.1016 14.7703C10.3016 14.7703 10.4016 14.4703 10.6016 14.4703V14.7703H10.8016V14.5703C10.9016 14.5703 10.9016 14.5703 10.9016 14.6703C11.0016 14.4703 11.2016 14.5703 11.4016 14.4703V14.5703C11.4016 14.5703 11.4016 14.5703 11.4016 14.4703C11.5016 14.6703 11.6016 14.5703 11.7016 14.6703C11.6016 14.6703 11.5016 14.7703 11.5016 14.6703C11.4016 14.8703 11.7016 14.7703 11.8016 14.7703C11.7016 14.6703 11.8016 14.6703 11.9016 14.6703C11.9016 14.6703 11.9016 14.6703 11.9016 14.7703C12.1016 14.8703 12.1016 14.4703 12.3016 14.7703V14.5703L12.5016 14.6703C12.4016 14.3703 12.7016 14.6703 12.7016 14.3703C12.9016 14.3703 12.7016 14.5703 12.8016 14.5703C13.0016 14.6703 13.2016 14.3703 13.3016 14.4703C13.4016 14.3703 13.6016 14.4703 13.7016 14.3703V14.4703C13.8016 14.4703 13.8016 14.3703 13.9016 14.3703C13.9016 14.3703 13.9016 14.3703 13.9016 14.4703C14.1016 14.3703 14.3016 14.3703 14.5016 14.3703C14.5016 14.4703 14.5016 14.5703 14.4016 14.5703C14.6016 14.6703 14.9016 14.3703 15.2016 14.4703V14.5703L15.3016 14.4703C15.3016 14.4703 15.3016 14.5703 15.3016 14.6703C15.6016 14.6703 15.9016 14.7703 16.0016 14.4703C15.9016 14.5703 16.2016 14.6703 16.0016 14.7703C16.3016 14.5703 16.6016 14.6703 16.9016 14.6703L17.0016 14.5703H16.9016C17.0016 14.5703 17.1016 14.4703 17.2016 14.4703C17.2016 14.5703 17.3016 14.6703 17.4016 14.6703C17.4016 14.4703 17.8016 14.8703 17.9016 14.6703C17.9016 14.6703 17.8016 14.6703 17.9016 14.7703C18.3016 14.7703 18.8016 14.5703 19.3016 14.7703C19.3016 14.4703 19.7016 14.5703 19.9016 14.3703C20.0016 14.5703 19.8016 14.4703 19.7016 14.5703C19.8016 14.5703 19.8016 14.7703 20.0016 14.6703V14.7703C20.1016 14.7703 19.9016 14.5703 20.2016 14.5703V14.6703L20.3016 14.4703C20.8016 14.5703 21.1016 14.4703 21.6016 14.6703C21.6016 14.6703 21.6016 14.5703 21.5016 14.5703C21.7016 14.5703 21.8016 14.3703 22.1016 14.5703V14.6703C22.5016 14.7703 22.4016 14.5703 22.8016 14.4703C22.7016 14.4703 22.5016 14.5703 22.5016 14.3703C22.5016 14.2703 22.7016 14.2703 22.8016 14.3703L22.7016 14.1703C22.7016 14.2703 22.5016 14.2703 22.4016 14.2703V14.1703C22.3016 14.2703 22.2016 14.1703 22.0016 14.2703H22.2016C22.2016 14.4703 21.9016 14.2703 21.8016 14.2703C21.8016 14.0703 21.9016 14.1703 21.7016 13.9703C21.4016 13.8703 21.5016 14.1703 21.3016 14.2703L21.4016 14.3703C21.3016 14.3703 21.3016 14.5703 21.1016 14.4703C21.1016 14.3703 21.2016 14.3703 21.2016 14.2703C21.2016 14.1703 21.1016 14.4703 20.9016 14.3703C21.0016 14.1703 21.2016 14.1703 21.4016 14.1703C21.4016 14.0703 21.4016 14.0703 21.4016 13.9703C20.9016 14.1703 20.4016 14.1703 19.9016 14.0703C20.1016 13.8703 19.8016 14.0703 19.8016 13.8703C19.8016 14.0703 19.6016 13.8703 19.5016 13.9703C19.4016 13.7703 19.7016 13.8703 19.6016 13.7703C19.4016 13.7703 19.1016 14.0703 18.7016 13.9703C18.7016 13.8703 18.8016 13.8703 18.8016 13.8703C18.6016 13.8703 18.4016 14.2703 18.2016 13.9703C18.3016 13.8703 18.4016 13.7703 18.5016 13.6703C18.4016 13.6703 18.4016 13.6703 18.4016 13.5703L18.5016 13.4703C18.2016 13.3703 18.4016 13.7703 18.2016 13.8703L18.0016 13.6703C17.7016 13.5703 17.4016 13.5703 17.3016 13.8703C17.2016 13.8703 17.0016 13.8703 17.1016 13.6703C17.2016 13.4703 17.2016 13.2703 17.5016 13.3703C17.6016 13.5703 17.3016 13.5703 17.4016 13.5703C17.5016 13.5703 17.8016 13.6703 17.8016 13.5703H17.5016C17.5016 13.3703 17.6016 13.5703 17.7016 13.4703C17.6016 13.2703 17.4016 13.4703 17.3016 13.3703C17.1016 13.3703 17.1016 13.3703 16.8016 13.4703C16.8016 13.6703 16.9016 13.5703 17.1016 13.6703C16.7016 13.6703 16.2016 13.9703 15.7016 13.6703L15.9016 13.4703C15.7016 13.4703 15.5016 13.5703 15.5016 13.3703C15.7016 13.4703 15.6016 13.2703 15.7016 13.2703C15.7016 13.2703 15.8016 13.2703 15.7016 13.1703C15.6016 13.2703 15.4016 13.3703 15.3016 13.4703C15.4016 13.3703 15.2016 13.3703 15.2016 13.2703C15.1016 13.2703 15.2016 13.3703 15.2016 13.4703C15.1016 13.4703 15.0016 13.5703 14.9016 13.4703C14.8016 13.3703 15.0016 13.3703 15.0016 13.2703L14.6016 13.4703C14.6016 13.4703 14.5016 13.5703 14.5016 13.4703C14.4016 13.3703 14.5016 13.3703 14.6016 13.3703C14.3016 13.1703 14.3016 13.6703 14.0016 13.3703L13.9016 13.4703V13.3703L13.8016 13.4703C13.6016 13.5703 13.7016 13.2703 13.6016 13.1703C13.5016 13.1703 13.5016 13.0703 13.5016 13.0703L13.3016 13.1703C13.2016 13.3703 12.9016 13.3703 13.0016 13.6703C12.9016 13.6703 12.9016 13.5703 12.9016 13.5703C12.7016 13.5703 12.9016 13.3703 12.6016 13.3703C12.6016 13.2703 12.6016 13.3703 12.7016 13.2703C12.6016 13.2703 12.6016 13.2703 12.6016 13.2703V13.1703C12.6016 13.2703 12.5016 13.2703 12.4016 13.2703L12.5016 13.0703C12.4016 13.1703 12.4016 13.1703 12.3016 13.1703L12.4016 13.0703C12.2016 13.0703 12.4016 13.3703 12.2016 13.1703L12.4016 13.2703C12.2016 13.2703 12.3016 13.5703 12.2016 13.6703C12.0016 13.8703 11.6016 13.4703 11.5016 13.8703C11.4016 13.7703 11.5016 13.6703 11.4016 13.5703C11.5016 13.5703 11.7016 13.4703 11.7016 13.2703C12.0016 13.0703 11.9016 13.7703 12.2016 13.4703C12.1016 13.2703 12.0016 13.2703 12.0016 13.3703C12.0016 13.2703 12.1016 13.1703 12.1016 13.0703C11.9016 13.1703 11.6016 12.9703 11.5016 12.9703C11.5016 13.0703 11.3016 13.1703 11.2016 13.0703C11.2016 13.1703 10.9016 13.2703 11.1016 13.4703C10.9016 13.4703 10.9016 13.1703 10.7016 13.3703C10.7016 13.1703 10.5016 13.2703 10.6016 13.0703C10.7016 13.2703 10.9016 12.9703 11.0016 12.8703L10.7016 12.7703C10.8016 12.8703 10.7016 12.9703 10.7016 12.9703L10.6016 12.7703C10.6016 13.1703 10.0016 12.4703 9.90156 12.8703C10.0016 12.8703 10.1016 12.9703 10.1016 12.7703C10.3016 12.8703 10.1016 13.0703 10.2016 13.1703C9.90156 13.2703 9.50156 13.0703 9.20156 13.2703C9.20156 13.1703 9.40156 13.1703 9.40156 13.0703C9.10156 12.9703 8.90156 13.2703 8.70156 13.4703V13.2703C8.50156 13.4703 8.60156 13.1703 8.40156 13.2703C8.40156 13.2703 8.50156 13.3703 8.40156 13.3703C8.20156 13.3703 8.30156 13.1703 8.20156 13.1703C8.00156 13.4703 8.00156 12.9703 7.80156 13.0703V12.9703C7.60156 13.0703 7.20156 12.7703 6.90156 12.7703C6.90156 12.7703 7.10156 12.7703 7.10156 12.9703H6.80156C6.80156 12.9703 6.60156 12.8703 6.70156 12.7703H6.80156L6.70156 12.6703C6.40156 12.7703 6.80156 12.9703 6.80156 13.1703C6.60156 13.0703 6.60156 13.2703 6.50156 13.2703C6.40156 13.0703 6.70156 13.0703 6.50156 12.8703C6.40156 12.7703 6.10156 12.8703 6.00156 13.0703C5.60156 12.8703 5.20156 13.1703 5.10156 12.8703C5.10156 12.8703 5.10156 12.9703 5.00156 12.9703V12.8703C4.70156 12.7703 4.80156 13.1703 4.70156 13.0703C4.70156 12.9703 4.70156 12.9703 4.70156 12.9703C4.40156 12.8703 4.30156 13.3703 4.00156 13.1703V13.0703H3.90156L4.10156 13.1703C4.00156 13.5703 3.60156 12.9703 3.40156 13.0703C3.40156 12.9703 3.60156 12.9703 3.50156 12.8703C3.30156 12.8703 3.40156 13.2703 3.20156 13.0703C3.30156 13.0703 3.20156 12.8703 3.30156 12.7703C3.20156 12.7703 3.10156 12.6703 3.00156 12.7703L2.90156 12.6703C2.80156 12.7703 2.70156 12.6703 2.60156 12.6703V12.5703C2.50156 12.9703 2.30156 12.5703 2.10156 12.5703V12.4703C2.00156 12.4703 1.90156 12.6703 1.70156 12.4703V12.3703C1.60156 12.4703 1.30156 12.2703 1.30156 12.4703C1.20156 12.4703 1.40156 12.2703 1.20156 12.2703C1.20156 12.3703 1.10156 12.3703 1.00156 12.3703C1.00156 12.3703 1.00156 12.3703 0.901563 12.3703C0.901563 12.2703 0.901562 12.2703 1.00156 12.2703C1.00156 12.2703 1.00156 12.2703 1.00156 12.3703V12.2703C0.801562 12.1703 0.901563 12.3703 0.701563 12.2703C0.701563 12.1703 0.701563 12.1703 0.701563 12.0703L0.101562 12.2703C0.101562 12.3703 0.201563 12.3703 0.201563 12.5703H0.401563C0.501563 12.7703 0.301563 12.7703 0.301563 12.7703H0.401563H0.501563C0.501563 13.1703 1.10156 13.1703 0.901563 13.3703C1.00156 13.3703 1.00156 13.2703 1.10156 13.1703C1.10156 13.1703 1.10156 13.2703 1.20156 13.2703L1.00156 13.3703C1.30156 13.3703 1.00156 13.5703 1.30156 13.6703C1.50156 13.5703 1.80156 14.0703 2.00156 14.0703C2.30156 14.0703 1.80156 13.8703 2.00156 13.7703C2.10156 13.7703 2.10156 13.8703 2.20156 13.8703V13.6703C2.40156 13.6703 2.30156 13.8703 2.30156 13.7703C2.50156 13.8703 2.30156 13.8703 2.30156 13.9703C2.30156 13.9703 2.50156 13.8703 2.50156 13.9703C2.50156 14.0703 2.30156 14.0703 2.50156 14.0703C2.90156 13.9703 3.10156 14.1703 3.50156 14.1703V14.2703C3.50156 14.2703 3.60156 14.1703 3.60156 14.2703V14.3703C3.80156 14.2703 4.10156 14.2703 4.30156 14.2703L4.10156 14.4703L4.30156 14.3703V14.5703C4.30156 14.3703 4.60156 14.4703 4.80156 14.4703V14.5703L4.90156 14.4703V14.5703C5.00156 14.5703 5.10156 14.3703 5.30156 14.4703C5.30156 14.3703 5.30156 14.5703 5.40156 14.6703ZM10.8016 14.4703C10.6016 14.3703 10.7016 14.4703 10.8016 14.4703V14.4703ZM19.4016 14.5703H19.2016C19.3016 14.6703 19.4016 14.5703 19.4016 14.5703C19.4016 14.6703 19.4016 14.6703 19.4016 14.5703ZM7.60156 14.2703C7.60156 14.0703 7.70156 14.2703 7.80156 14.1703C7.70156 14.2703 7.70156 14.4703 7.60156 14.2703ZM10.4016 14.2703C10.4016 14.3703 10.3016 14.3703 10.2016 14.4703C10.1016 14.4703 10.2016 14.3703 10.2016 14.2703H10.1016C10.1016 14.0703 10.3016 14.3703 10.4016 14.2703ZM14.0016 14.3703C14.1016 14.3703 14.2016 14.2703 14.2016 14.2703V14.1703C14.1016 14.1703 13.9016 14.1703 13.9016 14.2703C13.9016 14.1703 13.9016 14.4703 14.0016 14.3703ZM8.80156 13.9703C8.90156 13.9703 8.90156 13.6703 9.10156 13.7703L9.00156 13.8703V13.9703C9.00156 13.7703 8.90156 13.9703 8.80156 13.9703ZM15.2016 14.2703C15.3016 14.2703 15.4016 14.1703 15.4016 14.0703C15.4016 14.0703 15.4016 14.0703 15.4016 13.9703C15.4016 14.0703 15.2016 14.1703 15.2016 14.2703C15.1016 14.2703 15.1016 14.2703 15.2016 14.2703ZM15.0016 14.0703C14.9016 14.0703 14.9016 13.8703 14.8016 13.9703C14.8016 14.0703 14.9016 14.3703 14.7016 14.2703C14.8016 14.0703 14.8016 13.9703 14.9016 13.8703L15.0016 14.0703ZM14.8016 14.3703L14.6016 14.2703C14.7016 14.0703 14.7016 14.2703 14.8016 14.3703C14.9016 14.4703 14.9016 14.4703 14.8016 14.3703ZM16.5016 14.4703C16.5016 14.5703 16.5016 14.5703 16.4016 14.5703L16.5016 14.4703C16.4016 14.4703 16.3016 14.3703 16.5016 14.4703ZM15.0016 14.3703H15.2016C15.2016 14.3703 15.0016 14.2703 15.0016 14.3703ZM16.0016 14.2703C16.1016 14.2703 16.2016 14.2703 16.3016 14.2703C16.3016 14.3703 16.1016 14.3703 16.0016 14.2703ZM20.9016 14.4703L20.8016 14.3703H20.9016V14.4703ZM17.8016 13.9703C18.1016 14.1703 18.3016 14.1703 18.5016 14.1703C18.6016 14.2703 18.4016 14.3703 18.4016 14.4703C18.4016 13.9703 18.2016 14.4703 18.0016 14.2703C18.0016 14.2703 18.1016 14.2703 18.1016 14.1703C18.0016 14.1703 18.0016 14.0703 17.9016 14.1703V14.2703C17.9016 14.2703 17.9016 14.2703 17.9016 14.1703C17.9016 14.0703 17.9016 14.0703 17.8016 13.9703ZM15.9016 13.8703C15.9016 13.8703 16.0016 13.9703 15.9016 14.0703C15.8016 13.9703 15.8016 13.8703 15.9016 13.8703ZM15.9016 13.6703L15.7016 13.8703L15.8016 13.7703L15.6016 13.8703C15.6016 13.7703 15.7016 13.6703 15.8016 13.6703C15.8016 13.5703 15.9016 13.5703 15.9016 13.6703ZM12.8016 13.7703H12.7016C12.8016 13.6703 12.9016 13.6703 13.0016 13.6703C12.8016 13.3703 13.0016 13.7703 12.7016 13.5703C13.0016 13.5703 12.8016 13.3703 12.8016 13.2703C12.8016 13.4703 12.4016 13.3703 12.6016 13.7703C12.6016 13.6703 12.8016 14.0703 12.8016 13.7703ZM6.00156 13.2703C6.00156 13.0703 6.30156 13.2703 6.30156 13.3703C6.30156 13.2703 6.10156 13.2703 6.00156 13.2703ZM4.20156 13.2703C4.30156 13.2703 4.40156 13.0703 4.50156 13.2703L4.30156 13.3703C4.30156 13.2703 4.20156 13.3703 4.20156 13.2703ZM2.90156 13.1703V13.3703H3.00156L2.90156 13.1703ZM3.10156 12.8703C3.10156 12.8703 2.90156 12.8703 3.00156 12.9703L3.10156 12.8703ZM1.80156 13.0703V12.8703H1.70156L1.80156 13.0703ZM1.90156 13.1703V13.0703C1.90156 13.0703 2.00156 12.9703 2.10156 13.0703C2.10156 13.1703 2.00156 13.0703 2.00156 13.1703C2.00156 13.1703 2.10156 13.2703 2.20156 13.1703C2.10156 12.9703 2.10156 12.9703 2.10156 12.8703C1.90156 12.7703 1.90156 12.9703 1.90156 13.0703C1.90156 13.0703 1.90156 13.0703 1.90156 13.1703ZM2.60156 13.2703C2.60156 13.1703 2.60156 13.1703 2.60156 13.2703C2.40156 13.1703 2.30156 13.0703 2.40156 12.8703H2.50156C2.40156 12.8703 2.50156 12.8703 2.50156 12.9703C2.60156 13.0703 2.60156 12.9703 2.70156 12.8703C2.60156 12.9703 2.50156 13.0703 2.60156 13.2703C2.60156 13.1703 2.60156 13.1703 2.60156 13.2703C2.70156 13.1703 2.70156 13.1703 2.70156 13.2703C2.70156 13.2703 2.70156 13.1703 2.60156 13.2703C2.70156 13.2703 2.70156 13.2703 2.60156 13.2703ZM1.80156 13.2703V13.3703H1.70156L1.80156 13.2703ZM5.60156 13.3703C5.60156 13.3703 5.80156 13.3703 5.80156 13.2703L5.90156 13.4703C5.80156 13.4703 5.70156 13.5703 5.80156 13.5703C5.60156 13.4703 5.60156 13.5703 5.60156 13.3703ZM10.6016 13.5703C10.6016 13.6703 10.3016 13.4703 10.3016 13.6703C10.2016 13.4703 10.5016 13.5703 10.6016 13.5703ZM10.7016 13.8703C10.8016 13.7703 10.8016 13.6703 10.9016 13.7703H10.8016C10.9016 13.8703 10.9016 13.8703 10.7016 13.8703ZM7.90156 13.8703H8.00156L8.10156 13.7703L7.90156 13.8703ZM6.60156 14.0703C6.70156 13.9703 6.60156 13.8703 6.60156 13.8703C6.60156 13.8703 6.60156 13.8703 6.70156 13.8703C6.70156 13.8703 6.70156 13.8703 6.60156 13.8703C6.50156 13.8703 6.40156 13.8703 6.40156 13.9703C6.50156 13.8703 6.60156 13.8703 6.60156 14.0703ZM3.80156 14.0703C3.90156 14.0703 3.90156 13.9703 4.00156 14.0703C3.90156 14.0703 3.80156 14.0703 3.80156 14.0703ZM7.30156 14.1703C7.30156 14.0703 7.50156 14.0703 7.40156 13.9703H7.30156C7.40156 13.9703 7.30156 13.7703 7.50156 13.8703H7.40156C7.50156 13.9703 7.30156 14.0703 7.50156 14.0703C7.50156 14.1703 7.40156 14.2703 7.30156 14.1703ZM3.60156 14.2703C3.70156 14.2703 3.60156 13.9703 3.80156 14.1703C3.70156 14.1703 3.80156 14.3703 3.60156 14.2703Z" fill="white"/>
<path id="Vector_3" d="M5.80156 13.0707C5.80156 13.0707 5.70156 13.0707 5.60156 13.0707C5.70156 13.0707 5.80156 13.1707 5.80156 13.0707ZM22.2016 13.7707C22.3016 13.4707 22.1016 13.6707 22.0016 13.6707C22.1016 13.6707 22.2016 13.8707 22.2016 13.7707ZM21.6016 14.1707C21.6016 14.0707 21.7016 14.0707 21.8016 14.0707C21.7016 13.9707 21.6016 13.9707 21.6016 14.1707ZM22.2016 14.0707C22.1016 13.9707 21.9016 13.9707 21.8016 13.9707C21.9016 13.9707 22.0016 14.0707 22.2016 14.0707ZM19.5016 13.8707C19.6016 13.6707 19.8016 13.7707 19.8016 13.7707C19.3016 13.5707 19.8016 13.4707 19.9016 13.3707C19.6016 13.4707 19.6016 13.6707 19.5016 13.8707ZM18.6016 13.7707C18.4016 13.7707 18.4016 13.9707 18.4016 14.0707C18.6016 14.1707 18.7016 13.9707 18.9016 13.8707C18.7016 13.9707 18.6016 13.9707 18.6016 13.7707ZM17.8016 13.3707C17.8016 13.3707 17.9016 13.3707 17.9016 13.2707H17.6016C17.5016 13.2707 17.7016 13.2707 17.8016 13.3707ZM17.3016 13.5707C17.1016 13.5707 17.1016 13.2707 17.0016 13.3707L17.1016 13.7707L17.3016 13.5707ZM16.5016 13.3707L16.6016 12.9707C16.4016 13.0707 16.5016 13.3707 16.5016 13.3707ZM16.0016 13.1707L16.1016 13.0707L15.7016 13.1707H16.0016ZM8.50156 13.0707C8.50156 13.3707 9.00156 13.2707 9.10156 13.3707C9.00156 12.9707 8.80156 13.4707 8.50156 13.0707ZM6.30156 13.2707L6.70156 13.1707C6.30156 13.0707 6.60156 13.1707 6.30156 13.2707Z" fill="white"/>
</g>
</g>
</mask>
<g mask="url(#mask0_5_1751)">
<g id="Group_3">
<g id="Group_4">
<path id="Vector_4" d="M0.601562 12.2705C0.901563 12.6705 1.50156 12.8705 1.80156 13.2705C1.90156 13.3705 2.00156 13.3705 2.20156 13.4705C3.00156 13.7705 3.40156 14.0705 4.00156 13.8705C4.10156 13.8705 4.50156 14.0705 4.60156 13.9705C4.90156 13.5705 4.90156 13.9705 5.20156 13.9705C5.40156 13.9705 5.60156 13.9705 5.80156 13.8705C6.40156 13.7705 6.90156 13.7705 7.50156 13.8705C8.20156 14.0705 8.60156 13.6705 9.00156 13.9705C9.10156 14.0705 9.30156 13.9705 9.40156 13.8705C9.50156 13.8705 9.70156 13.8705 9.70156 13.7705C9.80156 13.7705 9.90156 13.5705 10.0016 13.5705C10.7016 13.7705 11.3016 13.6705 12.1016 13.7705C12.3016 13.7705 12.5016 13.7705 12.7016 13.8705C13.4016 13.9705 13.6016 13.6705 14.4016 13.7705C14.6016 13.7705 15.3016 13.8705 15.5016 13.8705C16.1016 13.7705 16.3016 14.0705 16.8016 14.1705C17.0016 14.1705 17.3016 14.1705 17.5016 14.0705C17.7016 13.9705 21.2016 14.2705 21.4016 14.1705" stroke="#1D1D1B" stroke-width="3" stroke-miterlimit="10" stroke-linejoin="round" stroke-dasharray="20 20"/>
</g>
</g>
</g>
</g>
<g id="Mask group_2">
<mask id="mask1_5_1751" style="mask-type:luminance" maskUnits="userSpaceOnUse" x="7" y="6" width="21" height="13">
<g id="Group_5">
<g id="Group_6">
<path id="Vector_5" d="M7.60148 18.2697C7.90148 18.2697 8.20148 18.1697 8.40148 17.9697C8.10148 17.9697 7.50148 17.8697 7.60148 18.2697ZM8.20148 17.2697L7.90148 17.4697C8.20148 17.5697 8.10148 17.3697 8.20148 17.2697ZM8.30148 17.6697L8.40148 17.7697L8.50148 17.5697L8.30148 17.6697ZM24.0015 15.8697C24.0015 15.9697 24.0015 16.0697 24.1015 16.0697L24.0015 15.8697ZM24.4015 15.0697L24.5015 14.9697C24.5015 14.9697 24.5015 14.9697 24.4015 15.0697ZM23.3015 15.9697H23.4015C23.4015 15.9697 23.4015 15.9697 23.3015 15.9697ZM15.5015 17.1697C15.4015 17.2697 15.4015 17.3697 15.3015 17.4697C15.6015 17.5697 15.5015 17.2697 15.5015 17.1697ZM25.8015 15.3697V15.2697C25.7015 15.2697 25.7015 15.3697 25.8015 15.3697ZM23.8015 13.1697C23.8015 13.2697 23.8015 13.2697 23.9015 13.2697L23.8015 13.1697ZM24.8015 15.2697C24.7015 15.3697 24.7015 15.3697 24.7015 15.4697C24.7015 15.4697 24.8015 15.3697 24.8015 15.2697ZM24.6015 14.9697C24.5015 14.9697 24.5015 14.9697 24.6015 14.9697V14.9697ZM15.5015 17.1697L15.6015 17.0697C15.5015 17.0697 15.5015 17.0697 15.5015 17.1697ZM9.30148 18.0697C9.40148 18.0697 9.40148 17.9697 9.40148 17.8697C9.40148 17.9697 9.30148 17.9697 9.30148 18.0697ZM11.4015 9.36973C11.5015 9.36973 11.5015 9.36973 11.4015 9.36973C11.4015 9.26973 11.5015 9.26973 11.4015 9.36973Z" fill="white"/>
<path id="Vector_6" d="M15.1012 13.5697L15.8012 13.3697C15.8012 13.4697 16.1012 13.6697 15.9012 13.7697L16.2012 13.5697V13.7697C17.3012 14.3697 18.2012 13.3697 19.3012 14.2697V14.3697L19.9012 14.1697C20.0012 14.2697 20.1012 14.5697 20.3012 14.6697C20.2012 14.3697 20.7012 14.6697 20.8012 14.4697C21.0012 14.6697 20.8012 14.6697 20.8012 14.7697C21.4012 15.1697 21.9012 14.7697 22.6012 15.1697C22.2012 14.8697 21.9012 14.6697 21.4012 14.4697C21.9012 14.3697 22.0012 14.7697 22.6012 14.7697L22.3012 14.8697C22.6012 15.3697 23.2012 14.7697 23.3012 15.3697C23.6012 15.3697 23.9012 14.9697 24.3012 15.0697L24.2012 15.4697L24.6012 15.5697V15.2697C24.7012 15.2697 24.8012 15.3697 24.8012 15.4697C25.0012 15.1697 25.4012 15.4697 25.8012 15.2697L25.9012 15.4697C25.9012 15.4697 25.9012 15.3697 26.0012 15.3697C26.1012 15.6697 26.4012 15.5697 26.4012 15.8697C26.3012 15.8697 26.0012 15.9697 26.0012 15.8697C25.7012 16.0697 26.4012 16.0697 26.6012 16.1697C26.4012 15.9697 26.6012 15.9697 26.8012 15.9697V16.0697C26.8012 16.0697 26.9012 16.0697 26.9012 16.1697L26.0012 12.3697C25.8012 12.4697 25.9012 12.9697 25.5012 12.5697L25.6012 12.8697L25.3012 12.7697C25.5012 13.3697 25.0012 12.8697 25.1012 13.4697C24.8012 13.5697 25.0012 13.1697 24.9012 13.2697C24.6012 13.2697 24.3012 13.8697 24.1012 13.5697C23.9012 13.8697 23.6012 13.7697 23.5012 13.9697L23.4012 13.7697C23.3012 13.8697 23.2012 13.9697 23.1012 13.9697V13.8697C22.8012 14.0697 22.5012 14.1697 22.1012 14.2697C22.1012 14.0697 22.0012 13.9697 22.2012 13.8697C21.8012 13.6697 21.5012 14.3697 21.0012 14.3697V14.2697L20.6012 14.1697C20.6012 14.0697 20.6012 13.9697 20.5012 13.8697C20.0012 13.9697 19.5012 14.0697 19.4012 14.5697C19.5012 14.4697 19.1012 14.3697 19.3012 14.0697C19.0012 14.4697 18.4012 14.5697 17.9012 14.7697L17.7012 14.9697L17.8012 14.8697C17.6012 14.9697 17.5012 15.0697 17.3012 15.2697C17.2012 15.1697 17.1012 14.9697 16.9012 14.9697C17.0012 15.2697 16.2012 14.8697 16.1012 15.1697C16.0012 15.0697 16.2012 15.0697 16.1012 14.9697C15.5012 15.1697 14.7012 15.7697 13.9012 15.6697C14.1012 16.2697 13.4012 16.2697 13.1012 16.5697C12.9012 16.2697 13.3012 16.3697 13.3012 16.0697C13.1012 16.1697 13.1012 15.6697 12.8012 15.9697C12.8012 15.8697 12.8012 15.8697 12.9012 15.8697C12.7012 15.8697 13.1012 16.2697 12.7012 16.2697L12.6012 16.0697L12.5012 16.4697C11.7012 16.4697 11.2012 16.7697 10.5012 16.6697C10.5012 16.7697 10.6012 16.8697 10.6012 16.8697C10.3012 16.8697 10.1012 17.3697 9.70117 17.1697L9.80117 17.0697C9.20117 16.9697 9.40117 17.4697 8.80117 17.6697C8.90117 17.6697 9.20117 17.4697 9.30117 17.6697C9.30117 17.8697 9.00117 17.8697 8.80117 17.7697L9.00117 18.0697C9.00117 17.8697 9.30117 17.8697 9.40117 17.6697C9.40117 17.6697 9.40117 17.7697 9.40117 17.8697C9.60117 17.7697 9.70117 17.6697 9.90117 17.5697H9.60117C9.60117 17.2697 10.1012 17.4697 10.2012 17.3697C10.3012 17.6697 10.1012 17.6697 10.4012 17.8697C11.0012 17.8697 10.6012 17.4697 11.0012 17.1697L10.9012 17.0697C11.0012 16.9697 11.1012 16.6697 11.4012 16.8697C11.5012 17.0697 11.3012 17.0697 11.2012 17.2697C11.3012 17.3697 11.4012 16.8697 11.6012 17.0697C11.5012 17.3697 11.3012 17.5697 10.9012 17.5697C11.0012 17.6697 11.0012 17.7697 11.0012 17.8697C11.7012 17.3697 12.4012 17.0697 13.2012 16.9697C12.9012 17.4697 13.4012 16.9697 13.4012 17.3697C13.4012 17.0697 13.7012 17.2697 13.9012 17.1697C14.1012 17.4697 13.6012 17.4697 13.8012 17.6697C14.2012 17.4697 14.5012 16.8697 15.1012 16.8697C15.1012 16.9697 15.0012 17.0697 15.0012 17.0697C15.3012 16.8697 15.5012 16.0697 15.9012 16.5697C15.8012 16.7697 15.7012 16.9697 15.6012 17.1697C15.6012 17.1697 15.7012 17.1697 15.8012 17.2697V17.4697C16.2012 17.4697 15.9012 16.9697 16.1012 16.5697L16.5012 16.8697C17.0012 16.9697 17.4012 16.6697 17.5012 16.1697C17.6012 16.1697 17.9012 16.0697 17.9012 16.3697C17.8012 16.7697 17.8012 17.0697 17.3012 17.1697C17.1012 16.8697 17.5012 16.7697 17.4012 16.7697C17.2012 16.8697 16.8012 16.7697 16.7012 16.9697L17.2012 16.8697C17.3012 17.2697 17.0012 16.9697 17.0012 17.1697C17.3012 17.4697 17.4012 17.0697 17.7012 17.1697C18.1012 16.9697 18.0012 17.0697 18.4012 16.8697C18.3012 16.4697 18.2012 16.6697 17.9012 16.5697C18.5012 16.3697 19.1012 15.5697 20.0012 15.9697L19.7012 16.3697C20.0012 16.3697 20.3012 15.9697 20.4012 16.3697C20.1012 16.2697 20.3012 16.5697 20.2012 16.6697C20.2012 16.6697 20.1012 16.7697 20.2012 16.8697C20.4012 16.5697 20.6012 16.3697 20.8012 16.1697C20.7012 16.2697 21.0012 16.3697 21.1012 16.4697C21.3012 16.3697 21.0012 16.2697 21.0012 16.1697C21.1012 16.1697 21.2012 15.7697 21.4012 16.0697C21.6012 16.2697 21.3012 16.3697 21.3012 16.5697L21.8012 16.0697V16.1697C21.8012 16.0697 21.9012 15.9697 22.0012 16.0697C22.1012 16.1697 22.0012 16.2697 21.9012 16.2697C22.4012 16.4697 22.3012 15.5697 22.8012 15.9697L22.9012 15.7697L23.0012 15.8697L23.1012 15.6697C23.4012 15.4697 23.3012 15.9697 23.5012 16.0697C23.6012 16.0697 23.8012 16.2697 23.7012 16.2697L24.0012 15.9697C24.0012 15.6697 24.6012 15.4697 24.3012 14.8697C24.4012 14.8697 24.5012 14.9697 24.5012 15.0697C24.8012 14.9697 24.6012 15.4697 25.0012 15.2697C25.0012 15.3697 25.0012 15.3697 24.9012 15.3697C25.0012 15.3697 25.1012 15.2697 25.1012 15.2697C25.1012 15.3697 25.2012 15.3697 25.2012 15.4697C25.1012 15.2697 25.3012 15.2697 25.4012 15.2697V15.6697C25.4012 15.5697 25.5012 15.3697 25.7012 15.3697C25.7012 15.3697 25.7012 15.3697 25.8012 15.3697V15.6697C26.1012 15.4697 25.6012 15.1697 26.1012 15.2697L25.6012 15.1697C26.0012 14.9697 25.7012 14.5697 25.8012 14.3697C26.0012 14.0697 26.3012 14.1697 26.6012 14.0697V13.9697C26.4012 13.9697 26.2012 14.0697 26.2012 14.1697C26.1012 13.9697 26.2012 13.8697 26.0012 13.6697C26.2012 13.6697 26.5012 13.5697 26.5012 13.2697L26.9012 14.6697C26.5012 15.0697 26.4012 13.8697 26.1012 14.4697C26.2012 14.7697 26.4012 14.6697 26.5012 14.5697C26.6012 14.7697 26.5012 14.9697 26.4012 15.1697C26.6012 15.0697 26.8012 15.0697 27.0012 15.0697L26.4012 12.8697C26.3012 12.7697 26.1012 12.7697 26.0012 12.6697C25.9012 12.7697 25.6012 12.8697 25.5012 12.7697C25.5012 12.9697 25.0012 12.9697 25.2012 13.3697C24.8012 13.3697 24.9012 12.7697 24.6012 13.1697C24.7012 12.8697 24.3012 12.8697 24.5012 12.6697C24.7012 12.9697 25.0012 12.5697 25.2012 12.4697L24.6012 12.1697C24.7012 12.2697 24.6012 12.4697 24.5012 12.4697L24.4012 12.1697C24.4012 12.7697 23.4012 11.4697 23.2012 12.1697C23.4012 12.1697 23.5012 12.4697 23.6012 12.0697C23.9012 12.3697 23.6012 12.5697 23.7012 12.7697C23.2012 12.8697 22.4012 12.3697 21.9012 12.6697C22.0012 12.4697 22.2012 12.5697 22.2012 12.2697C21.8012 12.0697 21.3012 12.5697 20.9012 12.6697L21.0012 12.3697C20.6012 12.5697 20.8012 12.1697 20.4012 12.2697C20.4012 12.2697 20.5012 12.4697 20.4012 12.4697C20.1012 12.3697 20.3012 12.1697 20.1012 12.0697C19.7012 12.4697 19.9012 11.6697 19.3012 11.8697V11.7697C18.9012 11.8697 18.3012 11.2697 17.8012 11.1697C17.8012 11.2697 18.2012 11.2697 18.2012 11.5697H17.6012C17.6012 11.4697 17.3012 11.3697 17.4012 11.2697C17.5012 11.2697 17.6012 11.3697 17.6012 11.3697L17.5012 11.1697C17.0012 11.2697 17.6012 11.6697 17.6012 11.9697C17.3012 11.7697 17.2012 12.0697 17.0012 12.0697C16.9012 11.7697 17.3012 11.7697 17.1012 11.4697C16.9012 11.2697 16.4012 11.3697 16.2012 11.6697C15.9012 10.8697 15.1012 11.2697 15.0012 10.6697C15.0012 10.6697 14.9012 10.8697 14.8012 10.7697L14.9012 10.6697C14.5012 10.3697 14.5012 11.0697 14.3012 10.8697C14.3012 10.7697 14.4012 10.7697 14.4012 10.6697C13.9012 10.3697 13.6012 11.1697 13.1012 10.6697C13.1012 10.5697 13.1012 10.5697 13.2012 10.5697C13.2012 10.4697 13.1012 10.4697 13.0012 10.5697L13.2012 10.8697C13.1012 11.1697 12.6012 10.1697 12.1012 10.1697C12.1012 10.0697 12.5012 10.1697 12.3012 9.96973C12.0012 9.86973 12.0012 10.5697 11.7012 10.1697C11.9012 10.1697 11.8012 9.76973 12.0012 9.76973C11.8012 9.66973 11.6012 9.46973 11.6012 9.66973C11.5012 9.56973 11.5012 9.56973 11.5012 9.46973C11.3012 9.56973 11.1012 9.26973 10.9012 9.16973V9.06973C10.6012 9.56973 10.4012 8.96973 10.1012 8.86973L10.2012 8.66973C10.0012 8.76973 9.70117 8.66973 9.60117 8.46973L9.70117 8.26973C9.50117 8.36973 9.20117 7.86973 9.00117 8.16973C8.90117 8.06973 9.20117 7.86973 8.90117 7.66973C8.80117 7.76973 8.60117 7.76973 8.50117 7.66973C8.50117 7.66973 8.50117 7.56973 8.40117 7.56973C8.40117 7.46973 8.50117 7.36973 8.50117 7.46973C8.60117 7.46973 8.50117 7.46973 8.50117 7.56973L8.60117 7.46973C8.50117 7.26973 8.50117 7.56973 8.20117 7.36973C8.20117 7.16973 8.30117 7.16973 8.40117 7.06973C8.40117 7.06973 8.10117 7.06973 7.90117 6.96973H7.40117C7.40117 7.06973 7.50117 7.26973 7.30117 7.36973L7.60117 7.56973C7.70117 7.86973 7.40117 7.76973 7.20117 7.76973L7.40117 7.86973V7.96973L7.60117 8.06973C7.10117 8.16973 8.10117 8.76973 7.50117 8.76973C7.60117 8.76973 7.80117 8.76973 7.90117 8.66973C8.20117 8.66973 8.10117 8.86973 8.20117 8.96973H7.80117C8.40117 9.26973 7.70117 9.26973 8.10117 9.66973C8.60117 9.76973 8.80117 10.5697 9.10117 10.7697C9.60117 10.9697 8.90117 10.3697 9.30117 10.3697C9.60117 10.4697 9.40117 10.5697 9.60117 10.7697L9.70117 10.4697C10.0012 10.5697 9.70117 10.7697 9.90117 10.7697C10.1012 11.0697 9.80117 10.8697 9.70117 11.0697C9.90117 10.9697 10.1012 11.0697 10.2012 11.1697C10.2012 11.2697 9.90117 11.1697 10.1012 11.2697C10.9012 11.3697 11.1012 11.8697 11.8012 12.0697L11.7012 12.1697C11.8012 12.1697 11.8012 12.0697 11.9012 12.1697V12.2697C12.3012 12.2697 12.8012 12.3697 13.2012 12.4697L13.0012 12.5697L13.4012 12.4697V12.7697C13.5012 12.4697 14.0012 12.8697 14.4012 12.8697V13.0697L14.6012 12.9697L14.5012 13.1697C14.7012 13.1697 15.0012 12.9697 15.3012 13.1697C15.1012 13.0697 15.1012 13.3697 15.1012 13.5697ZM24.7012 15.0697H24.8012C24.8012 15.1697 24.7012 15.1697 24.7012 15.0697H24.5012C24.5012 14.8697 24.6012 15.0697 24.7012 15.0697ZM14.4012 15.8697L14.6012 15.7697C14.5012 15.7697 14.4012 15.8697 14.4012 15.7697C14.4012 15.7697 14.3012 15.7697 14.4012 15.8697ZM24.1012 13.0697L24.2012 12.9697L24.3012 13.1697L24.1012 13.0697ZM19.2012 13.7697C19.3012 13.4697 19.4012 13.8697 19.6012 13.7697C19.5012 13.7697 19.4012 14.0697 19.2012 13.7697ZM24.1012 14.5697C24.1012 14.7697 23.8012 14.7697 23.8012 14.8697C23.7012 14.7697 23.8012 14.6697 23.9012 14.5697C23.8012 14.5697 23.8012 14.5697 23.7012 14.5697C23.7012 14.1697 23.9012 14.7697 24.1012 14.5697ZM23.8012 13.6697L23.9012 13.4697H23.8012V13.6697ZM22.8012 13.7697C22.6012 13.8697 22.5012 13.9697 22.6012 14.1697C22.6012 14.1697 22.6012 14.2697 22.7012 14.2697C22.9012 14.1697 23.2012 14.1697 23.2012 13.8697C23.0012 14.0697 22.9012 13.4697 22.8012 13.7697ZM21.4012 13.6697C21.5012 13.6697 21.7012 13.1697 22.1012 13.5697L21.9012 13.6697H22.0012V13.8697C21.9012 13.3697 21.5012 13.6697 21.4012 13.6697ZM21.0012 14.5697C20.8012 14.6697 20.7012 14.9697 20.8012 15.1697C20.7012 14.9697 21.0012 14.6697 21.1012 14.4697C21.1012 14.5697 21.1012 14.5697 21.0012 14.5697ZM21.3012 14.8697C21.4012 14.8697 21.5012 15.1697 21.6012 14.8697C21.5012 14.6697 21.4012 14.2697 21.7012 14.2697C21.6012 14.6697 21.7012 14.7697 21.4012 15.0697L21.3012 14.8697ZM21.5012 14.0697L21.9012 14.1697C21.9012 14.5697 21.7012 14.1697 21.5012 14.0697H21.4012C21.4012 14.0697 21.4012 14.0697 21.5012 14.0697ZM19.0012 14.7697L19.1012 14.6697C19.1012 14.5697 19.1012 14.5697 19.2012 14.5697L19.1012 14.6697C19.1012 14.7697 19.3012 14.8697 19.0012 14.7697ZM21.2012 14.1697L20.9012 14.2697C21.0012 14.3697 21.2012 14.3697 21.2012 14.1697ZM19.7012 14.8697C19.5012 14.8697 19.4012 14.9697 19.2012 14.9697C19.3012 14.7697 19.6012 14.6697 19.7012 14.8697ZM12.1012 16.6697L12.3012 16.8697L12.1012 16.9697V16.6697ZM14.4012 16.5697H14.5012L14.6012 16.6697L14.4012 16.5697ZM17.0012 16.2697C17.0012 16.2697 16.9012 16.2697 16.9012 16.1697C16.6012 16.0697 16.3012 16.0697 16.0012 16.1697C15.8012 16.0697 16.1012 15.7697 16.1012 15.6697C16.3012 16.5697 16.4012 15.5697 16.7012 15.7697C16.7012 15.8697 16.5012 15.8697 16.5012 15.9697C16.6012 16.0697 16.7012 16.0697 16.8012 15.9697C16.8012 15.8697 16.8012 15.8697 16.8012 15.8697V15.9697C16.8012 16.0697 16.8012 16.0697 16.9012 16.1697L17.0012 16.2697ZM20.1012 15.5697C20.1012 15.4697 20.0012 15.4697 20.1012 15.2697C20.2012 15.3697 20.2012 15.4697 20.1012 15.5697C20.1012 15.5697 20.1012 15.6697 20.0012 15.6697C20.0012 15.6697 20.1012 15.6697 20.1012 15.5697ZM20.1012 16.0697L20.4012 15.6697L20.3012 15.8697L20.5012 15.6697C20.6012 15.8697 20.5012 16.0697 20.3012 16.0697C20.2012 16.0697 20.2012 16.0697 20.1012 16.0697ZM24.8012 14.2697H25.0012C24.9012 14.3697 24.8012 14.4697 24.6012 14.5697C25.1012 15.0697 24.6012 14.4697 25.1012 14.5697C24.6012 14.6697 25.0012 14.9697 25.1012 15.1697C25.1012 14.7697 25.7012 14.8697 25.3012 14.2697C25.2012 14.3697 24.7012 13.7697 24.8012 14.2697ZM16.7012 11.4697C16.8012 11.1697 17.2012 11.5697 17.2012 11.7697C17.1012 11.5697 16.9012 11.5697 16.7012 11.4697ZM13.6012 10.6697C13.8012 10.7697 14.0012 10.4697 14.1012 10.8697H13.7012C13.6012 10.7697 13.5012 10.8697 13.6012 10.6697ZM11.3012 9.86973L11.2012 10.1697H11.3012V9.86973ZM11.7012 9.66973C11.6012 9.66973 11.4012 9.66973 11.5012 9.76973L11.7012 9.66973ZM9.40117 9.06973L9.60117 8.76973L9.40117 8.66973V9.06973ZM9.50117 9.26973C9.50117 9.26973 9.60117 9.16973 9.60117 9.06973C9.70117 8.96973 9.80117 9.06973 9.90117 9.16973C9.90117 9.26973 9.80117 9.16973 9.70117 9.16973C9.80117 9.16973 9.80117 9.36973 10.0012 9.36973C9.90117 9.16973 10.0012 9.16973 10.0012 8.96973C9.60117 8.66973 9.60117 8.96973 9.60117 9.16973C9.50117 9.16973 9.50117 9.26973 9.50117 9.26973ZM10.7012 9.86973C10.7012 9.86973 10.6012 9.76973 10.6012 9.66973C10.4012 9.46973 10.2012 9.36973 10.4012 9.16973L10.6012 9.26973C10.5012 9.26973 10.5012 9.26973 10.5012 9.36973C10.6012 9.56973 10.7012 9.36973 10.9012 9.36973C10.8012 9.46973 10.6012 9.46973 10.6012 9.76973C10.7012 9.76973 10.7012 9.86973 10.8012 9.86973C10.8012 9.86973 10.9012 9.86973 10.9012 9.96973V10.0697C10.9012 9.96973 10.8012 9.96973 10.8012 9.96973C10.8012 9.86973 10.8012 9.96973 10.7012 9.86973ZM9.30117 9.46973C9.30117 9.46973 9.30117 9.56973 9.20117 9.66973H9.10117C9.00117 9.46973 9.20117 9.36973 9.30117 9.46973ZM15.9012 11.4697C15.9012 11.4697 16.3012 11.5697 16.3012 11.3697L16.4012 11.6697C16.2012 11.5697 16.1012 11.7697 16.1012 11.8697C15.9012 11.6697 15.8012 11.7697 15.9012 11.4697ZM24.7012 13.5697C24.6012 13.6697 24.2012 13.3697 24.1012 13.6697C23.9012 13.1697 24.5012 13.3697 24.7012 13.5697ZM24.9012 13.9697C25.0012 13.8697 25.0012 13.5697 25.2012 13.8697C25.1012 13.9697 25.0012 13.7697 25.0012 13.8697C25.0012 14.0697 25.0012 14.0697 24.9012 13.9697ZM19.8012 13.1697L20.1012 13.2697L20.2012 13.0697L19.8012 13.1697ZM17.5012 12.9697H17.7012L17.6012 12.8697C17.6012 12.7697 17.5012 12.6697 17.6012 12.6697C17.5012 12.6697 17.2012 12.5697 17.3012 12.7697C17.4012 12.6697 17.6012 12.7697 17.6012 12.9697H17.5012ZM12.5012 11.7697C12.6012 11.7697 12.6012 11.6697 12.8012 11.8697C12.7012 11.9697 12.5012 11.8697 12.5012 11.7697ZM18.7012 13.4697C18.7012 13.2697 19.0012 13.4697 18.9012 13.1697H18.7012C18.9012 13.2697 18.8012 12.7697 19.0012 13.0697L18.8012 12.9697C19.0012 13.0697 18.6012 13.2697 18.9012 13.3697C19.1012 13.4697 18.8012 13.5697 18.7012 13.4697ZM12.1012 12.0697C12.3012 12.0697 12.2012 11.6697 12.5012 11.9697C12.3012 11.9697 12.3012 12.3697 12.1012 12.0697Z" fill="white"/>
<path id="Vector_7" d="M12.1016 9.76992C12.1016 9.76992 12.0016 9.66992 11.9016 9.66992C12.0016 9.76992 12.1016 9.76992 12.1016 9.76992ZM25.5016 12.6699C25.5016 12.6699 25.5016 12.7699 25.6016 12.7699C25.5016 12.7699 25.5016 12.7699 25.5016 12.6699ZM9.60156 18.2699C9.60156 18.5699 9.70156 18.2699 9.80156 18.2699C9.70156 18.2699 9.60156 18.1699 9.60156 18.2699ZM9.60156 17.9699C9.70156 17.9699 9.80156 17.9699 10.0016 17.9699C9.90156 17.9699 9.70156 17.8699 9.60156 17.9699ZM12.0016 17.4699C12.0016 17.6699 11.7016 17.5699 11.7016 17.5699C12.2016 17.6699 11.7016 17.8699 11.7016 18.0699C12.0016 17.9699 11.9016 17.7699 12.0016 17.4699ZM12.6016 17.2699H12.5016C12.5016 17.2699 12.5016 17.2699 12.6016 17.2699ZM12.8016 17.3699C12.9016 17.2699 12.9016 17.0699 13.0016 16.9699C12.8016 16.8699 12.7016 17.1699 12.6016 17.2699C12.7016 17.2699 12.8016 17.1699 12.8016 17.3699ZM17.9016 17.2699C17.9016 17.2699 17.8016 17.2699 17.8016 17.3699L18.1016 17.2699C18.2016 17.2699 18.0016 17.2699 17.9016 17.2699ZM18.7016 16.5699C18.9016 16.4699 18.9016 16.7699 19.0016 16.6699L18.9016 16.3699L18.7016 16.5699ZM19.9016 16.6699V17.0699C20.0016 16.9699 19.9016 16.6699 19.9016 16.6699ZM20.7016 16.7699L20.6016 16.8699L20.9016 16.6699L20.7016 16.7699ZM20.9016 12.0699C20.9016 12.3699 21.3016 12.3699 21.5016 12.4699C21.3016 12.0699 21.1016 12.4699 20.9016 12.0699ZM12.5016 10.0699L12.9016 10.1699C12.6016 9.86992 12.9016 10.0699 12.5016 10.0699Z" fill="white"/>
</g>
</g>
</mask>
<g mask="url(#mask1_5_1751)">
<g id="Group_7">
<g id="Group_8">
<path id="Vector_8" d="M7.90117 7.06934C7.80117 7.46934 8.30117 8.26934 8.80117 8.86934C9.00117 9.16934 9.50117 9.66934 9.90117 9.86934C10.5012 10.2693 10.9012 10.3693 11.5012 10.7693C12.0012 11.0693 12.6012 11.4693 13.2012 11.3693C13.4012 11.3693 13.9012 11.5693 14.1012 11.5693C14.6012 11.6693 14.7012 11.7693 15.2012 11.8693C15.4012 11.8693 15.6012 11.8693 15.8012 11.9693L17.1012 12.4693C18.2012 12.6693 18.5012 12.9693 19.4012 13.0693C19.7012 13.0693 20.0012 13.1693 20.3012 13.2693C20.4012 13.2693 20.5012 13.3693 20.6012 13.3693C20.8012 13.4693 21.0012 13.3693 21.2012 13.3693C21.9012 13.2693 22.5012 13.2693 23.2012 13.3693C23.8012 13.4693 25.4012 12.9693 26.0012 13.8693C27.1012 15.6693 23.6012 14.6693 22.7012 14.9693C22.2012 15.1693 21.6012 15.3693 21.0012 15.5693C19.8012 15.9693 21.8012 15.2693 17.0012 16.0693C16.2012 16.1693 15.9012 16.0693 15.0012 16.4693C14.5012 16.6693 13.9012 16.7693 13.4012 16.7693C13.4012 16.8693 13.1012 16.7693 13.1012 16.7693C12.9012 16.7693 13.1012 17.0693 13.0012 17.0693C12.8012 17.0693 12.7012 17.0693 12.5012 17.0693C10.8012 17.0693 9.20117 17.6693 7.70117 18.2693" stroke="#1D1D1B" stroke-width="3" stroke-miterlimit="10" stroke-linejoin="round" stroke-dasharray="42 42"/>
</g>
</g>
</g>
</g>
</g>
</svg>
